999
dxfrw 0.5.10
0
SECTION
2
HEADER
9
$ACADVER
1
AC1021
9
$HANDSEED
5
20000
9
$DWGCODEPAGE
3
ANSI_1252
9
$INSBASE
10
0
20
0
30
0
9
$EXTMIN
10
-310.936550607
20
-265.826584716
30
0
9
$EXTMAX
10
761.194473013
20
502.475777489
30
0
9
$LIMMIN
10
-30
20
-20
9
$LIMMAX
10
30
20
20
9
$ORTHOMODE
70
0
9
$LTSCALE
40
1
9
$TEXTSTYLE
7
STANDARD
9
$CLAYER
8
0
9
$DIMASZ
40
6
9
$DIMLFAC
40
1
9
$DIMSCALE
40
1
9
$DIMEXO
40
0.05
9
$DIMEXE
40
0.2
9
$DIMTXT
40
8
9
$DIMTSZ
40
0
9
$DIMAUNIT
70
0
9
$DIMADEC
70
0
9
$DIMLUNIT
70
2
9
$DIMSTYLE
2
STANDARD
9
$DIMGAP
40
0.09
9
$DIMTIH
70
0
9
$LUNITS
70
2
9
$LUPREC
70
4
9
$AUNITS
70
0
9
$AUPREC
70
0
9
$SPLINESEGS
70
8
9
$GRIDMODE
70
1
9
$SNAPSTYLE
70
0
9
$GRIDUNIT
10
0
20
0
9
$PINSBASE
10
94.2910584799
20
76.5085474049
30
0
9
$PLIMMIN
10
0
20
0
9
$PLIMMAX
10
297
20
210
9
$INSUNITS
70
4
9
$PSVPSCALE
40
0.240790370312
0
ENDSEC
0
SECTION
2
CLASSES
0
ENDSEC
0
SECTION
2
TABLES
0
TABLE
2
VPORT
5
8
330
0
100
AcDbSymbolTable
70
1
0
VPORT
5
31
330
2
100
AcDbSymbolTableRecord
100
AcDbViewportTableRecord
2
*ACTIVE
70
0
10
0
20
0
11
1
21
1
12
739.159012531
22
244.882671981
13
0
23
0
14
10
24
10
15
10
25
10
16
0
26
0
36
1
17
0
27
0
37
0
40
1042.68464017
41
2.01236093943
42
50
43
0
44
0
50
0
51
0
71
0
72
100
73
1
74
3
75
0
76
1
77
0
78
0
281
0
65
1
110
0
120
0
130
0
111
1
121
0
131
0
112
0
122
1
132
0
79
0
146
0
348
10020
60
7
61
5
292
1
282
1
141
0
142
0
63
250
421
3358443
0
ENDTAB
0
TABLE
2
LTYPE
5
5
330
0
100
AcDbSymbolTable
70
4
0
LTYPE
5
14
330
5
100
AcDbSymbolTableRecord
100
AcDbLinetypeTableRecord
2
ByBlock
70
0
3

72
65
73
0
40
0
0
LTYPE
5
15
330
5
100
AcDbSymbolTableRecord
100
AcDbLinetypeTableRecord
2
ByLayer
70
0
3

72
65
73
0
40
0
0
LTYPE
5
16
330
5
100
AcDbSymbolTableRecord
100
AcDbLinetypeTableRecord
2
Continuous
70
0
3
Solid line
72
65
73
0
40
0
0
LTYPE
5
32
330
5
100
AcDbSymbolTableRecord
100
AcDbLinetypeTableRecord
2
DOT
70
0
3
Dot . . . . . . . . . . . . . . . . . . . . . .
72
65
73
2
40
6.35
49
0
74
0
49
-6.35
74
0
0
LTYPE
5
33
330
5
100
AcDbSymbolTableRecord
100
AcDbLinetypeTableRecord
2
DOT2
70
0
3
Dot (.5x) .....................................
72
65
73
2
40
3.175
49
0
74
0
49
-3.175
74
0
0
LTYPE
5
34
330
5
100
AcDbSymbolTableRecord
100
AcDbLinetypeTableRecord
2
DOTX2
70
0
3
Dot (2x) .  .  .  .  .  .  .  .  .  .  .  .  .
72
65
73
2
40
12.7
49
0
74
0
49
-12.7
74
0
0
LTYPE
5
35
330
5
100
AcDbSymbolTableRecord
100
AcDbLinetypeTableRecord
2
DASHED
70
0
3
Dot . . . . . . . . . . . . . . . . . . . . . .
72
65
73
2
40
19.05
49
12.7
74
0
49
-6.35
74
0
0
LTYPE
5
36
330
5
100
AcDbSymbolTableRecord
100
AcDbLinetypeTableRecord
2
DASHED2
70
0
3
Dashed (.5x) _ _ _ _ _ _ _ _ _ _ _ _ _ _ _ _ _
72
65
73
2
40
9.525
49
6.35
74
0
49
-3.175
74
0
0
LTYPE
5
37
330
5
100
AcDbSymbolTableRecord
100
AcDbLinetypeTableRecord
2
DASHEDX2
70
0
3
Dashed (2x) ____  ____  ____  ____  ____  ___
72
65
73
2
40
38.1
49
25.4
74
0
49
-12.7
74
0
0
LTYPE
5
38
330
5
100
AcDbSymbolTableRecord
100
AcDbLinetypeTableRecord
2
DASHDOT
70
0
3
Dash dot __ . __ . __ . __ . __ . __ . __ . __
72
65
73
4
40
25.4
49
12.7
74
0
49
-6.35
74
0
49
0
74
0
49
-6.35
74
0
0
LTYPE
5
39
330
5
100
AcDbSymbolTableRecord
100
AcDbLinetypeTableRecord
2
DASHDOT2
70
0
3
Dash dot (.5x) _._._._._._._._._._._._._._._.
72
65
73
4
40
12.7
49
6.35
74
0
49
-3.175
74
0
49
0
74
0
49
-3.175
74
0
0
LTYPE
5
3A
330
5
100
AcDbSymbolTableRecord
100
AcDbLinetypeTableRecord
2
DASHDOTX2
70
0
3
Dash dot (2x) ____  .  ____  .  ____  .  ___
72
65
73
4
40
50.8
49
25.4
74
0
49
-12.7
74
0
49
0
74
0
49
-12.7
74
0
0
LTYPE
5
3B
330
5
100
AcDbSymbolTableRecord
100
AcDbLinetypeTableRecord
2
DIVIDE
70
0
3
Divide ____ . . ____ . . ____ . . ____ . . ____
72
65
73
6
40
31.75
49
12.7
74
0
49
-6.35
74
0
49
0
74
0
49
-6.35
74
0
49
0
74
0
49
-6.35
74
0
0
LTYPE
5
3C
330
5
100
AcDbSymbolTableRecord
100
AcDbLinetypeTableRecord
2
DIVIDE2
70
0
3
Divide (.5x) __..__..__..__..__..__..__..__.._
72
65
73
6
40
15.875
49
6.35
74
0
49
-3.175
74
0
49
0
74
0
49
-3.175
74
0
49
0
74
0
49
-3.175
74
0
0
LTYPE
5
3D
330
5
100
AcDbSymbolTableRecord
100
AcDbLinetypeTableRecord
2
DIVIDEX2
70
0
3
Divide (2x) ________  .  .  ________  .  .  _
72
65
73
6
40
63.5
49
25.4
74
0
49
-12.7
74
0
49
0
74
0
49
-12.7
74
0
49
0
74
0
49
-12.7
74
0
0
LTYPE
5
3E
330
5
100
AcDbSymbolTableRecord
100
AcDbLinetypeTableRecord
2
BORDER
70
0
3
Border __ __ . __ __ . __ __ . __ __ . __ __ .
72
65
73
6
40
44.45
49
12.7
74
0
49
-6.35
74
0
49
12.7
74
0
49
-6.35
74
0
49
0
74
0
49
-6.35
74
0
0
LTYPE
5
3F
330
5
100
AcDbSymbolTableRecord
100
AcDbLinetypeTableRecord
2
BORDER2
70
0
3
Border (.5x) __.__.__.__.__.__.__.__.__.__.__.
72
65
73
6
40
22.225
49
6.35
74
0
49
-3.175
74
0
49
6.35
74
0
49
-3.175
74
0
49
0
74
0
49
-3.175
74
0
0
LTYPE
5
40
330
5
100
AcDbSymbolTableRecord
100
AcDbLinetypeTableRecord
2
BORDERX2
70
0
3
Border (2x) ____  ____  .  ____  ____  .  ___
72
65
73
6
40
88.9
49
25.4
74
0
49
-12.7
74
0
49
25.4
74
0
49
-12.7
74
0
49
0
74
0
49
-12.7
74
0
0
LTYPE
5
41
330
5
100
AcDbSymbolTableRecord
100
AcDbLinetypeTableRecord
2
CENTER
70
0
3
Center ____ _ ____ _ ____ _ ____ _ ____ _ ____
72
65
73
4
40
50.8
49
31.75
74
0
49
-6.35
74
0
49
6.35
74
0
49
-6.35
74
0
0
LTYPE
5
42
330
5
100
AcDbSymbolTableRecord
100
AcDbLinetypeTableRecord
2
CENTER2
70
0
3
Center (.5x) ___ _ ___ _ ___ _ ___ _ ___ _ ___
72
65
73
4
40
28.575
49
19.05
74
0
49
-3.175
74
0
49
3.175
74
0
49
-3.175
74
0
0
LTYPE
5
43
330
5
100
AcDbSymbolTableRecord
100
AcDbLinetypeTableRecord
2
CENTERX2
70
0
3
Center (2x) ________  __  ________  __  _____
72
65
73
4
40
101.6
49
63.5
74
0
49
-12.7
74
0
49
12.7
74
0
49
-12.7
74
0
0
ENDTAB
0
TABLE
2
LAYER
5
2
330
0
100
AcDbSymbolTable
70
1
0
LAYER
5
10
330
2
100
AcDbSymbolTableRecord
100
AcDbLayerTableRecord
2
0
70
0
62
7
6
CONTINUOUS
370
-3
390
F
0
LAYER
5
44
330
2
100
AcDbSymbolTableRecord
100
AcDbLayerTableRecord
2
LAYOUT_TEXT
70
4
62
7
6
CONTINUOUS
370
30
390
F
0
LAYER
5
45
330
2
100
AcDbSymbolTableRecord
100
AcDbLayerTableRecord
2
LAYOUT_BLOCK
70
4
62
7
6
CONTINUOUS
370
30
390
F
0
LAYER
5
46
330
2
100
AcDbSymbolTableRecord
100
AcDbLayerTableRecord
2
DIMENSION
70
0
62
5
6
CONTINUOUS
370
0
390
F
0
LAYER
5
47
330
2
100
AcDbSymbolTableRecord
100
AcDbLayerTableRecord
2
1
70
0
62
7
6
CONTINUOUS
370
0
390
F
0
LAYER
5
48
330
2
100
AcDbSymbolTableRecord
100
AcDbLayerTableRecord
2
HELPER
70
4
62
16
420
8388608
6
DASHED2
370
0
390
F
0
ENDTAB
0
TABLE
2
STYLE
5
3
330
0
100
AcDbSymbolTable
70
3
0
STYLE
5
49
330
2
100
AcDbSymbolTableRecord
100
AcDbTextStyleTableRecord
2
standard
70
0
40
0
41
1
50
0
71
0
42
1
3
standard
4

0
ENDTAB
0
TABLE
2
VIEW
5
6
330
0
100
AcDbSymbolTable
70
0
0
ENDTAB
0
TABLE
2
UCS
5
7
330
0
100
AcDbSymbolTable
70
0
0
ENDTAB
0
TABLE
2
APPID
5
9
330
0
100
AcDbSymbolTable
70
1
0
APPID
5
12
330
9
100
AcDbSymbolTableRecord
100
AcDbRegAppTableRecord
2
ACAD
70
0
0
ENDTAB
0
TABLE
2
DIMSTYLE
5
A
330
0
100
AcDbSymbolTable
70
1
100
AcDbDimStyleTable
71
1
0
DIMSTYLE
105
4A
330
A
100
AcDbSymbolTableRecord
100
AcDbDimStyleTableRecord
2
Standard
70
0
40
1
41
6
42
0.05
43
0.38
44
0.2
45
0
46
0
47
0
48
0
140
8
141
0.09
142
0
143
25.4
144
1
145
0
146
1
147
0.09
148
0
71
0
72
0
73
0
74
1
75
0
76
0
77
0
78
0
79
0
170
0
171
2
172
0
173
0
174
0
175
0
176
0
177
0
178
0
179
0
271
4
272
4
273
2
274
2
275
0
276
0
277
2
278
46
279
0
280
0
281
0
282
0
283
1
284
0
285
0
286
0
288
0
289
3
340
Standard
341

371
-2
372
-2
0
ENDTAB
0
TABLE
2
BLOCK_RECORD
5
1
330
0
100
AcDbSymbolTable
70
2
0
BLOCK_RECORD
5
1F
330
1
100
AcDbSymbolTableRecord
100
AcDbBlockTableRecord
2
*Model_Space
70
0
280
1
281
0
0
BLOCK_RECORD
5
1E
330
1
100
AcDbSymbolTableRecord
100
AcDbBlockTableRecord
2
*Paper_Space
70
0
280
1
281
0
0
BLOCK_RECORD
5
4B
330
1
100
AcDbSymbolTableRecord
100
AcDbBlockTableRecord
2
*D2
70
0
280
1
281
0
0
BLOCK_RECORD
5
4E
330
1
100
AcDbSymbolTableRecord
100
AcDbBlockTableRecord
2
*D11
70
0
280
1
281
0
0
BLOCK_RECORD
5
51
330
1
100
AcDbSymbolTableRecord
100
AcDbBlockTableRecord
2
*D15
70
0
280
1
281
0
0
BLOCK_RECORD
5
54
330
1
100
AcDbSymbolTableRecord
100
AcDbBlockTableRecord
2
*D3
70
0
280
1
281
0
0
BLOCK_RECORD
5
57
330
1
100
AcDbSymbolTableRecord
100
AcDbBlockTableRecord
2
*D5
70
0
280
1
281
0
0
BLOCK_RECORD
5
5A
330
1
100
AcDbSymbolTableRecord
100
AcDbBlockTableRecord
2
*D9
70
0
280
1
281
0
0
BLOCK_RECORD
5
5D
330
1
100
AcDbSymbolTableRecord
100
AcDbBlockTableRecord
2
*D13
70
0
280
1
281
0
0
BLOCK_RECORD
5
60
330
1
100
AcDbSymbolTableRecord
100
AcDbBlockTableRecord
2
*D14
70
0
280
1
281
0
0
BLOCK_RECORD
5
63
330
1
100
AcDbSymbolTableRecord
100
AcDbBlockTableRecord
2
*D16
70
0
280
1
281
0
0
BLOCK_RECORD
5
66
330
1
100
AcDbSymbolTableRecord
100
AcDbBlockTableRecord
2
*D8
70
0
280
1
281
0
0
BLOCK_RECORD
5
69
330
1
100
AcDbSymbolTableRecord
100
AcDbBlockTableRecord
2
*D4
70
0
280
1
281
0
0
BLOCK_RECORD
5
6C
330
1
100
AcDbSymbolTableRecord
100
AcDbBlockTableRecord
2
*D7
70
0
280
1
281
0
0
BLOCK_RECORD
5
6F
330
1
100
AcDbSymbolTableRecord
100
AcDbBlockTableRecord
2
*D6
70
0
280
1
281
0
0
BLOCK_RECORD
5
72
330
1
100
AcDbSymbolTableRecord
100
AcDbBlockTableRecord
2
*D1
70
0
280
1
281
0
0
BLOCK_RECORD
5
75
330
1
100
AcDbSymbolTableRecord
100
AcDbBlockTableRecord
2
*D10
70
0
280
1
281
0
0
BLOCK_RECORD
5
78
330
1
100
AcDbSymbolTableRecord
100
AcDbBlockTableRecord
2
*D12
70
0
280
1
281
0
0
BLOCK_RECORD
5
7B
330
1
100
AcDbSymbolTableRecord
100
AcDbBlockTableRecord
2
TITLE_BLOCK
70
0
280
1
281
0
0
ENDTAB
0
ENDSEC
0
SECTION
2
BLOCKS
0
BLOCK
5
20
330
1F
100
AcDbEntity
8
0
100
AcDbBlockBegin
2
*Model_Space
70
0
10
0
20
0
30
0
3
*Model_Space
1

0
ENDBLK
5
21
330
1F
100
AcDbEntity
8
0
100
AcDbBlockEnd
0
BLOCK
5
1C
330
1B
100
AcDbEntity
8
0
100
AcDbBlockBegin
2
*Paper_Space
70
0
10
0
20
0
30
0
3
*Paper_Space
1

0
ENDBLK
5
1D
330
1F
100
AcDbEntity
8
0
100
AcDbBlockEnd
0
BLOCK
5
4C
330
4B
100
AcDbEntity
8
0
100
AcDbBlockBegin
2
*D2
70
1
10
0
20
0
3
*D2
1

0
LINE
5
7E
100
AcDbEntity
8
DIMENSION
6
CONTINUOUS
62
7
370
0
100
AcDbLine
10
0
20
-50
11
42
21
-50
0
SOLID
5
7F
100
AcDbEntity
8
DIMENSION
6
CONTINUOUS
62
7
370
0
100
AcDbTrace
10
0
20
-50
30
0
11
6
21
-49.0009168213
31
0
12
6
22
-50.9990831787
32
0
13
6
23
-50.9990831787
33
0
0
SOLID
5
80
100
AcDbEntity
8
DIMENSION
6
CONTINUOUS
62
7
370
0
100
AcDbTrace
10
42
20
-50
30
0
11
36
21
-50.9990831787
31
0
12
36
22
-49.0009168213
32
0
13
36
23
-49.0009168213
33
0
0
MTEXT
5
81
100
AcDbEntity
8
DIMENSION
6
CONTINUOUS
62
7
370
0
100
AcDbMText
10
21
20
-56
30
0
40
8
41
10.6666666667
71
5
72
1
1
42
7
standard
210
0
220
0
230
1
50
0
73
2
44
1
0
LINE
5
82
100
AcDbEntity
8
DIMENSION
6
CONTINUOUS
62
7
370
0
100
AcDbLine
10
-9.18454765367e-018
20
-30.05
11
-3.67381906147e-017
21
-50.2
0
LINE
5
83
100
AcDbEntity
8
DIMENSION
6
CONTINUOUS
62
7
370
0
100
AcDbLine
10
42
20
-20.05
11
42
21
-50.2
0
ENDBLK
5
4D
330
4B
100
AcDbEntity
8
0
100
AcDbBlockEnd
0
BLOCK
5
4F
330
4E
100
AcDbEntity
8
0
100
AcDbBlockBegin
2
*D11
70
1
10
0
20
0
3
*D11
1

0
LINE
5
84
100
AcDbEntity
8
DIMENSION
6
CONTINUOUS
62
7
370
0
100
AcDbLine
10
-40
20
360
11
-40
21
277
0
SOLID
5
85
100
AcDbEntity
8
DIMENSION
6
CONTINUOUS
62
7
370
0
100
AcDbTrace
10
-40
20
360
30
0
11
-39.0009168213
21
354
31
0
12
-40.9990831787
22
354
32
0
13
-40.9990831787
23
354
33
0
0
SOLID
5
86
100
AcDbEntity
8
DIMENSION
6
CONTINUOUS
62
7
370
0
100
AcDbTrace
10
-40
20
277
30
0
11
-40.9990831787
21
283
31
0
12
-39.0009168213
22
283
32
0
13
-39.0009168213
23
283
33
0
0
MTEXT
5
87
100
AcDbEntity
8
DIMENSION
6
CONTINUOUS
62
7
370
0
100
AcDbMText
10
-44.09
20
318.5
30
0
40
8
41
9.77777777778
71
5
72
1
1
83
7
standard
210
0
220
0
230
1
50
90
73
2
44
1
0
LINE
5
88
100
AcDbEntity
8
DIMENSION
6
CONTINUOUS
62
7
370
0
100
AcDbLine
10
-20.05
20
360
11
-40.2
21
360
0
LINE
5
89
100
AcDbEntity
8
DIMENSION
6
CONTINUOUS
62
7
370
0
100
AcDbLine
10
-10.05
20
277
11
-40.2
21
277
0
ENDBLK
5
50
330
4E
100
AcDbEntity
8
0
100
AcDbBlockEnd
0
BLOCK
5
52
330
51
100
AcDbEntity
8
0
100
AcDbBlockBegin
2
*D15
70
1
10
0
20
0
3
*D15
1

0
LINE
5
8A
100
AcDbEntity
8
DIMENSION
6
CONTINUOUS
62
7
370
0
100
AcDbLine
10
-80
20
0
11
-80
21
360
0
SOLID
5
8B
100
AcDbEntity
8
DIMENSION
6
CONTINUOUS
62
7
370
0
100
AcDbTrace
10
-80
20
0
30
0
11
-80.9990831787
21
6
31
0
12
-79.0009168213
22
6
32
0
13
-79.0009168213
23
6
33
0
0
SOLID
5
8C
100
AcDbEntity
8
DIMENSION
6
CONTINUOUS
62
7
370
0
100
AcDbTrace
10
-80
20
360
30
0
11
-79.0009168213
21
354
31
0
12
-80.9990831787
22
354
32
0
13
-80.9990831787
23
354
33
0
0
MTEXT
5
8D
100
AcDbEntity
8
DIMENSION
6
CONTINUOUS
62
7
370
0
100
AcDbMText
10
-84.09
20
180
30
0
40
8
41
16
71
5
72
1
1
360
7
standard
210
0
220
0
230
1
50
90
73
2
44
1
0
LINE
5
8E
100
AcDbEntity
8
DIMENSION
6
CONTINUOUS
62
7
370
0
100
AcDbLine
10
-60.05
20
6.12303176911e-018
11
-80.2
21
2.44921270764e-017
0
LINE
5
8F
100
AcDbEntity
8
DIMENSION
6
CONTINUOUS
62
7
370
0
100
AcDbLine
10
-40.05
20
360
11
-80.2
21
360
0
ENDBLK
5
53
330
51
100
AcDbEntity
8
0
100
AcDbBlockEnd
0
BLOCK
5
55
330
54
100
AcDbEntity
8
0
100
AcDbBlockBegin
2
*D3
70
1
10
0
20
0
3
*D3
1

0
LINE
5
90
100
AcDbEntity
8
DIMENSION
6
CONTINUOUS
62
7
370
0
100
AcDbLine
10
0
20
-70
11
48
21
-70
0
SOLID
5
91
100
AcDbEntity
8
DIMENSION
6
CONTINUOUS
62
7
370
0
100
AcDbTrace
10
0
20
-70
30
0
11
6
21
-69.0009168213
31
0
12
6
22
-70.9990831787
32
0
13
6
23
-70.9990831787
33
0
0
SOLID
5
92
100
AcDbEntity
8
DIMENSION
6
CONTINUOUS
62
7
370
0
100
AcDbTrace
10
48
20
-70
30
0
11
42
21
-70.9990831787
31
0
12
42
22
-69.0009168213
32
0
13
42
23
-69.0009168213
33
0
0
MTEXT
5
93
100
AcDbEntity
8
DIMENSION
6
CONTINUOUS
62
7
370
0
100
AcDbMText
10
24
20
-75
30
0
40
8
41
10.6666666667
71
5
72
1
1
48
7
standard
210
0
220
0
230
1
50
0
73
2
44
1
0
LINE
5
94
100
AcDbEntity
8
DIMENSION
6
CONTINUOUS
62
7
370
0
100
AcDbLine
10
-9.18454765367e-018
20
-50.05
11
-3.67381906147e-017
21
-70.2
0
LINE
5
95
100
AcDbEntity
8
DIMENSION
6
CONTINUOUS
62
7
370
0
100
AcDbLine
10
48
20
-20.05
11
48
21
-70.2
0
ENDBLK
5
56
330
54
100
AcDbEntity
8
0
100
AcDbBlockEnd
0
BLOCK
5
58
330
57
100
AcDbEntity
8
0
100
AcDbBlockBegin
2
*D5
70
1
10
0
20
0
3
*D5
1

0
LINE
5
96
100
AcDbEntity
8
DIMENSION
6
CONTINUOUS
62
7
370
0
100
AcDbLine
10
200
20
-30
11
182
21
-30
0
SOLID
5
97
100
AcDbEntity
8
DIMENSION
6
CONTINUOUS
62
7
370
0
100
AcDbTrace
10
200
20
-30
30
0
11
194
21
-30.9990831787
31
0
12
194
22
-29.0009168213
32
0
13
194
23
-29.0009168213
33
0
0
SOLID
5
98
100
AcDbEntity
8
DIMENSION
6
CONTINUOUS
62
7
370
0
100
AcDbTrace
10
182
20
-30
30
0
11
188
21
-29.0009168213
31
0
12
188
22
-30.9990831787
32
0
13
188
23
-30.9990831787
33
0
0
MTEXT
5
99
100
AcDbEntity
8
DIMENSION
6
CONTINUOUS
62
7
370
0
100
AcDbMText
10
191
20
-36
30
0
40
8
41
8
71
5
72
1
1
18
7
standard
210
0
220
0
230
1
50
360
73
2
44
1
0
LINE
5
9A
100
AcDbEntity
8
DIMENSION
6
CONTINUOUS
62
7
370
0
100
AcDbLine
10
200
20
-0.05
11
200
21
-30.2
0
LINE
5
9B
100
AcDbEntity
8
DIMENSION
6
CONTINUOUS
62
7
370
0
100
AcDbLine
10
182
20
-20.05
11
182
21
-30.2
0
ENDBLK
5
59
330
57
100
AcDbEntity
8
0
100
AcDbBlockEnd
0
BLOCK
5
5B
330
5A
100
AcDbEntity
8
0
100
AcDbBlockBegin
2
*D9
70
1
10
0
20
0
3
*D9
1

0
LINE
5
9C
100
AcDbEntity
8
DIMENSION
6
CONTINUOUS
62
7
370
0
100
AcDbLine
10
0
20
390
11
80
21
390
0
SOLID
5
9D
100
AcDbEntity
8
DIMENSION
6
CONTINUOUS
62
7
370
0
100
AcDbTrace
10
0
20
390
30
0
11
6
21
390.999083179
31
0
12
6
22
389.000916821
32
0
13
6
23
389.000916821
33
0
0
SOLID
5
9E
100
AcDbEntity
8
DIMENSION
6
CONTINUOUS
62
7
370
0
100
AcDbTrace
10
80
20
390
30
0
11
74
21
389.000916821
31
0
12
74
22
390.999083179
32
0
13
74
23
390.999083179
33
0
0
MTEXT
5
9F
100
AcDbEntity
8
DIMENSION
6
CONTINUOUS
62
7
370
0
100
AcDbMText
10
40
20
394.09
30
0
40
8
41
9.77777777778
71
5
72
1
1
80
7
standard
210
0
220
0
230
1
50
0
73
2
44
1
0
LINE
5
A0
100
AcDbEntity
8
DIMENSION
6
CONTINUOUS
62
7
370
0
100
AcDbLine
10
3.06151588456e-018
20
370.05
11
1.22460635382e-017
21
390.2
0
LINE
5
A1
100
AcDbEntity
8
DIMENSION
6
CONTINUOUS
62
7
370
0
100
AcDbLine
10
80
20
370.05
11
80
21
390.2
0
ENDBLK
5
5C
330
5A
100
AcDbEntity
8
0
100
AcDbBlockEnd
0
BLOCK
5
5E
330
5D
100
AcDbEntity
8
0
100
AcDbBlockBegin
2
*D13
70
1
10
0
20
0
3
*D13
1

0
LINE
5
A2
100
AcDbEntity
8
DIMENSION
6
CONTINUOUS
62
7
370
0
100
AcDbLine
10
-40
20
-7.1054273576e-015
11
-40
21
41
0
SOLID
5
A3
100
AcDbEntity
8
DIMENSION
6
CONTINUOUS
62
7
370
0
100
AcDbTrace
10
-40
20
-7.1054273576e-015
30
0
11
-40.9990831787
21
6
31
0
12
-39.0009168213
22
6
32
0
13
-39.0009168213
23
6
33
0
0
SOLID
5
A4
100
AcDbEntity
8
DIMENSION
6
CONTINUOUS
62
7
370
0
100
AcDbTrace
10
-40
20
41
30
0
11
-39.0009168213
21
35
31
0
12
-40.9990831787
22
35
32
0
13
-40.9990831787
23
35
33
0
0
MTEXT
5
A5
100
AcDbEntity
8
DIMENSION
6
CONTINUOUS
62
7
370
0
100
AcDbMText
10
-44.09
20
20.5
30
0
40
8
41
8.88888888889
71
5
72
1
1
41
7
standard
210
0
220
0
230
1
50
90
73
2
44
1
0
LINE
5
A6
100
AcDbEntity
8
DIMENSION
6
CONTINUOUS
62
7
370
0
100
AcDbLine
10
-20.05
20
-1.60814287234e-017
11
-40.2
21
-7.16975307249e-015
0
LINE
5
A7
100
AcDbEntity
8
DIMENSION
6
CONTINUOUS
62
7
370
0
100
AcDbLine
10
-10.05
20
41
11
-40.2
21
41
0
ENDBLK
5
5F
330
5D
100
AcDbEntity
8
0
100
AcDbBlockEnd
0
BLOCK
5
61
330
60
100
AcDbEntity
8
0
100
AcDbBlockBegin
2
*D14
70
1
10
0
20
0
3
*D14
1

0
LINE
5
A8
100
AcDbEntity
8
DIMENSION
6
CONTINUOUS
62
7
370
0
100
AcDbLine
10
-60
20
0
11
-60
21
79
0
SOLID
5
A9
100
AcDbEntity
8
DIMENSION
6
CONTINUOUS
62
7
370
0
100
AcDbTrace
10
-60
20
0
30
0
11
-60.9990831787
21
6
31
0
12
-59.0009168213
22
6
32
0
13
-59.0009168213
23
6
33
0
0
SOLID
5
AA
100
AcDbEntity
8
DIMENSION
6
CONTINUOUS
62
7
370
0
100
AcDbTrace
10
-60
20
79
30
0
11
-59.0009168213
21
73
31
0
12
-60.9990831787
22
73
32
0
13
-60.9990831787
23
73
33
0
0
MTEXT
5
AB
100
AcDbEntity
8
DIMENSION
6
CONTINUOUS
62
7
370
0
100
AcDbMText
10
-64.09
20
39.5
30
0
40
8
41
9.77777777778
71
5
72
1
1
79
7
standard
210
0
220
0
230
1
50
90
73
2
44
1
0
LINE
5
AC
100
AcDbEntity
8
DIMENSION
6
CONTINUOUS
62
7
370
0
100
AcDbLine
10
-20.05
20
6.12303176911e-018
11
-60.2
21
2.44921270764e-017
0
LINE
5
AD
100
AcDbEntity
8
DIMENSION
6
CONTINUOUS
62
7
370
0
100
AcDbLine
10
-10.05
20
79
11
-60.2
21
79
0
ENDBLK
5
62
330
60
100
AcDbEntity
8
0
100
AcDbBlockEnd
0
BLOCK
5
64
330
63
100
AcDbEntity
8
0
100
AcDbBlockBegin
2
*D16
70
1
10
0
20
0
3
*D16
1

0
LINE
5
AE
100
AcDbEntity
8
DIMENSION
6
CONTINUOUS
62
7
370
0
100
AcDbLine
10
488
20
-30
11
518
21
-30
0
SOLID
5
AF
100
AcDbEntity
8
DIMENSION
6
CONTINUOUS
62
7
370
0
100
AcDbTrace
10
500
20
-30
30
0
11
494
21
-30.9990831787
31
0
12
494
22
-29.0009168213
32
0
13
494
23
-29.0009168213
33
0
0
SOLID
5
B0
100
AcDbEntity
8
DIMENSION
6
CONTINUOUS
62
7
370
0
100
AcDbTrace
10
506
20
-30
30
0
11
512
21
-29.0009168213
31
0
12
512
22
-30.9990831787
32
0
13
512
23
-30.9990831787
33
0
0
MTEXT
5
B1
100
AcDbEntity
8
DIMENSION
6
CONTINUOUS
62
7
370
0
100
AcDbMText
10
503
20
-25.91
30
0
40
8
41
3.55555555556
71
5
72
1
1
6
7
standard
210
0
220
0
230
1
50
0
73
2
44
1
0
LINE
5
B2
100
AcDbEntity
8
DIMENSION
6
CONTINUOUS
62
7
370
0
100
AcDbLine
10
500
20
-10.05
11
500
21
-30.2
0
LINE
5
B3
100
AcDbEntity
8
DIMENSION
6
CONTINUOUS
62
7
370
0
100
AcDbLine
10
506
20
-10.05
11
506
21
-30.2
0
ENDBLK
5
65
330
63
100
AcDbEntity
8
0
100
AcDbBlockEnd
0
BLOCK
5
67
330
66
100
AcDbEntity
8
0
100
AcDbBlockBegin
2
*D8
70
1
10
0
20
0
3
*D8
1

0
LINE
5
B4
100
AcDbEntity
8
DIMENSION
6
CONTINUOUS
62
7
370
0
100
AcDbLine
10
55
20
370
11
80
21
370
0
SOLID
5
B5
100
AcDbEntity
8
DIMENSION
6
CONTINUOUS
62
7
370
0
100
AcDbTrace
10
55
20
370
30
0
11
61
21
370.999083179
31
0
12
61
22
369.000916821
32
0
13
61
23
369.000916821
33
0
0
SOLID
5
B6
100
AcDbEntity
8
DIMENSION
6
CONTINUOUS
62
7
370
0
100
AcDbTrace
10
80
20
370
30
0
11
74
21
369.000916821
31
0
12
74
22
370.999083179
32
0
13
74
23
370.999083179
33
0
0
MTEXT
5
B7
100
AcDbEntity
8
DIMENSION
6
CONTINUOUS
62
7
370
0
100
AcDbMText
10
67.5
20
374.09
30
0
40
8
41
9.77777777778
71
5
72
1
1
25
7
standard
210
0
220
0
230
1
50
0
73
2
44
1
0
LINE
5
B8
100
AcDbEntity
8
DIMENSION
6
CONTINUOUS
62
7
370
0
100
AcDbLine
10
55
20
370.05
11
55
21
370.2
0
LINE
5
B9
100
AcDbEntity
8
DIMENSION
6
CONTINUOUS
62
7
370
0
100
AcDbLine
10
80
20
360.05
11
80
21
370.2
0
ENDBLK
5
68
330
66
100
AcDbEntity
8
0
100
AcDbBlockEnd
0
BLOCK
5
6A
330
69
100
AcDbEntity
8
0
100
AcDbBlockBegin
2
*D4
70
1
10
0
20
0
3
*D4
1

0
LINE
5
BA
100
AcDbEntity
8
DIMENSION
6
CONTINUOUS
62
7
370
0
100
AcDbLine
10
200
20
-50
11
152
21
-50
0
SOLID
5
BB
100
AcDbEntity
8
DIMENSION
6
CONTINUOUS
62
7
370
0
100
AcDbTrace
10
200
20
-50
30
0
11
194
21
-50.9990831787
31
0
12
194
22
-49.0009168213
32
0
13
194
23
-49.0009168213
33
0
0
SOLID
5
BC
100
AcDbEntity
8
DIMENSION
6
CONTINUOUS
62
7
370
0
100
AcDbTrace
10
152
20
-50
30
0
11
158
21
-49.0009168213
31
0
12
158
22
-50.9990831787
32
0
13
158
23
-50.9990831787
33
0
0
MTEXT
5
BD
100
AcDbEntity
8
DIMENSION
6
CONTINUOUS
62
7
370
0
100
AcDbMText
10
176
20
-56
30
0
40
8
41
10.6666666667
71
5
72
1
1
48
7
standard
210
0
220
0
230
1
50
360
73
2
44
1
0
LINE
5
BE
100
AcDbEntity
8
DIMENSION
6
CONTINUOUS
62
7
370
0
100
AcDbLine
10
200
20
-30.05
11
200
21
-50.2
0
LINE
5
BF
100
AcDbEntity
8
DIMENSION
6
CONTINUOUS
62
7
370
0
100
AcDbLine
10
152
20
-20.05
11
152
21
-50.2
0
ENDBLK
5
6B
330
69
100
AcDbEntity
8
0
100
AcDbBlockEnd
0
BLOCK
5
6D
330
6C
100
AcDbEntity
8
0
100
AcDbBlockBegin
2
*D7
70
1
10
0
20
0
3
*D7
1

0
LINE
5
C0
100
AcDbEntity
8
DIMENSION
6
CONTINUOUS
62
7
370
0
100
AcDbLine
10
0
20
370
11
25
21
370
0
SOLID
5
C1
100
AcDbEntity
8
DIMENSION
6
CONTINUOUS
62
7
370
0
100
AcDbTrace
10
0
20
370
30
0
11
6
21
370.999083179
31
0
12
6
22
369.000916821
32
0
13
6
23
369.000916821
33
0
0
SOLID
5
C2
100
AcDbEntity
8
DIMENSION
6
CONTINUOUS
62
7
370
0
100
AcDbTrace
10
25
20
370
30
0
11
19
21
369.000916821
31
0
12
19
22
370.999083179
32
0
13
19
23
370.999083179
33
0
0
MTEXT
5
C3
100
AcDbEntity
8
DIMENSION
6
CONTINUOUS
62
7
370
0
100
AcDbMText
10
12.5
20
374.09
30
0
40
8
41
9.77777777778
71
5
72
1
1
25
7
standard
210
0
220
0
230
1
50
0
73
2
44
1
0
LINE
5
C4
100
AcDbEntity
8
DIMENSION
6
CONTINUOUS
62
7
370
0
100
AcDbLine
10
3.06151588456e-018
20
360.05
11
1.22460635382e-017
21
370.2
0
LINE
5
C5
100
AcDbEntity
8
DIMENSION
6
CONTINUOUS
62
7
370
0
100
AcDbLine
10
25
20
370.05
11
25
21
370.2
0
ENDBLK
5
6E
330
6C
100
AcDbEntity
8
0
100
AcDbBlockEnd
0
BLOCK
5
70
330
6F
100
AcDbEntity
8
0
100
AcDbBlockBegin
2
*D6
70
1
10
0
20
0
3
*D6
1

0
LINE
5
C6
100
AcDbEntity
8
DIMENSION
6
CONTINUOUS
62
7
370
0
100
AcDbLine
10
0
20
-90
11
200
21
-90
0
SOLID
5
C7
100
AcDbEntity
8
DIMENSION
6
CONTINUOUS
62
7
370
0
100
AcDbTrace
10
0
20
-90
30
0
11
6
21
-89.0009168213
31
0
12
6
22
-90.9990831787
32
0
13
6
23
-90.9990831787
33
0
0
SOLID
5
C8
100
AcDbEntity
8
DIMENSION
6
CONTINUOUS
62
7
370
0
100
AcDbTrace
10
200
20
-90
30
0
11
194
21
-90.9990831787
31
0
12
194
22
-89.0009168213
32
0
13
194
23
-89.0009168213
33
0
0
MTEXT
5
C9
100
AcDbEntity
8
DIMENSION
6
CONTINUOUS
62
7
370
0
100
AcDbMText
10
100
20
-85.91
30
0
40
8
41
16
71
5
72
1
1
200
7
standard
210
0
220
0
230
1
50
0
73
2
44
1
0
LINE
5
CA
100
AcDbEntity
8
DIMENSION
6
CONTINUOUS
62
7
370
0
100
AcDbLine
10
-9.18454765367e-018
20
-70.05
11
-3.67381906147e-017
21
-90.2
0
LINE
5
CB
100
AcDbEntity
8
DIMENSION
6
CONTINUOUS
62
7
370
0
100
AcDbLine
10
200
20
-50.05
11
200
21
-90.2
0
ENDBLK
5
71
330
6F
100
AcDbEntity
8
0
100
AcDbBlockEnd
0
BLOCK
5
73
330
72
100
AcDbEntity
8
0
100
AcDbBlockBegin
2
*D1
70
1
10
0
20
0
3
*D1
1

0
LINE
5
CC
100
AcDbEntity
8
DIMENSION
6
CONTINUOUS
62
7
370
0
100
AcDbLine
10
0
20
-30
11
18
21
-30
0
SOLID
5
CD
100
AcDbEntity
8
DIMENSION
6
CONTINUOUS
62
7
370
0
100
AcDbTrace
10
0
20
-30
30
0
11
6
21
-29.0009168213
31
0
12
6
22
-30.9990831787
32
0
13
6
23
-30.9990831787
33
0
0
SOLID
5
CE
100
AcDbEntity
8
DIMENSION
6
CONTINUOUS
62
7
370
0
100
AcDbTrace
10
18
20
-30
30
0
11
12
21
-30.9990831787
31
0
12
12
22
-29.0009168213
32
0
13
12
23
-29.0009168213
33
0
0
MTEXT
5
CF
100
AcDbEntity
8
DIMENSION
6
CONTINUOUS
62
7
370
0
100
AcDbMText
10
9
20
-35
30
0
40
8
41
8
71
5
72
1
1
18
7
standard
210
0
220
0
230
1
50
0
73
2
44
1
0
LINE
5
D0
100
AcDbEntity
8
DIMENSION
6
CONTINUOUS
62
7
370
0
100
AcDbLine
10
-9.18454765367e-018
20
-0.05
11
-3.67381906147e-017
21
-30.2
0
LINE
5
D1
100
AcDbEntity
8
DIMENSION
6
CONTINUOUS
62
7
370
0
100
AcDbLine
10
18
20
-20.05
11
18
21
-30.2
0
ENDBLK
5
74
330
72
100
AcDbEntity
8
0
100
AcDbBlockEnd
0
BLOCK
5
76
330
75
100
AcDbEntity
8
0
100
AcDbBlockBegin
2
*D10
70
1
10
0
20
0
3
*D10
1

0
LINE
5
D2
100
AcDbEntity
8
DIMENSION
6
CONTINUOUS
62
7
370
0
100
AcDbLine
10
-20
20
372
11
-20
21
340
0
SOLID
5
D3
100
AcDbEntity
8
DIMENSION
6
CONTINUOUS
62
7
370
0
100
AcDbTrace
10
-20
20
360
30
0
11
-20.9990831787
21
366
31
0
12
-19.0009168213
22
366
32
0
13
-19.0009168213
23
366
33
0
0
SOLID
5
D4
100
AcDbEntity
8
DIMENSION
6
CONTINUOUS
62
7
370
0
100
AcDbTrace
10
-20
20
352
30
0
11
-19.0009168213
21
346
31
0
12
-20.9990831787
22
346
32
0
13
-20.9990831787
23
346
33
0
0
MTEXT
5
D5
100
AcDbEntity
8
DIMENSION
6
CONTINUOUS
62
7
370
0
100
AcDbMText
10
-24.09
20
356
30
0
40
8
41
3.55555555556
71
5
72
1
1
8
7
standard
210
0
220
0
230
1
50
90
73
2
44
1
0
LINE
5
D6
100
AcDbEntity
8
DIMENSION
6
CONTINUOUS
62
7
370
0
100
AcDbLine
10
-0.05
20
360
11
-20.2
21
360
0
LINE
5
D7
100
AcDbEntity
8
DIMENSION
6
CONTINUOUS
62
7
370
0
100
AcDbLine
10
-10.05
20
352
11
-20.2
21
352
0
ENDBLK
5
77
330
75
100
AcDbEntity
8
0
100
AcDbBlockEnd
0
BLOCK
5
79
330
78
100
AcDbEntity
8
0
100
AcDbBlockBegin
2
*D12
70
1
10
0
20
0
3
*D12
1

0
LINE
5
D8
100
AcDbEntity
8
DIMENSION
6
CONTINUOUS
62
7
370
0
100
AcDbLine
10
-20
20
-12
11
-20
21
27
0
SOLID
5
D9
100
AcDbEntity
8
DIMENSION
6
CONTINUOUS
62
7
370
0
100
AcDbTrace
10
-20
20
1.7763568394e-015
30
0
11
-19.0009168213
21
-6
31
0
12
-20.9990831787
22
-6
32
0
13
-20.9990831787
23
-6
33
0
0
SOLID
5
DA
100
AcDbEntity
8
DIMENSION
6
CONTINUOUS
62
7
370
0
100
AcDbTrace
10
-20
20
15
30
0
11
-20.9990831787
21
21
31
0
12
-19.0009168213
22
21
32
0
13
-19.0009168213
23
21
33
0
0
MTEXT
5
DB
100
AcDbEntity
8
DIMENSION
6
CONTINUOUS
62
7
370
0
100
AcDbMText
10
-24.09
20
7.5
30
0
40
8
41
8
71
5
72
1
1
15
7
standard
210
0
220
0
230
1
50
90
73
2
44
1
0
LINE
5
DC
100
AcDbEntity
8
DIMENSION
6
CONTINUOUS
62
7
370
0
100
AcDbLine
10
-0.05
20
6.12303176911e-018
11
-20.2
21
1.80084896648e-015
0
LINE
5
DD
100
AcDbEntity
8
DIMENSION
6
CONTINUOUS
62
7
370
0
100
AcDbLine
10
-10.05
20
15
11
-20.2
21
15
0
ENDBLK
5
7A
330
78
100
AcDbEntity
8
0
100
AcDbBlockEnd
0
BLOCK
5
7C
330
7B
100
AcDbEntity
8
0
100
AcDbBlockBegin
2
TITLE_BLOCK
70
0
10
0
20
0
3
TITLE_BLOCK
1

0
LINE
5
DE
100
AcDbEntity
8
LAYOUT_BLOCK
6
ByLayer
62
256
370
-1
100
AcDbLine
10
0
20
8.66141732283
11
0
21
0
0
LINE
5
DF
100
AcDbEntity
8
LAYOUT_BLOCK
6
ByLayer
62
256
370
-1
100
AcDbLine
10
0.196850393701
20
8.46456692913
11
0.196850393701
21
0.196850393701
0
LINE
5
E0
100
AcDbEntity
8
LAYOUT_BLOCK
6
ByLayer
62
256
370
-1
100
AcDbLine
10
11.8897637795
20
0.196850393701
11
11.8897637795
21
8.46456692913
0
LINE
5
E1
100
AcDbEntity
8
LAYOUT_BLOCK
6
ByLayer
62
256
370
-1
100
AcDbLine
10
12.0866141732
20
0
11
12.0866141732
21
8.66141732283
0
LINE
5
E2
100
AcDbEntity
8
LAYOUT_BLOCK
6
ByLayer
62
256
370
-1
100
AcDbLine
10
0.196850393701
20
0.196850393701
11
11.8897637795
21
0.196850393701
0
LINE
5
E3
100
AcDbEntity
8
LAYOUT_BLOCK
6
ByLayer
62
256
370
-1
100
AcDbLine
10
0
20
0
11
12.0866141732
21
0
0
LINE
5
E4
100
AcDbEntity
8
LAYOUT_BLOCK
6
ByLayer
62
256
370
-1
100
AcDbLine
10
12.0866141732
20
8.66141732283
11
0
21
8.66141732283
0
LINE
5
E5
100
AcDbEntity
8
LAYOUT_BLOCK
6
ByLayer
62
256
370
-1
100
AcDbLine
10
11.8897637795
20
8.46456692913
11
0.196850393701
21
8.46456692913
0
LINE
5
E6
100
AcDbEntity
8
LAYOUT_BLOCK
6
ByLayer
62
256
370
-1
100
AcDbLine
10
1.65846456693
20
8.46456692913
11
1.65846456693
21
8.66141732283
0
LINE
5
E7
100
AcDbEntity
8
LAYOUT_BLOCK
6
ByLayer
62
256
370
-1
100
AcDbLine
10
3.12007874016
20
8.46456692913
11
3.12007874016
21
8.66141732283
0
LINE
5
E8
100
AcDbEntity
8
LAYOUT_BLOCK
6
ByLayer
62
256
370
-1
100
AcDbLine
10
4.58169291339
20
8.46456692913
11
4.58169291339
21
8.66141732283
0
LINE
5
E9
100
AcDbEntity
8
LAYOUT_BLOCK
6
ByLayer
62
256
370
-1
100
AcDbLine
10
6.04330708661
20
8.46456692913
11
6.04330708661
21
8.66141732283
0
LINE
5
EA
100
AcDbEntity
8
LAYOUT_BLOCK
6
ByLayer
62
256
370
-1
100
AcDbLine
10
7.50492125984
20
8.46456692913
11
7.50492125984
21
8.66141732283
0
LINE
5
EB
100
AcDbEntity
8
LAYOUT_BLOCK
6
ByLayer
62
256
370
-1
100
AcDbLine
10
8.96653543307
20
8.46456692913
11
8.96653543307
21
8.66141732283
0
LINE
5
EC
100
AcDbEntity
8
LAYOUT_BLOCK
6
ByLayer
62
256
370
-1
100
AcDbLine
10
10.4281496063
20
8.46456692913
11
10.4281496063
21
8.66141732283
0
LINE
5
ED
100
AcDbEntity
8
LAYOUT_BLOCK
6
ByLayer
62
256
370
-1
100
AcDbLine
10
0.196850393701
20
4.33070866142
11
0
21
4.33070866142
0
LINE
5
EE
100
AcDbEntity
8
LAYOUT_BLOCK
6
ByLayer
62
256
370
-1
100
AcDbLine
10
0.196850393701
20
5.36417322835
11
0
21
5.36417322835
0
LINE
5
EF
100
AcDbEntity
8
LAYOUT_BLOCK
6
ByLayer
62
256
370
-1
100
AcDbLine
10
0.196850393701
20
6.39763779528
11
0
21
6.39763779528
0
LINE
5
F0
100
AcDbEntity
8
LAYOUT_BLOCK
6
ByLayer
62
256
370
-1
100
AcDbLine
10
0.196850393701
20
7.4311023622
11
0
21
7.4311023622
0
LINE
5
F1
100
AcDbEntity
8
LAYOUT_BLOCK
6
ByLayer
62
256
370
-1
100
AcDbLine
10
0.196850393701
20
3.29724409449
11
0
21
3.29724409449
0
LINE
5
F2
100
AcDbEntity
8
LAYOUT_BLOCK
6
ByLayer
62
256
370
-1
100
AcDbLine
10
0.196850393701
20
2.26377952756
11
0
21
2.26377952756
0
LINE
5
F3
100
AcDbEntity
8
LAYOUT_BLOCK
6
ByLayer
62
256
370
-1
100
AcDbLine
10
0.196850393701
20
1.23031496063
11
0
21
1.23031496063
0
TEXT
5
F4
100
AcDbEntity
8
LAYOUT_BLOCK
6
ByLayer
62
256
370
-1
100
AcDbText
10
0.0984251968504
20
0.713582677165
30
0
40
0.11811023622
1
A
50
0
41
1
51
0
7
standard
71
0
72
1
11
0.0984251968504
21
0.713582677165
31
0
210
0
220
0
230
1
100
AcDbText
73
2
0
TEXT
5
F5
100
AcDbEntity
8
LAYOUT_BLOCK
6
ByLayer
62
256
370
-1
100
AcDbText
10
0.0984251968504
20
1.74704724409
30
0
40
0.11811023622
1
B
50
0
41
1
51
0
7
standard
71
0
72
1
11
0.0984251968504
21
1.74704724409
31
0
210
0
220
0
230
1
100
AcDbText
73
2
0
TEXT
5
F6
100
AcDbEntity
8
LAYOUT_BLOCK
6
ByLayer
62
256
370
-1
100
AcDbText
10
0.0984251968504
20
2.78051181102
30
0
40
0.11811023622
1
C
50
0
41
1
51
0
7
standard
71
0
72
1
11
0.0984251968504
21
2.78051181102
31
0
210
0
220
0
230
1
100
AcDbText
73
2
0
TEXT
5
F7
100
AcDbEntity
8
LAYOUT_BLOCK
6
ByLayer
62
256
370
-1
100
AcDbText
10
0.0984251968504
20
3.81397637795
30
0
40
0.11811023622
1
D
50
0
41
1
51
0
7
standard
71
0
72
1
11
0.0984251968504
21
3.81397637795
31
0
210
0
220
0
230
1
100
AcDbText
73
2
0
TEXT
5
F8
100
AcDbEntity
8
LAYOUT_BLOCK
6
ByLayer
62
256
370
-1
100
AcDbText
10
0.0984251968504
20
4.84744094488
30
0
40
0.11811023622
1
E
50
0
41
1
51
0
7
standard
71
0
72
1
11
0.0984251968504
21
4.84744094488
31
0
210
0
220
0
230
1
100
AcDbText
73
2
0
TEXT
5
F9
100
AcDbEntity
8
LAYOUT_BLOCK
6
ByLayer
62
256
370
-1
100
AcDbText
10
0.0984251968504
20
5.88090551181
30
0
40
0.11811023622
1
F
50
0
41
1
51
0
7
standard
71
0
72
1
11
0.0984251968504
21
5.88090551181
31
0
210
0
220
0
230
1
100
AcDbText
73
2
0
TEXT
5
FA
100
AcDbEntity
8
LAYOUT_BLOCK
6
ByLayer
62
256
370
-1
100
AcDbText
10
0.0984251968504
20
6.91437007874
30
0
40
0.11811023622
1
G
50
0
41
1
51
0
7
standard
71
0
72
1
11
0.0984251968504
21
6.91437007874
31
0
210
0
220
0
230
1
100
AcDbText
73
2
0
TEXT
5
FB
100
AcDbEntity
8
LAYOUT_BLOCK
6
ByLayer
62
256
370
-1
100
AcDbText
10
0.0984251968504
20
7.94783464567
30
0
40
0.11811023622
1
H
50
0
41
1
51
0
7
standard
71
0
72
1
11
0.0984251968504
21
7.94783464567
31
0
210
0
220
0
230
1
100
AcDbText
73
2
0
TEXT
5
FC
100
AcDbEntity
8
LAYOUT_BLOCK
6
ByLayer
62
256
370
-1
100
AcDbText
10
0.927657480315
20
8.56299212598
30
0
40
0.11811023622
1
1
50
0
41
1
51
0
7
standard
71
0
72
1
11
0.927657480315
21
8.56299212598
31
0
210
0
220
0
230
1
100
AcDbText
73
2
0
TEXT
5
FD
100
AcDbEntity
8
LAYOUT_BLOCK
6
ByLayer
62
256
370
-1
100
AcDbText
10
2.38927165354
20
8.56299212598
30
0
40
0.11811023622
1
2
50
0
41
1
51
0
7
standard
71
0
72
1
11
2.38927165354
21
8.56299212598
31
0
210
0
220
0
230
1
100
AcDbText
73
2
0
TEXT
5
FE
100
AcDbEntity
8
LAYOUT_BLOCK
6
ByLayer
62
256
370
-1
100
AcDbText
10
3.85088582677
20
8.56299212598
30
0
40
0.11811023622
1
3
50
0
41
1
51
0
7
standard
71
0
72
1
11
3.85088582677
21
8.56299212598
31
0
210
0
220
0
230
1
100
AcDbText
73
2
0
TEXT
5
FF
100
AcDbEntity
8
LAYOUT_BLOCK
6
ByLayer
62
256
370
-1
100
AcDbText
10
5.3125
20
8.56299212598
30
0
40
0.11811023622
1
4
50
0
41
1
51
0
7
standard
71
0
72
1
11
5.3125
21
8.56299212598
31
0
210
0
220
0
230
1
100
AcDbText
73
2
0
TEXT
5
100
100
AcDbEntity
8
LAYOUT_BLOCK
6
ByLayer
62
256
370
-1
100
AcDbText
10
6.77411417323
20
8.56299212598
30
0
40
0.11811023622
1
5
50
0
41
1
51
0
7
standard
71
0
72
1
11
6.77411417323
21
8.56299212598
31
0
210
0
220
0
230
1
100
AcDbText
73
2
0
TEXT
5
101
100
AcDbEntity
8
LAYOUT_BLOCK
6
ByLayer
62
256
370
-1
100
AcDbText
10
8.23572834646
20
8.56299212598
30
0
40
0.11811023622
1
6
50
0
41
1
51
0
7
standard
71
0
72
1
11
8.23572834646
21
8.56299212598
31
0
210
0
220
0
230
1
100
AcDbText
73
2
0
TEXT
5
102
100
AcDbEntity
8
LAYOUT_BLOCK
6
ByLayer
62
256
370
-1
100
AcDbText
10
9.69734251969
20
8.56299212598
30
0
40
0.11811023622
1
7
50
0
41
1
51
0
7
standard
71
0
72
1
11
9.69734251969
21
8.56299212598
31
0
210
0
220
0
230
1
100
AcDbText
73
2
0
TEXT
5
103
100
AcDbEntity
8
LAYOUT_BLOCK
6
ByLayer
62
256
370
-1
100
AcDbText
10
11.1589566929
20
8.56299212598
30
0
40
0.11811023622
1
8
50
0
41
1
51
0
7
standard
71
0
72
1
11
11.1589566929
21
8.56299212598
31
0
210
0
220
0
230
1
100
AcDbText
73
2
0
LINE
5
104
100
AcDbEntity
8
LAYOUT_BLOCK
6
ByLayer
62
256
370
-1
100
AcDbLine
10
12.0866141732
20
4.33070866142
11
11.8897637795
21
4.33070866142
0
LINE
5
105
100
AcDbEntity
8
LAYOUT_BLOCK
6
ByLayer
62
256
370
-1
100
AcDbLine
10
12.0866141732
20
5.36417322835
11
11.8897637795
21
5.36417322835
0
LINE
5
106
100
AcDbEntity
8
LAYOUT_BLOCK
6
ByLayer
62
256
370
-1
100
AcDbLine
10
12.0866141732
20
6.39763779528
11
11.8897637795
21
6.39763779528
0
LINE
5
107
100
AcDbEntity
8
LAYOUT_BLOCK
6
ByLayer
62
256
370
-1
100
AcDbLine
10
12.0866141732
20
7.4311023622
11
11.8897637795
21
7.4311023622
0
LINE
5
108
100
AcDbEntity
8
LAYOUT_BLOCK
6
ByLayer
62
256
370
-1
100
AcDbLine
10
12.0866141732
20
3.29724409449
11
11.8897637795
21
3.29724409449
0
LINE
5
109
100
AcDbEntity
8
LAYOUT_BLOCK
6
ByLayer
62
256
370
-1
100
AcDbLine
10
12.0866141732
20
2.26377952756
11
11.8897637795
21
2.26377952756
0
LINE
5
10A
100
AcDbEntity
8
LAYOUT_BLOCK
6
ByLayer
62
256
370
-1
100
AcDbLine
10
12.0866141732
20
1.23031496063
11
11.8897637795
21
1.23031496063
0
TEXT
5
10B
100
AcDbEntity
8
LAYOUT_BLOCK
6
ByLayer
62
256
370
-1
100
AcDbText
10
11.9881889764
20
0.713582677165
30
0
40
0.11811023622
1
A
50
0
41
1
51
0
7
standard
71
0
72
1
11
11.9881889764
21
0.713582677165
31
0
210
0
220
0
230
1
100
AcDbText
73
2
0
TEXT
5
10C
100
AcDbEntity
8
LAYOUT_BLOCK
6
ByLayer
62
256
370
-1
100
AcDbText
10
11.9881889764
20
1.74704724409
30
0
40
0.11811023622
1
B
50
0
41
1
51
0
7
standard
71
0
72
1
11
11.9881889764
21
1.74704724409
31
0
210
0
220
0
230
1
100
AcDbText
73
2
0
TEXT
5
10D
100
AcDbEntity
8
LAYOUT_BLOCK
6
ByLayer
62
256
370
-1
100
AcDbText
10
11.9881889764
20
2.78051181102
30
0
40
0.11811023622
1
C
50
0
41
1
51
0
7
standard
71
0
72
1
11
11.9881889764
21
2.78051181102
31
0
210
0
220
0
230
1
100
AcDbText
73
2
0
TEXT
5
10E
100
AcDbEntity
8
LAYOUT_BLOCK
6
ByLayer
62
256
370
-1
100
AcDbText
10
11.9881889764
20
3.81397637795
30
0
40
0.11811023622
1
D
50
0
41
1
51
0
7
standard
71
0
72
1
11
11.9881889764
21
3.81397637795
31
0
210
0
220
0
230
1
100
AcDbText
73
2
0
TEXT
5
10F
100
AcDbEntity
8
LAYOUT_BLOCK
6
ByLayer
62
256
370
-1
100
AcDbText
10
11.9881889764
20
4.84744094488
30
0
40
0.11811023622
1
E
50
0
41
1
51
0
7
standard
71
0
72
1
11
11.9881889764
21
4.84744094488
31
0
210
0
220
0
230
1
100
AcDbText
73
2
0
TEXT
5
110
100
AcDbEntity
8
LAYOUT_BLOCK
6
ByLayer
62
256
370
-1
100
AcDbText
10
11.9881889764
20
5.88090551181
30
0
40
0.11811023622
1
F
50
0
41
1
51
0
7
standard
71
0
72
1
11
11.9881889764
21
5.88090551181
31
0
210
0
220
0
230
1
100
AcDbText
73
2
0
TEXT
5
111
100
AcDbEntity
8
LAYOUT_BLOCK
6
ByLayer
62
256
370
-1
100
AcDbText
10
11.9881889764
20
6.91437007874
30
0
40
0.11811023622
1
G
50
0
41
1
51
0
7
standard
71
0
72
1
11
11.9881889764
21
6.91437007874
31
0
210
0
220
0
230
1
100
AcDbText
73
2
0
TEXT
5
112
100
AcDbEntity
8
LAYOUT_BLOCK
6
ByLayer
62
256
370
-1
100
AcDbText
10
11.9881889764
20
7.94783464567
30
0
40
0.11811023622
1
H
50
0
41
1
51
0
7
standard
71
0
72
1
11
11.9881889764
21
7.94783464567
31
0
210
0
220
0
230
1
100
AcDbText
73
2
0
LINE
5
113
100
AcDbEntity
8
LAYOUT_BLOCK
6
ByLayer
62
256
370
-1
100
AcDbLine
10
1.65846456693
20
0
11
1.65846456693
21
0.196850393701
0
LINE
5
114
100
AcDbEntity
8
LAYOUT_BLOCK
6
ByLayer
62
256
370
-1
100
AcDbLine
10
3.12007874016
20
0
11
3.12007874016
21
0.196850393701
0
LINE
5
115
100
AcDbEntity
8
LAYOUT_BLOCK
6
ByLayer
62
256
370
-1
100
AcDbLine
10
4.58169291339
20
0
11
4.58169291339
21
0.196850393701
0
LINE
5
116
100
AcDbEntity
8
LAYOUT_BLOCK
6
ByLayer
62
256
370
-1
100
AcDbLine
10
6.04330708661
20
0
11
6.04330708661
21
0.196850393701
0
LINE
5
117
100
AcDbEntity
8
LAYOUT_BLOCK
6
ByLayer
62
256
370
-1
100
AcDbLine
10
7.50492125984
20
0
11
7.50492125984
21
0.196850393701
0
LINE
5
118
100
AcDbEntity
8
LAYOUT_BLOCK
6
ByLayer
62
256
370
-1
100
AcDbLine
10
8.96653543307
20
0
11
8.96653543307
21
0.196850393701
0
LINE
5
119
100
AcDbEntity
8
LAYOUT_BLOCK
6
ByLayer
62
256
370
-1
100
AcDbLine
10
10.4281496063
20
0
11
10.4281496063
21
0.196850393701
0
TEXT
5
11A
100
AcDbEntity
8
LAYOUT_BLOCK
6
ByLayer
62
256
370
-1
100
AcDbText
10
0.927657480315
20
0.0984251968504
30
0
40
0.11811023622
1
1
50
0
41
1
51
0
7
standard
71
0
72
1
11
0.927657480315
21
0.0984251968504
31
0
210
0
220
0
230
1
100
AcDbText
73
2
0
TEXT
5
11B
100
AcDbEntity
8
LAYOUT_BLOCK
6
ByLayer
62
256
370
-1
100
AcDbText
10
2.38927165354
20
0.0984251968504
30
0
40
0.11811023622
1
2
50
0
41
1
51
0
7
standard
71
0
72
1
11
2.38927165354
21
0.0984251968504
31
0
210
0
220
0
230
1
100
AcDbText
73
2
0
TEXT
5
11C
100
AcDbEntity
8
LAYOUT_BLOCK
6
ByLayer
62
256
370
-1
100
AcDbText
10
3.85088582677
20
0.0984251968504
30
0
40
0.11811023622
1
3
50
0
41
1
51
0
7
standard
71
0
72
1
11
3.85088582677
21
0.0984251968504
31
0
210
0
220
0
230
1
100
AcDbText
73
2
0
TEXT
5
11D
100
AcDbEntity
8
LAYOUT_BLOCK
6
ByLayer
62
256
370
-1
100
AcDbText
10
5.3125
20
0.0984251968504
30
0
40
0.11811023622
1
4
50
0
41
1
51
0
7
standard
71
0
72
1
11
5.3125
21
0.0984251968504
31
0
210
0
220
0
230
1
100
AcDbText
73
2
0
TEXT
5
11E
100
AcDbEntity
8
LAYOUT_BLOCK
6
ByLayer
62
256
370
-1
100
AcDbText
10
6.77411417323
20
0.0984251968504
30
0
40
0.11811023622
1
5
50
0
41
1
51
0
7
standard
71
0
72
1
11
6.77411417323
21
0.0984251968504
31
0
210
0
220
0
230
1
100
AcDbText
73
2
0
TEXT
5
11F
100
AcDbEntity
8
LAYOUT_BLOCK
6
ByLayer
62
256
370
-1
100
AcDbText
10
8.23572834646
20
0.0984251968504
30
0
40
0.11811023622
1
6
50
0
41
1
51
0
7
standard
71
0
72
1
11
8.23572834646
21
0.0984251968504
31
0
210
0
220
0
230
1
100
AcDbText
73
2
0
TEXT
5
120
100
AcDbEntity
8
LAYOUT_BLOCK
6
ByLayer
62
256
370
-1
100
AcDbText
10
9.69734251969
20
0.0984251968504
30
0
40
0.11811023622
1
7
50
0
41
1
51
0
7
standard
71
0
72
1
11
9.69734251969
21
0.0984251968504
31
0
210
0
220
0
230
1
100
AcDbText
73
2
0
TEXT
5
121
100
AcDbEntity
8
LAYOUT_BLOCK
6
ByLayer
62
256
370
-1
100
AcDbText
10
11.1589566929
20
0.0984251968504
30
0
40
0.11811023622
1
8
50
0
41
1
51
0
7
standard
71
0
72
1
11
11.1589566929
21
0.0984251968504
31
0
210
0
220
0
230
1
100
AcDbText
73
2
0
LINE
5
122
100
AcDbEntity
8
LAYOUT_BLOCK
6
ByLayer
62
256
370
-1
100
AcDbLine
10
7.95275590551
20
0.196850393701
11
7.95275590551
21
0.984251968504
0
TEXT
5
123
100
AcDbEntity
8
LAYOUT_BLOCK
6
ByLayer
62
256
370
-1
100
AcDbText
10
7.99212598425
20
0.944881889764
30
0
40
0.0787401574803
1
TITLE:
50
0
41
1
51
0
7
standard
71
0
11
7.99212598425
21
0.944881889764
31
0
210
0
220
0
230
1
100
AcDbText
73
3
0
TEXT
5
124
100
AcDbEntity
8
LAYOUT_BLOCK
6
ByLayer
62
256
370
-1
100
AcDbText
10
7.99212598425
20
0.551181102362
30
0
40
0.0787401574803
1
PART:
50
0
41
1
51
0
7
standard
71
0
11
7.99212598425
21
0.551181102362
31
0
210
0
220
0
230
1
100
AcDbText
73
3
0
LINE
5
125
100
AcDbEntity
8
LAYOUT_BLOCK
6
ByLayer
62
256
370
-1
100
AcDbLine
10
5.1968503937
20
0.984251968504
11
5.1968503937
21
0.196850393701
0
LINE
5
126
100
AcDbEntity
8
LAYOUT_BLOCK
6
ByLayer
62
256
370
-1
100
AcDbLine
10
5.1968503937
20
0.590551181102
11
11.8897637795
21
0.590551181102
0
TEXT
5
127
100
AcDbEntity
8
LAYOUT_BLOCK
6
ByLayer
62
256
370
-1
100
AcDbText
10
5.23622047244
20
0.944881889764
30
0
40
0.0787401574803
1
MATERIAL:
50
0
41
1
51
0
7
standard
71
0
11
5.23622047244
21
0.944881889764
31
0
210
0
220
0
230
1
100
AcDbText
73
3
0
TEXT
5
128
100
AcDbEntity
8
LAYOUT_BLOCK
6
ByLayer
62
256
370
-1
100
AcDbText
10
5.23622047244
20
0.551181102362
30
0
40
0.0787401574803
1
FINISHING:
50
0
41
1
51
0
7
standard
71
0
11
5.23622047244
21
0.551181102362
31
0
210
0
220
0
230
1
100
AcDbText
73
3
0
LINE
5
129
100
AcDbEntity
8
LAYOUT_BLOCK
6
ByLayer
62
256
370
-1
100
AcDbLine
10
0.196850393701
20
0.984251968504
11
11.887496063
21
0.981530708665
0
LINE
5
12A
100
AcDbEntity
8
LAYOUT_BLOCK
6
ByLayer
62
256
370
-1
100
AcDbLine
10
10.7086614173
20
8.46456692913
11
10.7086614173
21
8.07086614173
0
LINE
5
12B
100
AcDbEntity
8
LAYOUT_BLOCK
6
ByLayer
62
256
370
-1
100
AcDbLine
10
10.7086614173
20
8.07086614173
11
11.8897637795
21
8.07086614173
0
TEXT
5
12C
100
AcDbEntity
8
LAYOUT_BLOCK
6
ByLayer
62
256
370
-1
100
AcDbText
10
10.7480314961
20
8.42519685039
30
0
40
0.0787401574803
1
REVISION:
50
0
41
1
51
0
7
standard
71
0
11
10.7480314961
21
8.42519685039
31
0
210
0
220
0
230
1
100
AcDbText
73
3
0
ENDBLK
5
7D
330
7B
100
AcDbEntity
8
0
100
AcDbBlockEnd
0
ENDSEC
0
SECTION
2
ENTITIES
0
HATCH
5
12D
100
AcDbEntity
8
0
6
ByLayer
62
256
370
-1
100
AcDbHatch
10
0
20
0
30
0
210
0
220
0
230
1
2
ansi31
70
0
71
0
91
1
92
0
93
4
72
1
10
500
20
11
11
506
21
11
72
1
10
506
20
11
11
506
21
19
72
1
10
506
20
19
11
500
21
19
72
1
10
500
20
19
11
500
21
11
97
0
75
0
76
1
52
0
41
0.8
77
0
78
0
98
0
0
HATCH
5
12E
100
AcDbEntity
8
0
6
ByLayer
62
256
370
-1
100
AcDbHatch
10
0
20
0
30
0
210
0
220
0
230
1
2
ansi31
70
0
71
0
91
1
92
0
93
4
72
1
10
500.0000176
20
76
11
506.0000176
21
76
72
1
10
506.0000176
20
76
11
506.0000176
21
82
72
1
10
506.0000176
20
82
11
500.0000176
21
82
72
1
10
500.0000176
20
82
11
500.0000176
21
76
97
0
75
0
76
1
52
0
41
0.8
77
0
78
0
98
0
0
HATCH
5
12F
100
AcDbEntity
8
0
6
ByLayer
62
256
370
-1
100
AcDbHatch
10
0
20
0
30
0
210
0
220
0
230
1
2
ansi31
70
0
71
0
91
1
92
0
93
4
72
1
10
500.000017086
20
38.5
11
506.000017086
21
38.5
72
1
10
506.000017086
20
38.5
11
506.000017086
21
43.5
72
1
10
506.000017086
20
43.5
11
500.000017086
21
43.5
72
1
10
500.000017086
20
43.5
11
500.000017086
21
38.5
97
0
75
0
76
1
52
0
41
0.8
77
0
78
0
98
0
0
HATCH
5
130
100
AcDbEntity
8
0
6
ByLayer
62
256
370
-1
100
AcDbHatch
10
0
20
0
30
0
210
0
220
0
230
1
2
ansi31
70
0
71
0
91
1
92
0
93
4
72
1
10
500
20
274
11
506
21
274
72
1
10
506
20
274
11
506
21
280
72
1
10
506
20
280
11
500
21
280
72
1
10
500
20
280
11
500
21
274
97
0
75
0
76
1
52
0
41
0.8
77
0
78
0
98
0
0
HATCH
5
131
100
AcDbEntity
8
0
6
ByLayer
62
256
370
-1
100
AcDbHatch
10
0
20
0
30
0
210
0
220
0
230
1
2
ansi31
70
0
71
0
91
1
92
0
93
4
72
1
10
500
20
349
11
506
21
349
72
1
10
506
20
349
11
506
21
355
72
1
10
506
20
355
11
500
21
355
72
1
10
500
20
355
11
500
21
349
97
0
75
0
76
1
52
0
41
0.8
77
0
78
0
98
0
0
LINE
5
132
100
AcDbEntity
8
1
6
ByLayer
62
256
370
-1
100
AcDbLine
10
500
20
359.999
11
500
21
0
0
LINE
5
133
100
AcDbEntity
8
1
6
ByLayer
62
256
370
-1
100
AcDbLine
10
506
20
359.999
11
506
21
0
0
LINE
5
134
100
AcDbEntity
8
1
6
ByLayer
62
256
370
-1
100
AcDbLine
10
500
20
360
11
506
21
359.999
0
LINE
5
135
100
AcDbEntity
8
1
6
ByLayer
62
256
370
-1
100
AcDbLine
10
500
20
100
11
506
21
100
0
LINE
5
136
100
AcDbEntity
8
1
6
ByLayer
62
256
370
-1
100
AcDbLine
10
500
20
0
11
506
21
0
0
CIRCLE
5
137
100
AcDbEntity
8
0
6
ByLayer
62
256
370
-1
100
AcDbCircle
10
42
20
15
40
4
0
CIRCLE
5
138
100
AcDbEntity
8
0
6
ByLayer
62
256
370
-1
100
AcDbCircle
10
18
20
41
40
2
0
CIRCLE
5
139
100
AcDbEntity
8
0
6
ByLayer
62
256
370
-1
100
AcDbCircle
10
48
20
41
40
2
0
CIRCLE
5
13A
100
AcDbEntity
8
0
6
ByLayer
62
256
370
-1
100
AcDbCircle
10
18
20
79
40
2
0
CIRCLE
5
13B
100
AcDbEntity
8
0
6
ByLayer
62
256
370
-1
100
AcDbCircle
10
48
20
79
40
2
0
CIRCLE
5
13C
100
AcDbEntity
8
0
6
ByLayer
62
256
370
-1
100
AcDbCircle
10
182
20
41
40
2
0
CIRCLE
5
13D
100
AcDbEntity
8
0
6
ByLayer
62
256
370
-1
100
AcDbCircle
10
152
20
79
40
2
0
CIRCLE
5
13E
100
AcDbEntity
8
0
6
ByLayer
62
256
370
-1
100
AcDbCircle
10
182
20
79
40
2
0
CIRCLE
5
13F
100
AcDbEntity
8
0
6
ByLayer
62
256
370
-1
100
AcDbCircle
10
152
20
41
40
2
0
LINE
5
140
100
AcDbEntity
8
0
6
ByLayer
62
256
370
-1
100
AcDbLine
10
0
20
0
11
200
21
0
0
LINE
5
141
100
AcDbEntity
8
0
6
ByLayer
62
256
370
-1
100
AcDbLine
10
0
20
0
11
0
21
360
0
LINE
5
142
100
AcDbEntity
8
0
6
ByLayer
62
256
370
-1
100
AcDbLine
10
0
20
360
11
80
21
360
0
LINE
5
143
100
AcDbEntity
8
0
6
ByLayer
62
256
370
-1
100
AcDbLine
10
200
20
0
11
200
21
100
0
LINE
5
144
100
AcDbEntity
8
0
6
ByLayer
62
256
370
-1
100
AcDbLine
10
200
20
100
11
80
21
360
0
LINE
5
145
100
AcDbEntity
8
HELPER
6
ByLayer
62
256
370
-1
100
AcDbLine
10
18
20
100
11
18
21
-20
0
LINE
5
146
100
AcDbEntity
8
HELPER
6
ByLayer
62
256
370
-1
100
AcDbLine
10
42
20
-20
11
42
21
100
0
LINE
5
147
100
AcDbEntity
8
HELPER
6
ByLayer
62
256
370
-1
100
AcDbLine
10
48
20
100
11
48
21
-20
0
LINE
5
148
100
AcDbEntity
8
HELPER
6
ByLayer
62
256
370
-1
100
AcDbLine
10
152
20
79
11
152
21
-20
0
LINE
5
149
100
AcDbEntity
8
HELPER
6
ByLayer
62
256
370
-1
100
AcDbLine
10
182
20
79
11
182
21
-20
0
DIMENSION
5
14A
100
AcDbEntity
8
DIMENSION
6
ByLayer
62
256
370
-1
100
AcDbDimension
2
*D1
10
18
20
-30
30
0
11
9
21
-35
31
0
70
32
71
5
3
Standard
53
0
210
0
220
0
230
1
100
AcDbAlignedDimension
13
0
23
0
33
0
14
18
24
-20
34
0
100
AcDbRotatedDimension
0
DIMENSION
5
14B
100
AcDbEntity
8
DIMENSION
6
ByLayer
62
256
370
-1
100
AcDbDimension
2
*D2
10
42
20
-50
30
0
11
21
21
-56
31
0
70
32
71
5
3
Standard
53
0
210
0
220
0
230
1
100
AcDbAlignedDimension
13
0
23
-30
33
0
14
42
24
-20
34
0
100
AcDbRotatedDimension
0
DIMENSION
5
14C
100
AcDbEntity
8
DIMENSION
6
ByLayer
62
256
370
-1
100
AcDbDimension
2
*D3
10
48
20
-70
30
0
11
24
21
-75
31
0
70
32
71
5
3
Standard
53
0
210
0
220
0
230
1
100
AcDbAlignedDimension
13
0
23
-50
33
0
14
48
24
-20
34
0
100
AcDbRotatedDimension
0
DIMENSION
5
14D
100
AcDbEntity
8
DIMENSION
6
ByLayer
62
256
370
-1
100
AcDbDimension
2
*D4
10
152
20
-50
30
0
11
176
21
-56
31
0
70
32
71
5
3
Standard
53
0
210
0
220
0
230
1
100
AcDbAlignedDimension
13
200
23
-30
33
0
14
152
24
-20
34
0
100
AcDbRotatedDimension
0
DIMENSION
5
14E
100
AcDbEntity
8
DIMENSION
6
ByLayer
62
256
370
-1
100
AcDbDimension
2
*D5
10
182
20
-30
30
0
11
191
21
-36
31
0
70
32
71
5
3
Standard
53
0
210
0
220
0
230
1
100
AcDbAlignedDimension
13
200
23
0
33
0
14
182
24
-20
34
0
100
AcDbRotatedDimension
0
DIMENSION
5
14F
100
AcDbEntity
8
DIMENSION
6
ByLayer
62
256
370
-1
100
AcDbDimension
2
*D6
10
200
20
-90
30
0
11
100
21
-85.91
31
0
70
32
71
5
3
Standard
53
0
210
0
220
0
230
1
100
AcDbAlignedDimension
13
0
23
-70
33
0
14
200
24
-50
34
0
100
AcDbRotatedDimension
0
CIRCLE
5
150
100
AcDbEntity
8
0
6
CONTINUOUS
62
256
370
0
100
AcDbCircle
10
25
20
352
40
3
0
CIRCLE
5
151
100
AcDbEntity
8
0
6
CONTINUOUS
62
256
370
0
100
AcDbCircle
10
55
20
352
40
3
0
CIRCLE
5
152
100
AcDbEntity
8
0
6
CONTINUOUS
62
256
370
0
100
AcDbCircle
10
25
20
277
40
3
0
CIRCLE
5
153
100
AcDbEntity
8
0
6
CONTINUOUS
62
256
370
0
100
AcDbCircle
10
55
20
277
40
3
0
LINE
5
154
100
AcDbEntity
8
HELPER
6
ByLayer
62
256
370
-1
100
AcDbLine
10
-10
20
352
11
70
21
352
0
LINE
5
155
100
AcDbEntity
8
HELPER
6
ByLayer
62
256
370
-1
100
AcDbLine
10
-10
20
277
11
70
21
277
0
LINE
5
156
100
AcDbEntity
8
HELPER
6
ByLayer
62
256
370
-1
100
AcDbLine
10
25
20
270
11
25
21
370
0
LINE
5
157
100
AcDbEntity
8
HELPER
6
ByLayer
62
256
370
-1
100
AcDbLine
10
55
20
270
11
55
21
370
0
DIMENSION
5
158
100
AcDbEntity
8
DIMENSION
6
ByLayer
62
256
370
-1
100
AcDbDimension
2
*D7
10
25
20
370
30
0
11
12.5
21
374.09
31
0
70
32
71
5
3
Standard
53
0
210
0
220
0
230
1
100
AcDbAlignedDimension
13
0
23
360
33
0
14
25
24
370
34
0
100
AcDbRotatedDimension
0
DIMENSION
5
159
100
AcDbEntity
8
DIMENSION
6
ByLayer
62
256
370
-1
100
AcDbDimension
2
*D8
10
80
20
370
30
0
11
67.5
21
374.09
31
0
70
32
71
5
3
Standard
53
0
210
0
220
0
230
1
100
AcDbAlignedDimension
13
55
23
370
33
0
14
80
24
360
34
0
100
AcDbRotatedDimension
0
DIMENSION
5
15A
100
AcDbEntity
8
DIMENSION
6
ByLayer
62
256
370
-1
100
AcDbDimension
2
*D9
10
80
20
390
30
0
11
40
21
394.09
31
0
70
32
71
5
3
Standard
53
0
210
0
220
0
230
1
100
AcDbAlignedDimension
13
0
23
370
33
0
14
80
24
370
34
0
100
AcDbRotatedDimension
0
DIMENSION
5
15B
100
AcDbEntity
8
DIMENSION
6
ByLayer
62
256
370
-1
100
AcDbDimension
2
*D10
10
-20
20
352
30
0
11
-24.09
21
356
31
0
70
32
71
5
3
Standard
53
0
210
0
220
0
230
1
100
AcDbAlignedDimension
13
0
23
360
33
0
14
-10
24
352
34
0
50
90
100
AcDbRotatedDimension
0
DIMENSION
5
15C
100
AcDbEntity
8
DIMENSION
6
ByLayer
62
256
370
-1
100
AcDbDimension
2
*D11
10
-40
20
277
30
0
11
-44.09
21
318.5
31
0
70
32
71
5
3
Standard
53
0
210
0
220
0
230
1
100
AcDbAlignedDimension
13
-20
23
360
33
0
14
-10
24
277
34
0
50
90
100
AcDbRotatedDimension
0
LINE
5
15D
100
AcDbEntity
8
HELPER
6
ByLayer
62
256
370
-1
100
AcDbLine
10
-10
20
79
11
210
21
79
0
LINE
5
15E
100
AcDbEntity
8
HELPER
6
ByLayer
62
256
370
-1
100
AcDbLine
10
-10
20
41
11
210
21
41
0
LINE
5
15F
100
AcDbEntity
8
HELPER
6
ByLayer
62
256
370
-1
100
AcDbLine
10
-10
20
15
11
70
21
15
0
DIMENSION
5
160
100
AcDbEntity
8
DIMENSION
6
ByLayer
62
256
370
-1
100
AcDbDimension
2
*D12
10
-20
20
15
30
0
11
-24.09
21
7.5
31
0
70
32
71
5
3
Standard
53
0
210
0
220
0
230
1
100
AcDbAlignedDimension
13
0
23
0
33
0
14
-10
24
15
34
0
50
90
100
AcDbRotatedDimension
0
DIMENSION
5
161
100
AcDbEntity
8
DIMENSION
6
ByLayer
62
256
370
-1
100
AcDbDimension
2
*D13
10
-40
20
41
30
0
11
-44.09
21
20.5
31
0
70
32
71
5
3
Standard
53
0
210
0
220
0
230
1
100
AcDbAlignedDimension
13
-20
23
0
33
0
14
-10
24
41
34
0
50
90
100
AcDbRotatedDimension
0
DIMENSION
5
162
100
AcDbEntity
8
DIMENSION
6
ByLayer
62
256
370
-1
100
AcDbDimension
2
*D14
10
-60
20
79
30
0
11
-64.09
21
39.5
31
0
70
32
71
5
3
Standard
53
0
210
0
220
0
230
1
100
AcDbAlignedDimension
13
-20
23
0
33
0
14
-10
24
79
34
0
50
90
100
AcDbRotatedDimension
0
DIMENSION
5
163
100
AcDbEntity
8
DIMENSION
6
ByLayer
62
256
370
-1
100
AcDbDimension
2
*D15
10
-80
20
360
30
0
11
-84.09
21
180
31
0
70
32
71
5
3
Standard
53
0
210
0
220
0
230
1
100
AcDbAlignedDimension
13
-60
23
0
33
0
14
-40
24
360
34
0
50
90
100
AcDbRotatedDimension
0
TEXT
5
164
100
AcDbEntity
8
LAYOUT_TEXT
6
ByLayer
62
256
370
-1
100
AcDbText
10
-79.9324297118
20
-194.362451575
30
0
40
13.9691338582
1
FLAMECUT CNC PLASMA TABLE
50
0
41
1
51
0
7
standard
71
0
72
1
11
-79.9324297118
21
-194.362451575
31
0
210
0
220
0
230
1
100
AcDbText
73
2
0
TEXT
5
165
100
AcDbEntity
8
LAYOUT_TEXT
6
ByLayer
62
256
370
-1
100
AcDbText
10
-81.3189128118
20
-223.264379991
30
0
40
10.4768503937
1
http://flamecut.marcelodelnero.com.br
50
0
41
1
51
0
7
standard
71
0
72
1
11
-81.3189128118
21
-223.264379991
31
0
210
0
220
0
230
1
100
AcDbText
73
2
0
INSERT
5
166
100
AcDbEntity
8
LAYOUT_BLOCK
6
ByLayer
62
256
370
-1
100
AcDbBlockReference
2
TITLE_BLOCK
10
-310.936550607
20
-265.826584716
30
0
41
88.704
42
88.704
43
0
50
0
70
1
71
1
44
88.704
45
88.704
0
TEXT
5
167
100
AcDbEntity
8
LAYOUT_TEXT
6
ByLayer
62
256
370
-1
100
AcDbText
10
584.360323199
20
-195.235522441
30
0
40
13.96912
1
GANTRY SIDE PLATE
50
0
41
1
51
0
7
standard
71
0
72
1
11
584.360323199
21
-195.235522441
31
0
210
0
220
0
230
1
100
AcDbText
73
2
0
TEXT
5
168
100
AcDbEntity
8
LAYOUT_TEXT
6
ByLayer
62
256
370
-1
100
AcDbText
10
585.974316479
20
-228.941364357
30
0
40
13.96912
1
GANTRY_SIDE_PLATE
50
0
41
1
51
0
7
standard
71
0
72
1
11
585.974316479
21
-228.941364357
31
0
210
0
220
0
230
1
100
AcDbText
73
2
0
TEXT
5
169
100
AcDbEntity
8
LAYOUT_TEXT
6
ByLayer
62
256
370
-1
100
AcDbText
10
266.135718468
20
-229.540418678
30
0
40
6.984544
1
ANODIZING
50
0
41
1
51
0
7
standard
71
0
72
1
11
266.135718468
21
-229.540418678
31
0
210
0
220
0
230
1
100
AcDbText
73
2
0
TEXT
5
16A
100
AcDbEntity
8
LAYOUT_TEXT
6
ByLayer
62
256
370
-1
100
AcDbText
10
275.965890378
20
-198.768975179
30
0
40
6.984544
1
6MM ALUMINIUM
50
0
41
1
51
0
7
standard
71
0
72
1
11
275.965890378
21
-198.768975179
31
0
210
0
220
0
230
1
100
AcDbText
73
2
0
TEXT
5
16B
100
AcDbEntity
8
LAYOUT_TEXT
6
ByLayer
62
256
370
-1
100
AcDbText
10
709.468258545
20
462.934188423
30
0
40
6.984544
1
001 - 18/03/14
50
0
41
1
51
0
7
standard
71
0
72
1
11
709.468258545
21
462.934188423
31
0
210
0
220
0
230
1
100
AcDbText
73
2
0
TEXT
5
16C
100
AcDbEntity
8
DIMENSION
6
ByLayer
62
256
370
-1
100
AcDbText
10
39.3546213585
20
312.458394851
30
0
40
5
1
6MM HOLES
50
0
41
1
51
0
7
standard
71
0
210
0
220
0
230
1
100
AcDbText
0
TEXT
5
16D
100
AcDbEntity
8
DIMENSION
6
ByLayer
62
256
370
-1
100
AcDbText
10
16.4973589545
20
57.4108091616
30
0
40
5
1
5MM HOLES
50
0
41
1
51
0
7
standard
71
0
210
0
220
0
230
1
100
AcDbText
0
TEXT
5
16E
100
AcDbEntity
8
DIMENSION
6
ByLayer
62
256
370
-1
100
AcDbText
10
152.435596739
20
56.7509148034
30
0
40
5
1
5MM HOLES
50
0
41
1
51
0
7
standard
71
0
210
0
220
0
230
1
100
AcDbText
0
TEXT
5
16F
100
AcDbEntity
8
DIMENSION
6
ByLayer
62
256
370
-1
100
AcDbText
10
52.1316542962
20
14.5176758799
30
0
40
5
1
M8 THREAD
50
0
41
1
51
0
7
standard
71
0
210
0
220
0
230
1
100
AcDbText
0
DIMENSION
5
170
100
AcDbEntity
8
DIMENSION
6
ByLayer
62
256
370
-1
100
AcDbDimension
2
*D16
10
506
20
-30
30
0
11
503
21
-25.91
31
0
70
32
71
5
3
Standard
53
0
210
0
220
0
230
1
100
AcDbAlignedDimension
13
500
23
-10
33
0
14
506
24
-10
34
0
100
AcDbRotatedDimension
0
LINE
5
171
100
AcDbEntity
8
0
6
ByLayer
62
256
370
-1
100
AcDbLine
10
500
20
349
11
506
21
349
0
LINE
5
172
100
AcDbEntity
8
0
6
ByLayer
62
256
370
-1
100
AcDbLine
10
506
20
355
11
500
21
355
0
LINE
5
173
100
AcDbEntity
8
0
6
ByLayer
62
256
370
-1
100
AcDbLine
10
500
20
274
11
506
21
274
0
LINE
5
174
100
AcDbEntity
8
0
6
ByLayer
62
256
370
-1
100
AcDbLine
10
506
20
280
11
500
21
280
0
LINE
5
175
100
AcDbEntity
8
0
6
ByLayer
62
256
370
-1
100
AcDbLine
10
500.000017086
20
38.5
11
506.000017086
21
38.5
0
LINE
5
176
100
AcDbEntity
8
0
6
ByLayer
62
256
370
-1
100
AcDbLine
10
506.000017086
20
43.5
11
500.000017086
21
43.5
0
LINE
5
177
100
AcDbEntity
8
0
6
ByLayer
62
256
370
-1
100
AcDbLine
10
500.0000176
20
76
11
506.0000176
21
76
0
LINE
5
178
100
AcDbEntity
8
0
6
ByLayer
62
256
370
-1
100
AcDbLine
10
506.0000176
20
82
11
500.0000176
21
82
0
LINE
5
179
100
AcDbEntity
8
0
6
ByLayer
62
256
370
-1
100
AcDbLine
10
500
20
11
11
506
21
11
0
LINE
5
17A
100
AcDbEntity
8
0
6
ByLayer
62
256
370
-1
100
AcDbLine
10
506
20
19
11
500
21
19
0
ENDSEC
0
SECTION
2
OBJECTS
0
DICTIONARY
5
C
330
0
100
AcDbDictionary
281
1
3
ACAD_GROUP
350
D
0
DICTIONARY
5
D
330
C
100
AcDbDictionary
281
1
0
ENDSEC
0
EOF
