solid OpenSCAD_Model
  facet normal 0.623429 0.78188 0
    outer loop
      vertex 16.348 78.132 6
      vertex 17.705 77.05 6
      vertex 16.348 78.132 0
    endloop
  endfacet
  facet normal 0.623429 0.78188 0
    outer loop
      vertex 16.348 78.132 0
      vertex 17.705 77.05 6
      vertex 17.705 77.05 0
    endloop
  endfacet
  facet normal 1 0 0
    outer loop
      vertex 16.348 78.132 0
      vertex 16.348 79.867 0
      vertex 16.348 79.867 6
    endloop
  endfacet
  facet normal 1 0 0
    outer loop
      vertex 16.348 78.132 6
      vertex 16.348 78.132 0
      vertex 16.348 79.867 6
    endloop
  endfacet
  facet normal 0 0 -1
    outer loop
      vertex 50.15 78.999 0
      vertex 80 359.999 0
      vertex 200 99.999 0
    endloop
  endfacet
  facet normal 0 0 -1
    outer loop
      vertex 183.85 40.999 0
      vertex 200 99.999 0
      vertex 199.997 0 0
    endloop
  endfacet
  facet normal 0 0 -1
    outer loop
      vertex 17.705 77.05 0
      vertex 0 0 0
      vertex 16.348 78.132 0
    endloop
  endfacet
  facet normal 0 0 -1
    outer loop
      vertex 0 0 0
      vertex 16.348 40.132 0
      vertex 17.705 39.05 0
    endloop
  endfacet
  facet normal 0 0 -1
    outer loop
      vertex 0 0 0
      vertex 17.705 39.05 0
      vertex 19.397 39.436 0
    endloop
  endfacet
  facet normal 0 0 -1
    outer loop
      vertex 47.705 42.949 0
      vertex 19.397 39.436 0
      vertex 200 99.999 0
    endloop
  endfacet
  facet normal 0 0 -1
    outer loop
      vertex 19.397 42.563 0
      vertex 200 99.999 0
      vertex 20.15 40.999 0
    endloop
  endfacet
  facet normal 0 0 -1
    outer loop
      vertex 17.705 42.949 0
      vertex 80 359.999 0
      vertex 19.397 42.563 0
    endloop
  endfacet
  facet normal 0 0 -1
    outer loop
      vertex 16.348 41.867 0
      vertex 80 359.999 0
      vertex 17.705 42.949 0
    endloop
  endfacet
  facet normal 0 0 -1
    outer loop
      vertex 16.348 79.867 0
      vertex 80 359.999 0
      vertex 17.705 80.949 0
    endloop
  endfacet
  facet normal 0 0 -1
    outer loop
      vertex 20.15 78.999 0
      vertex 80 359.999 0
      vertex 16.348 41.867 0
    endloop
  endfacet
  facet normal 0 0 -1
    outer loop
      vertex 0 0 0
      vertex 16.348 41.867 0
      vertex 16.348 40.132 0
    endloop
  endfacet
  facet normal 0 0 -1
    outer loop
      vertex 38.116 15.043 0
      vertex 0 0 0
      vertex 38.116 16.957 0
    endloop
  endfacet
  facet normal 0 0 -1
    outer loop
      vertex 0 359.999 0
      vertex 16.348 78.132 0
      vertex 0 0 0
    endloop
  endfacet
  facet normal 0 0 -1
    outer loop
      vertex 19.397 80.563 0
      vertex 80 359.999 0
      vertex 20.15 78.999 0
    endloop
  endfacet
  facet normal 0 0 -1
    outer loop
      vertex 0 0 0
      vertex 17.705 77.05 0
      vertex 16.348 41.867 0
    endloop
  endfacet
  facet normal 0 0 -1
    outer loop
      vertex 17.705 80.949 0
      vertex 80 359.999 0
      vertex 19.397 80.563 0
    endloop
  endfacet
  facet normal 0 0 -1
    outer loop
      vertex 17.705 77.05 0
      vertex 19.397 77.436 0
      vertex 16.348 41.867 0
    endloop
  endfacet
  facet normal 0 0 -1
    outer loop
      vertex 19.397 77.436 0
      vertex 20.15 78.999 0
      vertex 16.348 41.867 0
    endloop
  endfacet
  facet normal 0 0 -1
    outer loop
      vertex 58 276.999 0
      vertex 80 359.999 0
      vertex 16.348 79.867 0
    endloop
  endfacet
  facet normal 0 0 -1
    outer loop
      vertex 0 359.999 0
      vertex 16.348 79.867 0
      vertex 16.348 78.132 0
    endloop
  endfacet
  facet normal 0 0 -1
    outer loop
      vertex 38.116 16.957 0
      vertex 0 0 0
      vertex 39.006 18.652 0
    endloop
  endfacet
  facet normal 0 0 -1
    outer loop
      vertex 0 0 0
      vertex 38.116 15.043 0
      vertex 39.006 13.347 0
    endloop
  endfacet
  facet normal 0 0 -1
    outer loop
      vertex 0 0 0
      vertex 39.006 13.347 0
      vertex 40.582 12.26 0
    endloop
  endfacet
  facet normal 0 0 -1
    outer loop
      vertex 0 0 0
      vertex 40.582 12.26 0
      vertex 42.482 12.029 0
    endloop
  endfacet
  facet normal 0 0 -1
    outer loop
      vertex 0 0 0
      vertex 42.482 12.029 0
      vertex 199.997 0 0
    endloop
  endfacet
  facet normal 0 0 -1
    outer loop
      vertex 45.542 14.141 0
      vertex 199.997 0 0
      vertex 44.272 12.708 0
    endloop
  endfacet
  facet normal 0 0 -1
    outer loop
      vertex 46 16 0
      vertex 199.997 0 0
      vertex 45.542 14.141 0
    endloop
  endfacet
  facet normal 0 0 -1
    outer loop
      vertex 45.542 17.859 0
      vertex 200 99.999 0
      vertex 46 16 0
    endloop
  endfacet
  facet normal 0 0 -1
    outer loop
      vertex 44.272 19.292 0
      vertex 200 99.999 0
      vertex 45.542 17.859 0
    endloop
  endfacet
  facet normal 0 0 -1
    outer loop
      vertex 42.482 19.971 0
      vertex 200 99.999 0
      vertex 44.272 19.292 0
    endloop
  endfacet
  facet normal 0 0 -1
    outer loop
      vertex 44.272 12.708 0
      vertex 199.997 0 0
      vertex 42.482 12.029 0
    endloop
  endfacet
  facet normal 0 0 -1
    outer loop
      vertex 40.582 19.74 0
      vertex 200 99.999 0
      vertex 42.482 19.971 0
    endloop
  endfacet
  facet normal 0 0 -1
    outer loop
      vertex 0 0 0
      vertex 200 99.999 0
      vertex 40.582 19.74 0
    endloop
  endfacet
  facet normal 0 0 -1
    outer loop
      vertex 0 0 0
      vertex 40.582 19.74 0
      vertex 39.006 18.652 0
    endloop
  endfacet
  facet normal 0 0 -1
    outer loop
      vertex 153.097 42.563 0
      vertex 181.405 77.05 0
      vertex 153.85 40.999 0
    endloop
  endfacet
  facet normal 0 0 -1
    outer loop
      vertex 0 0 0
      vertex 19.397 39.436 0
      vertex 46.348 40.132 0
    endloop
  endfacet
  facet normal 0 0 -1
    outer loop
      vertex 0 0 0
      vertex 46.348 40.132 0
      vertex 47.705 39.05 0
    endloop
  endfacet
  facet normal 0 0 -1
    outer loop
      vertex 49.397 42.563 0
      vertex 151.405 80.949 0
      vertex 50.15 40.999 0
    endloop
  endfacet
  facet normal 0 0 -1
    outer loop
      vertex 0 0 0
      vertex 47.705 39.05 0
      vertex 49.397 39.436 0
    endloop
  endfacet
  facet normal 0 0 -1
    outer loop
      vertex 49.397 42.563 0
      vertex 200 99.999 0
      vertex 151.405 80.949 0
    endloop
  endfacet
  facet normal 0 0 -1
    outer loop
      vertex 27.427 278.763 0
      vertex 80 359.999 0
      vertex 28 276.999 0
    endloop
  endfacet
  facet normal 0 0 -1
    outer loop
      vertex 46.348 41.867 0
      vertex 19.397 39.436 0
      vertex 47.705 42.949 0
    endloop
  endfacet
  facet normal 0 0 -1
    outer loop
      vertex 49.397 42.563 0
      vertex 47.705 42.949 0
      vertex 200 99.999 0
    endloop
  endfacet
  facet normal 0 0 -1
    outer loop
      vertex 46.348 40.132 0
      vertex 19.397 39.436 0
      vertex 46.348 41.867 0
    endloop
  endfacet
  facet normal 0 0 -1
    outer loop
      vertex 27.427 350.236 0
      vertex 80 359.999 0
      vertex 54.073 354.853 0
    endloop
  endfacet
  facet normal 0 0 -1
    outer loop
      vertex 0 359.999 0
      vertex 22 276.999 0
      vertex 16.348 79.867 0
    endloop
  endfacet
  facet normal 0 0 -1
    outer loop
      vertex 22.573 278.763 0
      vertex 80 359.999 0
      vertex 24.073 279.853 0
    endloop
  endfacet
  facet normal 0 0 -1
    outer loop
      vertex 22 276.999 0
      vertex 22.573 275.236 0
      vertex 16.348 79.867 0
    endloop
  endfacet
  facet normal 0 0 -1
    outer loop
      vertex 24.073 279.853 0
      vertex 80 359.999 0
      vertex 25.927 279.853 0
    endloop
  endfacet
  facet normal 0 0 -1
    outer loop
      vertex 22.573 275.236 0
      vertex 24.073 274.146 0
      vertex 16.348 79.867 0
    endloop
  endfacet
  facet normal 0 0 -1
    outer loop
      vertex 25.927 279.853 0
      vertex 80 359.999 0
      vertex 27.427 278.763 0
    endloop
  endfacet
  facet normal 0 0 -1
    outer loop
      vertex 24.073 274.146 0
      vertex 25.927 274.146 0
      vertex 16.348 79.867 0
    endloop
  endfacet
  facet normal 0 0 -1
    outer loop
      vertex 28 276.999 0
      vertex 80 359.999 0
      vertex 27.427 275.236 0
    endloop
  endfacet
  facet normal 0 0 -1
    outer loop
      vertex 25.927 274.146 0
      vertex 27.427 275.236 0
      vertex 16.348 79.867 0
    endloop
  endfacet
  facet normal 0 0 -1
    outer loop
      vertex 27.427 350.236 0
      vertex 54.073 354.853 0
      vertex 25.927 349.146 0
    endloop
  endfacet
  facet normal 0 0 -1
    outer loop
      vertex 55.927 349.146 0
      vertex 80 359.999 0
      vertex 22.573 278.763 0
    endloop
  endfacet
  facet normal 0 0 -1
    outer loop
      vertex 0 359.999 0
      vertex 22.573 278.763 0
      vertex 22 276.999 0
    endloop
  endfacet
  facet normal 0 0 -1
    outer loop
      vertex 22.573 353.763 0
      vertex 0 359.999 0
      vertex 24.073 354.853 0
    endloop
  endfacet
  facet normal 0 0 -1
    outer loop
      vertex 0 359.999 0
      vertex 22 351.999 0
      vertex 22.573 278.763 0
    endloop
  endfacet
  facet normal 0 0 -1
    outer loop
      vertex 27.427 353.763 0
      vertex 80 359.999 0
      vertex 28 351.999 0
    endloop
  endfacet
  facet normal 0 0 -1
    outer loop
      vertex 22 351.999 0
      vertex 22.573 350.236 0
      vertex 22.573 278.763 0
    endloop
  endfacet
  facet normal 0 0 -1
    outer loop
      vertex 28 351.999 0
      vertex 80 359.999 0
      vertex 27.427 350.236 0
    endloop
  endfacet
  facet normal 0 0 -1
    outer loop
      vertex 22.573 350.236 0
      vertex 24.073 349.146 0
      vertex 22.573 278.763 0
    endloop
  endfacet
  facet normal 0 0 -1
    outer loop
      vertex 52.573 353.763 0
      vertex 25.927 349.146 0
      vertex 54.073 354.853 0
    endloop
  endfacet
  facet normal 0 0 -1
    outer loop
      vertex 24.073 349.146 0
      vertex 25.927 349.146 0
      vertex 22.573 278.763 0
    endloop
  endfacet
  facet normal 0 0 -1
    outer loop
      vertex 25.927 354.853 0
      vertex 80 359.999 0
      vertex 27.427 353.763 0
    endloop
  endfacet
  facet normal 0 0 -1
    outer loop
      vertex 0 359.999 0
      vertex 80 359.999 0
      vertex 25.927 354.853 0
    endloop
  endfacet
  facet normal 0 0 -1
    outer loop
      vertex 0 359.999 0
      vertex 25.927 354.853 0
      vertex 24.073 354.853 0
    endloop
  endfacet
  facet normal 0 0 -1
    outer loop
      vertex 57.427 278.763 0
      vertex 80 359.999 0
      vertex 58 276.999 0
    endloop
  endfacet
  facet normal 0 0 -1
    outer loop
      vertex 0 359.999 0
      vertex 22.573 353.763 0
      vertex 22 351.999 0
    endloop
  endfacet
  facet normal 0 0 -1
    outer loop
      vertex 50.15 78.999 0
      vertex 200 99.999 0
      vertex 49.397 77.436 0
    endloop
  endfacet
  facet normal 0 0 -1
    outer loop
      vertex 27.427 275.236 0
      vertex 52 276.999 0
      vertex 16.348 79.867 0
    endloop
  endfacet
  facet normal 0 0 -1
    outer loop
      vertex 52 276.999 0
      vertex 52.573 275.236 0
      vertex 16.348 79.867 0
    endloop
  endfacet
  facet normal 0 0 -1
    outer loop
      vertex 52.573 278.763 0
      vertex 80 359.999 0
      vertex 54.073 279.853 0
    endloop
  endfacet
  facet normal 0 0 -1
    outer loop
      vertex 52.573 275.236 0
      vertex 54.073 274.146 0
      vertex 16.348 79.867 0
    endloop
  endfacet
  facet normal 0 0 -1
    outer loop
      vertex 54.073 279.853 0
      vertex 80 359.999 0
      vertex 55.927 279.853 0
    endloop
  endfacet
  facet normal 0 0 -1
    outer loop
      vertex 54.073 274.146 0
      vertex 55.927 274.146 0
      vertex 16.348 79.867 0
    endloop
  endfacet
  facet normal 0 0 -1
    outer loop
      vertex 55.927 279.853 0
      vertex 80 359.999 0
      vertex 57.427 278.763 0
    endloop
  endfacet
  facet normal 0 0 -1
    outer loop
      vertex 55.927 274.146 0
      vertex 57.427 275.236 0
      vertex 16.348 79.867 0
    endloop
  endfacet
  facet normal 0 0 -1
    outer loop
      vertex 57.427 275.236 0
      vertex 58 276.999 0
      vertex 16.348 79.867 0
    endloop
  endfacet
  facet normal 0 0 -1
    outer loop
      vertex 27.427 275.236 0
      vertex 80 359.999 0
      vertex 52.573 278.763 0
    endloop
  endfacet
  facet normal 0 0 -1
    outer loop
      vertex 27.427 275.236 0
      vertex 52.573 278.763 0
      vertex 52 276.999 0
    endloop
  endfacet
  facet normal 0 0 -1
    outer loop
      vertex 52 351.999 0
      vertex 25.927 349.146 0
      vertex 52.573 353.763 0
    endloop
  endfacet
  facet normal 0 0 -1
    outer loop
      vertex 19.397 42.563 0
      vertex 46.348 78.132 0
      vertex 47.705 77.05 0
    endloop
  endfacet
  facet normal 0 0 -1
    outer loop
      vertex 19.397 42.563 0
      vertex 47.705 77.05 0
      vertex 200 99.999 0
    endloop
  endfacet
  facet normal 0 0 -1
    outer loop
      vertex 47.705 77.05 0
      vertex 49.397 77.436 0
      vertex 200 99.999 0
    endloop
  endfacet
  facet normal 0 0 -1
    outer loop
      vertex 49.397 80.563 0
      vertex 80 359.999 0
      vertex 50.15 78.999 0
    endloop
  endfacet
  facet normal 0 0 -1
    outer loop
      vertex 46.348 79.867 0
      vertex 80 359.999 0
      vertex 47.705 80.949 0
    endloop
  endfacet
  facet normal 0 0 -1
    outer loop
      vertex 47.705 80.949 0
      vertex 80 359.999 0
      vertex 49.397 80.563 0
    endloop
  endfacet
  facet normal 0 0 -1
    outer loop
      vertex 19.397 42.563 0
      vertex 80 359.999 0
      vertex 46.348 79.867 0
    endloop
  endfacet
  facet normal 0 0 -1
    outer loop
      vertex 19.397 42.563 0
      vertex 46.348 79.867 0
      vertex 46.348 78.132 0
    endloop
  endfacet
  facet normal 0 0 -1
    outer loop
      vertex 54.073 354.853 0
      vertex 80 359.999 0
      vertex 55.927 354.853 0
    endloop
  endfacet
  facet normal 0 0 -1
    outer loop
      vertex 25.927 349.146 0
      vertex 52 351.999 0
      vertex 22.573 278.763 0
    endloop
  endfacet
  facet normal 0 0 -1
    outer loop
      vertex 52 351.999 0
      vertex 52.573 350.236 0
      vertex 22.573 278.763 0
    endloop
  endfacet
  facet normal 0 0 -1
    outer loop
      vertex 57.427 353.763 0
      vertex 80 359.999 0
      vertex 58 351.999 0
    endloop
  endfacet
  facet normal 0 0 -1
    outer loop
      vertex 52.573 350.236 0
      vertex 54.073 349.146 0
      vertex 22.573 278.763 0
    endloop
  endfacet
  facet normal 0 0 -1
    outer loop
      vertex 57.427 350.236 0
      vertex 80 359.999 0
      vertex 55.927 349.146 0
    endloop
  endfacet
  facet normal 0 0 -1
    outer loop
      vertex 54.073 349.146 0
      vertex 55.927 349.146 0
      vertex 22.573 278.763 0
    endloop
  endfacet
  facet normal 0 0 -1
    outer loop
      vertex 150.048 79.867 0
      vertex 50.15 40.999 0
      vertex 151.405 80.949 0
    endloop
  endfacet
  facet normal 0 0 -1
    outer loop
      vertex 55.927 354.853 0
      vertex 80 359.999 0
      vertex 57.427 353.763 0
    endloop
  endfacet
  facet normal 0 0 -1
    outer loop
      vertex 58 351.999 0
      vertex 80 359.999 0
      vertex 57.427 350.236 0
    endloop
  endfacet
  facet normal 0 0 -1
    outer loop
      vertex 150.048 78.132 0
      vertex 49.397 39.436 0
      vertex 150.048 79.867 0
    endloop
  endfacet
  facet normal 0 0 -1
    outer loop
      vertex 0 0 0
      vertex 49.397 39.436 0
      vertex 150.048 78.132 0
    endloop
  endfacet
  facet normal 0 0 -1
    outer loop
      vertex 150.048 79.867 0
      vertex 49.397 39.436 0
      vertex 50.15 40.999 0
    endloop
  endfacet
  facet normal 0 0 -1
    outer loop
      vertex 0 0 0
      vertex 150.048 78.132 0
      vertex 151.405 77.05 0
    endloop
  endfacet
  facet normal 0 0 -1
    outer loop
      vertex 0 0 0
      vertex 151.405 77.05 0
      vertex 153.097 77.436 0
    endloop
  endfacet
  facet normal 0 0 -1
    outer loop
      vertex 0 0 0
      vertex 153.097 77.436 0
      vertex 200 99.999 0
    endloop
  endfacet
  facet normal 0 0 -1
    outer loop
      vertex 153.097 80.563 0
      vertex 200 99.999 0
      vertex 153.85 78.999 0
    endloop
  endfacet
  facet normal 0 0 -1
    outer loop
      vertex 153.85 78.999 0
      vertex 200 99.999 0
      vertex 153.097 77.436 0
    endloop
  endfacet
  facet normal 0 0 -1
    outer loop
      vertex 151.405 80.949 0
      vertex 200 99.999 0
      vertex 153.097 80.563 0
    endloop
  endfacet
  facet normal 0 0 -1
    outer loop
      vertex 183.097 42.563 0
      vertex 200 99.999 0
      vertex 183.85 40.999 0
    endloop
  endfacet
  facet normal 0 0 -1
    outer loop
      vertex 46 16 0
      vertex 150.048 40.132 0
      vertex 199.997 0 0
    endloop
  endfacet
  facet normal 0 0 -1
    outer loop
      vertex 150.048 40.132 0
      vertex 151.405 39.05 0
      vertex 199.997 0 0
    endloop
  endfacet
  facet normal 0 0 -1
    outer loop
      vertex 151.405 39.05 0
      vertex 153.097 39.436 0
      vertex 199.997 0 0
    endloop
  endfacet
  facet normal 0 0 -1
    outer loop
      vertex 181.405 80.949 0
      vertex 200 99.999 0
      vertex 183.097 80.563 0
    endloop
  endfacet
  facet normal 0 0 -1
    outer loop
      vertex 46 16 0
      vertex 151.405 42.949 0
      vertex 150.048 41.867 0
    endloop
  endfacet
  facet normal 0 0 -1
    outer loop
      vertex 46 16 0
      vertex 150.048 41.867 0
      vertex 150.048 40.132 0
    endloop
  endfacet
  facet normal 0 0 -1
    outer loop
      vertex 181.405 77.05 0
      vertex 153.097 42.563 0
      vertex 151.405 42.949 0
    endloop
  endfacet
  facet normal 0 0 -1
    outer loop
      vertex 153.097 39.436 0
      vertex 180.048 40.132 0
      vertex 199.997 0 0
    endloop
  endfacet
  facet normal 0 0 -1
    outer loop
      vertex 180.048 41.867 0
      vertex 200 99.999 0
      vertex 181.405 42.949 0
    endloop
  endfacet
  facet normal 0 0 -1
    outer loop
      vertex 180.048 40.132 0
      vertex 181.405 39.05 0
      vertex 199.997 0 0
    endloop
  endfacet
  facet normal 0 0 -1
    outer loop
      vertex 181.405 42.949 0
      vertex 200 99.999 0
      vertex 183.097 42.563 0
    endloop
  endfacet
  facet normal 0 0 -1
    outer loop
      vertex 181.405 39.05 0
      vertex 183.097 39.436 0
      vertex 199.997 0 0
    endloop
  endfacet
  facet normal 0 0 -1
    outer loop
      vertex 183.097 39.436 0
      vertex 183.85 40.999 0
      vertex 199.997 0 0
    endloop
  endfacet
  facet normal 0 0 -1
    outer loop
      vertex 181.405 77.05 0
      vertex 151.405 42.949 0
      vertex 180.048 78.132 0
    endloop
  endfacet
  facet normal 0 0 -1
    outer loop
      vertex 183.097 77.436 0
      vertex 200 99.999 0
      vertex 180.048 41.867 0
    endloop
  endfacet
  facet normal 0 0 -1
    outer loop
      vertex 153.097 39.436 0
      vertex 180.048 41.867 0
      vertex 180.048 40.132 0
    endloop
  endfacet
  facet normal 0 0 -1
    outer loop
      vertex 46 16 0
      vertex 180.048 78.132 0
      vertex 151.405 42.949 0
    endloop
  endfacet
  facet normal 0 0 -1
    outer loop
      vertex 183.097 77.436 0
      vertex 153.097 39.436 0
      vertex 153.85 40.999 0
    endloop
  endfacet
  facet normal 0 0 -1
    outer loop
      vertex 183.097 77.436 0
      vertex 153.85 40.999 0
      vertex 181.405 77.05 0
    endloop
  endfacet
  facet normal 0 0 -1
    outer loop
      vertex 183.85 78.999 0
      vertex 200 99.999 0
      vertex 183.097 77.436 0
    endloop
  endfacet
  facet normal 0 0 -1
    outer loop
      vertex 153.097 39.436 0
      vertex 183.097 77.436 0
      vertex 180.048 41.867 0
    endloop
  endfacet
  facet normal 0 0 -1
    outer loop
      vertex 183.097 80.563 0
      vertex 200 99.999 0
      vertex 183.85 78.999 0
    endloop
  endfacet
  facet normal 0 0 -1
    outer loop
      vertex 46 16 0
      vertex 200 99.999 0
      vertex 181.405 80.949 0
    endloop
  endfacet
  facet normal 0 0 -1
    outer loop
      vertex 46 16 0
      vertex 181.405 80.949 0
      vertex 180.048 79.867 0
    endloop
  endfacet
  facet normal 0 0 -1
    outer loop
      vertex 46 16 0
      vertex 180.048 79.867 0
      vertex 180.048 78.132 0
    endloop
  endfacet
  facet normal 0 0 -1
    outer loop
      vertex 20.15 40.999 0
      vertex 200 99.999 0
      vertex 19.397 39.436 0
    endloop
  endfacet
  facet normal -0.222418 0.974951 0
    outer loop
      vertex 17.705 77.05 6
      vertex 19.397 77.436 6
      vertex 17.705 77.05 0
    endloop
  endfacet
  facet normal -0.222418 0.974951 0
    outer loop
      vertex 17.705 77.05 0
      vertex 19.397 77.436 6
      vertex 19.397 77.436 0
    endloop
  endfacet
  facet normal 0 0 1
    outer loop
      vertex 183.85 40.999 6
      vertex 199.997 0 6
      vertex 200 99.999 6
    endloop
  endfacet
  facet normal 0 0 1
    outer loop
      vertex 16.348 79.867 6
      vertex 17.705 80.949 6
      vertex 80 359.999 6
    endloop
  endfacet
  facet normal 0 0 1
    outer loop
      vertex 153.097 77.436 6
      vertex 0 0 6
      vertex 200 99.999 6
    endloop
  endfacet
  facet normal 0 0 1
    outer loop
      vertex 19.397 39.436 6
      vertex 17.705 39.05 6
      vertex 0 0 6
    endloop
  endfacet
  facet normal 0 0 1
    outer loop
      vertex 16.348 41.867 6
      vertex 0 0 6
      vertex 16.348 40.132 6
    endloop
  endfacet
  facet normal 0 0 1
    outer loop
      vertex 19.397 42.563 6
      vertex 20.15 40.999 6
      vertex 200 99.999 6
    endloop
  endfacet
  facet normal 0 0 1
    outer loop
      vertex 40.582 19.74 6
      vertex 42.482 19.971 6
      vertex 200 99.999 6
    endloop
  endfacet
  facet normal 0 0 1
    outer loop
      vertex 49.397 77.436 6
      vertex 17.705 42.949 6
      vertex 200 99.999 6
    endloop
  endfacet
  facet normal 0 0 1
    outer loop
      vertex 17.705 42.949 6
      vertex 19.397 42.563 6
      vertex 200 99.999 6
    endloop
  endfacet
  facet normal 0 0 1
    outer loop
      vertex 19.397 77.436 6
      vertex 0 0 6
      vertex 16.348 41.867 6
    endloop
  endfacet
  facet normal 0 0 1
    outer loop
      vertex 20.15 40.999 6
      vertex 19.397 39.436 6
      vertex 200 99.999 6
    endloop
  endfacet
  facet normal 0 0 1
    outer loop
      vertex 16.348 40.132 6
      vertex 0 0 6
      vertex 17.705 39.05 6
    endloop
  endfacet
  facet normal 0 0 1
    outer loop
      vertex 17.705 80.949 6
      vertex 19.397 80.563 6
      vertex 80 359.999 6
    endloop
  endfacet
  facet normal 0 0 1
    outer loop
      vertex 0 359.999 6
      vertex 0 0 6
      vertex 16.348 78.132 6
    endloop
  endfacet
  facet normal 0 0 1
    outer loop
      vertex 58 276.999 6
      vertex 16.348 79.867 6
      vertex 80 359.999 6
    endloop
  endfacet
  facet normal 0 0 1
    outer loop
      vertex 0 359.999 6
      vertex 16.348 78.132 6
      vertex 16.348 79.867 6
    endloop
  endfacet
  facet normal 0 0 1
    outer loop
      vertex 49.397 42.563 6
      vertex 50.15 40.999 6
      vertex 151.405 80.949 6
    endloop
  endfacet
  facet normal 0 0 1
    outer loop
      vertex 80 359.999 6
      vertex 20.15 78.999 6
      vertex 16.348 41.867 6
    endloop
  endfacet
  facet normal 0 0 1
    outer loop
      vertex 80 359.999 6
      vertex 19.397 80.563 6
      vertex 20.15 78.999 6
    endloop
  endfacet
  facet normal 0 0 1
    outer loop
      vertex 20.15 78.999 6
      vertex 19.397 77.436 6
      vertex 16.348 41.867 6
    endloop
  endfacet
  facet normal 0 0 1
    outer loop
      vertex 19.397 77.436 6
      vertex 17.705 77.05 6
      vertex 0 0 6
    endloop
  endfacet
  facet normal 0 0 1
    outer loop
      vertex 46 16 6
      vertex 45.542 14.141 6
      vertex 199.997 0 6
    endloop
  endfacet
  facet normal 0 0 1
    outer loop
      vertex 44.272 19.292 6
      vertex 45.542 17.859 6
      vertex 200 99.999 6
    endloop
  endfacet
  facet normal 0 0 1
    outer loop
      vertex 0 0 6
      vertex 38.116 15.043 6
      vertex 38.116 16.957 6
    endloop
  endfacet
  facet normal 0 0 1
    outer loop
      vertex 42.482 19.971 6
      vertex 44.272 19.292 6
      vertex 200 99.999 6
    endloop
  endfacet
  facet normal 0 0 1
    outer loop
      vertex 0 0 6
      vertex 38.116 16.957 6
      vertex 39.006 18.652 6
    endloop
  endfacet
  facet normal 0 0 1
    outer loop
      vertex 0 0 6
      vertex 40.582 19.74 6
      vertex 200 99.999 6
    endloop
  endfacet
  facet normal 0 0 1
    outer loop
      vertex 0 0 6
      vertex 39.006 18.652 6
      vertex 40.582 19.74 6
    endloop
  endfacet
  facet normal 0 0 1
    outer loop
      vertex 46 16 6
      vertex 199.997 0 6
      vertex 45.542 17.859 6
    endloop
  endfacet
  facet normal 0 0 1
    outer loop
      vertex 42.482 12.029 6
      vertex 40.582 12.26 6
      vertex 0 0 6
    endloop
  endfacet
  facet normal 0 0 1
    outer loop
      vertex 44.272 12.708 6
      vertex 199.997 0 6
      vertex 45.542 14.141 6
    endloop
  endfacet
  facet normal 0 0 1
    outer loop
      vertex 42.482 12.029 6
      vertex 199.997 0 6
      vertex 44.272 12.708 6
    endloop
  endfacet
  facet normal 0 0 1
    outer loop
      vertex 40.582 12.26 6
      vertex 39.006 13.347 6
      vertex 0 0 6
    endloop
  endfacet
  facet normal 0 0 1
    outer loop
      vertex 0 0 6
      vertex 199.997 0 6
      vertex 42.482 12.029 6
    endloop
  endfacet
  facet normal 0 0 1
    outer loop
      vertex 47.705 42.949 6
      vertex 49.397 42.563 6
      vertex 200 99.999 6
    endloop
  endfacet
  facet normal 0 0 1
    outer loop
      vertex 0 0 6
      vertex 39.006 13.347 6
      vertex 38.116 15.043 6
    endloop
  endfacet
  facet normal 0 0 1
    outer loop
      vertex 22.573 275.236 6
      vertex 22 276.999 6
      vertex 16.348 79.867 6
    endloop
  endfacet
  facet normal 0 0 1
    outer loop
      vertex 19.397 39.436 6
      vertex 0 0 6
      vertex 46.348 40.132 6
    endloop
  endfacet
  facet normal 0 0 1
    outer loop
      vertex 49.397 42.563 6
      vertex 151.405 80.949 6
      vertex 200 99.999 6
    endloop
  endfacet
  facet normal 0 0 1
    outer loop
      vertex 19.397 39.436 6
      vertex 46.348 40.132 6
      vertex 46.348 41.867 6
    endloop
  endfacet
  facet normal 0 0 1
    outer loop
      vertex 19.397 39.436 6
      vertex 47.705 42.949 6
      vertex 200 99.999 6
    endloop
  endfacet
  facet normal 0 0 1
    outer loop
      vertex 19.397 39.436 6
      vertex 46.348 41.867 6
      vertex 47.705 42.949 6
    endloop
  endfacet
  facet normal 0 0 1
    outer loop
      vertex 151.405 80.949 6
      vertex 153.097 80.563 6
      vertex 200 99.999 6
    endloop
  endfacet
  facet normal 0 0 1
    outer loop
      vertex 25.927 354.853 6
      vertex 27.427 353.763 6
      vertex 80 359.999 6
    endloop
  endfacet
  facet normal 0 0 1
    outer loop
      vertex 46.348 40.132 6
      vertex 0 0 6
      vertex 47.705 39.05 6
    endloop
  endfacet
  facet normal 0 0 1
    outer loop
      vertex 0 359.999 6
      vertex 16.348 79.867 6
      vertex 22 351.999 6
    endloop
  endfacet
  facet normal 0 0 1
    outer loop
      vertex 27.427 353.763 6
      vertex 28 351.999 6
      vertex 80 359.999 6
    endloop
  endfacet
  facet normal 0 0 1
    outer loop
      vertex 0 359.999 6
      vertex 22 351.999 6
      vertex 22.573 353.763 6
    endloop
  endfacet
  facet normal 0 0 1
    outer loop
      vertex 0 359.999 6
      vertex 24.073 354.853 6
      vertex 80 359.999 6
    endloop
  endfacet
  facet normal 0 0 1
    outer loop
      vertex 0 359.999 6
      vertex 22.573 353.763 6
      vertex 24.073 354.853 6
    endloop
  endfacet
  facet normal 0 0 1
    outer loop
      vertex 24.073 354.853 6
      vertex 25.927 354.853 6
      vertex 80 359.999 6
    endloop
  endfacet
  facet normal 0 0 1
    outer loop
      vertex 22 276.999 6
      vertex 22.573 278.763 6
      vertex 24.073 349.146 6
    endloop
  endfacet
  facet normal 0 0 1
    outer loop
      vertex 27.427 275.236 6
      vertex 25.927 274.146 6
      vertex 16.348 79.867 6
    endloop
  endfacet
  facet normal 0 0 1
    outer loop
      vertex 150.048 79.867 6
      vertex 151.405 80.949 6
      vertex 50.15 40.999 6
    endloop
  endfacet
  facet normal 0 0 1
    outer loop
      vertex 22 351.999 6
      vertex 16.348 79.867 6
      vertex 22.573 350.236 6
    endloop
  endfacet
  facet normal 0 0 1
    outer loop
      vertex 22.573 350.236 6
      vertex 22 276.999 6
      vertex 24.073 349.146 6
    endloop
  endfacet
  facet normal 0 0 1
    outer loop
      vertex 22.573 350.236 6
      vertex 16.348 79.867 6
      vertex 22 276.999 6
    endloop
  endfacet
  facet normal 0 0 1
    outer loop
      vertex 24.073 349.146 6
      vertex 22.573 278.763 6
      vertex 25.927 349.146 6
    endloop
  endfacet
  facet normal 0 0 1
    outer loop
      vertex 25.927 349.146 6
      vertex 24.073 279.853 6
      vertex 27.427 350.236 6
    endloop
  endfacet
  facet normal 0 0 1
    outer loop
      vertex 57.427 350.236 6
      vertex 25.927 279.853 6
      vertex 80 359.999 6
    endloop
  endfacet
  facet normal 0 0 1
    outer loop
      vertex 25.927 279.853 6
      vertex 27.427 278.763 6
      vertex 80 359.999 6
    endloop
  endfacet
  facet normal 0 0 1
    outer loop
      vertex 27.427 278.763 6
      vertex 28 276.999 6
      vertex 80 359.999 6
    endloop
  endfacet
  facet normal 0 0 1
    outer loop
      vertex 27.427 275.236 6
      vertex 16.348 79.867 6
      vertex 28 276.999 6
    endloop
  endfacet
  facet normal 0 0 1
    outer loop
      vertex 25.927 274.146 6
      vertex 24.073 274.146 6
      vertex 16.348 79.867 6
    endloop
  endfacet
  facet normal 0 0 1
    outer loop
      vertex 24.073 274.146 6
      vertex 22.573 275.236 6
      vertex 16.348 79.867 6
    endloop
  endfacet
  facet normal 0 0 1
    outer loop
      vertex 181.405 77.05 6
      vertex 150.048 41.867 6
      vertex 151.405 42.949 6
    endloop
  endfacet
  facet normal 0 0 1
    outer loop
      vertex 52.573 278.763 6
      vertex 54.073 279.853 6
      vertex 80 359.999 6
    endloop
  endfacet
  facet normal 0 0 1
    outer loop
      vertex 24.073 279.853 6
      vertex 28 351.999 6
      vertex 27.427 350.236 6
    endloop
  endfacet
  facet normal 0 0 1
    outer loop
      vertex 22.573 278.763 6
      vertex 24.073 279.853 6
      vertex 25.927 349.146 6
    endloop
  endfacet
  facet normal 0 0 1
    outer loop
      vertex 57.427 275.236 6
      vertex 55.927 274.146 6
      vertex 16.348 79.867 6
    endloop
  endfacet
  facet normal 0 0 1
    outer loop
      vertex 28 276.999 6
      vertex 16.348 79.867 6
      vertex 52 276.999 6
    endloop
  endfacet
  facet normal 0 0 1
    outer loop
      vertex 28 276.999 6
      vertex 52.573 278.763 6
      vertex 80 359.999 6
    endloop
  endfacet
  facet normal 0 0 1
    outer loop
      vertex 28 276.999 6
      vertex 52 276.999 6
      vertex 52.573 278.763 6
    endloop
  endfacet
  facet normal 0 0 1
    outer loop
      vertex 54.073 279.853 6
      vertex 55.927 279.853 6
      vertex 80 359.999 6
    endloop
  endfacet
  facet normal 0 0 1
    outer loop
      vertex 55.927 279.853 6
      vertex 57.427 278.763 6
      vertex 80 359.999 6
    endloop
  endfacet
  facet normal 0 0 1
    outer loop
      vertex 57.427 278.763 6
      vertex 58 276.999 6
      vertex 80 359.999 6
    endloop
  endfacet
  facet normal 0 0 1
    outer loop
      vertex 57.427 275.236 6
      vertex 16.348 79.867 6
      vertex 58 276.999 6
    endloop
  endfacet
  facet normal 0 0 1
    outer loop
      vertex 55.927 274.146 6
      vertex 54.073 274.146 6
      vertex 16.348 79.867 6
    endloop
  endfacet
  facet normal 0 0 1
    outer loop
      vertex 54.073 274.146 6
      vertex 52.573 275.236 6
      vertex 16.348 79.867 6
    endloop
  endfacet
  facet normal 0 0 1
    outer loop
      vertex 46.348 79.867 6
      vertex 47.705 80.949 6
      vertex 80 359.999 6
    endloop
  endfacet
  facet normal 0 0 1
    outer loop
      vertex 52 276.999 6
      vertex 16.348 79.867 6
      vertex 52.573 275.236 6
    endloop
  endfacet
  facet normal 0 0 1
    outer loop
      vertex 55.927 354.853 6
      vertex 57.427 353.763 6
      vertex 80 359.999 6
    endloop
  endfacet
  facet normal 0 0 1
    outer loop
      vertex 46.348 79.867 6
      vertex 17.705 42.949 6
      vertex 46.348 78.132 6
    endloop
  endfacet
  facet normal 0 0 1
    outer loop
      vertex 50.15 78.999 6
      vertex 49.397 77.436 6
      vertex 200 99.999 6
    endloop
  endfacet
  facet normal 0 0 1
    outer loop
      vertex 80 359.999 6
      vertex 17.705 42.949 6
      vertex 46.348 79.867 6
    endloop
  endfacet
  facet normal 0 0 1
    outer loop
      vertex 80 359.999 6
      vertex 47.705 80.949 6
      vertex 200 99.999 6
    endloop
  endfacet
  facet normal 0 0 1
    outer loop
      vertex 47.705 80.949 6
      vertex 49.397 80.563 6
      vertex 200 99.999 6
    endloop
  endfacet
  facet normal 0 0 1
    outer loop
      vertex 49.397 80.563 6
      vertex 50.15 78.999 6
      vertex 200 99.999 6
    endloop
  endfacet
  facet normal 0 0 1
    outer loop
      vertex 47.705 77.05 6
      vertex 17.705 42.949 6
      vertex 49.397 77.436 6
    endloop
  endfacet
  facet normal 0 0 1
    outer loop
      vertex 46.348 78.132 6
      vertex 17.705 42.949 6
      vertex 47.705 77.05 6
    endloop
  endfacet
  facet normal 0 0 1
    outer loop
      vertex 57.427 350.236 6
      vertex 55.927 349.146 6
      vertex 25.927 279.853 6
    endloop
  endfacet
  facet normal 0 0 1
    outer loop
      vertex 28 351.999 6
      vertex 25.927 279.853 6
      vertex 52 351.999 6
    endloop
  endfacet
  facet normal 0 0 1
    outer loop
      vertex 57.427 353.763 6
      vertex 58 351.999 6
      vertex 80 359.999 6
    endloop
  endfacet
  facet normal 0 0 1
    outer loop
      vertex 28 351.999 6
      vertex 52 351.999 6
      vertex 52.573 353.763 6
    endloop
  endfacet
  facet normal 0 0 1
    outer loop
      vertex 28 351.999 6
      vertex 54.073 354.853 6
      vertex 80 359.999 6
    endloop
  endfacet
  facet normal 0 0 1
    outer loop
      vertex 28 351.999 6
      vertex 52.573 353.763 6
      vertex 54.073 354.853 6
    endloop
  endfacet
  facet normal 0 0 1
    outer loop
      vertex 54.073 354.853 6
      vertex 55.927 354.853 6
      vertex 80 359.999 6
    endloop
  endfacet
  facet normal 0 0 1
    outer loop
      vertex 58 351.999 6
      vertex 57.427 350.236 6
      vertex 80 359.999 6
    endloop
  endfacet
  facet normal 0 0 1
    outer loop
      vertex 151.405 77.05 6
      vertex 150.048 78.132 6
      vertex 0 0 6
    endloop
  endfacet
  facet normal 0 0 1
    outer loop
      vertex 54.073 349.146 6
      vertex 25.927 279.853 6
      vertex 55.927 349.146 6
    endloop
  endfacet
  facet normal 0 0 1
    outer loop
      vertex 52.573 350.236 6
      vertex 25.927 279.853 6
      vertex 54.073 349.146 6
    endloop
  endfacet
  facet normal 0 0 1
    outer loop
      vertex 52 351.999 6
      vertex 25.927 279.853 6
      vertex 52.573 350.236 6
    endloop
  endfacet
  facet normal 0 0 1
    outer loop
      vertex 49.397 39.436 6
      vertex 0 0 6
      vertex 150.048 78.132 6
    endloop
  endfacet
  facet normal 0 0 1
    outer loop
      vertex 181.405 77.05 6
      vertex 151.405 42.949 6
      vertex 153.097 42.563 6
    endloop
  endfacet
  facet normal 0 0 1
    outer loop
      vertex 49.397 39.436 6
      vertex 150.048 78.132 6
      vertex 150.048 79.867 6
    endloop
  endfacet
  facet normal 0 0 1
    outer loop
      vertex 49.397 39.436 6
      vertex 47.705 39.05 6
      vertex 0 0 6
    endloop
  endfacet
  facet normal 0 0 1
    outer loop
      vertex 153.097 80.563 6
      vertex 153.85 78.999 6
      vertex 200 99.999 6
    endloop
  endfacet
  facet normal 0 0 1
    outer loop
      vertex 153.85 78.999 6
      vertex 153.097 77.436 6
      vertex 200 99.999 6
    endloop
  endfacet
  facet normal 0 0 1
    outer loop
      vertex 151.405 77.05 6
      vertex 0 0 6
      vertex 153.097 77.436 6
    endloop
  endfacet
  facet normal 0 0 1
    outer loop
      vertex 150.048 79.867 6
      vertex 50.15 40.999 6
      vertex 49.397 39.436 6
    endloop
  endfacet
  facet normal 0 0 1
    outer loop
      vertex 180.048 41.867 6
      vertex 181.405 42.949 6
      vertex 200 99.999 6
    endloop
  endfacet
  facet normal 0 0 1
    outer loop
      vertex 45.542 17.859 6
      vertex 199.997 0 6
      vertex 150.048 40.132 6
    endloop
  endfacet
  facet normal 0 0 1
    outer loop
      vertex 181.405 80.949 6
      vertex 183.097 80.563 6
      vertex 200 99.999 6
    endloop
  endfacet
  facet normal 0 0 1
    outer loop
      vertex 45.542 17.859 6
      vertex 150.048 40.132 6
      vertex 150.048 41.867 6
    endloop
  endfacet
  facet normal 0 0 1
    outer loop
      vertex 153.85 40.999 6
      vertex 199.997 0 6
      vertex 153.097 42.563 6
    endloop
  endfacet
  facet normal 0 0 1
    outer loop
      vertex 153.097 39.436 6
      vertex 199.997 0 6
      vertex 153.85 40.999 6
    endloop
  endfacet
  facet normal 0 0 1
    outer loop
      vertex 151.405 39.05 6
      vertex 199.997 0 6
      vertex 153.097 39.436 6
    endloop
  endfacet
  facet normal 0 0 1
    outer loop
      vertex 150.048 40.132 6
      vertex 199.997 0 6
      vertex 151.405 39.05 6
    endloop
  endfacet
  facet normal 0 0 1
    outer loop
      vertex 183.85 40.999 6
      vertex 183.097 39.436 6
      vertex 199.997 0 6
    endloop
  endfacet
  facet normal 0 0 1
    outer loop
      vertex 153.097 42.563 6
      vertex 199.997 0 6
      vertex 180.048 40.132 6
    endloop
  endfacet
  facet normal 0 0 1
    outer loop
      vertex 183.85 78.999 6
      vertex 180.048 41.867 6
      vertex 200 99.999 6
    endloop
  endfacet
  facet normal 0 0 1
    outer loop
      vertex 153.097 42.563 6
      vertex 180.048 40.132 6
      vertex 180.048 41.867 6
    endloop
  endfacet
  facet normal 0 0 1
    outer loop
      vertex 183.097 77.436 6
      vertex 181.405 77.05 6
      vertex 153.097 42.563 6
    endloop
  endfacet
  facet normal 0 0 1
    outer loop
      vertex 181.405 42.949 6
      vertex 183.097 42.563 6
      vertex 200 99.999 6
    endloop
  endfacet
  facet normal 0 0 1
    outer loop
      vertex 183.097 42.563 6
      vertex 183.85 40.999 6
      vertex 200 99.999 6
    endloop
  endfacet
  facet normal 0 0 1
    outer loop
      vertex 183.097 39.436 6
      vertex 181.405 39.05 6
      vertex 199.997 0 6
    endloop
  endfacet
  facet normal 0 0 1
    outer loop
      vertex 180.048 40.132 6
      vertex 199.997 0 6
      vertex 181.405 39.05 6
    endloop
  endfacet
  facet normal 0 0 1
    outer loop
      vertex 183.097 80.563 6
      vertex 183.85 78.999 6
      vertex 200 99.999 6
    endloop
  endfacet
  facet normal 0 0 1
    outer loop
      vertex 45.542 17.859 6
      vertex 150.048 41.867 6
      vertex 180.048 78.132 6
    endloop
  endfacet
  facet normal 0 0 1
    outer loop
      vertex 45.542 17.859 6
      vertex 180.048 79.867 6
      vertex 200 99.999 6
    endloop
  endfacet
  facet normal 0 0 1
    outer loop
      vertex 45.542 17.859 6
      vertex 180.048 78.132 6
      vertex 180.048 79.867 6
    endloop
  endfacet
  facet normal 0 0 1
    outer loop
      vertex 180.048 79.867 6
      vertex 181.405 80.949 6
      vertex 200 99.999 6
    endloop
  endfacet
  facet normal 0 0 1
    outer loop
      vertex 183.097 77.436 6
      vertex 180.048 41.867 6
      vertex 183.85 78.999 6
    endloop
  endfacet
  facet normal 0 0 1
    outer loop
      vertex 153.097 42.563 6
      vertex 180.048 41.867 6
      vertex 183.097 77.436 6
    endloop
  endfacet
  facet normal 0 0 1
    outer loop
      vertex 16.348 41.867 6
      vertex 17.705 42.949 6
      vertex 80 359.999 6
    endloop
  endfacet
  facet normal 0 0 1
    outer loop
      vertex 17.705 77.05 6
      vertex 16.348 78.132 6
      vertex 0 0 6
    endloop
  endfacet
  facet normal 0 0 1
    outer loop
      vertex 24.073 279.853 6
      vertex 25.927 279.853 6
      vertex 28 351.999 6
    endloop
  endfacet
  facet normal 0 0 1
    outer loop
      vertex 181.405 77.05 6
      vertex 180.048 78.132 6
      vertex 150.048 41.867 6
    endloop
  endfacet
  facet normal 0.623429 -0.78188 0
    outer loop
      vertex 16.348 79.867 0
      vertex 17.705 80.949 0
      vertex 17.705 80.949 6
    endloop
  endfacet
  facet normal 0.623429 -0.78188 0
    outer loop
      vertex 16.348 79.867 6
      vertex 16.348 79.867 0
      vertex 17.705 80.949 6
    endloop
  endfacet
  facet normal 0 -1 0
    outer loop
      vertex 0 0 0
      vertex 199.997 0 0
      vertex 199.997 0 6
    endloop
  endfacet
  facet normal 0 -1 0
    outer loop
      vertex 0 0 6
      vertex 0 0 0
      vertex 199.997 0 6
    endloop
  endfacet
  facet normal -1 0 0
    outer loop
      vertex 0 0 6
      vertex 0 359.999 6
      vertex 0 0 0
    endloop
  endfacet
  facet normal -1 0 0
    outer loop
      vertex 0 0 0
      vertex 0 359.999 6
      vertex 0 359.999 0
    endloop
  endfacet
  facet normal 1 -3.00003e-005 0
    outer loop
      vertex 199.997 0 0
      vertex 200 99.999 0
      vertex 200 99.999 6
    endloop
  endfacet
  facet normal 1 -3.00003e-005 0
    outer loop
      vertex 199.997 0 6
      vertex 199.997 0 0
      vertex 200 99.999 6
    endloop
  endfacet
  facet normal 0.907959 0.419058 0
    outer loop
      vertex 80 359.999 0
      vertex 80 359.999 6
      vertex 200 99.999 6
    endloop
  endfacet
  facet normal 0.907959 0.419058 0
    outer loop
      vertex 200 99.999 0
      vertex 80 359.999 0
      vertex 200 99.999 6
    endloop
  endfacet
  facet normal 0 1 0
    outer loop
      vertex 0 359.999 6
      vertex 80 359.999 6
      vertex 0 359.999 0
    endloop
  endfacet
  facet normal 0 1 0
    outer loop
      vertex 0 359.999 0
      vertex 80 359.999 6
      vertex 80 359.999 0
    endloop
  endfacet
  facet normal 0.623429 0.78188 0
    outer loop
      vertex 16.348 40.132 6
      vertex 17.705 39.05 6
      vertex 16.348 40.132 0
    endloop
  endfacet
  facet normal 0.623429 0.78188 0
    outer loop
      vertex 16.348 40.132 0
      vertex 17.705 39.05 6
      vertex 17.705 39.05 0
    endloop
  endfacet
  facet normal 1 0 0
    outer loop
      vertex 16.348 40.132 0
      vertex 16.348 41.867 0
      vertex 16.348 41.867 6
    endloop
  endfacet
  facet normal 1 0 0
    outer loop
      vertex 16.348 40.132 6
      vertex 16.348 40.132 0
      vertex 16.348 41.867 6
    endloop
  endfacet
  facet normal 0.623429 -0.78188 0
    outer loop
      vertex 16.348 41.867 0
      vertex 17.705 42.949 0
      vertex 17.705 42.949 6
    endloop
  endfacet
  facet normal 0.623429 -0.78188 0
    outer loop
      vertex 16.348 41.867 6
      vertex 16.348 41.867 0
      vertex 17.705 42.949 6
    endloop
  endfacet
  facet normal -0.222418 -0.974951 0
    outer loop
      vertex 17.705 42.949 0
      vertex 19.397 42.563 0
      vertex 19.397 42.563 6
    endloop
  endfacet
  facet normal -0.222418 -0.974951 0
    outer loop
      vertex 17.705 42.949 6
      vertex 17.705 42.949 0
      vertex 19.397 42.563 6
    endloop
  endfacet
  facet normal -0.90101 -0.433798 0
    outer loop
      vertex 20.15 40.999 0
      vertex 20.15 40.999 6
      vertex 19.397 42.563 0
    endloop
  endfacet
  facet normal -0.90101 -0.433798 0
    outer loop
      vertex 19.397 42.563 0
      vertex 20.15 40.999 6
      vertex 19.397 42.563 6
    endloop
  endfacet
  facet normal -0.900902 0.434024 0
    outer loop
      vertex 19.397 39.436 6
      vertex 20.15 40.999 6
      vertex 19.397 39.436 0
    endloop
  endfacet
  facet normal -0.900902 0.434024 0
    outer loop
      vertex 19.397 39.436 0
      vertex 20.15 40.999 6
      vertex 20.15 40.999 0
    endloop
  endfacet
  facet normal -0.222418 0.974951 0
    outer loop
      vertex 17.705 39.05 6
      vertex 19.397 39.436 6
      vertex 17.705 39.05 0
    endloop
  endfacet
  facet normal -0.222418 0.974951 0
    outer loop
      vertex 17.705 39.05 0
      vertex 19.397 39.436 6
      vertex 19.397 39.436 0
    endloop
  endfacet
  facet normal -0.222418 -0.974951 0
    outer loop
      vertex 17.705 80.949 0
      vertex 19.397 80.563 0
      vertex 19.397 80.563 6
    endloop
  endfacet
  facet normal -0.222418 -0.974951 0
    outer loop
      vertex 17.705 80.949 6
      vertex 17.705 80.949 0
      vertex 19.397 80.563 6
    endloop
  endfacet
  facet normal -0.90101 -0.433798 0
    outer loop
      vertex 20.15 78.999 0
      vertex 20.15 78.999 6
      vertex 19.397 80.563 0
    endloop
  endfacet
  facet normal -0.90101 -0.433798 0
    outer loop
      vertex 19.397 80.563 0
      vertex 20.15 78.999 6
      vertex 19.397 80.563 6
    endloop
  endfacet
  facet normal -0.900902 0.434024 0
    outer loop
      vertex 19.397 77.436 6
      vertex 20.15 78.999 6
      vertex 19.397 77.436 0
    endloop
  endfacet
  facet normal -0.900902 0.434024 0
    outer loop
      vertex 19.397 77.436 0
      vertex 20.15 78.999 6
      vertex 20.15 78.999 0
    endloop
  endfacet
  facet normal 0.885484 0.46467 0
    outer loop
      vertex 38.116 15.043 0
      vertex 38.116 15.043 6
      vertex 39.006 13.347 6
    endloop
  endfacet
  facet normal 0.885484 0.46467 0
    outer loop
      vertex 39.006 13.347 0
      vertex 38.116 15.043 0
      vertex 39.006 13.347 6
    endloop
  endfacet
  facet normal 1 0 0
    outer loop
      vertex 38.116 15.043 0
      vertex 38.116 16.957 0
      vertex 38.116 16.957 6
    endloop
  endfacet
  facet normal 1 0 0
    outer loop
      vertex 38.116 15.043 6
      vertex 38.116 15.043 0
      vertex 38.116 16.957 6
    endloop
  endfacet
  facet normal 0.885371 -0.464885 0
    outer loop
      vertex 38.116 16.957 0
      vertex 39.006 18.652 0
      vertex 39.006 18.652 6
    endloop
  endfacet
  facet normal 0.885371 -0.464885 0
    outer loop
      vertex 38.116 16.957 6
      vertex 38.116 16.957 0
      vertex 39.006 18.652 6
    endloop
  endfacet
  facet normal 0.568123 -0.822943 0
    outer loop
      vertex 39.006 18.652 0
      vertex 40.582 19.74 0
      vertex 40.582 19.74 6
    endloop
  endfacet
  facet normal 0.568123 -0.822943 0
    outer loop
      vertex 39.006 18.652 6
      vertex 39.006 18.652 0
      vertex 40.582 19.74 6
    endloop
  endfacet
  facet normal 0.12069 -0.99269 0
    outer loop
      vertex 40.582 19.74 0
      vertex 42.482 19.971 0
      vertex 42.482 19.971 6
    endloop
  endfacet
  facet normal 0.12069 -0.99269 0
    outer loop
      vertex 40.582 19.74 6
      vertex 40.582 19.74 0
      vertex 42.482 19.971 6
    endloop
  endfacet
  facet normal -0.35467 -0.934992 0
    outer loop
      vertex 42.482 19.971 0
      vertex 44.272 19.292 0
      vertex 44.272 19.292 6
    endloop
  endfacet
  facet normal -0.35467 -0.934992 0
    outer loop
      vertex 42.482 19.971 6
      vertex 42.482 19.971 0
      vertex 44.272 19.292 6
    endloop
  endfacet
  facet normal -0.748388 -0.663261 0
    outer loop
      vertex 45.542 17.859 0
      vertex 45.542 17.859 6
      vertex 44.272 19.292 0
    endloop
  endfacet
  facet normal -0.748388 -0.663261 0
    outer loop
      vertex 44.272 19.292 0
      vertex 45.542 17.859 6
      vertex 44.272 19.292 6
    endloop
  endfacet
  facet normal -0.970966 -0.239216 0
    outer loop
      vertex 46 16 0
      vertex 46 16 6
      vertex 45.542 17.859 0
    endloop
  endfacet
  facet normal -0.970966 -0.239216 0
    outer loop
      vertex 45.542 17.859 0
      vertex 46 16 6
      vertex 45.542 17.859 6
    endloop
  endfacet
  facet normal -0.970966 0.239216 0
    outer loop
      vertex 45.542 14.141 6
      vertex 46 16 6
      vertex 45.542 14.141 0
    endloop
  endfacet
  facet normal -0.970966 0.239216 0
    outer loop
      vertex 45.542 14.141 0
      vertex 46 16 6
      vertex 46 16 0
    endloop
  endfacet
  facet normal -0.748388 0.663261 0
    outer loop
      vertex 44.272 12.708 6
      vertex 45.542 14.141 6
      vertex 44.272 12.708 0
    endloop
  endfacet
  facet normal -0.748388 0.663261 0
    outer loop
      vertex 44.272 12.708 0
      vertex 45.542 14.141 6
      vertex 45.542 14.141 0
    endloop
  endfacet
  facet normal -0.35467 0.934992 0
    outer loop
      vertex 42.482 12.029 6
      vertex 44.272 12.708 6
      vertex 42.482 12.029 0
    endloop
  endfacet
  facet normal -0.35467 0.934992 0
    outer loop
      vertex 42.482 12.029 0
      vertex 44.272 12.708 6
      vertex 44.272 12.708 0
    endloop
  endfacet
  facet normal 0.12069 0.99269 0
    outer loop
      vertex 40.582 12.26 6
      vertex 42.482 12.029 6
      vertex 40.582 12.26 0
    endloop
  endfacet
  facet normal 0.12069 0.99269 0
    outer loop
      vertex 40.582 12.26 0
      vertex 42.482 12.029 6
      vertex 42.482 12.029 0
    endloop
  endfacet
  facet normal 0.56777 0.823188 0
    outer loop
      vertex 39.006 13.347 6
      vertex 40.582 12.26 6
      vertex 39.006 13.347 0
    endloop
  endfacet
  facet normal 0.56777 0.823188 0
    outer loop
      vertex 39.006 13.347 0
      vertex 40.582 12.26 6
      vertex 40.582 12.26 0
    endloop
  endfacet
  facet normal 0.623429 0.78188 0
    outer loop
      vertex 46.348 40.132 6
      vertex 47.705 39.05 6
      vertex 46.348 40.132 0
    endloop
  endfacet
  facet normal 0.623429 0.78188 0
    outer loop
      vertex 46.348 40.132 0
      vertex 47.705 39.05 6
      vertex 47.705 39.05 0
    endloop
  endfacet
  facet normal 1 0 0
    outer loop
      vertex 46.348 40.132 0
      vertex 46.348 41.867 0
      vertex 46.348 41.867 6
    endloop
  endfacet
  facet normal 1 0 0
    outer loop
      vertex 46.348 40.132 6
      vertex 46.348 40.132 0
      vertex 46.348 41.867 6
    endloop
  endfacet
  facet normal 0.623429 -0.78188 0
    outer loop
      vertex 46.348 41.867 0
      vertex 47.705 42.949 0
      vertex 47.705 42.949 6
    endloop
  endfacet
  facet normal 0.623429 -0.78188 0
    outer loop
      vertex 46.348 41.867 6
      vertex 46.348 41.867 0
      vertex 47.705 42.949 6
    endloop
  endfacet
  facet normal -0.222418 -0.974951 0
    outer loop
      vertex 47.705 42.949 0
      vertex 49.397 42.563 0
      vertex 49.397 42.563 6
    endloop
  endfacet
  facet normal -0.222418 -0.974951 0
    outer loop
      vertex 47.705 42.949 6
      vertex 47.705 42.949 0
      vertex 49.397 42.563 6
    endloop
  endfacet
  facet normal -0.90101 -0.433798 0
    outer loop
      vertex 50.15 40.999 0
      vertex 50.15 40.999 6
      vertex 49.397 42.563 0
    endloop
  endfacet
  facet normal -0.90101 -0.433798 0
    outer loop
      vertex 49.397 42.563 0
      vertex 50.15 40.999 6
      vertex 49.397 42.563 6
    endloop
  endfacet
  facet normal -0.900902 0.434024 0
    outer loop
      vertex 49.397 39.436 6
      vertex 50.15 40.999 6
      vertex 49.397 39.436 0
    endloop
  endfacet
  facet normal -0.900902 0.434024 0
    outer loop
      vertex 49.397 39.436 0
      vertex 50.15 40.999 6
      vertex 50.15 40.999 0
    endloop
  endfacet
  facet normal -0.222418 0.974951 0
    outer loop
      vertex 47.705 39.05 6
      vertex 49.397 39.436 6
      vertex 47.705 39.05 0
    endloop
  endfacet
  facet normal -0.222418 0.974951 0
    outer loop
      vertex 47.705 39.05 0
      vertex 49.397 39.436 6
      vertex 49.397 39.436 0
    endloop
  endfacet
  facet normal 0.95103 0.309098 0
    outer loop
      vertex 22 276.999 0
      vertex 22 276.999 6
      vertex 22.573 275.236 6
    endloop
  endfacet
  facet normal 0.95103 0.309098 0
    outer loop
      vertex 22.573 275.236 0
      vertex 22 276.999 0
      vertex 22.573 275.236 6
    endloop
  endfacet
  facet normal 0.951082 -0.30894 0
    outer loop
      vertex 22 276.999 0
      vertex 22.573 278.763 0
      vertex 22.573 278.763 6
    endloop
  endfacet
  facet normal 0.951082 -0.30894 0
    outer loop
      vertex 22 276.999 6
      vertex 22 276.999 0
      vertex 22.573 278.763 6
    endloop
  endfacet
  facet normal 0.587851 -0.808969 0
    outer loop
      vertex 22.573 278.763 0
      vertex 24.073 279.853 0
      vertex 24.073 279.853 6
    endloop
  endfacet
  facet normal 0.587851 -0.808969 0
    outer loop
      vertex 22.573 278.763 6
      vertex 22.573 278.763 0
      vertex 24.073 279.853 6
    endloop
  endfacet
  facet normal 0 -1 0
    outer loop
      vertex 24.073 279.853 0
      vertex 25.927 279.853 0
      vertex 25.927 279.853 6
    endloop
  endfacet
  facet normal 0 -1 0
    outer loop
      vertex 24.073 279.853 6
      vertex 24.073 279.853 0
      vertex 25.927 279.853 6
    endloop
  endfacet
  facet normal -0.587851 -0.808969 0
    outer loop
      vertex 25.927 279.853 0
      vertex 27.427 278.763 0
      vertex 27.427 278.763 6
    endloop
  endfacet
  facet normal -0.587851 -0.808969 0
    outer loop
      vertex 25.927 279.853 6
      vertex 25.927 279.853 0
      vertex 27.427 278.763 6
    endloop
  endfacet
  facet normal -0.951082 -0.30894 0
    outer loop
      vertex 28 276.999 0
      vertex 28 276.999 6
      vertex 27.427 278.763 0
    endloop
  endfacet
  facet normal -0.951082 -0.30894 0
    outer loop
      vertex 27.427 278.763 0
      vertex 28 276.999 6
      vertex 27.427 278.763 6
    endloop
  endfacet
  facet normal -0.95103 0.309098 0
    outer loop
      vertex 27.427 275.236 6
      vertex 28 276.999 6
      vertex 27.427 275.236 0
    endloop
  endfacet
  facet normal -0.95103 0.309098 0
    outer loop
      vertex 27.427 275.236 0
      vertex 28 276.999 6
      vertex 28 276.999 0
    endloop
  endfacet
  facet normal -0.587851 0.808969 0
    outer loop
      vertex 25.927 274.146 6
      vertex 27.427 275.236 6
      vertex 25.927 274.146 0
    endloop
  endfacet
  facet normal -0.587851 0.808969 0
    outer loop
      vertex 25.927 274.146 0
      vertex 27.427 275.236 6
      vertex 27.427 275.236 0
    endloop
  endfacet
  facet normal 0 1 0
    outer loop
      vertex 24.073 274.146 6
      vertex 25.927 274.146 6
      vertex 24.073 274.146 0
    endloop
  endfacet
  facet normal 0 1 0
    outer loop
      vertex 24.073 274.146 0
      vertex 25.927 274.146 6
      vertex 25.927 274.146 0
    endloop
  endfacet
  facet normal 0.587851 0.808969 0
    outer loop
      vertex 22.573 275.236 6
      vertex 24.073 274.146 6
      vertex 22.573 275.236 0
    endloop
  endfacet
  facet normal 0.587851 0.808969 0
    outer loop
      vertex 22.573 275.236 0
      vertex 24.073 274.146 6
      vertex 24.073 274.146 0
    endloop
  endfacet
  facet normal 0.95103 0.309098 0
    outer loop
      vertex 22 351.999 0
      vertex 22 351.999 6
      vertex 22.573 350.236 6
    endloop
  endfacet
  facet normal 0.95103 0.309098 0
    outer loop
      vertex 22.573 350.236 0
      vertex 22 351.999 0
      vertex 22.573 350.236 6
    endloop
  endfacet
  facet normal 0.951082 -0.30894 0
    outer loop
      vertex 22 351.999 0
      vertex 22.573 353.763 0
      vertex 22.573 353.763 6
    endloop
  endfacet
  facet normal 0.951082 -0.30894 0
    outer loop
      vertex 22 351.999 6
      vertex 22 351.999 0
      vertex 22.573 353.763 6
    endloop
  endfacet
  facet normal 0.587851 -0.808969 0
    outer loop
      vertex 22.573 353.763 0
      vertex 24.073 354.853 0
      vertex 24.073 354.853 6
    endloop
  endfacet
  facet normal 0.587851 -0.808969 0
    outer loop
      vertex 22.573 353.763 6
      vertex 22.573 353.763 0
      vertex 24.073 354.853 6
    endloop
  endfacet
  facet normal 0 -1 0
    outer loop
      vertex 24.073 354.853 0
      vertex 25.927 354.853 0
      vertex 25.927 354.853 6
    endloop
  endfacet
  facet normal 0 -1 0
    outer loop
      vertex 24.073 354.853 6
      vertex 24.073 354.853 0
      vertex 25.927 354.853 6
    endloop
  endfacet
  facet normal -0.587851 -0.808969 0
    outer loop
      vertex 25.927 354.853 0
      vertex 27.427 353.763 0
      vertex 27.427 353.763 6
    endloop
  endfacet
  facet normal -0.587851 -0.808969 0
    outer loop
      vertex 25.927 354.853 6
      vertex 25.927 354.853 0
      vertex 27.427 353.763 6
    endloop
  endfacet
  facet normal -0.951082 -0.30894 0
    outer loop
      vertex 28 351.999 0
      vertex 28 351.999 6
      vertex 27.427 353.763 0
    endloop
  endfacet
  facet normal -0.951082 -0.30894 0
    outer loop
      vertex 27.427 353.763 0
      vertex 28 351.999 6
      vertex 27.427 353.763 6
    endloop
  endfacet
  facet normal -0.95103 0.309098 0
    outer loop
      vertex 27.427 350.236 6
      vertex 28 351.999 6
      vertex 27.427 350.236 0
    endloop
  endfacet
  facet normal -0.95103 0.309098 0
    outer loop
      vertex 27.427 350.236 0
      vertex 28 351.999 6
      vertex 28 351.999 0
    endloop
  endfacet
  facet normal -0.587851 0.808969 0
    outer loop
      vertex 25.927 349.146 6
      vertex 27.427 350.236 6
      vertex 25.927 349.146 0
    endloop
  endfacet
  facet normal -0.587851 0.808969 0
    outer loop
      vertex 25.927 349.146 0
      vertex 27.427 350.236 6
      vertex 27.427 350.236 0
    endloop
  endfacet
  facet normal 0 1 0
    outer loop
      vertex 24.073 349.146 6
      vertex 25.927 349.146 6
      vertex 24.073 349.146 0
    endloop
  endfacet
  facet normal 0 1 0
    outer loop
      vertex 24.073 349.146 0
      vertex 25.927 349.146 6
      vertex 25.927 349.146 0
    endloop
  endfacet
  facet normal 0.587851 0.808969 0
    outer loop
      vertex 22.573 350.236 6
      vertex 24.073 349.146 6
      vertex 22.573 350.236 0
    endloop
  endfacet
  facet normal 0.587851 0.808969 0
    outer loop
      vertex 22.573 350.236 0
      vertex 24.073 349.146 6
      vertex 24.073 349.146 0
    endloop
  endfacet
  facet normal 0.95103 0.309098 0
    outer loop
      vertex 52 276.999 0
      vertex 52 276.999 6
      vertex 52.573 275.236 6
    endloop
  endfacet
  facet normal 0.95103 0.309098 0
    outer loop
      vertex 52.573 275.236 0
      vertex 52 276.999 0
      vertex 52.573 275.236 6
    endloop
  endfacet
  facet normal 0.951082 -0.30894 0
    outer loop
      vertex 52 276.999 0
      vertex 52.573 278.763 0
      vertex 52.573 278.763 6
    endloop
  endfacet
  facet normal 0.951082 -0.30894 0
    outer loop
      vertex 52 276.999 6
      vertex 52 276.999 0
      vertex 52.573 278.763 6
    endloop
  endfacet
  facet normal 0.587851 -0.808969 0
    outer loop
      vertex 52.573 278.763 0
      vertex 54.073 279.853 0
      vertex 54.073 279.853 6
    endloop
  endfacet
  facet normal 0.587851 -0.808969 0
    outer loop
      vertex 52.573 278.763 6
      vertex 52.573 278.763 0
      vertex 54.073 279.853 6
    endloop
  endfacet
  facet normal 0 -1 0
    outer loop
      vertex 54.073 279.853 0
      vertex 55.927 279.853 0
      vertex 55.927 279.853 6
    endloop
  endfacet
  facet normal 0 -1 0
    outer loop
      vertex 54.073 279.853 6
      vertex 54.073 279.853 0
      vertex 55.927 279.853 6
    endloop
  endfacet
  facet normal -0.587851 -0.808969 0
    outer loop
      vertex 55.927 279.853 0
      vertex 57.427 278.763 0
      vertex 57.427 278.763 6
    endloop
  endfacet
  facet normal -0.587851 -0.808969 0
    outer loop
      vertex 55.927 279.853 6
      vertex 55.927 279.853 0
      vertex 57.427 278.763 6
    endloop
  endfacet
  facet normal -0.951082 -0.30894 0
    outer loop
      vertex 58 276.999 0
      vertex 58 276.999 6
      vertex 57.427 278.763 0
    endloop
  endfacet
  facet normal -0.951082 -0.30894 0
    outer loop
      vertex 57.427 278.763 0
      vertex 58 276.999 6
      vertex 57.427 278.763 6
    endloop
  endfacet
  facet normal -0.95103 0.309098 0
    outer loop
      vertex 57.427 275.236 6
      vertex 58 276.999 6
      vertex 57.427 275.236 0
    endloop
  endfacet
  facet normal -0.95103 0.309098 0
    outer loop
      vertex 57.427 275.236 0
      vertex 58 276.999 6
      vertex 58 276.999 0
    endloop
  endfacet
  facet normal -0.587851 0.808969 0
    outer loop
      vertex 55.927 274.146 6
      vertex 57.427 275.236 6
      vertex 55.927 274.146 0
    endloop
  endfacet
  facet normal -0.587851 0.808969 0
    outer loop
      vertex 55.927 274.146 0
      vertex 57.427 275.236 6
      vertex 57.427 275.236 0
    endloop
  endfacet
  facet normal 0 1 0
    outer loop
      vertex 54.073 274.146 6
      vertex 55.927 274.146 6
      vertex 54.073 274.146 0
    endloop
  endfacet
  facet normal 0 1 0
    outer loop
      vertex 54.073 274.146 0
      vertex 55.927 274.146 6
      vertex 55.927 274.146 0
    endloop
  endfacet
  facet normal 0.587851 0.808969 0
    outer loop
      vertex 52.573 275.236 6
      vertex 54.073 274.146 6
      vertex 52.573 275.236 0
    endloop
  endfacet
  facet normal 0.587851 0.808969 0
    outer loop
      vertex 52.573 275.236 0
      vertex 54.073 274.146 6
      vertex 54.073 274.146 0
    endloop
  endfacet
  facet normal 0.623429 0.78188 0
    outer loop
      vertex 46.348 78.132 6
      vertex 47.705 77.05 6
      vertex 46.348 78.132 0
    endloop
  endfacet
  facet normal 0.623429 0.78188 0
    outer loop
      vertex 46.348 78.132 0
      vertex 47.705 77.05 6
      vertex 47.705 77.05 0
    endloop
  endfacet
  facet normal 1 0 0
    outer loop
      vertex 46.348 78.132 0
      vertex 46.348 79.867 0
      vertex 46.348 79.867 6
    endloop
  endfacet
  facet normal 1 0 0
    outer loop
      vertex 46.348 78.132 6
      vertex 46.348 78.132 0
      vertex 46.348 79.867 6
    endloop
  endfacet
  facet normal 0.623429 -0.78188 0
    outer loop
      vertex 46.348 79.867 0
      vertex 47.705 80.949 0
      vertex 47.705 80.949 6
    endloop
  endfacet
  facet normal 0.623429 -0.78188 0
    outer loop
      vertex 46.348 79.867 6
      vertex 46.348 79.867 0
      vertex 47.705 80.949 6
    endloop
  endfacet
  facet normal -0.222418 -0.974951 0
    outer loop
      vertex 47.705 80.949 0
      vertex 49.397 80.563 0
      vertex 49.397 80.563 6
    endloop
  endfacet
  facet normal -0.222418 -0.974951 0
    outer loop
      vertex 47.705 80.949 6
      vertex 47.705 80.949 0
      vertex 49.397 80.563 6
    endloop
  endfacet
  facet normal -0.90101 -0.433798 0
    outer loop
      vertex 50.15 78.999 0
      vertex 50.15 78.999 6
      vertex 49.397 80.563 0
    endloop
  endfacet
  facet normal -0.90101 -0.433798 0
    outer loop
      vertex 49.397 80.563 0
      vertex 50.15 78.999 6
      vertex 49.397 80.563 6
    endloop
  endfacet
  facet normal -0.900902 0.434024 0
    outer loop
      vertex 49.397 77.436 6
      vertex 50.15 78.999 6
      vertex 49.397 77.436 0
    endloop
  endfacet
  facet normal -0.900902 0.434024 0
    outer loop
      vertex 49.397 77.436 0
      vertex 50.15 78.999 6
      vertex 50.15 78.999 0
    endloop
  endfacet
  facet normal -0.222418 0.974951 0
    outer loop
      vertex 47.705 77.05 6
      vertex 49.397 77.436 6
      vertex 47.705 77.05 0
    endloop
  endfacet
  facet normal -0.222418 0.974951 0
    outer loop
      vertex 47.705 77.05 0
      vertex 49.397 77.436 6
      vertex 49.397 77.436 0
    endloop
  endfacet
  facet normal 0.95103 0.309098 0
    outer loop
      vertex 52 351.999 0
      vertex 52 351.999 6
      vertex 52.573 350.236 6
    endloop
  endfacet
  facet normal 0.95103 0.309098 0
    outer loop
      vertex 52.573 350.236 0
      vertex 52 351.999 0
      vertex 52.573 350.236 6
    endloop
  endfacet
  facet normal 0.951082 -0.30894 0
    outer loop
      vertex 52 351.999 0
      vertex 52.573 353.763 0
      vertex 52.573 353.763 6
    endloop
  endfacet
  facet normal 0.951082 -0.30894 0
    outer loop
      vertex 52 351.999 6
      vertex 52 351.999 0
      vertex 52.573 353.763 6
    endloop
  endfacet
  facet normal 0.587851 -0.808969 0
    outer loop
      vertex 52.573 353.763 0
      vertex 54.073 354.853 0
      vertex 54.073 354.853 6
    endloop
  endfacet
  facet normal 0.587851 -0.808969 0
    outer loop
      vertex 52.573 353.763 6
      vertex 52.573 353.763 0
      vertex 54.073 354.853 6
    endloop
  endfacet
  facet normal 0 -1 0
    outer loop
      vertex 54.073 354.853 0
      vertex 55.927 354.853 0
      vertex 55.927 354.853 6
    endloop
  endfacet
  facet normal 0 -1 0
    outer loop
      vertex 54.073 354.853 6
      vertex 54.073 354.853 0
      vertex 55.927 354.853 6
    endloop
  endfacet
  facet normal -0.587851 -0.808969 0
    outer loop
      vertex 55.927 354.853 0
      vertex 57.427 353.763 0
      vertex 57.427 353.763 6
    endloop
  endfacet
  facet normal -0.587851 -0.808969 0
    outer loop
      vertex 55.927 354.853 6
      vertex 55.927 354.853 0
      vertex 57.427 353.763 6
    endloop
  endfacet
  facet normal -0.951082 -0.30894 0
    outer loop
      vertex 58 351.999 0
      vertex 58 351.999 6
      vertex 57.427 353.763 0
    endloop
  endfacet
  facet normal -0.951082 -0.30894 0
    outer loop
      vertex 57.427 353.763 0
      vertex 58 351.999 6
      vertex 57.427 353.763 6
    endloop
  endfacet
  facet normal -0.95103 0.309098 0
    outer loop
      vertex 57.427 350.236 6
      vertex 58 351.999 6
      vertex 57.427 350.236 0
    endloop
  endfacet
  facet normal -0.95103 0.309098 0
    outer loop
      vertex 57.427 350.236 0
      vertex 58 351.999 6
      vertex 58 351.999 0
    endloop
  endfacet
  facet normal -0.587851 0.808969 0
    outer loop
      vertex 55.927 349.146 6
      vertex 57.427 350.236 6
      vertex 55.927 349.146 0
    endloop
  endfacet
  facet normal -0.587851 0.808969 0
    outer loop
      vertex 55.927 349.146 0
      vertex 57.427 350.236 6
      vertex 57.427 350.236 0
    endloop
  endfacet
  facet normal 0 1 0
    outer loop
      vertex 54.073 349.146 6
      vertex 55.927 349.146 6
      vertex 54.073 349.146 0
    endloop
  endfacet
  facet normal 0 1 0
    outer loop
      vertex 54.073 349.146 0
      vertex 55.927 349.146 6
      vertex 55.927 349.146 0
    endloop
  endfacet
  facet normal 0.587851 0.808969 0
    outer loop
      vertex 52.573 350.236 6
      vertex 54.073 349.146 6
      vertex 52.573 350.236 0
    endloop
  endfacet
  facet normal 0.587851 0.808969 0
    outer loop
      vertex 52.573 350.236 0
      vertex 54.073 349.146 6
      vertex 54.073 349.146 0
    endloop
  endfacet
  facet normal 0.623429 0.78188 0
    outer loop
      vertex 150.048 78.132 6
      vertex 151.405 77.05 6
      vertex 150.048 78.132 0
    endloop
  endfacet
  facet normal 0.623429 0.78188 0
    outer loop
      vertex 150.048 78.132 0
      vertex 151.405 77.05 6
      vertex 151.405 77.05 0
    endloop
  endfacet
  facet normal 1 0 0
    outer loop
      vertex 150.048 78.132 0
      vertex 150.048 79.867 0
      vertex 150.048 79.867 6
    endloop
  endfacet
  facet normal 1 0 0
    outer loop
      vertex 150.048 78.132 6
      vertex 150.048 78.132 0
      vertex 150.048 79.867 6
    endloop
  endfacet
  facet normal 0.623429 -0.78188 0
    outer loop
      vertex 150.048 79.867 0
      vertex 151.405 80.949 0
      vertex 151.405 80.949 6
    endloop
  endfacet
  facet normal 0.623429 -0.78188 0
    outer loop
      vertex 150.048 79.867 6
      vertex 150.048 79.867 0
      vertex 151.405 80.949 6
    endloop
  endfacet
  facet normal -0.222418 -0.974951 0
    outer loop
      vertex 151.405 80.949 0
      vertex 153.097 80.563 0
      vertex 153.097 80.563 6
    endloop
  endfacet
  facet normal -0.222418 -0.974951 0
    outer loop
      vertex 151.405 80.949 6
      vertex 151.405 80.949 0
      vertex 153.097 80.563 6
    endloop
  endfacet
  facet normal -0.90101 -0.433798 0
    outer loop
      vertex 153.85 78.999 0
      vertex 153.85 78.999 6
      vertex 153.097 80.563 0
    endloop
  endfacet
  facet normal -0.90101 -0.433798 0
    outer loop
      vertex 153.097 80.563 0
      vertex 153.85 78.999 6
      vertex 153.097 80.563 6
    endloop
  endfacet
  facet normal -0.900902 0.434024 0
    outer loop
      vertex 153.097 77.436 6
      vertex 153.85 78.999 6
      vertex 153.097 77.436 0
    endloop
  endfacet
  facet normal -0.900902 0.434024 0
    outer loop
      vertex 153.097 77.436 0
      vertex 153.85 78.999 6
      vertex 153.85 78.999 0
    endloop
  endfacet
  facet normal -0.222418 0.974951 0
    outer loop
      vertex 151.405 77.05 6
      vertex 153.097 77.436 6
      vertex 151.405 77.05 0
    endloop
  endfacet
  facet normal -0.222418 0.974951 0
    outer loop
      vertex 151.405 77.05 0
      vertex 153.097 77.436 6
      vertex 153.097 77.436 0
    endloop
  endfacet
  facet normal 0.623429 0.78188 0
    outer loop
      vertex 150.048 40.132 6
      vertex 151.405 39.05 6
      vertex 150.048 40.132 0
    endloop
  endfacet
  facet normal 0.623429 0.78188 0
    outer loop
      vertex 150.048 40.132 0
      vertex 151.405 39.05 6
      vertex 151.405 39.05 0
    endloop
  endfacet
  facet normal 1 0 0
    outer loop
      vertex 150.048 40.132 0
      vertex 150.048 41.867 0
      vertex 150.048 41.867 6
    endloop
  endfacet
  facet normal 1 0 0
    outer loop
      vertex 150.048 40.132 6
      vertex 150.048 40.132 0
      vertex 150.048 41.867 6
    endloop
  endfacet
  facet normal 0.623429 -0.78188 0
    outer loop
      vertex 150.048 41.867 0
      vertex 151.405 42.949 0
      vertex 151.405 42.949 6
    endloop
  endfacet
  facet normal 0.623429 -0.78188 0
    outer loop
      vertex 150.048 41.867 6
      vertex 150.048 41.867 0
      vertex 151.405 42.949 6
    endloop
  endfacet
  facet normal -0.222418 -0.974951 0
    outer loop
      vertex 151.405 42.949 0
      vertex 153.097 42.563 0
      vertex 153.097 42.563 6
    endloop
  endfacet
  facet normal -0.222418 -0.974951 0
    outer loop
      vertex 151.405 42.949 6
      vertex 151.405 42.949 0
      vertex 153.097 42.563 6
    endloop
  endfacet
  facet normal -0.90101 -0.433798 0
    outer loop
      vertex 153.85 40.999 0
      vertex 153.85 40.999 6
      vertex 153.097 42.563 0
    endloop
  endfacet
  facet normal -0.90101 -0.433798 0
    outer loop
      vertex 153.097 42.563 0
      vertex 153.85 40.999 6
      vertex 153.097 42.563 6
    endloop
  endfacet
  facet normal -0.900902 0.434024 0
    outer loop
      vertex 153.097 39.436 6
      vertex 153.85 40.999 6
      vertex 153.097 39.436 0
    endloop
  endfacet
  facet normal -0.900902 0.434024 0
    outer loop
      vertex 153.097 39.436 0
      vertex 153.85 40.999 6
      vertex 153.85 40.999 0
    endloop
  endfacet
  facet normal -0.222418 0.974951 0
    outer loop
      vertex 151.405 39.05 6
      vertex 153.097 39.436 6
      vertex 151.405 39.05 0
    endloop
  endfacet
  facet normal -0.222418 0.974951 0
    outer loop
      vertex 151.405 39.05 0
      vertex 153.097 39.436 6
      vertex 153.097 39.436 0
    endloop
  endfacet
  facet normal 0.623429 0.78188 0
    outer loop
      vertex 180.048 40.132 6
      vertex 181.405 39.05 6
      vertex 180.048 40.132 0
    endloop
  endfacet
  facet normal 0.623429 0.78188 0
    outer loop
      vertex 180.048 40.132 0
      vertex 181.405 39.05 6
      vertex 181.405 39.05 0
    endloop
  endfacet
  facet normal 1 0 0
    outer loop
      vertex 180.048 40.132 0
      vertex 180.048 41.867 0
      vertex 180.048 41.867 6
    endloop
  endfacet
  facet normal 1 0 0
    outer loop
      vertex 180.048 40.132 6
      vertex 180.048 40.132 0
      vertex 180.048 41.867 6
    endloop
  endfacet
  facet normal 0.623429 -0.78188 0
    outer loop
      vertex 180.048 41.867 0
      vertex 181.405 42.949 0
      vertex 181.405 42.949 6
    endloop
  endfacet
  facet normal 0.623429 -0.78188 0
    outer loop
      vertex 180.048 41.867 6
      vertex 180.048 41.867 0
      vertex 181.405 42.949 6
    endloop
  endfacet
  facet normal -0.222418 -0.974951 0
    outer loop
      vertex 181.405 42.949 0
      vertex 183.097 42.563 0
      vertex 183.097 42.563 6
    endloop
  endfacet
  facet normal -0.222418 -0.974951 0
    outer loop
      vertex 181.405 42.949 6
      vertex 181.405 42.949 0
      vertex 183.097 42.563 6
    endloop
  endfacet
  facet normal -0.90101 -0.433798 0
    outer loop
      vertex 183.85 40.999 0
      vertex 183.85 40.999 6
      vertex 183.097 42.563 0
    endloop
  endfacet
  facet normal -0.90101 -0.433798 0
    outer loop
      vertex 183.097 42.563 0
      vertex 183.85 40.999 6
      vertex 183.097 42.563 6
    endloop
  endfacet
  facet normal -0.900902 0.434024 0
    outer loop
      vertex 183.097 39.436 6
      vertex 183.85 40.999 6
      vertex 183.097 39.436 0
    endloop
  endfacet
  facet normal -0.900902 0.434024 0
    outer loop
      vertex 183.097 39.436 0
      vertex 183.85 40.999 6
      vertex 183.85 40.999 0
    endloop
  endfacet
  facet normal -0.222418 0.974951 0
    outer loop
      vertex 181.405 39.05 6
      vertex 183.097 39.436 6
      vertex 181.405 39.05 0
    endloop
  endfacet
  facet normal -0.222418 0.974951 0
    outer loop
      vertex 181.405 39.05 0
      vertex 183.097 39.436 6
      vertex 183.097 39.436 0
    endloop
  endfacet
  facet normal 0.623429 0.78188 0
    outer loop
      vertex 180.048 78.132 6
      vertex 181.405 77.05 6
      vertex 180.048 78.132 0
    endloop
  endfacet
  facet normal 0.623429 0.78188 0
    outer loop
      vertex 180.048 78.132 0
      vertex 181.405 77.05 6
      vertex 181.405 77.05 0
    endloop
  endfacet
  facet normal 1 0 0
    outer loop
      vertex 180.048 78.132 0
      vertex 180.048 79.867 0
      vertex 180.048 79.867 6
    endloop
  endfacet
  facet normal 1 0 0
    outer loop
      vertex 180.048 78.132 6
      vertex 180.048 78.132 0
      vertex 180.048 79.867 6
    endloop
  endfacet
  facet normal 0.623429 -0.78188 0
    outer loop
      vertex 180.048 79.867 0
      vertex 181.405 80.949 0
      vertex 181.405 80.949 6
    endloop
  endfacet
  facet normal 0.623429 -0.78188 0
    outer loop
      vertex 180.048 79.867 6
      vertex 180.048 79.867 0
      vertex 181.405 80.949 6
    endloop
  endfacet
  facet normal -0.222418 -0.974951 0
    outer loop
      vertex 181.405 80.949 0
      vertex 183.097 80.563 0
      vertex 183.097 80.563 6
    endloop
  endfacet
  facet normal -0.222418 -0.974951 0
    outer loop
      vertex 181.405 80.949 6
      vertex 181.405 80.949 0
      vertex 183.097 80.563 6
    endloop
  endfacet
  facet normal -0.90101 -0.433798 0
    outer loop
      vertex 183.85 78.999 0
      vertex 183.85 78.999 6
      vertex 183.097 80.563 0
    endloop
  endfacet
  facet normal -0.90101 -0.433798 0
    outer loop
      vertex 183.097 80.563 0
      vertex 183.85 78.999 6
      vertex 183.097 80.563 6
    endloop
  endfacet
  facet normal -0.900902 0.434024 0
    outer loop
      vertex 183.097 77.436 6
      vertex 183.85 78.999 6
      vertex 183.097 77.436 0
    endloop
  endfacet
  facet normal -0.900902 0.434024 0
    outer loop
      vertex 183.097 77.436 0
      vertex 183.85 78.999 6
      vertex 183.85 78.999 0
    endloop
  endfacet
  facet normal -0.222418 0.974951 0
    outer loop
      vertex 181.405 77.05 6
      vertex 183.097 77.436 6
      vertex 181.405 77.05 0
    endloop
  endfacet
  facet normal -0.222418 0.974951 0
    outer loop
      vertex 181.405 77.05 0
      vertex 183.097 77.436 6
      vertex 183.097 77.436 0
    endloop
  endfacet
endsolid OpenSCAD_Model
