solid OpenSCAD_Model
  facet normal 0.464885 0.885371 0
    outer loop
      vertex 67.298 17.006 0
      vertex 67.298 17.006 2
      vertex 68.993 16.116 0
    endloop
  endfacet
  facet normal 0.464885 0.885371 0
    outer loop
      vertex 68.993 16.116 0
      vertex 67.298 17.006 2
      vertex 68.993 16.116 2
    endloop
  endfacet
  facet normal 0 0 -1
    outer loop
      vertex 73.242 22.272 0
      vertex 4.21885e-014 190 0
      vertex 90 -1.9984e-014 0
    endloop
  endfacet
  facet normal 0 0 -1
    outer loop
      vertex 21.809 173.542 0
      vertex 4.21885e-014 190 0
      vertex 90 190 0
    endloop
  endfacet
  facet normal 0 0 -1
    outer loop
      vertex 17.298 67.006 0
      vertex 23.242 22.272 0
      vertex 21.809 23.542 0
    endloop
  endfacet
  facet normal 0 0 -1
    outer loop
      vertex 0 0 0
      vertex 70.907 16.116 0
      vertex 90 -1.9984e-014 0
    endloop
  endfacet
  facet normal 0 0 -1
    outer loop
      vertex 66.658 22.272 0
      vertex 4.21885e-014 190 0
      vertex 68.091 23.542 0
    endloop
  endfacet
  facet normal 0 0 -1
    outer loop
      vertex 70.907 16.116 0
      vertex 72.602 17.006 0
      vertex 90 -1.9984e-014 0
    endloop
  endfacet
  facet normal 0 0 -1
    outer loop
      vertex 68.091 23.542 0
      vertex 4.21885e-014 190 0
      vertex 69.95 24 0
    endloop
  endfacet
  facet normal 0 0 -1
    outer loop
      vertex 72.602 17.006 0
      vertex 73.69 18.582 0
      vertex 90 -1.9984e-014 0
    endloop
  endfacet
  facet normal 0 0 -1
    outer loop
      vertex 69.95 24 0
      vertex 4.21885e-014 190 0
      vertex 71.809 23.542 0
    endloop
  endfacet
  facet normal 0 0 -1
    outer loop
      vertex 73.69 18.582 0
      vertex 73.921 20.482 0
      vertex 90 -1.9984e-014 0
    endloop
  endfacet
  facet normal 0 0 -1
    outer loop
      vertex 73.921 20.482 0
      vertex 73.242 22.272 0
      vertex 90 -1.9984e-014 0
    endloop
  endfacet
  facet normal 0 0 -1
    outer loop
      vertex 23.921 120.482 0
      vertex 4.21885e-014 190 0
      vertex 66.658 22.272 0
    endloop
  endfacet
  facet normal 0 0 -1
    outer loop
      vertex 0 0 0
      vertex 66.658 22.272 0
      vertex 65.979 20.482 0
    endloop
  endfacet
  facet normal 0 0 -1
    outer loop
      vertex 0 0 0
      vertex 65.979 20.482 0
      vertex 66.21 18.582 0
    endloop
  endfacet
  facet normal 0 0 -1
    outer loop
      vertex 0 0 0
      vertex 66.21 18.582 0
      vertex 67.298 17.006 0
    endloop
  endfacet
  facet normal 0 0 -1
    outer loop
      vertex 0 0 0
      vertex 67.298 17.006 0
      vertex 68.993 16.116 0
    endloop
  endfacet
  facet normal 0 0 -1
    outer loop
      vertex 0 0 0
      vertex 68.993 16.116 0
      vertex 70.907 16.116 0
    endloop
  endfacet
  facet normal 0 0 -1
    outer loop
      vertex 15.979 20.482 0
      vertex 0 0 0
      vertex 16.658 22.272 0
    endloop
  endfacet
  facet normal 0 0 -1
    outer loop
      vertex 0 0 0
      vertex 20.907 16.116 0
      vertex 66.658 22.272 0
    endloop
  endfacet
  facet normal 0 0 -1
    outer loop
      vertex 20.907 16.116 0
      vertex 22.602 17.006 0
      vertex 66.658 22.272 0
    endloop
  endfacet
  facet normal 0 0 -1
    outer loop
      vertex 22.602 17.006 0
      vertex 23.69 18.582 0
      vertex 66.658 22.272 0
    endloop
  endfacet
  facet normal 0 0 -1
    outer loop
      vertex 23.69 18.582 0
      vertex 23.921 20.482 0
      vertex 66.658 22.272 0
    endloop
  endfacet
  facet normal 0 0 -1
    outer loop
      vertex 18.993 66.116 0
      vertex 23.921 20.482 0
      vertex 17.298 67.006 0
    endloop
  endfacet
  facet normal 0 0 -1
    outer loop
      vertex 18.091 23.542 0
      vertex 4.21885e-014 190 0
      vertex 19.95 24 0
    endloop
  endfacet
  facet normal 0 0 -1
    outer loop
      vertex 16.658 22.272 0
      vertex 4.21885e-014 190 0
      vertex 18.091 23.542 0
    endloop
  endfacet
  facet normal 0 0 -1
    outer loop
      vertex 0 0 0
      vertex 4.21885e-014 190 0
      vertex 16.658 22.272 0
    endloop
  endfacet
  facet normal 0 0 -1
    outer loop
      vertex 16.21 18.582 0
      vertex 0 0 0
      vertex 15.979 20.482 0
    endloop
  endfacet
  facet normal 0 0 -1
    outer loop
      vertex 73.242 72.272 0
      vertex 90 190 0
      vertex 73.921 70.482 0
    endloop
  endfacet
  facet normal 0 0 -1
    outer loop
      vertex 0 0 0
      vertex 16.21 18.582 0
      vertex 17.298 17.006 0
    endloop
  endfacet
  facet normal 0 0 -1
    outer loop
      vertex 0 0 0
      vertex 17.298 17.006 0
      vertex 18.993 16.116 0
    endloop
  endfacet
  facet normal 0 0 -1
    outer loop
      vertex 0 0 0
      vertex 18.993 16.116 0
      vertex 20.907 16.116 0
    endloop
  endfacet
  facet normal 0 0 -1
    outer loop
      vertex 67.298 67.006 0
      vertex 90 -1.9984e-014 0
      vertex 66.21 68.582 0
    endloop
  endfacet
  facet normal 0 0 -1
    outer loop
      vertex 90 -1.9984e-014 0
      vertex 70.907 66.116 0
      vertex 72.602 67.006 0
    endloop
  endfacet
  facet normal 0 0 -1
    outer loop
      vertex 90 -1.9984e-014 0
      vertex 72.602 67.006 0
      vertex 73.69 68.582 0
    endloop
  endfacet
  facet normal 0 0 -1
    outer loop
      vertex 90 -1.9984e-014 0
      vertex 73.69 68.582 0
      vertex 90 190 0
    endloop
  endfacet
  facet normal 0 0 -1
    outer loop
      vertex 73.69 68.582 0
      vertex 73.921 70.482 0
      vertex 90 190 0
    endloop
  endfacet
  facet normal 0 0 -1
    outer loop
      vertex 71.809 73.542 0
      vertex 90 190 0
      vertex 73.242 72.272 0
    endloop
  endfacet
  facet normal 0 0 -1
    outer loop
      vertex 69.95 74 0
      vertex 4.21885e-014 190 0
      vertex 71.809 73.542 0
    endloop
  endfacet
  facet normal 0 0 -1
    outer loop
      vertex 66.658 72.272 0
      vertex 4.21885e-014 190 0
      vertex 68.091 73.542 0
    endloop
  endfacet
  facet normal 0 0 -1
    outer loop
      vertex 68.091 73.542 0
      vertex 4.21885e-014 190 0
      vertex 69.95 74 0
    endloop
  endfacet
  facet normal 0 0 -1
    outer loop
      vertex 65.979 70.482 0
      vertex 4.21885e-014 190 0
      vertex 66.658 72.272 0
    endloop
  endfacet
  facet normal 0 0 -1
    outer loop
      vertex 66.21 68.582 0
      vertex 4.21885e-014 190 0
      vertex 65.979 70.482 0
    endloop
  endfacet
  facet normal 0 0 -1
    outer loop
      vertex 90 -1.9984e-014 0
      vertex 4.21885e-014 190 0
      vertex 66.21 68.582 0
    endloop
  endfacet
  facet normal 0 0 -1
    outer loop
      vertex 68.993 66.116 0
      vertex 90 -1.9984e-014 0
      vertex 67.298 67.006 0
    endloop
  endfacet
  facet normal 0 0 -1
    outer loop
      vertex 21.809 73.542 0
      vertex 4.21885e-014 190 0
      vertex 23.242 72.272 0
    endloop
  endfacet
  facet normal 0 0 -1
    outer loop
      vertex 90 -1.9984e-014 0
      vertex 68.993 66.116 0
      vertex 70.907 66.116 0
    endloop
  endfacet
  facet normal 0 0 -1
    outer loop
      vertex 15.979 70.482 0
      vertex 4.21885e-014 190 0
      vertex 16.658 72.272 0
    endloop
  endfacet
  facet normal 0 0 -1
    outer loop
      vertex 23.921 20.482 0
      vertex 20.907 66.116 0
      vertex 66.658 22.272 0
    endloop
  endfacet
  facet normal 0 0 -1
    outer loop
      vertex 18.091 73.542 0
      vertex 4.21885e-014 190 0
      vertex 19.95 74 0
    endloop
  endfacet
  facet normal 0 0 -1
    outer loop
      vertex 20.907 66.116 0
      vertex 22.602 67.006 0
      vertex 66.658 22.272 0
    endloop
  endfacet
  facet normal 0 0 -1
    outer loop
      vertex 19.95 74 0
      vertex 4.21885e-014 190 0
      vertex 21.809 73.542 0
    endloop
  endfacet
  facet normal 0 0 -1
    outer loop
      vertex 22.602 67.006 0
      vertex 23.69 68.582 0
      vertex 66.658 22.272 0
    endloop
  endfacet
  facet normal 0 0 -1
    outer loop
      vertex 23.242 72.272 0
      vertex 4.21885e-014 190 0
      vertex 23.921 70.482 0
    endloop
  endfacet
  facet normal 0 0 -1
    outer loop
      vertex 23.69 68.582 0
      vertex 23.921 70.482 0
      vertex 66.658 22.272 0
    endloop
  endfacet
  facet normal 0 0 -1
    outer loop
      vertex 16.658 72.272 0
      vertex 4.21885e-014 190 0
      vertex 18.091 73.542 0
    endloop
  endfacet
  facet normal 0 0 -1
    outer loop
      vertex 15.979 170.482 0
      vertex 4.21885e-014 190 0
      vertex 16.658 172.272 0
    endloop
  endfacet
  facet normal 0 0 -1
    outer loop
      vertex 16.21 68.582 0
      vertex 4.21885e-014 190 0
      vertex 15.979 70.482 0
    endloop
  endfacet
  facet normal 0 0 -1
    outer loop
      vertex 19.95 24 0
      vertex 4.21885e-014 190 0
      vertex 21.809 23.542 0
    endloop
  endfacet
  facet normal 0 0 -1
    outer loop
      vertex 21.809 23.542 0
      vertex 4.21885e-014 190 0
      vertex 16.21 68.582 0
    endloop
  endfacet
  facet normal 0 0 -1
    outer loop
      vertex 17.298 67.006 0
      vertex 21.809 23.542 0
      vertex 16.21 68.582 0
    endloop
  endfacet
  facet normal 0 0 -1
    outer loop
      vertex 23.242 22.272 0
      vertex 17.298 67.006 0
      vertex 23.921 20.482 0
    endloop
  endfacet
  facet normal 0 0 -1
    outer loop
      vertex 73.242 122.272 0
      vertex 90 190 0
      vertex 73.921 120.482 0
    endloop
  endfacet
  facet normal 0 0 -1
    outer loop
      vertex 23.921 20.482 0
      vertex 18.993 66.116 0
      vertex 20.907 66.116 0
    endloop
  endfacet
  facet normal 0 0 -1
    outer loop
      vertex 67.298 117.006 0
      vertex 71.809 73.542 0
      vertex 66.21 118.582 0
    endloop
  endfacet
  facet normal 0 0 -1
    outer loop
      vertex 65.979 120.482 0
      vertex 22.602 167.006 0
      vertex 66.658 122.272 0
    endloop
  endfacet
  facet normal 0 0 -1
    outer loop
      vertex 71.809 73.542 0
      vertex 70.907 116.116 0
      vertex 72.602 117.006 0
    endloop
  endfacet
  facet normal 0 0 -1
    outer loop
      vertex 71.809 73.542 0
      vertex 72.602 117.006 0
      vertex 73.69 118.582 0
    endloop
  endfacet
  facet normal 0 0 -1
    outer loop
      vertex 71.809 73.542 0
      vertex 73.69 118.582 0
      vertex 90 190 0
    endloop
  endfacet
  facet normal 0 0 -1
    outer loop
      vertex 73.69 118.582 0
      vertex 73.921 120.482 0
      vertex 90 190 0
    endloop
  endfacet
  facet normal 0 0 -1
    outer loop
      vertex 71.809 123.542 0
      vertex 90 190 0
      vertex 73.242 122.272 0
    endloop
  endfacet
  facet normal 0 0 -1
    outer loop
      vertex 23.69 168.582 0
      vertex 71.809 123.542 0
      vertex 69.95 124 0
    endloop
  endfacet
  facet normal 0 0 -1
    outer loop
      vertex 23.69 168.582 0
      vertex 69.95 124 0
      vertex 68.091 123.542 0
    endloop
  endfacet
  facet normal 0 0 -1
    outer loop
      vertex 21.809 123.542 0
      vertex 4.21885e-014 190 0
      vertex 23.242 122.272 0
    endloop
  endfacet
  facet normal 0 0 -1
    outer loop
      vertex 71.809 73.542 0
      vertex 67.298 117.006 0
      vertex 68.993 116.116 0
    endloop
  endfacet
  facet normal 0 0 -1
    outer loop
      vertex 71.809 73.542 0
      vertex 68.993 116.116 0
      vertex 70.907 116.116 0
    endloop
  endfacet
  facet normal 0 0 -1
    outer loop
      vertex 17.298 117.006 0
      vertex 23.921 70.482 0
      vertex 16.21 118.582 0
    endloop
  endfacet
  facet normal 0 0 -1
    outer loop
      vertex 23.921 70.482 0
      vertex 20.907 116.116 0
      vertex 66.658 22.272 0
    endloop
  endfacet
  facet normal 0 0 -1
    outer loop
      vertex 18.091 123.542 0
      vertex 4.21885e-014 190 0
      vertex 19.95 124 0
    endloop
  endfacet
  facet normal 0 0 -1
    outer loop
      vertex 20.907 116.116 0
      vertex 22.602 117.006 0
      vertex 66.658 22.272 0
    endloop
  endfacet
  facet normal 0 0 -1
    outer loop
      vertex 19.95 124 0
      vertex 4.21885e-014 190 0
      vertex 21.809 123.542 0
    endloop
  endfacet
  facet normal 0 0 -1
    outer loop
      vertex 22.602 117.006 0
      vertex 23.69 118.582 0
      vertex 66.658 22.272 0
    endloop
  endfacet
  facet normal 0 0 -1
    outer loop
      vertex 23.242 122.272 0
      vertex 4.21885e-014 190 0
      vertex 23.921 120.482 0
    endloop
  endfacet
  facet normal 0 0 -1
    outer loop
      vertex 23.69 118.582 0
      vertex 23.921 120.482 0
      vertex 66.658 22.272 0
    endloop
  endfacet
  facet normal 0 0 -1
    outer loop
      vertex 16.658 122.272 0
      vertex 4.21885e-014 190 0
      vertex 18.091 123.542 0
    endloop
  endfacet
  facet normal 0 0 -1
    outer loop
      vertex 15.979 120.482 0
      vertex 4.21885e-014 190 0
      vertex 16.658 122.272 0
    endloop
  endfacet
  facet normal 0 0 -1
    outer loop
      vertex 22.602 167.006 0
      vertex 66.21 118.582 0
      vertex 20.907 166.116 0
    endloop
  endfacet
  facet normal 0 0 -1
    outer loop
      vertex 16.21 118.582 0
      vertex 4.21885e-014 190 0
      vertex 15.979 120.482 0
    endloop
  endfacet
  facet normal 0 0 -1
    outer loop
      vertex 23.921 70.482 0
      vertex 4.21885e-014 190 0
      vertex 16.21 118.582 0
    endloop
  endfacet
  facet normal 0 0 -1
    outer loop
      vertex 18.993 116.116 0
      vertex 23.921 70.482 0
      vertex 17.298 117.006 0
    endloop
  endfacet
  facet normal 0 0 -1
    outer loop
      vertex 22.602 167.006 0
      vertex 65.979 120.482 0
      vertex 66.21 118.582 0
    endloop
  endfacet
  facet normal 0 0 -1
    outer loop
      vertex 23.921 70.482 0
      vertex 18.993 116.116 0
      vertex 20.907 116.116 0
    endloop
  endfacet
  facet normal 0 0 -1
    outer loop
      vertex 18.993 166.116 0
      vertex 71.809 73.542 0
      vertex 17.298 167.006 0
    endloop
  endfacet
  facet normal 0 0 -1
    outer loop
      vertex 71.809 73.542 0
      vertex 20.907 166.116 0
      vertex 66.21 118.582 0
    endloop
  endfacet
  facet normal 0 0 -1
    outer loop
      vertex 16.658 172.272 0
      vertex 4.21885e-014 190 0
      vertex 18.091 173.542 0
    endloop
  endfacet
  facet normal 0 0 -1
    outer loop
      vertex 69.95 174 0
      vertex 23.69 168.582 0
      vertex 90 190 0
    endloop
  endfacet
  facet normal 0 0 -1
    outer loop
      vertex 23.69 168.582 0
      vertex 23.921 170.482 0
      vertex 90 190 0
    endloop
  endfacet
  facet normal 0 0 -1
    outer loop
      vertex 18.091 173.542 0
      vertex 4.21885e-014 190 0
      vertex 19.95 174 0
    endloop
  endfacet
  facet normal 0 0 -1
    outer loop
      vertex 23.921 170.482 0
      vertex 23.242 172.272 0
      vertex 90 190 0
    endloop
  endfacet
  facet normal 0 0 -1
    outer loop
      vertex 23.242 172.272 0
      vertex 21.809 173.542 0
      vertex 90 190 0
    endloop
  endfacet
  facet normal 0 0 -1
    outer loop
      vertex 19.95 174 0
      vertex 4.21885e-014 190 0
      vertex 21.809 173.542 0
    endloop
  endfacet
  facet normal 0 0 -1
    outer loop
      vertex 23.69 168.582 0
      vertex 66.658 122.272 0
      vertex 22.602 167.006 0
    endloop
  endfacet
  facet normal 0 0 -1
    outer loop
      vertex 23.69 168.582 0
      vertex 68.091 123.542 0
      vertex 66.658 122.272 0
    endloop
  endfacet
  facet normal 0 0 -1
    outer loop
      vertex 16.21 168.582 0
      vertex 4.21885e-014 190 0
      vertex 15.979 170.482 0
    endloop
  endfacet
  facet normal 0 0 -1
    outer loop
      vertex 71.809 73.542 0
      vertex 4.21885e-014 190 0
      vertex 16.21 168.582 0
    endloop
  endfacet
  facet normal 0 0 -1
    outer loop
      vertex 71.809 73.542 0
      vertex 16.21 168.582 0
      vertex 17.298 167.006 0
    endloop
  endfacet
  facet normal 0 0 -1
    outer loop
      vertex 73.921 170.482 0
      vertex 90 190 0
      vertex 73.69 168.582 0
    endloop
  endfacet
  facet normal 0 0 -1
    outer loop
      vertex 71.809 73.542 0
      vertex 18.993 166.116 0
      vertex 20.907 166.116 0
    endloop
  endfacet
  facet normal 0 0 -1
    outer loop
      vertex 71.809 123.542 0
      vertex 70.907 166.116 0
      vertex 72.602 167.006 0
    endloop
  endfacet
  facet normal 0 0 -1
    outer loop
      vertex 71.809 123.542 0
      vertex 72.602 167.006 0
      vertex 90 190 0
    endloop
  endfacet
  facet normal 0 0 -1
    outer loop
      vertex 72.602 167.006 0
      vertex 73.69 168.582 0
      vertex 90 190 0
    endloop
  endfacet
  facet normal 0 0 -1
    outer loop
      vertex 68.993 166.116 0
      vertex 23.69 168.582 0
      vertex 67.298 167.006 0
    endloop
  endfacet
  facet normal 0 0 -1
    outer loop
      vertex 66.658 172.272 0
      vertex 23.69 168.582 0
      vertex 68.091 173.542 0
    endloop
  endfacet
  facet normal 0 0 -1
    outer loop
      vertex 66.21 168.582 0
      vertex 23.69 168.582 0
      vertex 65.979 170.482 0
    endloop
  endfacet
  facet normal 0 0 -1
    outer loop
      vertex 73.921 170.482 0
      vertex 73.242 172.272 0
      vertex 90 190 0
    endloop
  endfacet
  facet normal 0 0 -1
    outer loop
      vertex 65.979 170.482 0
      vertex 23.69 168.582 0
      vertex 66.658 172.272 0
    endloop
  endfacet
  facet normal 0 0 -1
    outer loop
      vertex 73.242 172.272 0
      vertex 71.809 173.542 0
      vertex 90 190 0
    endloop
  endfacet
  facet normal 0 0 -1
    outer loop
      vertex 68.091 173.542 0
      vertex 23.69 168.582 0
      vertex 69.95 174 0
    endloop
  endfacet
  facet normal 0 0 -1
    outer loop
      vertex 71.809 173.542 0
      vertex 69.95 174 0
      vertex 90 190 0
    endloop
  endfacet
  facet normal 0 0 -1
    outer loop
      vertex 67.298 167.006 0
      vertex 23.69 168.582 0
      vertex 66.21 168.582 0
    endloop
  endfacet
  facet normal 0 0 -1
    outer loop
      vertex 71.809 123.542 0
      vertex 23.69 168.582 0
      vertex 68.993 166.116 0
    endloop
  endfacet
  facet normal 0 0 -1
    outer loop
      vertex 71.809 123.542 0
      vertex 68.993 166.116 0
      vertex 70.907 166.116 0
    endloop
  endfacet
  facet normal 0 0 -1
    outer loop
      vertex 71.809 23.542 0
      vertex 4.21885e-014 190 0
      vertex 73.242 22.272 0
    endloop
  endfacet
  facet normal 2.22045e-016 1 0
    outer loop
      vertex 68.993 16.116 0
      vertex 68.993 16.116 2
      vertex 70.907 16.116 0
    endloop
  endfacet
  facet normal 2.22045e-016 1 0
    outer loop
      vertex 70.907 16.116 0
      vertex 68.993 16.116 2
      vertex 70.907 16.116 2
    endloop
  endfacet
  facet normal 0 0 1
    outer loop
      vertex 19.95 174 2
      vertex 90 190 2
      vertex 4.21885e-014 190 2
    endloop
  endfacet
  facet normal 0 0 1
    outer loop
      vertex 73.242 22.272 2
      vertex 90 -1.9984e-014 2
      vertex 4.21885e-014 190 2
    endloop
  endfacet
  facet normal 0 0 1
    outer loop
      vertex 73.242 22.272 2
      vertex 73.921 20.482 2
      vertex 90 -1.9984e-014 2
    endloop
  endfacet
  facet normal 0 0 1
    outer loop
      vertex 0 0 2
      vertex 90 -1.9984e-014 2
      vertex 70.907 16.116 2
    endloop
  endfacet
  facet normal 0 0 1
    outer loop
      vertex 66.658 22.272 2
      vertex 68.091 23.542 2
      vertex 4.21885e-014 190 2
    endloop
  endfacet
  facet normal 0 0 1
    outer loop
      vertex 0 0 2
      vertex 70.907 16.116 2
      vertex 68.993 16.116 2
    endloop
  endfacet
  facet normal 0 0 1
    outer loop
      vertex 65.979 20.482 2
      vertex 66.658 22.272 2
      vertex 4.21885e-014 190 2
    endloop
  endfacet
  facet normal 0 0 1
    outer loop
      vertex 0 0 2
      vertex 68.993 16.116 2
      vertex 67.298 17.006 2
    endloop
  endfacet
  facet normal 0 0 1
    outer loop
      vertex 23.242 122.272 2
      vertex 66.21 18.582 2
      vertex 4.21885e-014 190 2
    endloop
  endfacet
  facet normal 0 0 1
    outer loop
      vertex 0 0 2
      vertex 67.298 17.006 2
      vertex 66.21 18.582 2
    endloop
  endfacet
  facet normal 0 0 1
    outer loop
      vertex 68.091 23.542 2
      vertex 69.95 24 2
      vertex 4.21885e-014 190 2
    endloop
  endfacet
  facet normal 0 0 1
    outer loop
      vertex 69.95 24 2
      vertex 71.809 23.542 2
      vertex 4.21885e-014 190 2
    endloop
  endfacet
  facet normal 0 0 1
    outer loop
      vertex 71.809 23.542 2
      vertex 73.242 22.272 2
      vertex 4.21885e-014 190 2
    endloop
  endfacet
  facet normal 0 0 1
    outer loop
      vertex 73.921 20.482 2
      vertex 73.69 18.582 2
      vertex 90 -1.9984e-014 2
    endloop
  endfacet
  facet normal 0 0 1
    outer loop
      vertex 73.69 18.582 2
      vertex 72.602 17.006 2
      vertex 90 -1.9984e-014 2
    endloop
  endfacet
  facet normal 0 0 1
    outer loop
      vertex 15.979 20.482 2
      vertex 16.658 22.272 2
      vertex 4.21885e-014 190 2
    endloop
  endfacet
  facet normal 0 0 1
    outer loop
      vertex 70.907 16.116 2
      vertex 90 -1.9984e-014 2
      vertex 72.602 17.006 2
    endloop
  endfacet
  facet normal 0 0 1
    outer loop
      vertex 66.21 68.582 2
      vertex 65.979 70.482 2
      vertex 4.21885e-014 190 2
    endloop
  endfacet
  facet normal 0 0 1
    outer loop
      vertex 0 0 2
      vertex 66.21 18.582 2
      vertex 20.907 16.116 2
    endloop
  endfacet
  facet normal 0 0 1
    outer loop
      vertex 19.95 24 2
      vertex 21.809 23.542 2
      vertex 4.21885e-014 190 2
    endloop
  endfacet
  facet normal 0 0 1
    outer loop
      vertex 0 0 2
      vertex 20.907 16.116 2
      vertex 18.993 16.116 2
    endloop
  endfacet
  facet normal 0 0 1
    outer loop
      vertex 18.091 23.542 2
      vertex 19.95 24 2
      vertex 4.21885e-014 190 2
    endloop
  endfacet
  facet normal 0 0 1
    outer loop
      vertex 0 0 2
      vertex 18.993 16.116 2
      vertex 17.298 17.006 2
    endloop
  endfacet
  facet normal 0 0 1
    outer loop
      vertex 16.658 22.272 2
      vertex 18.091 23.542 2
      vertex 4.21885e-014 190 2
    endloop
  endfacet
  facet normal 0 0 1
    outer loop
      vertex 0 0 2
      vertex 17.298 17.006 2
      vertex 16.21 18.582 2
    endloop
  endfacet
  facet normal 0 0 1
    outer loop
      vertex 0 0 2
      vertex 15.979 20.482 2
      vertex 4.21885e-014 190 2
    endloop
  endfacet
  facet normal 0 0 1
    outer loop
      vertex 0 0 2
      vertex 16.21 18.582 2
      vertex 15.979 20.482 2
    endloop
  endfacet
  facet normal 0 0 1
    outer loop
      vertex 23.242 22.272 2
      vertex 66.21 18.582 2
      vertex 21.809 23.542 2
    endloop
  endfacet
  facet normal 0 0 1
    outer loop
      vertex 23.921 20.482 2
      vertex 66.21 18.582 2
      vertex 23.242 22.272 2
    endloop
  endfacet
  facet normal 0 0 1
    outer loop
      vertex 23.69 18.582 2
      vertex 66.21 18.582 2
      vertex 23.921 20.482 2
    endloop
  endfacet
  facet normal 0 0 1
    outer loop
      vertex 22.602 17.006 2
      vertex 66.21 18.582 2
      vertex 23.69 18.582 2
    endloop
  endfacet
  facet normal 0 0 1
    outer loop
      vertex 20.907 16.116 2
      vertex 66.21 18.582 2
      vertex 22.602 17.006 2
    endloop
  endfacet
  facet normal 0 0 1
    outer loop
      vertex 71.809 73.542 2
      vertex 73.242 72.272 2
      vertex 90 190 2
    endloop
  endfacet
  facet normal 0 0 1
    outer loop
      vertex 66.658 72.272 2
      vertex 68.091 73.542 2
      vertex 4.21885e-014 190 2
    endloop
  endfacet
  facet normal 0 0 1
    outer loop
      vertex 90 -1.9984e-014 2
      vertex 70.907 66.116 2
      vertex 68.993 66.116 2
    endloop
  endfacet
  facet normal 0 0 1
    outer loop
      vertex 65.979 70.482 2
      vertex 66.658 72.272 2
      vertex 4.21885e-014 190 2
    endloop
  endfacet
  facet normal 0 0 1
    outer loop
      vertex 90 -1.9984e-014 2
      vertex 68.993 66.116 2
      vertex 67.298 67.006 2
    endloop
  endfacet
  facet normal 0 0 1
    outer loop
      vertex 90 -1.9984e-014 2
      vertex 66.21 68.582 2
      vertex 4.21885e-014 190 2
    endloop
  endfacet
  facet normal 0 0 1
    outer loop
      vertex 90 -1.9984e-014 2
      vertex 67.298 67.006 2
      vertex 66.21 68.582 2
    endloop
  endfacet
  facet normal 0 0 1
    outer loop
      vertex 69.95 74 2
      vertex 90 190 2
      vertex 68.091 73.542 2
    endloop
  endfacet
  facet normal 0 0 1
    outer loop
      vertex 71.809 73.542 2
      vertex 90 190 2
      vertex 69.95 74 2
    endloop
  endfacet
  facet normal 0 0 1
    outer loop
      vertex 73.921 70.482 2
      vertex 73.69 68.582 2
      vertex 90 -1.9984e-014 2
    endloop
  endfacet
  facet normal 0 0 1
    outer loop
      vertex 73.921 70.482 2
      vertex 90 190 2
      vertex 73.242 72.272 2
    endloop
  endfacet
  facet normal 0 0 1
    outer loop
      vertex 15.979 70.482 2
      vertex 16.658 72.272 2
      vertex 4.21885e-014 190 2
    endloop
  endfacet
  facet normal 0 0 1
    outer loop
      vertex 90 -1.9984e-014 2
      vertex 90 190 2
      vertex 73.921 70.482 2
    endloop
  endfacet
  facet normal 0 0 1
    outer loop
      vertex 90 -1.9984e-014 2
      vertex 72.602 67.006 2
      vertex 70.907 66.116 2
    endloop
  endfacet
  facet normal 0 0 1
    outer loop
      vertex 90 -1.9984e-014 2
      vertex 73.69 68.582 2
      vertex 72.602 67.006 2
    endloop
  endfacet
  facet normal 0 0 1
    outer loop
      vertex 23.242 72.272 2
      vertex 23.921 70.482 2
      vertex 66.21 18.582 2
    endloop
  endfacet
  facet normal 0 0 1
    outer loop
      vertex 21.809 23.542 2
      vertex 66.21 18.582 2
      vertex 20.907 66.116 2
    endloop
  endfacet
  facet normal 0 0 1
    outer loop
      vertex 18.091 73.542 2
      vertex 19.95 74 2
      vertex 4.21885e-014 190 2
    endloop
  endfacet
  facet normal 0 0 1
    outer loop
      vertex 21.809 23.542 2
      vertex 20.907 66.116 2
      vertex 18.993 66.116 2
    endloop
  endfacet
  facet normal 0 0 1
    outer loop
      vertex 16.658 72.272 2
      vertex 18.091 73.542 2
      vertex 4.21885e-014 190 2
    endloop
  endfacet
  facet normal 0 0 1
    outer loop
      vertex 21.809 23.542 2
      vertex 18.993 66.116 2
      vertex 17.298 67.006 2
    endloop
  endfacet
  facet normal 0 0 1
    outer loop
      vertex 21.809 23.542 2
      vertex 16.21 68.582 2
      vertex 4.21885e-014 190 2
    endloop
  endfacet
  facet normal 0 0 1
    outer loop
      vertex 21.809 23.542 2
      vertex 17.298 67.006 2
      vertex 16.21 68.582 2
    endloop
  endfacet
  facet normal 0 0 1
    outer loop
      vertex 16.21 68.582 2
      vertex 15.979 70.482 2
      vertex 4.21885e-014 190 2
    endloop
  endfacet
  facet normal 0 0 1
    outer loop
      vertex 19.95 74 2
      vertex 21.809 73.542 2
      vertex 4.21885e-014 190 2
    endloop
  endfacet
  facet normal 0 0 1
    outer loop
      vertex 21.809 73.542 2
      vertex 23.242 72.272 2
      vertex 4.21885e-014 190 2
    endloop
  endfacet
  facet normal 0 0 1
    outer loop
      vertex 23.921 70.482 2
      vertex 23.69 68.582 2
      vertex 66.21 18.582 2
    endloop
  endfacet
  facet normal 0 0 1
    outer loop
      vertex 16.658 172.272 2
      vertex 18.091 173.542 2
      vertex 4.21885e-014 190 2
    endloop
  endfacet
  facet normal 0 0 1
    outer loop
      vertex 22.602 67.006 2
      vertex 66.21 18.582 2
      vertex 23.69 68.582 2
    endloop
  endfacet
  facet normal 0 0 1
    outer loop
      vertex 20.907 66.116 2
      vertex 66.21 18.582 2
      vertex 22.602 67.006 2
    endloop
  endfacet
  facet normal 0 0 1
    outer loop
      vertex 73.69 118.582 2
      vertex 72.602 117.006 2
      vertex 68.091 73.542 2
    endloop
  endfacet
  facet normal 0 0 1
    outer loop
      vertex 65.979 120.482 2
      vertex 66.658 122.272 2
      vertex 22.602 167.006 2
    endloop
  endfacet
  facet normal 0 0 1
    outer loop
      vertex 68.091 73.542 2
      vertex 70.907 116.116 2
      vertex 68.993 116.116 2
    endloop
  endfacet
  facet normal 0 0 1
    outer loop
      vertex 68.091 73.542 2
      vertex 68.993 116.116 2
      vertex 67.298 117.006 2
    endloop
  endfacet
  facet normal 0 0 1
    outer loop
      vertex 16.21 168.582 2
      vertex 15.979 170.482 2
      vertex 4.21885e-014 190 2
    endloop
  endfacet
  facet normal 0 0 1
    outer loop
      vertex 19.95 174 2
      vertex 21.809 173.542 2
      vertex 90 190 2
    endloop
  endfacet
  facet normal 0 0 1
    outer loop
      vertex 68.091 123.542 2
      vertex 90 190 2
      vertex 66.658 122.272 2
    endloop
  endfacet
  facet normal 0 0 1
    outer loop
      vertex 69.95 124 2
      vertex 90 190 2
      vertex 68.091 123.542 2
    endloop
  endfacet
  facet normal 0 0 1
    outer loop
      vertex 71.809 123.542 2
      vertex 90 190 2
      vertex 69.95 124 2
    endloop
  endfacet
  facet normal 0 0 1
    outer loop
      vertex 73.921 120.482 2
      vertex 90 190 2
      vertex 73.242 122.272 2
    endloop
  endfacet
  facet normal 0 0 1
    outer loop
      vertex 15.979 120.482 2
      vertex 16.658 122.272 2
      vertex 4.21885e-014 190 2
    endloop
  endfacet
  facet normal 0 0 1
    outer loop
      vertex 73.69 118.582 2
      vertex 90 190 2
      vertex 73.921 120.482 2
    endloop
  endfacet
  facet normal 0 0 1
    outer loop
      vertex 68.091 73.542 2
      vertex 90 190 2
      vertex 73.69 118.582 2
    endloop
  endfacet
  facet normal 0 0 1
    outer loop
      vertex 68.091 73.542 2
      vertex 72.602 117.006 2
      vertex 70.907 116.116 2
    endloop
  endfacet
  facet normal 0 0 1
    outer loop
      vertex 23.921 120.482 2
      vertex 23.69 118.582 2
      vertex 66.21 18.582 2
    endloop
  endfacet
  facet normal 0 0 1
    outer loop
      vertex 23.242 72.272 2
      vertex 66.21 18.582 2
      vertex 20.907 116.116 2
    endloop
  endfacet
  facet normal 0 0 1
    outer loop
      vertex 18.091 123.542 2
      vertex 19.95 124 2
      vertex 4.21885e-014 190 2
    endloop
  endfacet
  facet normal 0 0 1
    outer loop
      vertex 23.242 72.272 2
      vertex 20.907 116.116 2
      vertex 18.993 116.116 2
    endloop
  endfacet
  facet normal 0 0 1
    outer loop
      vertex 16.658 122.272 2
      vertex 18.091 123.542 2
      vertex 4.21885e-014 190 2
    endloop
  endfacet
  facet normal 0 0 1
    outer loop
      vertex 23.242 72.272 2
      vertex 18.993 116.116 2
      vertex 17.298 117.006 2
    endloop
  endfacet
  facet normal 0 0 1
    outer loop
      vertex 23.242 72.272 2
      vertex 16.21 118.582 2
      vertex 4.21885e-014 190 2
    endloop
  endfacet
  facet normal 0 0 1
    outer loop
      vertex 23.242 72.272 2
      vertex 17.298 117.006 2
      vertex 16.21 118.582 2
    endloop
  endfacet
  facet normal 0 0 1
    outer loop
      vertex 16.21 118.582 2
      vertex 15.979 120.482 2
      vertex 4.21885e-014 190 2
    endloop
  endfacet
  facet normal 0 0 1
    outer loop
      vertex 19.95 124 2
      vertex 21.809 123.542 2
      vertex 4.21885e-014 190 2
    endloop
  endfacet
  facet normal 0 0 1
    outer loop
      vertex 21.809 123.542 2
      vertex 23.242 122.272 2
      vertex 4.21885e-014 190 2
    endloop
  endfacet
  facet normal 0 0 1
    outer loop
      vertex 23.921 120.482 2
      vertex 66.21 18.582 2
      vertex 23.242 122.272 2
    endloop
  endfacet
  facet normal 0 0 1
    outer loop
      vertex 23.69 118.582 2
      vertex 22.602 117.006 2
      vertex 66.21 18.582 2
    endloop
  endfacet
  facet normal 0 0 1
    outer loop
      vertex 69.95 174 2
      vertex 71.809 173.542 2
      vertex 90 190 2
    endloop
  endfacet
  facet normal 0 0 1
    outer loop
      vertex 20.907 116.116 2
      vertex 66.21 18.582 2
      vertex 22.602 117.006 2
    endloop
  endfacet
  facet normal 0 0 1
    outer loop
      vertex 68.091 73.542 2
      vertex 67.298 117.006 2
      vertex 20.907 166.116 2
    endloop
  endfacet
  facet normal 0 0 1
    outer loop
      vertex 15.979 170.482 2
      vertex 16.658 172.272 2
      vertex 4.21885e-014 190 2
    endloop
  endfacet
  facet normal 0 0 1
    outer loop
      vertex 68.091 73.542 2
      vertex 20.907 166.116 2
      vertex 18.993 166.116 2
    endloop
  endfacet
  facet normal 0 0 1
    outer loop
      vertex 68.091 73.542 2
      vertex 17.298 167.006 2
      vertex 4.21885e-014 190 2
    endloop
  endfacet
  facet normal 0 0 1
    outer loop
      vertex 68.091 73.542 2
      vertex 18.993 166.116 2
      vertex 17.298 167.006 2
    endloop
  endfacet
  facet normal 0 0 1
    outer loop
      vertex 17.298 167.006 2
      vertex 16.21 168.582 2
      vertex 4.21885e-014 190 2
    endloop
  endfacet
  facet normal 0 0 1
    outer loop
      vertex 18.091 173.542 2
      vertex 19.95 174 2
      vertex 4.21885e-014 190 2
    endloop
  endfacet
  facet normal 0 0 1
    outer loop
      vertex 23.242 172.272 2
      vertex 23.921 170.482 2
      vertex 66.658 122.272 2
    endloop
  endfacet
  facet normal 0 0 1
    outer loop
      vertex 23.242 172.272 2
      vertex 90 190 2
      vertex 21.809 173.542 2
    endloop
  endfacet
  facet normal 0 0 1
    outer loop
      vertex 23.69 168.582 2
      vertex 22.602 167.006 2
      vertex 66.658 122.272 2
    endloop
  endfacet
  facet normal 0 0 1
    outer loop
      vertex 68.091 173.542 2
      vertex 90 190 2
      vertex 23.242 172.272 2
    endloop
  endfacet
  facet normal 0 0 1
    outer loop
      vertex 68.993 166.116 2
      vertex 67.298 167.006 2
      vertex 23.242 172.272 2
    endloop
  endfacet
  facet normal 0 0 1
    outer loop
      vertex 66.658 122.272 2
      vertex 23.921 170.482 2
      vertex 23.69 168.582 2
    endloop
  endfacet
  facet normal 0 0 1
    outer loop
      vertex 71.809 123.542 2
      vertex 73.242 122.272 2
      vertex 90 190 2
    endloop
  endfacet
  facet normal 0 0 1
    outer loop
      vertex 68.091 173.542 2
      vertex 69.95 174 2
      vertex 90 190 2
    endloop
  endfacet
  facet normal 0 0 1
    outer loop
      vertex 66.658 122.272 2
      vertex 68.993 166.116 2
      vertex 23.242 172.272 2
    endloop
  endfacet
  facet normal 0 0 1
    outer loop
      vertex 66.658 122.272 2
      vertex 70.907 166.116 2
      vertex 68.993 166.116 2
    endloop
  endfacet
  facet normal 0 0 1
    outer loop
      vertex 67.298 167.006 2
      vertex 66.21 168.582 2
      vertex 23.242 172.272 2
    endloop
  endfacet
  facet normal 0 0 1
    outer loop
      vertex 66.21 168.582 2
      vertex 65.979 170.482 2
      vertex 23.242 172.272 2
    endloop
  endfacet
  facet normal 0 0 1
    outer loop
      vertex 71.809 173.542 2
      vertex 73.242 172.272 2
      vertex 90 190 2
    endloop
  endfacet
  facet normal 0 0 1
    outer loop
      vertex 65.979 170.482 2
      vertex 66.658 172.272 2
      vertex 23.242 172.272 2
    endloop
  endfacet
  facet normal 0 0 1
    outer loop
      vertex 66.658 172.272 2
      vertex 68.091 173.542 2
      vertex 23.242 172.272 2
    endloop
  endfacet
  facet normal 0 0 1
    outer loop
      vertex 73.921 170.482 2
      vertex 73.69 168.582 2
      vertex 90 190 2
    endloop
  endfacet
  facet normal 0 0 1
    outer loop
      vertex 73.921 170.482 2
      vertex 90 190 2
      vertex 73.242 172.272 2
    endloop
  endfacet
  facet normal 0 0 1
    outer loop
      vertex 66.658 122.272 2
      vertex 90 190 2
      vertex 73.69 168.582 2
    endloop
  endfacet
  facet normal 0 0 1
    outer loop
      vertex 66.658 122.272 2
      vertex 72.602 167.006 2
      vertex 70.907 166.116 2
    endloop
  endfacet
  facet normal 0 0 1
    outer loop
      vertex 66.658 122.272 2
      vertex 73.69 168.582 2
      vertex 72.602 167.006 2
    endloop
  endfacet
  facet normal 0 0 1
    outer loop
      vertex 66.21 18.582 2
      vertex 65.979 20.482 2
      vertex 4.21885e-014 190 2
    endloop
  endfacet
  facet normal 0 0 1
    outer loop
      vertex 22.602 167.006 2
      vertex 66.21 118.582 2
      vertex 65.979 120.482 2
    endloop
  endfacet
  facet normal 0 0 1
    outer loop
      vertex 22.602 167.006 2
      vertex 67.298 117.006 2
      vertex 66.21 118.582 2
    endloop
  endfacet
  facet normal 0 0 1
    outer loop
      vertex 22.602 167.006 2
      vertex 20.907 166.116 2
      vertex 67.298 117.006 2
    endloop
  endfacet
  facet normal 0.822943 0.568123 0
    outer loop
      vertex 67.298 17.006 0
      vertex 66.21 18.582 0
      vertex 66.21 18.582 2
    endloop
  endfacet
  facet normal 0.822943 0.568123 0
    outer loop
      vertex 67.298 17.006 2
      vertex 67.298 17.006 0
      vertex 66.21 18.582 2
    endloop
  endfacet
  facet normal 1 -2.22045e-016 0
    outer loop
      vertex 90 -1.9984e-014 0
      vertex 90 190 0
      vertex 90 190 2
    endloop
  endfacet
  facet normal 1 -2.22045e-016 0
    outer loop
      vertex 90 -1.9984e-014 2
      vertex 90 -1.9984e-014 0
      vertex 90 190 2
    endloop
  endfacet
  facet normal -2.22045e-016 -1 0
    outer loop
      vertex 90 -1.9984e-014 0
      vertex 90 -1.9984e-014 2
      vertex 0 0 2
    endloop
  endfacet
  facet normal -2.22045e-016 -1 0
    outer loop
      vertex 0 0 0
      vertex 90 -1.9984e-014 0
      vertex 0 0 2
    endloop
  endfacet
  facet normal 2.22045e-016 1 0
    outer loop
      vertex 4.21885e-014 190 0
      vertex 4.21885e-014 190 2
      vertex 90 190 0
    endloop
  endfacet
  facet normal 2.22045e-016 1 0
    outer loop
      vertex 90 190 0
      vertex 4.21885e-014 190 2
      vertex 90 190 2
    endloop
  endfacet
  facet normal -1 2.22045e-016 0
    outer loop
      vertex 0 0 2
      vertex 4.21885e-014 190 2
      vertex 0 0 0
    endloop
  endfacet
  facet normal -1 2.22045e-016 0
    outer loop
      vertex 0 0 0
      vertex 4.21885e-014 190 2
      vertex 4.21885e-014 190 0
    endloop
  endfacet
  facet normal -0.464885 0.885371 0
    outer loop
      vertex 70.907 16.116 2
      vertex 72.602 17.006 2
      vertex 70.907 16.116 0
    endloop
  endfacet
  facet normal -0.464885 0.885371 0
    outer loop
      vertex 70.907 16.116 0
      vertex 72.602 17.006 2
      vertex 72.602 17.006 0
    endloop
  endfacet
  facet normal 0.99269 0.12069 0
    outer loop
      vertex 66.21 18.582 0
      vertex 65.979 20.482 0
      vertex 65.979 20.482 2
    endloop
  endfacet
  facet normal 0.99269 0.12069 0
    outer loop
      vertex 66.21 18.582 2
      vertex 66.21 18.582 0
      vertex 65.979 20.482 2
    endloop
  endfacet
  facet normal 0.934992 -0.35467 0
    outer loop
      vertex 65.979 20.482 0
      vertex 66.658 22.272 0
      vertex 66.658 22.272 2
    endloop
  endfacet
  facet normal 0.934992 -0.35467 0
    outer loop
      vertex 65.979 20.482 2
      vertex 65.979 20.482 0
      vertex 66.658 22.272 2
    endloop
  endfacet
  facet normal 0.663261 -0.748388 0
    outer loop
      vertex 66.658 22.272 0
      vertex 68.091 23.542 0
      vertex 68.091 23.542 2
    endloop
  endfacet
  facet normal 0.663261 -0.748388 0
    outer loop
      vertex 66.658 22.272 2
      vertex 66.658 22.272 0
      vertex 68.091 23.542 2
    endloop
  endfacet
  facet normal 0.239216 -0.970966 0
    outer loop
      vertex 68.091 23.542 0
      vertex 69.95 24 0
      vertex 69.95 24 2
    endloop
  endfacet
  facet normal 0.239216 -0.970966 0
    outer loop
      vertex 68.091 23.542 2
      vertex 68.091 23.542 0
      vertex 69.95 24 2
    endloop
  endfacet
  facet normal -0.239216 -0.970966 0
    outer loop
      vertex 71.809 23.542 0
      vertex 71.809 23.542 2
      vertex 69.95 24 2
    endloop
  endfacet
  facet normal -0.239216 -0.970966 0
    outer loop
      vertex 69.95 24 0
      vertex 71.809 23.542 0
      vertex 69.95 24 2
    endloop
  endfacet
  facet normal -0.663261 -0.748388 0
    outer loop
      vertex 73.242 22.272 0
      vertex 73.242 22.272 2
      vertex 71.809 23.542 2
    endloop
  endfacet
  facet normal -0.663261 -0.748388 0
    outer loop
      vertex 71.809 23.542 0
      vertex 73.242 22.272 0
      vertex 71.809 23.542 2
    endloop
  endfacet
  facet normal -0.934992 -0.35467 0
    outer loop
      vertex 73.921 20.482 2
      vertex 73.242 22.272 2
      vertex 73.921 20.482 0
    endloop
  endfacet
  facet normal -0.934992 -0.35467 0
    outer loop
      vertex 73.921 20.482 0
      vertex 73.242 22.272 2
      vertex 73.242 22.272 0
    endloop
  endfacet
  facet normal -0.99269 0.12069 0
    outer loop
      vertex 73.69 18.582 2
      vertex 73.921 20.482 2
      vertex 73.69 18.582 0
    endloop
  endfacet
  facet normal -0.99269 0.12069 0
    outer loop
      vertex 73.69 18.582 0
      vertex 73.921 20.482 2
      vertex 73.921 20.482 0
    endloop
  endfacet
  facet normal -0.822943 0.568123 0
    outer loop
      vertex 72.602 17.006 2
      vertex 73.69 18.582 2
      vertex 72.602 17.006 0
    endloop
  endfacet
  facet normal -0.822943 0.568123 0
    outer loop
      vertex 72.602 17.006 0
      vertex 73.69 18.582 2
      vertex 73.69 18.582 0
    endloop
  endfacet
  facet normal -0.464885 0.885371 0
    outer loop
      vertex 20.907 16.116 2
      vertex 22.602 17.006 2
      vertex 20.907 16.116 0
    endloop
  endfacet
  facet normal -0.464885 0.885371 0
    outer loop
      vertex 20.907 16.116 0
      vertex 22.602 17.006 2
      vertex 22.602 17.006 0
    endloop
  endfacet
  facet normal 2.22045e-016 1 0
    outer loop
      vertex 18.993 16.116 0
      vertex 18.993 16.116 2
      vertex 20.907 16.116 0
    endloop
  endfacet
  facet normal 2.22045e-016 1 0
    outer loop
      vertex 20.907 16.116 0
      vertex 18.993 16.116 2
      vertex 20.907 16.116 2
    endloop
  endfacet
  facet normal 0.464885 0.885371 0
    outer loop
      vertex 17.298 17.006 0
      vertex 17.298 17.006 2
      vertex 18.993 16.116 0
    endloop
  endfacet
  facet normal 0.464885 0.885371 0
    outer loop
      vertex 18.993 16.116 0
      vertex 17.298 17.006 2
      vertex 18.993 16.116 2
    endloop
  endfacet
  facet normal 0.822943 0.568123 0
    outer loop
      vertex 17.298 17.006 0
      vertex 16.21 18.582 0
      vertex 16.21 18.582 2
    endloop
  endfacet
  facet normal 0.822943 0.568123 0
    outer loop
      vertex 17.298 17.006 2
      vertex 17.298 17.006 0
      vertex 16.21 18.582 2
    endloop
  endfacet
  facet normal 0.99269 0.12069 0
    outer loop
      vertex 16.21 18.582 0
      vertex 15.979 20.482 0
      vertex 15.979 20.482 2
    endloop
  endfacet
  facet normal 0.99269 0.12069 0
    outer loop
      vertex 16.21 18.582 2
      vertex 16.21 18.582 0
      vertex 15.979 20.482 2
    endloop
  endfacet
  facet normal 0.934992 -0.35467 0
    outer loop
      vertex 15.979 20.482 0
      vertex 16.658 22.272 0
      vertex 16.658 22.272 2
    endloop
  endfacet
  facet normal 0.934992 -0.35467 0
    outer loop
      vertex 15.979 20.482 2
      vertex 15.979 20.482 0
      vertex 16.658 22.272 2
    endloop
  endfacet
  facet normal 0.663261 -0.748388 0
    outer loop
      vertex 16.658 22.272 0
      vertex 18.091 23.542 0
      vertex 18.091 23.542 2
    endloop
  endfacet
  facet normal 0.663261 -0.748388 0
    outer loop
      vertex 16.658 22.272 2
      vertex 16.658 22.272 0
      vertex 18.091 23.542 2
    endloop
  endfacet
  facet normal 0.239216 -0.970966 0
    outer loop
      vertex 18.091 23.542 0
      vertex 19.95 24 0
      vertex 19.95 24 2
    endloop
  endfacet
  facet normal 0.239216 -0.970966 0
    outer loop
      vertex 18.091 23.542 2
      vertex 18.091 23.542 0
      vertex 19.95 24 2
    endloop
  endfacet
  facet normal -0.239216 -0.970966 0
    outer loop
      vertex 21.809 23.542 0
      vertex 21.809 23.542 2
      vertex 19.95 24 2
    endloop
  endfacet
  facet normal -0.239216 -0.970966 0
    outer loop
      vertex 19.95 24 0
      vertex 21.809 23.542 0
      vertex 19.95 24 2
    endloop
  endfacet
  facet normal -0.663261 -0.748388 0
    outer loop
      vertex 23.242 22.272 0
      vertex 23.242 22.272 2
      vertex 21.809 23.542 2
    endloop
  endfacet
  facet normal -0.663261 -0.748388 0
    outer loop
      vertex 21.809 23.542 0
      vertex 23.242 22.272 0
      vertex 21.809 23.542 2
    endloop
  endfacet
  facet normal -0.934992 -0.35467 0
    outer loop
      vertex 23.921 20.482 2
      vertex 23.242 22.272 2
      vertex 23.921 20.482 0
    endloop
  endfacet
  facet normal -0.934992 -0.35467 0
    outer loop
      vertex 23.921 20.482 0
      vertex 23.242 22.272 2
      vertex 23.242 22.272 0
    endloop
  endfacet
  facet normal -0.99269 0.12069 0
    outer loop
      vertex 23.69 18.582 2
      vertex 23.921 20.482 2
      vertex 23.69 18.582 0
    endloop
  endfacet
  facet normal -0.99269 0.12069 0
    outer loop
      vertex 23.69 18.582 0
      vertex 23.921 20.482 2
      vertex 23.921 20.482 0
    endloop
  endfacet
  facet normal -0.822943 0.568123 0
    outer loop
      vertex 22.602 17.006 2
      vertex 23.69 18.582 2
      vertex 22.602 17.006 0
    endloop
  endfacet
  facet normal -0.822943 0.568123 0
    outer loop
      vertex 22.602 17.006 0
      vertex 23.69 18.582 2
      vertex 23.69 18.582 0
    endloop
  endfacet
  facet normal -0.464885 0.885371 0
    outer loop
      vertex 70.907 66.116 2
      vertex 72.602 67.006 2
      vertex 70.907 66.116 0
    endloop
  endfacet
  facet normal -0.464885 0.885371 0
    outer loop
      vertex 70.907 66.116 0
      vertex 72.602 67.006 2
      vertex 72.602 67.006 0
    endloop
  endfacet
  facet normal 2.22045e-016 1 0
    outer loop
      vertex 68.993 66.116 0
      vertex 68.993 66.116 2
      vertex 70.907 66.116 0
    endloop
  endfacet
  facet normal 2.22045e-016 1 0
    outer loop
      vertex 70.907 66.116 0
      vertex 68.993 66.116 2
      vertex 70.907 66.116 2
    endloop
  endfacet
  facet normal 0.464885 0.885371 0
    outer loop
      vertex 67.298 67.006 0
      vertex 67.298 67.006 2
      vertex 68.993 66.116 0
    endloop
  endfacet
  facet normal 0.464885 0.885371 0
    outer loop
      vertex 68.993 66.116 0
      vertex 67.298 67.006 2
      vertex 68.993 66.116 2
    endloop
  endfacet
  facet normal 0.822943 0.568123 0
    outer loop
      vertex 67.298 67.006 0
      vertex 66.21 68.582 0
      vertex 66.21 68.582 2
    endloop
  endfacet
  facet normal 0.822943 0.568123 0
    outer loop
      vertex 67.298 67.006 2
      vertex 67.298 67.006 0
      vertex 66.21 68.582 2
    endloop
  endfacet
  facet normal 0.99269 0.12069 0
    outer loop
      vertex 66.21 68.582 0
      vertex 65.979 70.482 0
      vertex 65.979 70.482 2
    endloop
  endfacet
  facet normal 0.99269 0.12069 0
    outer loop
      vertex 66.21 68.582 2
      vertex 66.21 68.582 0
      vertex 65.979 70.482 2
    endloop
  endfacet
  facet normal 0.934992 -0.35467 0
    outer loop
      vertex 65.979 70.482 0
      vertex 66.658 72.272 0
      vertex 66.658 72.272 2
    endloop
  endfacet
  facet normal 0.934992 -0.35467 0
    outer loop
      vertex 65.979 70.482 2
      vertex 65.979 70.482 0
      vertex 66.658 72.272 2
    endloop
  endfacet
  facet normal 0.663261 -0.748388 0
    outer loop
      vertex 66.658 72.272 0
      vertex 68.091 73.542 0
      vertex 68.091 73.542 2
    endloop
  endfacet
  facet normal 0.663261 -0.748388 0
    outer loop
      vertex 66.658 72.272 2
      vertex 66.658 72.272 0
      vertex 68.091 73.542 2
    endloop
  endfacet
  facet normal 0.239216 -0.970966 0
    outer loop
      vertex 68.091 73.542 0
      vertex 69.95 74 0
      vertex 69.95 74 2
    endloop
  endfacet
  facet normal 0.239216 -0.970966 0
    outer loop
      vertex 68.091 73.542 2
      vertex 68.091 73.542 0
      vertex 69.95 74 2
    endloop
  endfacet
  facet normal -0.239216 -0.970966 0
    outer loop
      vertex 71.809 73.542 0
      vertex 71.809 73.542 2
      vertex 69.95 74 2
    endloop
  endfacet
  facet normal -0.239216 -0.970966 0
    outer loop
      vertex 69.95 74 0
      vertex 71.809 73.542 0
      vertex 69.95 74 2
    endloop
  endfacet
  facet normal -0.663261 -0.748388 0
    outer loop
      vertex 73.242 72.272 0
      vertex 73.242 72.272 2
      vertex 71.809 73.542 2
    endloop
  endfacet
  facet normal -0.663261 -0.748388 0
    outer loop
      vertex 71.809 73.542 0
      vertex 73.242 72.272 0
      vertex 71.809 73.542 2
    endloop
  endfacet
  facet normal -0.934992 -0.35467 0
    outer loop
      vertex 73.921 70.482 2
      vertex 73.242 72.272 2
      vertex 73.921 70.482 0
    endloop
  endfacet
  facet normal -0.934992 -0.35467 0
    outer loop
      vertex 73.921 70.482 0
      vertex 73.242 72.272 2
      vertex 73.242 72.272 0
    endloop
  endfacet
  facet normal -0.99269 0.12069 0
    outer loop
      vertex 73.69 68.582 2
      vertex 73.921 70.482 2
      vertex 73.69 68.582 0
    endloop
  endfacet
  facet normal -0.99269 0.12069 0
    outer loop
      vertex 73.69 68.582 0
      vertex 73.921 70.482 2
      vertex 73.921 70.482 0
    endloop
  endfacet
  facet normal -0.822943 0.568123 0
    outer loop
      vertex 72.602 67.006 2
      vertex 73.69 68.582 2
      vertex 72.602 67.006 0
    endloop
  endfacet
  facet normal -0.822943 0.568123 0
    outer loop
      vertex 72.602 67.006 0
      vertex 73.69 68.582 2
      vertex 73.69 68.582 0
    endloop
  endfacet
  facet normal -0.464885 0.885371 0
    outer loop
      vertex 20.907 66.116 2
      vertex 22.602 67.006 2
      vertex 20.907 66.116 0
    endloop
  endfacet
  facet normal -0.464885 0.885371 0
    outer loop
      vertex 20.907 66.116 0
      vertex 22.602 67.006 2
      vertex 22.602 67.006 0
    endloop
  endfacet
  facet normal 2.22045e-016 1 0
    outer loop
      vertex 18.993 66.116 0
      vertex 18.993 66.116 2
      vertex 20.907 66.116 0
    endloop
  endfacet
  facet normal 2.22045e-016 1 0
    outer loop
      vertex 20.907 66.116 0
      vertex 18.993 66.116 2
      vertex 20.907 66.116 2
    endloop
  endfacet
  facet normal 0.464885 0.885371 0
    outer loop
      vertex 17.298 67.006 0
      vertex 17.298 67.006 2
      vertex 18.993 66.116 0
    endloop
  endfacet
  facet normal 0.464885 0.885371 0
    outer loop
      vertex 18.993 66.116 0
      vertex 17.298 67.006 2
      vertex 18.993 66.116 2
    endloop
  endfacet
  facet normal 0.822943 0.568123 0
    outer loop
      vertex 17.298 67.006 0
      vertex 16.21 68.582 0
      vertex 16.21 68.582 2
    endloop
  endfacet
  facet normal 0.822943 0.568123 0
    outer loop
      vertex 17.298 67.006 2
      vertex 17.298 67.006 0
      vertex 16.21 68.582 2
    endloop
  endfacet
  facet normal 0.99269 0.12069 0
    outer loop
      vertex 16.21 68.582 0
      vertex 15.979 70.482 0
      vertex 15.979 70.482 2
    endloop
  endfacet
  facet normal 0.99269 0.12069 0
    outer loop
      vertex 16.21 68.582 2
      vertex 16.21 68.582 0
      vertex 15.979 70.482 2
    endloop
  endfacet
  facet normal 0.934992 -0.35467 0
    outer loop
      vertex 15.979 70.482 0
      vertex 16.658 72.272 0
      vertex 16.658 72.272 2
    endloop
  endfacet
  facet normal 0.934992 -0.35467 0
    outer loop
      vertex 15.979 70.482 2
      vertex 15.979 70.482 0
      vertex 16.658 72.272 2
    endloop
  endfacet
  facet normal 0.663261 -0.748388 0
    outer loop
      vertex 16.658 72.272 0
      vertex 18.091 73.542 0
      vertex 18.091 73.542 2
    endloop
  endfacet
  facet normal 0.663261 -0.748388 0
    outer loop
      vertex 16.658 72.272 2
      vertex 16.658 72.272 0
      vertex 18.091 73.542 2
    endloop
  endfacet
  facet normal 0.239216 -0.970966 0
    outer loop
      vertex 18.091 73.542 0
      vertex 19.95 74 0
      vertex 19.95 74 2
    endloop
  endfacet
  facet normal 0.239216 -0.970966 0
    outer loop
      vertex 18.091 73.542 2
      vertex 18.091 73.542 0
      vertex 19.95 74 2
    endloop
  endfacet
  facet normal -0.239216 -0.970966 0
    outer loop
      vertex 21.809 73.542 0
      vertex 21.809 73.542 2
      vertex 19.95 74 2
    endloop
  endfacet
  facet normal -0.239216 -0.970966 0
    outer loop
      vertex 19.95 74 0
      vertex 21.809 73.542 0
      vertex 19.95 74 2
    endloop
  endfacet
  facet normal -0.663261 -0.748388 0
    outer loop
      vertex 23.242 72.272 0
      vertex 23.242 72.272 2
      vertex 21.809 73.542 2
    endloop
  endfacet
  facet normal -0.663261 -0.748388 0
    outer loop
      vertex 21.809 73.542 0
      vertex 23.242 72.272 0
      vertex 21.809 73.542 2
    endloop
  endfacet
  facet normal -0.934992 -0.35467 0
    outer loop
      vertex 23.921 70.482 2
      vertex 23.242 72.272 2
      vertex 23.921 70.482 0
    endloop
  endfacet
  facet normal -0.934992 -0.35467 0
    outer loop
      vertex 23.921 70.482 0
      vertex 23.242 72.272 2
      vertex 23.242 72.272 0
    endloop
  endfacet
  facet normal -0.99269 0.12069 0
    outer loop
      vertex 23.69 68.582 2
      vertex 23.921 70.482 2
      vertex 23.69 68.582 0
    endloop
  endfacet
  facet normal -0.99269 0.12069 0
    outer loop
      vertex 23.69 68.582 0
      vertex 23.921 70.482 2
      vertex 23.921 70.482 0
    endloop
  endfacet
  facet normal -0.822943 0.568123 0
    outer loop
      vertex 22.602 67.006 2
      vertex 23.69 68.582 2
      vertex 22.602 67.006 0
    endloop
  endfacet
  facet normal -0.822943 0.568123 0
    outer loop
      vertex 22.602 67.006 0
      vertex 23.69 68.582 2
      vertex 23.69 68.582 0
    endloop
  endfacet
  facet normal -0.464885 0.885371 0
    outer loop
      vertex 70.907 116.116 2
      vertex 72.602 117.006 2
      vertex 70.907 116.116 0
    endloop
  endfacet
  facet normal -0.464885 0.885371 0
    outer loop
      vertex 70.907 116.116 0
      vertex 72.602 117.006 2
      vertex 72.602 117.006 0
    endloop
  endfacet
  facet normal 2.22045e-016 1 0
    outer loop
      vertex 68.993 116.116 0
      vertex 68.993 116.116 2
      vertex 70.907 116.116 0
    endloop
  endfacet
  facet normal 2.22045e-016 1 0
    outer loop
      vertex 70.907 116.116 0
      vertex 68.993 116.116 2
      vertex 70.907 116.116 2
    endloop
  endfacet
  facet normal 0.464885 0.885371 0
    outer loop
      vertex 67.298 117.006 0
      vertex 67.298 117.006 2
      vertex 68.993 116.116 0
    endloop
  endfacet
  facet normal 0.464885 0.885371 0
    outer loop
      vertex 68.993 116.116 0
      vertex 67.298 117.006 2
      vertex 68.993 116.116 2
    endloop
  endfacet
  facet normal 0.822943 0.568123 0
    outer loop
      vertex 67.298 117.006 0
      vertex 66.21 118.582 0
      vertex 66.21 118.582 2
    endloop
  endfacet
  facet normal 0.822943 0.568123 0
    outer loop
      vertex 67.298 117.006 2
      vertex 67.298 117.006 0
      vertex 66.21 118.582 2
    endloop
  endfacet
  facet normal 0.99269 0.12069 0
    outer loop
      vertex 66.21 118.582 0
      vertex 65.979 120.482 0
      vertex 65.979 120.482 2
    endloop
  endfacet
  facet normal 0.99269 0.12069 0
    outer loop
      vertex 66.21 118.582 2
      vertex 66.21 118.582 0
      vertex 65.979 120.482 2
    endloop
  endfacet
  facet normal 0.934992 -0.35467 0
    outer loop
      vertex 65.979 120.482 0
      vertex 66.658 122.272 0
      vertex 66.658 122.272 2
    endloop
  endfacet
  facet normal 0.934992 -0.35467 0
    outer loop
      vertex 65.979 120.482 2
      vertex 65.979 120.482 0
      vertex 66.658 122.272 2
    endloop
  endfacet
  facet normal 0.663261 -0.748388 0
    outer loop
      vertex 66.658 122.272 0
      vertex 68.091 123.542 0
      vertex 68.091 123.542 2
    endloop
  endfacet
  facet normal 0.663261 -0.748388 0
    outer loop
      vertex 66.658 122.272 2
      vertex 66.658 122.272 0
      vertex 68.091 123.542 2
    endloop
  endfacet
  facet normal 0.239216 -0.970966 0
    outer loop
      vertex 68.091 123.542 0
      vertex 69.95 124 0
      vertex 69.95 124 2
    endloop
  endfacet
  facet normal 0.239216 -0.970966 0
    outer loop
      vertex 68.091 123.542 2
      vertex 68.091 123.542 0
      vertex 69.95 124 2
    endloop
  endfacet
  facet normal -0.239216 -0.970966 0
    outer loop
      vertex 71.809 123.542 0
      vertex 71.809 123.542 2
      vertex 69.95 124 2
    endloop
  endfacet
  facet normal -0.239216 -0.970966 0
    outer loop
      vertex 69.95 124 0
      vertex 71.809 123.542 0
      vertex 69.95 124 2
    endloop
  endfacet
  facet normal -0.663261 -0.748388 0
    outer loop
      vertex 73.242 122.272 0
      vertex 73.242 122.272 2
      vertex 71.809 123.542 2
    endloop
  endfacet
  facet normal -0.663261 -0.748388 0
    outer loop
      vertex 71.809 123.542 0
      vertex 73.242 122.272 0
      vertex 71.809 123.542 2
    endloop
  endfacet
  facet normal -0.934992 -0.35467 0
    outer loop
      vertex 73.921 120.482 2
      vertex 73.242 122.272 2
      vertex 73.921 120.482 0
    endloop
  endfacet
  facet normal -0.934992 -0.35467 0
    outer loop
      vertex 73.921 120.482 0
      vertex 73.242 122.272 2
      vertex 73.242 122.272 0
    endloop
  endfacet
  facet normal -0.99269 0.12069 0
    outer loop
      vertex 73.69 118.582 2
      vertex 73.921 120.482 2
      vertex 73.69 118.582 0
    endloop
  endfacet
  facet normal -0.99269 0.12069 0
    outer loop
      vertex 73.69 118.582 0
      vertex 73.921 120.482 2
      vertex 73.921 120.482 0
    endloop
  endfacet
  facet normal -0.822943 0.568123 0
    outer loop
      vertex 72.602 117.006 2
      vertex 73.69 118.582 2
      vertex 72.602 117.006 0
    endloop
  endfacet
  facet normal -0.822943 0.568123 0
    outer loop
      vertex 72.602 117.006 0
      vertex 73.69 118.582 2
      vertex 73.69 118.582 0
    endloop
  endfacet
  facet normal -0.464885 0.885371 0
    outer loop
      vertex 20.907 116.116 2
      vertex 22.602 117.006 2
      vertex 20.907 116.116 0
    endloop
  endfacet
  facet normal -0.464885 0.885371 0
    outer loop
      vertex 20.907 116.116 0
      vertex 22.602 117.006 2
      vertex 22.602 117.006 0
    endloop
  endfacet
  facet normal 2.22045e-016 1 0
    outer loop
      vertex 18.993 116.116 0
      vertex 18.993 116.116 2
      vertex 20.907 116.116 0
    endloop
  endfacet
  facet normal 2.22045e-016 1 0
    outer loop
      vertex 20.907 116.116 0
      vertex 18.993 116.116 2
      vertex 20.907 116.116 2
    endloop
  endfacet
  facet normal 0.464885 0.885371 0
    outer loop
      vertex 17.298 117.006 0
      vertex 17.298 117.006 2
      vertex 18.993 116.116 0
    endloop
  endfacet
  facet normal 0.464885 0.885371 0
    outer loop
      vertex 18.993 116.116 0
      vertex 17.298 117.006 2
      vertex 18.993 116.116 2
    endloop
  endfacet
  facet normal 0.822943 0.568123 0
    outer loop
      vertex 17.298 117.006 0
      vertex 16.21 118.582 0
      vertex 16.21 118.582 2
    endloop
  endfacet
  facet normal 0.822943 0.568123 0
    outer loop
      vertex 17.298 117.006 2
      vertex 17.298 117.006 0
      vertex 16.21 118.582 2
    endloop
  endfacet
  facet normal 0.99269 0.12069 0
    outer loop
      vertex 16.21 118.582 0
      vertex 15.979 120.482 0
      vertex 15.979 120.482 2
    endloop
  endfacet
  facet normal 0.99269 0.12069 0
    outer loop
      vertex 16.21 118.582 2
      vertex 16.21 118.582 0
      vertex 15.979 120.482 2
    endloop
  endfacet
  facet normal 0.934992 -0.35467 0
    outer loop
      vertex 15.979 120.482 0
      vertex 16.658 122.272 0
      vertex 16.658 122.272 2
    endloop
  endfacet
  facet normal 0.934992 -0.35467 0
    outer loop
      vertex 15.979 120.482 2
      vertex 15.979 120.482 0
      vertex 16.658 122.272 2
    endloop
  endfacet
  facet normal 0.663261 -0.748388 0
    outer loop
      vertex 16.658 122.272 0
      vertex 18.091 123.542 0
      vertex 18.091 123.542 2
    endloop
  endfacet
  facet normal 0.663261 -0.748388 0
    outer loop
      vertex 16.658 122.272 2
      vertex 16.658 122.272 0
      vertex 18.091 123.542 2
    endloop
  endfacet
  facet normal 0.239216 -0.970966 0
    outer loop
      vertex 18.091 123.542 0
      vertex 19.95 124 0
      vertex 19.95 124 2
    endloop
  endfacet
  facet normal 0.239216 -0.970966 0
    outer loop
      vertex 18.091 123.542 2
      vertex 18.091 123.542 0
      vertex 19.95 124 2
    endloop
  endfacet
  facet normal -0.239216 -0.970966 0
    outer loop
      vertex 21.809 123.542 0
      vertex 21.809 123.542 2
      vertex 19.95 124 2
    endloop
  endfacet
  facet normal -0.239216 -0.970966 0
    outer loop
      vertex 19.95 124 0
      vertex 21.809 123.542 0
      vertex 19.95 124 2
    endloop
  endfacet
  facet normal -0.663261 -0.748388 0
    outer loop
      vertex 23.242 122.272 0
      vertex 23.242 122.272 2
      vertex 21.809 123.542 2
    endloop
  endfacet
  facet normal -0.663261 -0.748388 0
    outer loop
      vertex 21.809 123.542 0
      vertex 23.242 122.272 0
      vertex 21.809 123.542 2
    endloop
  endfacet
  facet normal -0.934992 -0.35467 0
    outer loop
      vertex 23.921 120.482 2
      vertex 23.242 122.272 2
      vertex 23.921 120.482 0
    endloop
  endfacet
  facet normal -0.934992 -0.35467 0
    outer loop
      vertex 23.921 120.482 0
      vertex 23.242 122.272 2
      vertex 23.242 122.272 0
    endloop
  endfacet
  facet normal -0.99269 0.12069 0
    outer loop
      vertex 23.69 118.582 2
      vertex 23.921 120.482 2
      vertex 23.69 118.582 0
    endloop
  endfacet
  facet normal -0.99269 0.12069 0
    outer loop
      vertex 23.69 118.582 0
      vertex 23.921 120.482 2
      vertex 23.921 120.482 0
    endloop
  endfacet
  facet normal -0.822943 0.568123 0
    outer loop
      vertex 22.602 117.006 2
      vertex 23.69 118.582 2
      vertex 22.602 117.006 0
    endloop
  endfacet
  facet normal -0.822943 0.568123 0
    outer loop
      vertex 22.602 117.006 0
      vertex 23.69 118.582 2
      vertex 23.69 118.582 0
    endloop
  endfacet
  facet normal -0.464885 0.885371 0
    outer loop
      vertex 20.907 166.116 2
      vertex 22.602 167.006 2
      vertex 20.907 166.116 0
    endloop
  endfacet
  facet normal -0.464885 0.885371 0
    outer loop
      vertex 20.907 166.116 0
      vertex 22.602 167.006 2
      vertex 22.602 167.006 0
    endloop
  endfacet
  facet normal 2.22045e-016 1 0
    outer loop
      vertex 18.993 166.116 0
      vertex 18.993 166.116 2
      vertex 20.907 166.116 0
    endloop
  endfacet
  facet normal 2.22045e-016 1 0
    outer loop
      vertex 20.907 166.116 0
      vertex 18.993 166.116 2
      vertex 20.907 166.116 2
    endloop
  endfacet
  facet normal 0.464885 0.885371 0
    outer loop
      vertex 17.298 167.006 0
      vertex 17.298 167.006 2
      vertex 18.993 166.116 0
    endloop
  endfacet
  facet normal 0.464885 0.885371 0
    outer loop
      vertex 18.993 166.116 0
      vertex 17.298 167.006 2
      vertex 18.993 166.116 2
    endloop
  endfacet
  facet normal 0.822943 0.568123 0
    outer loop
      vertex 17.298 167.006 0
      vertex 16.21 168.582 0
      vertex 16.21 168.582 2
    endloop
  endfacet
  facet normal 0.822943 0.568123 0
    outer loop
      vertex 17.298 167.006 2
      vertex 17.298 167.006 0
      vertex 16.21 168.582 2
    endloop
  endfacet
  facet normal 0.99269 0.12069 0
    outer loop
      vertex 16.21 168.582 0
      vertex 15.979 170.482 0
      vertex 15.979 170.482 2
    endloop
  endfacet
  facet normal 0.99269 0.12069 0
    outer loop
      vertex 16.21 168.582 2
      vertex 16.21 168.582 0
      vertex 15.979 170.482 2
    endloop
  endfacet
  facet normal 0.934992 -0.35467 0
    outer loop
      vertex 15.979 170.482 0
      vertex 16.658 172.272 0
      vertex 16.658 172.272 2
    endloop
  endfacet
  facet normal 0.934992 -0.35467 0
    outer loop
      vertex 15.979 170.482 2
      vertex 15.979 170.482 0
      vertex 16.658 172.272 2
    endloop
  endfacet
  facet normal 0.663261 -0.748388 0
    outer loop
      vertex 16.658 172.272 0
      vertex 18.091 173.542 0
      vertex 18.091 173.542 2
    endloop
  endfacet
  facet normal 0.663261 -0.748388 0
    outer loop
      vertex 16.658 172.272 2
      vertex 16.658 172.272 0
      vertex 18.091 173.542 2
    endloop
  endfacet
  facet normal 0.239216 -0.970966 0
    outer loop
      vertex 18.091 173.542 0
      vertex 19.95 174 0
      vertex 19.95 174 2
    endloop
  endfacet
  facet normal 0.239216 -0.970966 0
    outer loop
      vertex 18.091 173.542 2
      vertex 18.091 173.542 0
      vertex 19.95 174 2
    endloop
  endfacet
  facet normal -0.239216 -0.970966 0
    outer loop
      vertex 21.809 173.542 0
      vertex 21.809 173.542 2
      vertex 19.95 174 2
    endloop
  endfacet
  facet normal -0.239216 -0.970966 0
    outer loop
      vertex 19.95 174 0
      vertex 21.809 173.542 0
      vertex 19.95 174 2
    endloop
  endfacet
  facet normal -0.663261 -0.748388 0
    outer loop
      vertex 23.242 172.272 0
      vertex 23.242 172.272 2
      vertex 21.809 173.542 2
    endloop
  endfacet
  facet normal -0.663261 -0.748388 0
    outer loop
      vertex 21.809 173.542 0
      vertex 23.242 172.272 0
      vertex 21.809 173.542 2
    endloop
  endfacet
  facet normal -0.934992 -0.35467 0
    outer loop
      vertex 23.921 170.482 2
      vertex 23.242 172.272 2
      vertex 23.921 170.482 0
    endloop
  endfacet
  facet normal -0.934992 -0.35467 0
    outer loop
      vertex 23.921 170.482 0
      vertex 23.242 172.272 2
      vertex 23.242 172.272 0
    endloop
  endfacet
  facet normal -0.99269 0.12069 0
    outer loop
      vertex 23.69 168.582 2
      vertex 23.921 170.482 2
      vertex 23.69 168.582 0
    endloop
  endfacet
  facet normal -0.99269 0.12069 0
    outer loop
      vertex 23.69 168.582 0
      vertex 23.921 170.482 2
      vertex 23.921 170.482 0
    endloop
  endfacet
  facet normal -0.822943 0.568123 0
    outer loop
      vertex 22.602 167.006 2
      vertex 23.69 168.582 2
      vertex 22.602 167.006 0
    endloop
  endfacet
  facet normal -0.822943 0.568123 0
    outer loop
      vertex 22.602 167.006 0
      vertex 23.69 168.582 2
      vertex 23.69 168.582 0
    endloop
  endfacet
  facet normal -0.464885 0.885371 0
    outer loop
      vertex 70.907 166.116 2
      vertex 72.602 167.006 2
      vertex 70.907 166.116 0
    endloop
  endfacet
  facet normal -0.464885 0.885371 0
    outer loop
      vertex 70.907 166.116 0
      vertex 72.602 167.006 2
      vertex 72.602 167.006 0
    endloop
  endfacet
  facet normal 2.22045e-016 1 0
    outer loop
      vertex 68.993 166.116 0
      vertex 68.993 166.116 2
      vertex 70.907 166.116 0
    endloop
  endfacet
  facet normal 2.22045e-016 1 0
    outer loop
      vertex 70.907 166.116 0
      vertex 68.993 166.116 2
      vertex 70.907 166.116 2
    endloop
  endfacet
  facet normal 0.464885 0.885371 0
    outer loop
      vertex 67.298 167.006 0
      vertex 67.298 167.006 2
      vertex 68.993 166.116 0
    endloop
  endfacet
  facet normal 0.464885 0.885371 0
    outer loop
      vertex 68.993 166.116 0
      vertex 67.298 167.006 2
      vertex 68.993 166.116 2
    endloop
  endfacet
  facet normal 0.822943 0.568123 0
    outer loop
      vertex 67.298 167.006 0
      vertex 66.21 168.582 0
      vertex 66.21 168.582 2
    endloop
  endfacet
  facet normal 0.822943 0.568123 0
    outer loop
      vertex 67.298 167.006 2
      vertex 67.298 167.006 0
      vertex 66.21 168.582 2
    endloop
  endfacet
  facet normal 0.99269 0.12069 0
    outer loop
      vertex 66.21 168.582 0
      vertex 65.979 170.482 0
      vertex 65.979 170.482 2
    endloop
  endfacet
  facet normal 0.99269 0.12069 0
    outer loop
      vertex 66.21 168.582 2
      vertex 66.21 168.582 0
      vertex 65.979 170.482 2
    endloop
  endfacet
  facet normal 0.934992 -0.35467 0
    outer loop
      vertex 65.979 170.482 0
      vertex 66.658 172.272 0
      vertex 66.658 172.272 2
    endloop
  endfacet
  facet normal 0.934992 -0.35467 0
    outer loop
      vertex 65.979 170.482 2
      vertex 65.979 170.482 0
      vertex 66.658 172.272 2
    endloop
  endfacet
  facet normal 0.663261 -0.748388 0
    outer loop
      vertex 66.658 172.272 0
      vertex 68.091 173.542 0
      vertex 68.091 173.542 2
    endloop
  endfacet
  facet normal 0.663261 -0.748388 0
    outer loop
      vertex 66.658 172.272 2
      vertex 66.658 172.272 0
      vertex 68.091 173.542 2
    endloop
  endfacet
  facet normal 0.239216 -0.970966 0
    outer loop
      vertex 68.091 173.542 0
      vertex 69.95 174 0
      vertex 69.95 174 2
    endloop
  endfacet
  facet normal 0.239216 -0.970966 0
    outer loop
      vertex 68.091 173.542 2
      vertex 68.091 173.542 0
      vertex 69.95 174 2
    endloop
  endfacet
  facet normal -0.239216 -0.970966 0
    outer loop
      vertex 71.809 173.542 0
      vertex 71.809 173.542 2
      vertex 69.95 174 2
    endloop
  endfacet
  facet normal -0.239216 -0.970966 0
    outer loop
      vertex 69.95 174 0
      vertex 71.809 173.542 0
      vertex 69.95 174 2
    endloop
  endfacet
  facet normal -0.663261 -0.748388 0
    outer loop
      vertex 73.242 172.272 0
      vertex 73.242 172.272 2
      vertex 71.809 173.542 2
    endloop
  endfacet
  facet normal -0.663261 -0.748388 0
    outer loop
      vertex 71.809 173.542 0
      vertex 73.242 172.272 0
      vertex 71.809 173.542 2
    endloop
  endfacet
  facet normal -0.934992 -0.35467 0
    outer loop
      vertex 73.921 170.482 2
      vertex 73.242 172.272 2
      vertex 73.921 170.482 0
    endloop
  endfacet
  facet normal -0.934992 -0.35467 0
    outer loop
      vertex 73.921 170.482 0
      vertex 73.242 172.272 2
      vertex 73.242 172.272 0
    endloop
  endfacet
  facet normal -0.99269 0.12069 0
    outer loop
      vertex 73.69 168.582 2
      vertex 73.921 170.482 2
      vertex 73.69 168.582 0
    endloop
  endfacet
  facet normal -0.99269 0.12069 0
    outer loop
      vertex 73.69 168.582 0
      vertex 73.921 170.482 2
      vertex 73.921 170.482 0
    endloop
  endfacet
  facet normal -0.822943 0.568123 0
    outer loop
      vertex 72.602 167.006 2
      vertex 73.69 168.582 2
      vertex 72.602 167.006 0
    endloop
  endfacet
  facet normal -0.822943 0.568123 0
    outer loop
      vertex 72.602 167.006 0
      vertex 73.69 168.582 2
      vertex 73.69 168.582 0
    endloop
  endfacet
endsolid OpenSCAD_Model
