solid OpenSCAD_Model
  facet normal 0.885371 0.464885 0
    outer loop
      vertex 6.116 89.043 0
      vertex 6.116 89.043 2
      vertex 7.006 87.348 2
    endloop
  endfacet
  facet normal 0.885371 0.464885 0
    outer loop
      vertex 7.006 87.348 0
      vertex 6.116 89.043 0
      vertex 7.006 87.348 2
    endloop
  endfacet
  facet normal 1 0 0
    outer loop
      vertex 6.116 89.043 0
      vertex 6.116 90.957 0
      vertex 6.116 90.957 2
    endloop
  endfacet
  facet normal 1 0 0
    outer loop
      vertex 6.116 89.043 2
      vertex 6.116 89.043 0
      vertex 6.116 90.957 2
    endloop
  endfacet
  facet normal 0 0 -1
    outer loop
      vertex 43.542 88.141 0
      vertex 50 100 0
      vertex 0 0 0
    endloop
  endfacet
  facet normal 0 0 -1
    outer loop
      vertex 44 10 0
      vertex 50 100 0
      vertex 50 0 0
    endloop
  endfacet
  facet normal 0 0 -1
    outer loop
      vertex 13.542 88.141 0
      vertex 50 100 0
      vertex 12.272 86.708 0
    endloop
  endfacet
  facet normal 0 0 -1
    outer loop
      vertex 0 0 0
      vertex 6.116 9.043 0
      vertex 7.006 7.348 0
    endloop
  endfacet
  facet normal 0 0 -1
    outer loop
      vertex 0 0 0
      vertex 7.006 7.348 0
      vertex 8.582 6.26 0
    endloop
  endfacet
  facet normal 0 0 -1
    outer loop
      vertex 0 0 0
      vertex 8.582 6.26 0
      vertex 50 0 0
    endloop
  endfacet
  facet normal 0 0 -1
    outer loop
      vertex 8.582 6.26 0
      vertex 10.482 6.029 0
      vertex 50 0 0
    endloop
  endfacet
  facet normal 0 0 -1
    outer loop
      vertex 13.542 8.141 0
      vertex 50 0 0
      vertex 12.272 6.708 0
    endloop
  endfacet
  facet normal 0 0 -1
    outer loop
      vertex 14 10 0
      vertex 50 100 0
      vertex 13.542 8.141 0
    endloop
  endfacet
  facet normal 0 0 -1
    outer loop
      vertex 7.006 12.652 0
      vertex 50 100 0
      vertex 8.582 13.74 0
    endloop
  endfacet
  facet normal 0 0 -1
    outer loop
      vertex 13.542 11.859 0
      vertex 50 100 0
      vertex 14 10 0
    endloop
  endfacet
  facet normal 0 0 -1
    outer loop
      vertex 12.272 13.292 0
      vertex 50 100 0
      vertex 13.542 11.859 0
    endloop
  endfacet
  facet normal 0 0 -1
    outer loop
      vertex 10.482 13.971 0
      vertex 50 100 0
      vertex 12.272 13.292 0
    endloop
  endfacet
  facet normal 0 0 -1
    outer loop
      vertex 8.582 13.74 0
      vertex 50 100 0
      vertex 10.482 13.971 0
    endloop
  endfacet
  facet normal 0 0 -1
    outer loop
      vertex 0 0 0
      vertex 50 100 0
      vertex 7.006 12.652 0
    endloop
  endfacet
  facet normal 0 0 -1
    outer loop
      vertex 0 0 0
      vertex 7.006 12.652 0
      vertex 6.116 10.957 0
    endloop
  endfacet
  facet normal 0 0 -1
    outer loop
      vertex 0 0 0
      vertex 6.116 10.957 0
      vertex 6.116 9.043 0
    endloop
  endfacet
  facet normal 0 0 -1
    outer loop
      vertex 8.582 93.74 0
      vertex 0 100 0
      vertex 10.482 93.971 0
    endloop
  endfacet
  facet normal 0 0 -1
    outer loop
      vertex 0 100 0
      vertex 6.116 89.043 0
      vertex 0 0 0
    endloop
  endfacet
  facet normal 0 0 -1
    outer loop
      vertex 13.542 91.859 0
      vertex 50 100 0
      vertex 14 90 0
    endloop
  endfacet
  facet normal 0 0 -1
    outer loop
      vertex 6.116 89.043 0
      vertex 7.006 87.348 0
      vertex 0 0 0
    endloop
  endfacet
  facet normal 0 0 -1
    outer loop
      vertex 14 90 0
      vertex 50 100 0
      vertex 13.542 88.141 0
    endloop
  endfacet
  facet normal 0 0 -1
    outer loop
      vertex 7.006 87.348 0
      vertex 8.582 86.26 0
      vertex 0 0 0
    endloop
  endfacet
  facet normal 0 0 -1
    outer loop
      vertex 12.272 86.708 0
      vertex 50 100 0
      vertex 10.482 86.029 0
    endloop
  endfacet
  facet normal 0 0 -1
    outer loop
      vertex 8.582 86.26 0
      vertex 10.482 86.029 0
      vertex 0 0 0
    endloop
  endfacet
  facet normal 0 0 -1
    outer loop
      vertex 12.272 93.292 0
      vertex 50 100 0
      vertex 13.542 91.859 0
    endloop
  endfacet
  facet normal 0 0 -1
    outer loop
      vertex 0 100 0
      vertex 50 100 0
      vertex 12.272 93.292 0
    endloop
  endfacet
  facet normal 0 0 -1
    outer loop
      vertex 0 100 0
      vertex 12.272 93.292 0
      vertex 10.482 93.971 0
    endloop
  endfacet
  facet normal 0 0 -1
    outer loop
      vertex 40.482 6.029 0
      vertex 50 0 0
      vertex 38.582 6.26 0
    endloop
  endfacet
  facet normal 0 0 -1
    outer loop
      vertex 0 100 0
      vertex 8.582 93.74 0
      vertex 7.006 92.652 0
    endloop
  endfacet
  facet normal 0 0 -1
    outer loop
      vertex 0 100 0
      vertex 7.006 92.652 0
      vertex 6.116 90.957 0
    endloop
  endfacet
  facet normal 0 0 -1
    outer loop
      vertex 0 100 0
      vertex 6.116 90.957 0
      vertex 6.116 89.043 0
    endloop
  endfacet
  facet normal 0 0 -1
    outer loop
      vertex 44 90 0
      vertex 50 100 0
      vertex 43.542 88.141 0
    endloop
  endfacet
  facet normal 0 0 -1
    outer loop
      vertex 13.542 8.141 0
      vertex 36.116 9.043 0
      vertex 37.006 7.348 0
    endloop
  endfacet
  facet normal 0 0 -1
    outer loop
      vertex 13.542 8.141 0
      vertex 37.006 7.348 0
      vertex 38.582 6.26 0
    endloop
  endfacet
  facet normal 0 0 -1
    outer loop
      vertex 13.542 8.141 0
      vertex 38.582 6.26 0
      vertex 50 0 0
    endloop
  endfacet
  facet normal 0 0 -1
    outer loop
      vertex 42.272 6.708 0
      vertex 50 0 0
      vertex 40.482 6.029 0
    endloop
  endfacet
  facet normal 0 0 -1
    outer loop
      vertex 36.116 10.957 0
      vertex 50 100 0
      vertex 37.006 12.652 0
    endloop
  endfacet
  facet normal 0 0 -1
    outer loop
      vertex 43.542 11.859 0
      vertex 50 100 0
      vertex 44 10 0
    endloop
  endfacet
  facet normal 0 0 -1
    outer loop
      vertex 42.272 13.292 0
      vertex 50 100 0
      vertex 43.542 11.859 0
    endloop
  endfacet
  facet normal 0 0 -1
    outer loop
      vertex 42.272 6.708 0
      vertex 43.542 8.141 0
      vertex 50 0 0
    endloop
  endfacet
  facet normal 0 0 -1
    outer loop
      vertex 43.542 8.141 0
      vertex 44 10 0
      vertex 50 0 0
    endloop
  endfacet
  facet normal 0 0 -1
    outer loop
      vertex 40.482 13.971 0
      vertex 50 100 0
      vertex 42.272 13.292 0
    endloop
  endfacet
  facet normal 0 0 -1
    outer loop
      vertex 38.582 13.74 0
      vertex 50 100 0
      vertex 40.482 13.971 0
    endloop
  endfacet
  facet normal 0 0 -1
    outer loop
      vertex 37.006 12.652 0
      vertex 50 100 0
      vertex 38.582 13.74 0
    endloop
  endfacet
  facet normal 0 0 -1
    outer loop
      vertex 13.542 8.141 0
      vertex 50 100 0
      vertex 36.116 10.957 0
    endloop
  endfacet
  facet normal 0 0 -1
    outer loop
      vertex 13.542 8.141 0
      vertex 36.116 10.957 0
      vertex 36.116 9.043 0
    endloop
  endfacet
  facet normal 0 0 -1
    outer loop
      vertex 37.006 92.652 0
      vertex 10.482 86.029 0
      vertex 38.582 93.74 0
    endloop
  endfacet
  facet normal 0 0 -1
    outer loop
      vertex 10.482 86.029 0
      vertex 36.116 89.043 0
      vertex 0 0 0
    endloop
  endfacet
  facet normal 0 0 -1
    outer loop
      vertex 40.482 93.971 0
      vertex 50 100 0
      vertex 42.272 93.292 0
    endloop
  endfacet
  facet normal 0 0 -1
    outer loop
      vertex 36.116 89.043 0
      vertex 37.006 87.348 0
      vertex 0 0 0
    endloop
  endfacet
  facet normal 0 0 -1
    outer loop
      vertex 37.006 87.348 0
      vertex 38.582 86.26 0
      vertex 0 0 0
    endloop
  endfacet
  facet normal 0 0 -1
    outer loop
      vertex 42.272 93.292 0
      vertex 50 100 0
      vertex 43.542 91.859 0
    endloop
  endfacet
  facet normal 0 0 -1
    outer loop
      vertex 38.582 86.26 0
      vertex 40.482 86.029 0
      vertex 0 0 0
    endloop
  endfacet
  facet normal 0 0 -1
    outer loop
      vertex 43.542 91.859 0
      vertex 50 100 0
      vertex 44 90 0
    endloop
  endfacet
  facet normal 0 0 -1
    outer loop
      vertex 40.482 86.029 0
      vertex 42.272 86.708 0
      vertex 0 0 0
    endloop
  endfacet
  facet normal 0 0 -1
    outer loop
      vertex 42.272 86.708 0
      vertex 43.542 88.141 0
      vertex 0 0 0
    endloop
  endfacet
  facet normal 0 0 -1
    outer loop
      vertex 38.582 93.74 0
      vertex 50 100 0
      vertex 40.482 93.971 0
    endloop
  endfacet
  facet normal 0 0 -1
    outer loop
      vertex 10.482 86.029 0
      vertex 50 100 0
      vertex 38.582 93.74 0
    endloop
  endfacet
  facet normal 0 0 -1
    outer loop
      vertex 10.482 86.029 0
      vertex 37.006 92.652 0
      vertex 36.116 90.957 0
    endloop
  endfacet
  facet normal 0 0 -1
    outer loop
      vertex 10.482 86.029 0
      vertex 36.116 90.957 0
      vertex 36.116 89.043 0
    endloop
  endfacet
  facet normal 0 0 -1
    outer loop
      vertex 12.272 6.708 0
      vertex 50 0 0
      vertex 10.482 6.029 0
    endloop
  endfacet
  facet normal 0.568123 0.822943 0
    outer loop
      vertex 7.006 87.348 2
      vertex 8.582 86.26 2
      vertex 7.006 87.348 0
    endloop
  endfacet
  facet normal 0.568123 0.822943 0
    outer loop
      vertex 7.006 87.348 0
      vertex 8.582 86.26 2
      vertex 8.582 86.26 0
    endloop
  endfacet
  facet normal 0 0 1
    outer loop
      vertex 43.542 11.859 2
      vertex 50 0 2
      vertex 50 100 2
    endloop
  endfacet
  facet normal 0 0 1
    outer loop
      vertex 43.542 88.141 2
      vertex 0 0 2
      vertex 50 100 2
    endloop
  endfacet
  facet normal 0 0 1
    outer loop
      vertex 12.272 13.292 2
      vertex 13.542 11.859 2
      vertex 50 0 2
    endloop
  endfacet
  facet normal 0 0 1
    outer loop
      vertex 0 0 2
      vertex 6.116 10.957 2
      vertex 50 100 2
    endloop
  endfacet
  facet normal 0 0 1
    outer loop
      vertex 0 0 2
      vertex 6.116 9.043 2
      vertex 6.116 10.957 2
    endloop
  endfacet
  facet normal 0 0 1
    outer loop
      vertex 6.116 10.957 2
      vertex 7.006 12.652 2
      vertex 50 100 2
    endloop
  endfacet
  facet normal 0 0 1
    outer loop
      vertex 8.582 13.74 2
      vertex 10.482 13.971 2
      vertex 50 100 2
    endloop
  endfacet
  facet normal 0 0 1
    outer loop
      vertex 12.272 13.292 2
      vertex 50 0 2
      vertex 10.482 13.971 2
    endloop
  endfacet
  facet normal 0 0 1
    outer loop
      vertex 13.542 8.141 2
      vertex 12.272 6.708 2
      vertex 50 0 2
    endloop
  endfacet
  facet normal 0 0 1
    outer loop
      vertex 14 10 2
      vertex 50 0 2
      vertex 13.542 11.859 2
    endloop
  endfacet
  facet normal 0 0 1
    outer loop
      vertex 13.542 8.141 2
      vertex 50 0 2
      vertex 14 10 2
    endloop
  endfacet
  facet normal 0 0 1
    outer loop
      vertex 10.482 93.971 2
      vertex 12.272 93.292 2
      vertex 50 100 2
    endloop
  endfacet
  facet normal 0 0 1
    outer loop
      vertex 0 0 2
      vertex 50 0 2
      vertex 12.272 6.708 2
    endloop
  endfacet
  facet normal 0 0 1
    outer loop
      vertex 0 0 2
      vertex 12.272 6.708 2
      vertex 10.482 6.029 2
    endloop
  endfacet
  facet normal 0 0 1
    outer loop
      vertex 0 0 2
      vertex 10.482 6.029 2
      vertex 8.582 6.26 2
    endloop
  endfacet
  facet normal 0 0 1
    outer loop
      vertex 0 0 2
      vertex 7.006 7.348 2
      vertex 6.116 9.043 2
    endloop
  endfacet
  facet normal 0 0 1
    outer loop
      vertex 0 0 2
      vertex 8.582 6.26 2
      vertex 7.006 7.348 2
    endloop
  endfacet
  facet normal 0 0 1
    outer loop
      vertex 36.116 10.957 2
      vertex 37.006 12.652 2
      vertex 50 100 2
    endloop
  endfacet
  facet normal 0 0 1
    outer loop
      vertex 0 100 2
      vertex 0 0 2
      vertex 6.116 89.043 2
    endloop
  endfacet
  facet normal 0 0 1
    outer loop
      vertex 13.542 91.859 2
      vertex 14 90 2
      vertex 50 100 2
    endloop
  endfacet
  facet normal 0 0 1
    outer loop
      vertex 0 100 2
      vertex 6.116 89.043 2
      vertex 6.116 90.957 2
    endloop
  endfacet
  facet normal 0 0 1
    outer loop
      vertex 12.272 93.292 2
      vertex 13.542 91.859 2
      vertex 50 100 2
    endloop
  endfacet
  facet normal 0 0 1
    outer loop
      vertex 0 100 2
      vertex 6.116 90.957 2
      vertex 7.006 92.652 2
    endloop
  endfacet
  facet normal 0 0 1
    outer loop
      vertex 0 100 2
      vertex 8.582 93.74 2
      vertex 50 100 2
    endloop
  endfacet
  facet normal 0 0 1
    outer loop
      vertex 0 100 2
      vertex 7.006 92.652 2
      vertex 8.582 93.74 2
    endloop
  endfacet
  facet normal 0 0 1
    outer loop
      vertex 8.582 93.74 2
      vertex 10.482 93.971 2
      vertex 50 100 2
    endloop
  endfacet
  facet normal 0 0 1
    outer loop
      vertex 13.542 88.141 2
      vertex 0 0 2
      vertex 14 90 2
    endloop
  endfacet
  facet normal 0 0 1
    outer loop
      vertex 12.272 86.708 2
      vertex 0 0 2
      vertex 13.542 88.141 2
    endloop
  endfacet
  facet normal 0 0 1
    outer loop
      vertex 10.482 86.029 2
      vertex 0 0 2
      vertex 12.272 86.708 2
    endloop
  endfacet
  facet normal 0 0 1
    outer loop
      vertex 8.582 86.26 2
      vertex 0 0 2
      vertex 10.482 86.029 2
    endloop
  endfacet
  facet normal 0 0 1
    outer loop
      vertex 7.006 87.348 2
      vertex 0 0 2
      vertex 8.582 86.26 2
    endloop
  endfacet
  facet normal 0 0 1
    outer loop
      vertex 6.116 89.043 2
      vertex 0 0 2
      vertex 7.006 87.348 2
    endloop
  endfacet
  facet normal 0 0 1
    outer loop
      vertex 43.542 11.859 2
      vertex 44 10 2
      vertex 50 0 2
    endloop
  endfacet
  facet normal 0 0 1
    outer loop
      vertex 10.482 13.971 2
      vertex 36.116 10.957 2
      vertex 50 100 2
    endloop
  endfacet
  facet normal 0 0 1
    outer loop
      vertex 10.482 13.971 2
      vertex 36.116 9.043 2
      vertex 36.116 10.957 2
    endloop
  endfacet
  facet normal 0 0 1
    outer loop
      vertex 37.006 12.652 2
      vertex 38.582 13.74 2
      vertex 50 100 2
    endloop
  endfacet
  facet normal 0 0 1
    outer loop
      vertex 42.272 6.708 2
      vertex 40.482 6.029 2
      vertex 50 0 2
    endloop
  endfacet
  facet normal 0 0 1
    outer loop
      vertex 38.582 13.74 2
      vertex 40.482 13.971 2
      vertex 50 100 2
    endloop
  endfacet
  facet normal 0 0 1
    outer loop
      vertex 40.482 13.971 2
      vertex 42.272 13.292 2
      vertex 50 100 2
    endloop
  endfacet
  facet normal 0 0 1
    outer loop
      vertex 42.272 13.292 2
      vertex 43.542 11.859 2
      vertex 50 100 2
    endloop
  endfacet
  facet normal 0 0 1
    outer loop
      vertex 44 10 2
      vertex 43.542 8.141 2
      vertex 50 0 2
    endloop
  endfacet
  facet normal 0 0 1
    outer loop
      vertex 40.482 93.971 2
      vertex 42.272 93.292 2
      vertex 50 100 2
    endloop
  endfacet
  facet normal 0 0 1
    outer loop
      vertex 38.582 6.26 2
      vertex 37.006 7.348 2
      vertex 10.482 13.971 2
    endloop
  endfacet
  facet normal 0 0 1
    outer loop
      vertex 38.582 6.26 2
      vertex 50 0 2
      vertex 40.482 6.029 2
    endloop
  endfacet
  facet normal 0 0 1
    outer loop
      vertex 38.582 93.74 2
      vertex 40.482 93.971 2
      vertex 50 100 2
    endloop
  endfacet
  facet normal 0 0 1
    outer loop
      vertex 10.482 13.971 2
      vertex 50 0 2
      vertex 38.582 6.26 2
    endloop
  endfacet
  facet normal 0 0 1
    outer loop
      vertex 10.482 13.971 2
      vertex 37.006 7.348 2
      vertex 36.116 9.043 2
    endloop
  endfacet
  facet normal 0 0 1
    outer loop
      vertex 43.542 88.141 2
      vertex 42.272 86.708 2
      vertex 0 0 2
    endloop
  endfacet
  facet normal 0 0 1
    outer loop
      vertex 14 90 2
      vertex 0 0 2
      vertex 36.116 89.043 2
    endloop
  endfacet
  facet normal 0 0 1
    outer loop
      vertex 14 90 2
      vertex 36.116 89.043 2
      vertex 36.116 90.957 2
    endloop
  endfacet
  facet normal 0 0 1
    outer loop
      vertex 14 90 2
      vertex 36.116 90.957 2
      vertex 37.006 92.652 2
    endloop
  endfacet
  facet normal 0 0 1
    outer loop
      vertex 14 90 2
      vertex 38.582 93.74 2
      vertex 50 100 2
    endloop
  endfacet
  facet normal 0 0 1
    outer loop
      vertex 14 90 2
      vertex 37.006 92.652 2
      vertex 38.582 93.74 2
    endloop
  endfacet
  facet normal 0 0 1
    outer loop
      vertex 42.272 93.292 2
      vertex 43.542 91.859 2
      vertex 50 100 2
    endloop
  endfacet
  facet normal 0 0 1
    outer loop
      vertex 43.542 91.859 2
      vertex 44 90 2
      vertex 50 100 2
    endloop
  endfacet
  facet normal 0 0 1
    outer loop
      vertex 44 90 2
      vertex 43.542 88.141 2
      vertex 50 100 2
    endloop
  endfacet
  facet normal 0 0 1
    outer loop
      vertex 42.272 86.708 2
      vertex 40.482 86.029 2
      vertex 0 0 2
    endloop
  endfacet
  facet normal 0 0 1
    outer loop
      vertex 40.482 86.029 2
      vertex 38.582 86.26 2
      vertex 0 0 2
    endloop
  endfacet
  facet normal 0 0 1
    outer loop
      vertex 37.006 87.348 2
      vertex 0 0 2
      vertex 38.582 86.26 2
    endloop
  endfacet
  facet normal 0 0 1
    outer loop
      vertex 36.116 89.043 2
      vertex 0 0 2
      vertex 37.006 87.348 2
    endloop
  endfacet
  facet normal 0 0 1
    outer loop
      vertex 7.006 12.652 2
      vertex 8.582 13.74 2
      vertex 50 100 2
    endloop
  endfacet
  facet normal 0 0 1
    outer loop
      vertex 43.542 8.141 2
      vertex 42.272 6.708 2
      vertex 50 0 2
    endloop
  endfacet
  facet normal 0.885371 -0.464885 0
    outer loop
      vertex 6.116 90.957 0
      vertex 7.006 92.652 0
      vertex 7.006 92.652 2
    endloop
  endfacet
  facet normal 0.885371 -0.464885 0
    outer loop
      vertex 6.116 90.957 2
      vertex 6.116 90.957 0
      vertex 7.006 92.652 2
    endloop
  endfacet
  facet normal 0 -1 0
    outer loop
      vertex 0 0 0
      vertex 50 0 0
      vertex 50 0 2
    endloop
  endfacet
  facet normal 0 -1 0
    outer loop
      vertex 0 0 2
      vertex 0 0 0
      vertex 50 0 2
    endloop
  endfacet
  facet normal -1 0 0
    outer loop
      vertex 0 0 2
      vertex 0 100 2
      vertex 0 0 0
    endloop
  endfacet
  facet normal -1 0 0
    outer loop
      vertex 0 0 0
      vertex 0 100 2
      vertex 0 100 0
    endloop
  endfacet
  facet normal 1 0 0
    outer loop
      vertex 50 0 0
      vertex 50 100 0
      vertex 50 100 2
    endloop
  endfacet
  facet normal 1 0 0
    outer loop
      vertex 50 0 2
      vertex 50 0 0
      vertex 50 100 2
    endloop
  endfacet
  facet normal 0 1 0
    outer loop
      vertex 0 100 2
      vertex 50 100 2
      vertex 0 100 0
    endloop
  endfacet
  facet normal 0 1 0
    outer loop
      vertex 0 100 0
      vertex 50 100 2
      vertex 50 100 0
    endloop
  endfacet
  facet normal 0.885371 0.464885 0
    outer loop
      vertex 6.116 9.043 0
      vertex 6.116 9.043 2
      vertex 7.006 7.348 2
    endloop
  endfacet
  facet normal 0.885371 0.464885 0
    outer loop
      vertex 7.006 7.348 0
      vertex 6.116 9.043 0
      vertex 7.006 7.348 2
    endloop
  endfacet
  facet normal 1 0 0
    outer loop
      vertex 6.116 9.043 0
      vertex 6.116 10.957 0
      vertex 6.116 10.957 2
    endloop
  endfacet
  facet normal 1 0 0
    outer loop
      vertex 6.116 9.043 2
      vertex 6.116 9.043 0
      vertex 6.116 10.957 2
    endloop
  endfacet
  facet normal 0.885371 -0.464885 0
    outer loop
      vertex 6.116 10.957 0
      vertex 7.006 12.652 0
      vertex 7.006 12.652 2
    endloop
  endfacet
  facet normal 0.885371 -0.464885 0
    outer loop
      vertex 6.116 10.957 2
      vertex 6.116 10.957 0
      vertex 7.006 12.652 2
    endloop
  endfacet
  facet normal 0.568123 -0.822943 0
    outer loop
      vertex 7.006 12.652 0
      vertex 8.582 13.74 0
      vertex 8.582 13.74 2
    endloop
  endfacet
  facet normal 0.568123 -0.822943 0
    outer loop
      vertex 7.006 12.652 2
      vertex 7.006 12.652 0
      vertex 8.582 13.74 2
    endloop
  endfacet
  facet normal 0.12069 -0.99269 0
    outer loop
      vertex 8.582 13.74 0
      vertex 10.482 13.971 0
      vertex 10.482 13.971 2
    endloop
  endfacet
  facet normal 0.12069 -0.99269 0
    outer loop
      vertex 8.582 13.74 2
      vertex 8.582 13.74 0
      vertex 10.482 13.971 2
    endloop
  endfacet
  facet normal -0.35467 -0.934992 0
    outer loop
      vertex 10.482 13.971 0
      vertex 12.272 13.292 0
      vertex 12.272 13.292 2
    endloop
  endfacet
  facet normal -0.35467 -0.934992 0
    outer loop
      vertex 10.482 13.971 2
      vertex 10.482 13.971 0
      vertex 12.272 13.292 2
    endloop
  endfacet
  facet normal -0.748388 -0.663261 0
    outer loop
      vertex 13.542 11.859 0
      vertex 13.542 11.859 2
      vertex 12.272 13.292 0
    endloop
  endfacet
  facet normal -0.748388 -0.663261 0
    outer loop
      vertex 12.272 13.292 0
      vertex 13.542 11.859 2
      vertex 12.272 13.292 2
    endloop
  endfacet
  facet normal -0.970966 -0.239216 0
    outer loop
      vertex 14 10 0
      vertex 14 10 2
      vertex 13.542 11.859 0
    endloop
  endfacet
  facet normal -0.970966 -0.239216 0
    outer loop
      vertex 13.542 11.859 0
      vertex 14 10 2
      vertex 13.542 11.859 2
    endloop
  endfacet
  facet normal -0.970966 0.239216 0
    outer loop
      vertex 13.542 8.141 2
      vertex 14 10 2
      vertex 13.542 8.141 0
    endloop
  endfacet
  facet normal -0.970966 0.239216 0
    outer loop
      vertex 13.542 8.141 0
      vertex 14 10 2
      vertex 14 10 0
    endloop
  endfacet
  facet normal -0.748388 0.663261 0
    outer loop
      vertex 12.272 6.708 2
      vertex 13.542 8.141 2
      vertex 12.272 6.708 0
    endloop
  endfacet
  facet normal -0.748388 0.663261 0
    outer loop
      vertex 12.272 6.708 0
      vertex 13.542 8.141 2
      vertex 13.542 8.141 0
    endloop
  endfacet
  facet normal -0.35467 0.934992 0
    outer loop
      vertex 10.482 6.029 2
      vertex 12.272 6.708 2
      vertex 10.482 6.029 0
    endloop
  endfacet
  facet normal -0.35467 0.934992 0
    outer loop
      vertex 10.482 6.029 0
      vertex 12.272 6.708 2
      vertex 12.272 6.708 0
    endloop
  endfacet
  facet normal 0.12069 0.99269 0
    outer loop
      vertex 8.582 6.26 2
      vertex 10.482 6.029 2
      vertex 8.582 6.26 0
    endloop
  endfacet
  facet normal 0.12069 0.99269 0
    outer loop
      vertex 8.582 6.26 0
      vertex 10.482 6.029 2
      vertex 10.482 6.029 0
    endloop
  endfacet
  facet normal 0.568123 0.822943 0
    outer loop
      vertex 7.006 7.348 2
      vertex 8.582 6.26 2
      vertex 7.006 7.348 0
    endloop
  endfacet
  facet normal 0.568123 0.822943 0
    outer loop
      vertex 7.006 7.348 0
      vertex 8.582 6.26 2
      vertex 8.582 6.26 0
    endloop
  endfacet
  facet normal 0.568123 -0.822943 0
    outer loop
      vertex 7.006 92.652 0
      vertex 8.582 93.74 0
      vertex 8.582 93.74 2
    endloop
  endfacet
  facet normal 0.568123 -0.822943 0
    outer loop
      vertex 7.006 92.652 2
      vertex 7.006 92.652 0
      vertex 8.582 93.74 2
    endloop
  endfacet
  facet normal 0.12069 -0.99269 0
    outer loop
      vertex 8.582 93.74 0
      vertex 10.482 93.971 0
      vertex 10.482 93.971 2
    endloop
  endfacet
  facet normal 0.12069 -0.99269 0
    outer loop
      vertex 8.582 93.74 2
      vertex 8.582 93.74 0
      vertex 10.482 93.971 2
    endloop
  endfacet
  facet normal -0.35467 -0.934992 0
    outer loop
      vertex 10.482 93.971 0
      vertex 12.272 93.292 0
      vertex 12.272 93.292 2
    endloop
  endfacet
  facet normal -0.35467 -0.934992 0
    outer loop
      vertex 10.482 93.971 2
      vertex 10.482 93.971 0
      vertex 12.272 93.292 2
    endloop
  endfacet
  facet normal -0.748388 -0.663261 0
    outer loop
      vertex 13.542 91.859 0
      vertex 13.542 91.859 2
      vertex 12.272 93.292 0
    endloop
  endfacet
  facet normal -0.748388 -0.663261 0
    outer loop
      vertex 12.272 93.292 0
      vertex 13.542 91.859 2
      vertex 12.272 93.292 2
    endloop
  endfacet
  facet normal -0.970966 -0.239216 0
    outer loop
      vertex 14 90 0
      vertex 14 90 2
      vertex 13.542 91.859 0
    endloop
  endfacet
  facet normal -0.970966 -0.239216 0
    outer loop
      vertex 13.542 91.859 0
      vertex 14 90 2
      vertex 13.542 91.859 2
    endloop
  endfacet
  facet normal -0.970966 0.239216 0
    outer loop
      vertex 13.542 88.141 2
      vertex 14 90 2
      vertex 13.542 88.141 0
    endloop
  endfacet
  facet normal -0.970966 0.239216 0
    outer loop
      vertex 13.542 88.141 0
      vertex 14 90 2
      vertex 14 90 0
    endloop
  endfacet
  facet normal -0.748388 0.663261 0
    outer loop
      vertex 12.272 86.708 2
      vertex 13.542 88.141 2
      vertex 12.272 86.708 0
    endloop
  endfacet
  facet normal -0.748388 0.663261 0
    outer loop
      vertex 12.272 86.708 0
      vertex 13.542 88.141 2
      vertex 13.542 88.141 0
    endloop
  endfacet
  facet normal -0.35467 0.934992 0
    outer loop
      vertex 10.482 86.029 2
      vertex 12.272 86.708 2
      vertex 10.482 86.029 0
    endloop
  endfacet
  facet normal -0.35467 0.934992 0
    outer loop
      vertex 10.482 86.029 0
      vertex 12.272 86.708 2
      vertex 12.272 86.708 0
    endloop
  endfacet
  facet normal 0.12069 0.99269 0
    outer loop
      vertex 8.582 86.26 2
      vertex 10.482 86.029 2
      vertex 8.582 86.26 0
    endloop
  endfacet
  facet normal 0.12069 0.99269 0
    outer loop
      vertex 8.582 86.26 0
      vertex 10.482 86.029 2
      vertex 10.482 86.029 0
    endloop
  endfacet
  facet normal 0.885371 0.464885 0
    outer loop
      vertex 36.116 9.043 0
      vertex 36.116 9.043 2
      vertex 37.006 7.348 2
    endloop
  endfacet
  facet normal 0.885371 0.464885 0
    outer loop
      vertex 37.006 7.348 0
      vertex 36.116 9.043 0
      vertex 37.006 7.348 2
    endloop
  endfacet
  facet normal 1 0 0
    outer loop
      vertex 36.116 9.043 0
      vertex 36.116 10.957 0
      vertex 36.116 10.957 2
    endloop
  endfacet
  facet normal 1 0 0
    outer loop
      vertex 36.116 9.043 2
      vertex 36.116 9.043 0
      vertex 36.116 10.957 2
    endloop
  endfacet
  facet normal 0.885371 -0.464885 0
    outer loop
      vertex 36.116 10.957 0
      vertex 37.006 12.652 0
      vertex 37.006 12.652 2
    endloop
  endfacet
  facet normal 0.885371 -0.464885 0
    outer loop
      vertex 36.116 10.957 2
      vertex 36.116 10.957 0
      vertex 37.006 12.652 2
    endloop
  endfacet
  facet normal 0.568123 -0.822943 0
    outer loop
      vertex 37.006 12.652 0
      vertex 38.582 13.74 0
      vertex 38.582 13.74 2
    endloop
  endfacet
  facet normal 0.568123 -0.822943 0
    outer loop
      vertex 37.006 12.652 2
      vertex 37.006 12.652 0
      vertex 38.582 13.74 2
    endloop
  endfacet
  facet normal 0.12069 -0.99269 0
    outer loop
      vertex 38.582 13.74 0
      vertex 40.482 13.971 0
      vertex 40.482 13.971 2
    endloop
  endfacet
  facet normal 0.12069 -0.99269 0
    outer loop
      vertex 38.582 13.74 2
      vertex 38.582 13.74 0
      vertex 40.482 13.971 2
    endloop
  endfacet
  facet normal -0.35467 -0.934992 0
    outer loop
      vertex 40.482 13.971 0
      vertex 42.272 13.292 0
      vertex 42.272 13.292 2
    endloop
  endfacet
  facet normal -0.35467 -0.934992 0
    outer loop
      vertex 40.482 13.971 2
      vertex 40.482 13.971 0
      vertex 42.272 13.292 2
    endloop
  endfacet
  facet normal -0.748388 -0.663261 0
    outer loop
      vertex 43.542 11.859 0
      vertex 43.542 11.859 2
      vertex 42.272 13.292 0
    endloop
  endfacet
  facet normal -0.748388 -0.663261 0
    outer loop
      vertex 42.272 13.292 0
      vertex 43.542 11.859 2
      vertex 42.272 13.292 2
    endloop
  endfacet
  facet normal -0.970966 -0.239216 0
    outer loop
      vertex 44 10 0
      vertex 44 10 2
      vertex 43.542 11.859 0
    endloop
  endfacet
  facet normal -0.970966 -0.239216 0
    outer loop
      vertex 43.542 11.859 0
      vertex 44 10 2
      vertex 43.542 11.859 2
    endloop
  endfacet
  facet normal -0.970966 0.239216 0
    outer loop
      vertex 43.542 8.141 2
      vertex 44 10 2
      vertex 43.542 8.141 0
    endloop
  endfacet
  facet normal -0.970966 0.239216 0
    outer loop
      vertex 43.542 8.141 0
      vertex 44 10 2
      vertex 44 10 0
    endloop
  endfacet
  facet normal -0.748388 0.663261 0
    outer loop
      vertex 42.272 6.708 2
      vertex 43.542 8.141 2
      vertex 42.272 6.708 0
    endloop
  endfacet
  facet normal -0.748388 0.663261 0
    outer loop
      vertex 42.272 6.708 0
      vertex 43.542 8.141 2
      vertex 43.542 8.141 0
    endloop
  endfacet
  facet normal -0.35467 0.934992 0
    outer loop
      vertex 40.482 6.029 2
      vertex 42.272 6.708 2
      vertex 40.482 6.029 0
    endloop
  endfacet
  facet normal -0.35467 0.934992 0
    outer loop
      vertex 40.482 6.029 0
      vertex 42.272 6.708 2
      vertex 42.272 6.708 0
    endloop
  endfacet
  facet normal 0.12069 0.99269 0
    outer loop
      vertex 38.582 6.26 2
      vertex 40.482 6.029 2
      vertex 38.582 6.26 0
    endloop
  endfacet
  facet normal 0.12069 0.99269 0
    outer loop
      vertex 38.582 6.26 0
      vertex 40.482 6.029 2
      vertex 40.482 6.029 0
    endloop
  endfacet
  facet normal 0.568123 0.822943 0
    outer loop
      vertex 37.006 7.348 2
      vertex 38.582 6.26 2
      vertex 37.006 7.348 0
    endloop
  endfacet
  facet normal 0.568123 0.822943 0
    outer loop
      vertex 37.006 7.348 0
      vertex 38.582 6.26 2
      vertex 38.582 6.26 0
    endloop
  endfacet
  facet normal 0.885371 0.464885 0
    outer loop
      vertex 36.116 89.043 0
      vertex 36.116 89.043 2
      vertex 37.006 87.348 2
    endloop
  endfacet
  facet normal 0.885371 0.464885 0
    outer loop
      vertex 37.006 87.348 0
      vertex 36.116 89.043 0
      vertex 37.006 87.348 2
    endloop
  endfacet
  facet normal 1 0 0
    outer loop
      vertex 36.116 89.043 0
      vertex 36.116 90.957 0
      vertex 36.116 90.957 2
    endloop
  endfacet
  facet normal 1 0 0
    outer loop
      vertex 36.116 89.043 2
      vertex 36.116 89.043 0
      vertex 36.116 90.957 2
    endloop
  endfacet
  facet normal 0.885371 -0.464885 0
    outer loop
      vertex 36.116 90.957 0
      vertex 37.006 92.652 0
      vertex 37.006 92.652 2
    endloop
  endfacet
  facet normal 0.885371 -0.464885 0
    outer loop
      vertex 36.116 90.957 2
      vertex 36.116 90.957 0
      vertex 37.006 92.652 2
    endloop
  endfacet
  facet normal 0.568123 -0.822943 0
    outer loop
      vertex 37.006 92.652 0
      vertex 38.582 93.74 0
      vertex 38.582 93.74 2
    endloop
  endfacet
  facet normal 0.568123 -0.822943 0
    outer loop
      vertex 37.006 92.652 2
      vertex 37.006 92.652 0
      vertex 38.582 93.74 2
    endloop
  endfacet
  facet normal 0.12069 -0.99269 0
    outer loop
      vertex 38.582 93.74 0
      vertex 40.482 93.971 0
      vertex 40.482 93.971 2
    endloop
  endfacet
  facet normal 0.12069 -0.99269 0
    outer loop
      vertex 38.582 93.74 2
      vertex 38.582 93.74 0
      vertex 40.482 93.971 2
    endloop
  endfacet
  facet normal -0.35467 -0.934992 0
    outer loop
      vertex 40.482 93.971 0
      vertex 42.272 93.292 0
      vertex 42.272 93.292 2
    endloop
  endfacet
  facet normal -0.35467 -0.934992 0
    outer loop
      vertex 40.482 93.971 2
      vertex 40.482 93.971 0
      vertex 42.272 93.292 2
    endloop
  endfacet
  facet normal -0.748388 -0.663261 0
    outer loop
      vertex 43.542 91.859 0
      vertex 43.542 91.859 2
      vertex 42.272 93.292 0
    endloop
  endfacet
  facet normal -0.748388 -0.663261 0
    outer loop
      vertex 42.272 93.292 0
      vertex 43.542 91.859 2
      vertex 42.272 93.292 2
    endloop
  endfacet
  facet normal -0.970966 -0.239216 0
    outer loop
      vertex 44 90 0
      vertex 44 90 2
      vertex 43.542 91.859 0
    endloop
  endfacet
  facet normal -0.970966 -0.239216 0
    outer loop
      vertex 43.542 91.859 0
      vertex 44 90 2
      vertex 43.542 91.859 2
    endloop
  endfacet
  facet normal -0.970966 0.239216 0
    outer loop
      vertex 43.542 88.141 2
      vertex 44 90 2
      vertex 43.542 88.141 0
    endloop
  endfacet
  facet normal -0.970966 0.239216 0
    outer loop
      vertex 43.542 88.141 0
      vertex 44 90 2
      vertex 44 90 0
    endloop
  endfacet
  facet normal -0.748388 0.663261 0
    outer loop
      vertex 42.272 86.708 2
      vertex 43.542 88.141 2
      vertex 42.272 86.708 0
    endloop
  endfacet
  facet normal -0.748388 0.663261 0
    outer loop
      vertex 42.272 86.708 0
      vertex 43.542 88.141 2
      vertex 43.542 88.141 0
    endloop
  endfacet
  facet normal -0.35467 0.934992 0
    outer loop
      vertex 40.482 86.029 2
      vertex 42.272 86.708 2
      vertex 40.482 86.029 0
    endloop
  endfacet
  facet normal -0.35467 0.934992 0
    outer loop
      vertex 40.482 86.029 0
      vertex 42.272 86.708 2
      vertex 42.272 86.708 0
    endloop
  endfacet
  facet normal 0.12069 0.99269 0
    outer loop
      vertex 38.582 86.26 2
      vertex 40.482 86.029 2
      vertex 38.582 86.26 0
    endloop
  endfacet
  facet normal 0.12069 0.99269 0
    outer loop
      vertex 38.582 86.26 0
      vertex 40.482 86.029 2
      vertex 40.482 86.029 0
    endloop
  endfacet
  facet normal 0.568123 0.822943 0
    outer loop
      vertex 37.006 87.348 2
      vertex 38.582 86.26 2
      vertex 37.006 87.348 0
    endloop
  endfacet
  facet normal 0.568123 0.822943 0
    outer loop
      vertex 37.006 87.348 0
      vertex 38.582 86.26 2
      vertex 38.582 86.26 0
    endloop
  endfacet
endsolid OpenSCAD_Model
