999
dxfrw 0.5.10
0
SECTION
2
HEADER
9
$ACADVER
1
AC1021
9
$HANDSEED
5
20000
9
$DWGCODEPAGE
3
ANSI_1252
9
$INSBASE
10
0
20
0
30
0
9
$EXTMIN
10
-150
20
-110
30
0
9
$EXTMAX
10
279.8
20
198
30
0
9
$LIMMIN
10
0
20
0
9
$LIMMAX
10
420
20
297
9
$ORTHOMODE
70
0
9
$LTSCALE
40
1
9
$TEXTSTYLE
7
STANDARD
9
$CLAYER
8
DIMENSION
9
$DIMASZ
40
10
9
$DIMLFAC
40
1
9
$DIMSCALE
40
1
9
$DIMEXO
40
0.625
9
$DIMEXE
40
1.25
9
$DIMTXT
40
8
9
$DIMTSZ
40
0
9
$DIMAUNIT
70
0
9
$DIMADEC
70
2
9
$DIMLUNIT
70
2
9
$DIMSTYLE
2
Standard
9
$DIMGAP
40
0.625
9
$DIMTIH
70
0
9
$LUNITS
70
2
9
$LUPREC
70
4
9
$AUNITS
70
0
9
$AUPREC
70
2
9
$SPLINESEGS
70
8
9
$GRIDMODE
70
1
9
$SNAPSTYLE
70
0
9
$GRIDUNIT
10
0
20
0
9
$PINSBASE
10
79.4853896104
20
78.5714285714
30
0
9
$PLIMMIN
10
0
20
0
9
$PLIMMAX
10
297
20
210
9
$INSUNITS
70
4
9
$PSVPSCALE
40
0.600649350649
0
ENDSEC
0
SECTION
2
CLASSES
0
ENDSEC
0
SECTION
2
TABLES
0
TABLE
2
VPORT
5
8
330
0
100
AcDbSymbolTable
70
1
0
VPORT
5
31
330
2
100
AcDbSymbolTableRecord
100
AcDbViewportTableRecord
2
*ACTIVE
70
0
10
0
20
0
11
1
21
1
12
157.431192661
22
101.119266055
13
0
23
0
14
10
24
10
15
10
25
10
16
0
26
0
36
1
17
0
27
0
37
0
40
316.073394495
41
1.57982120051
42
50
43
0
44
0
50
0
51
0
71
0
72
100
73
1
74
3
75
0
76
1
77
0
78
0
281
0
65
1
110
0
120
0
130
0
111
1
121
0
131
0
112
0
122
1
132
0
79
0
146
0
348
10020
60
7
61
5
292
1
282
1
141
0
142
0
63
250
421
3358443
0
ENDTAB
0
TABLE
2
LTYPE
5
5
330
0
100
AcDbSymbolTable
70
4
0
LTYPE
5
14
330
5
100
AcDbSymbolTableRecord
100
AcDbLinetypeTableRecord
2
ByBlock
70
0
3

72
65
73
0
40
0
0
LTYPE
5
15
330
5
100
AcDbSymbolTableRecord
100
AcDbLinetypeTableRecord
2
ByLayer
70
0
3

72
65
73
0
40
0
0
LTYPE
5
16
330
5
100
AcDbSymbolTableRecord
100
AcDbLinetypeTableRecord
2
Continuous
70
0
3
Solid line
72
65
73
0
40
0
0
LTYPE
5
32
330
5
100
AcDbSymbolTableRecord
100
AcDbLinetypeTableRecord
2
DOT
70
0
3
Dot . . . . . . . . . . . . . . . . . . . . . .
72
65
73
2
40
6.35
49
0
74
0
49
-6.35
74
0
0
LTYPE
5
33
330
5
100
AcDbSymbolTableRecord
100
AcDbLinetypeTableRecord
2
DOT2
70
0
3
Dot (.5x) .....................................
72
65
73
2
40
3.175
49
0
74
0
49
-3.175
74
0
0
LTYPE
5
34
330
5
100
AcDbSymbolTableRecord
100
AcDbLinetypeTableRecord
2
DOTX2
70
0
3
Dot (2x) .  .  .  .  .  .  .  .  .  .  .  .  .
72
65
73
2
40
12.7
49
0
74
0
49
-12.7
74
0
0
LTYPE
5
35
330
5
100
AcDbSymbolTableRecord
100
AcDbLinetypeTableRecord
2
DASHED
70
0
3
Dot . . . . . . . . . . . . . . . . . . . . . .
72
65
73
2
40
19.05
49
12.7
74
0
49
-6.35
74
0
0
LTYPE
5
36
330
5
100
AcDbSymbolTableRecord
100
AcDbLinetypeTableRecord
2
DASHED2
70
0
3
Dashed (.5x) _ _ _ _ _ _ _ _ _ _ _ _ _ _ _ _ _
72
65
73
2
40
9.525
49
6.35
74
0
49
-3.175
74
0
0
LTYPE
5
37
330
5
100
AcDbSymbolTableRecord
100
AcDbLinetypeTableRecord
2
DASHEDX2
70
0
3
Dashed (2x) ____  ____  ____  ____  ____  ___
72
65
73
2
40
38.1
49
25.4
74
0
49
-12.7
74
0
0
LTYPE
5
38
330
5
100
AcDbSymbolTableRecord
100
AcDbLinetypeTableRecord
2
DASHDOT
70
0
3
Dash dot __ . __ . __ . __ . __ . __ . __ . __
72
65
73
4
40
25.4
49
12.7
74
0
49
-6.35
74
0
49
0
74
0
49
-6.35
74
0
0
LTYPE
5
39
330
5
100
AcDbSymbolTableRecord
100
AcDbLinetypeTableRecord
2
DASHDOT2
70
0
3
Dash dot (.5x) _._._._._._._._._._._._._._._.
72
65
73
4
40
12.7
49
6.35
74
0
49
-3.175
74
0
49
0
74
0
49
-3.175
74
0
0
LTYPE
5
3A
330
5
100
AcDbSymbolTableRecord
100
AcDbLinetypeTableRecord
2
DASHDOTX2
70
0
3
Dash dot (2x) ____  .  ____  .  ____  .  ___
72
65
73
4
40
50.8
49
25.4
74
0
49
-12.7
74
0
49
0
74
0
49
-12.7
74
0
0
LTYPE
5
3B
330
5
100
AcDbSymbolTableRecord
100
AcDbLinetypeTableRecord
2
DIVIDE
70
0
3
Divide ____ . . ____ . . ____ . . ____ . . ____
72
65
73
6
40
31.75
49
12.7
74
0
49
-6.35
74
0
49
0
74
0
49
-6.35
74
0
49
0
74
0
49
-6.35
74
0
0
LTYPE
5
3C
330
5
100
AcDbSymbolTableRecord
100
AcDbLinetypeTableRecord
2
DIVIDE2
70
0
3
Divide (.5x) __..__..__..__..__..__..__..__.._
72
65
73
6
40
15.875
49
6.35
74
0
49
-3.175
74
0
49
0
74
0
49
-3.175
74
0
49
0
74
0
49
-3.175
74
0
0
LTYPE
5
3D
330
5
100
AcDbSymbolTableRecord
100
AcDbLinetypeTableRecord
2
DIVIDEX2
70
0
3
Divide (2x) ________  .  .  ________  .  .  _
72
65
73
6
40
63.5
49
25.4
74
0
49
-12.7
74
0
49
0
74
0
49
-12.7
74
0
49
0
74
0
49
-12.7
74
0
0
LTYPE
5
3E
330
5
100
AcDbSymbolTableRecord
100
AcDbLinetypeTableRecord
2
BORDER
70
0
3
Border __ __ . __ __ . __ __ . __ __ . __ __ .
72
65
73
6
40
44.45
49
12.7
74
0
49
-6.35
74
0
49
12.7
74
0
49
-6.35
74
0
49
0
74
0
49
-6.35
74
0
0
LTYPE
5
3F
330
5
100
AcDbSymbolTableRecord
100
AcDbLinetypeTableRecord
2
BORDER2
70
0
3
Border (.5x) __.__.__.__.__.__.__.__.__.__.__.
72
65
73
6
40
22.225
49
6.35
74
0
49
-3.175
74
0
49
6.35
74
0
49
-3.175
74
0
49
0
74
0
49
-3.175
74
0
0
LTYPE
5
40
330
5
100
AcDbSymbolTableRecord
100
AcDbLinetypeTableRecord
2
BORDERX2
70
0
3
Border (2x) ____  ____  .  ____  ____  .  ___
72
65
73
6
40
88.9
49
25.4
74
0
49
-12.7
74
0
49
25.4
74
0
49
-12.7
74
0
49
0
74
0
49
-12.7
74
0
0
LTYPE
5
41
330
5
100
AcDbSymbolTableRecord
100
AcDbLinetypeTableRecord
2
CENTER
70
0
3
Center ____ _ ____ _ ____ _ ____ _ ____ _ ____
72
65
73
4
40
50.8
49
31.75
74
0
49
-6.35
74
0
49
6.35
74
0
49
-6.35
74
0
0
LTYPE
5
42
330
5
100
AcDbSymbolTableRecord
100
AcDbLinetypeTableRecord
2
CENTER2
70
0
3
Center (.5x) ___ _ ___ _ ___ _ ___ _ ___ _ ___
72
65
73
4
40
28.575
49
19.05
74
0
49
-3.175
74
0
49
3.175
74
0
49
-3.175
74
0
0
LTYPE
5
43
330
5
100
AcDbSymbolTableRecord
100
AcDbLinetypeTableRecord
2
CENTERX2
70
0
3
Center (2x) ________  __  ________  __  _____
72
65
73
4
40
101.6
49
63.5
74
0
49
-12.7
74
0
49
12.7
74
0
49
-12.7
74
0
0
ENDTAB
0
TABLE
2
LAYER
5
2
330
0
100
AcDbSymbolTable
70
1
0
LAYER
5
10
330
2
100
AcDbSymbolTableRecord
100
AcDbLayerTableRecord
2
0
70
4
62
7
6
CONTINUOUS
370
30
390
F
0
LAYER
5
44
330
2
100
AcDbSymbolTableRecord
100
AcDbLayerTableRecord
2
DIMENSION
70
4
62
5
6
CONTINUOUS
370
0
390
F
0
LAYER
5
45
330
2
100
AcDbSymbolTableRecord
100
AcDbLayerTableRecord
2
1
70
4
62
7
6
CONTINUOUS
370
30
390
F
0
LAYER
5
46
330
2
100
AcDbSymbolTableRecord
100
AcDbLayerTableRecord
2
LAYOUT_TEXT
70
4
62
7
6
CONTINUOUS
370
30
390
F
0
LAYER
5
47
330
2
100
AcDbSymbolTableRecord
100
AcDbLayerTableRecord
2
LAYOUT_BLOCK
70
4
62
7
6
CONTINUOUS
370
30
390
F
0
ENDTAB
0
TABLE
2
STYLE
5
3
330
0
100
AcDbSymbolTable
70
3
0
STYLE
5
48
330
2
100
AcDbSymbolTableRecord
100
AcDbTextStyleTableRecord
2
standard
70
0
40
0
41
1
50
0
71
0
42
1
3
standard
4

0
ENDTAB
0
TABLE
2
VIEW
5
6
330
0
100
AcDbSymbolTable
70
0
0
ENDTAB
0
TABLE
2
UCS
5
7
330
0
100
AcDbSymbolTable
70
0
0
ENDTAB
0
TABLE
2
APPID
5
9
330
0
100
AcDbSymbolTable
70
1
0
APPID
5
12
330
9
100
AcDbSymbolTableRecord
100
AcDbRegAppTableRecord
2
ACAD
70
0
0
ENDTAB
0
TABLE
2
DIMSTYLE
5
A
330
0
100
AcDbSymbolTable
70
1
100
AcDbDimStyleTable
71
1
0
DIMSTYLE
105
49
330
A
100
AcDbSymbolTableRecord
100
AcDbDimStyleTableRecord
2
Standard
70
0
40
1
41
10
42
0.625
43
0.38
44
1.25
45
0
46
0
47
0
48
0
140
8
141
0.09
142
0
143
25.4
144
1
145
0
146
1
147
0.625
148
0
71
0
72
0
73
0
74
1
75
0
76
0
77
0
78
0
79
0
170
0
171
2
172
0
173
0
174
0
175
0
176
0
177
0
178
0
179
0
271
4
272
4
273
2
274
2
275
0
276
0
277
2
278
46
279
0
280
0
281
0
282
0
283
1
284
0
285
0
286
0
288
0
289
3
340
Standard
341

371
-2
372
-2
0
ENDTAB
0
TABLE
2
BLOCK_RECORD
5
1
330
0
100
AcDbSymbolTable
70
2
0
BLOCK_RECORD
5
1F
330
1
100
AcDbSymbolTableRecord
100
AcDbBlockTableRecord
2
*Model_Space
70
0
280
1
281
0
0
BLOCK_RECORD
5
1E
330
1
100
AcDbSymbolTableRecord
100
AcDbBlockTableRecord
2
*Paper_Space
70
0
280
1
281
0
0
BLOCK_RECORD
5
4A
330
1
100
AcDbSymbolTableRecord
100
AcDbBlockTableRecord
2
*D6
70
0
280
1
281
0
0
BLOCK_RECORD
5
4D
330
1
100
AcDbSymbolTableRecord
100
AcDbBlockTableRecord
2
*D1
70
0
280
1
281
0
0
BLOCK_RECORD
5
50
330
1
100
AcDbSymbolTableRecord
100
AcDbBlockTableRecord
2
*D2
70
0
280
1
281
0
0
BLOCK_RECORD
5
53
330
1
100
AcDbSymbolTableRecord
100
AcDbBlockTableRecord
2
*D3
70
0
280
1
281
0
0
BLOCK_RECORD
5
56
330
1
100
AcDbSymbolTableRecord
100
AcDbBlockTableRecord
2
*D4
70
0
280
1
281
0
0
BLOCK_RECORD
5
59
330
1
100
AcDbSymbolTableRecord
100
AcDbBlockTableRecord
2
*D5
70
0
280
1
281
0
0
BLOCK_RECORD
5
5C
330
1
100
AcDbSymbolTableRecord
100
AcDbBlockTableRecord
2
VDRAWCLIP1228156479
70
0
280
1
281
0
0
BLOCK_RECORD
5
5F
330
1
100
AcDbSymbolTableRecord
100
AcDbBlockTableRecord
2
TITLE_BLOCK
70
0
280
1
281
0
0
ENDTAB
0
ENDSEC
0
SECTION
2
BLOCKS
0
BLOCK
5
20
330
1F
100
AcDbEntity
8
0
100
AcDbBlockBegin
2
*Model_Space
70
0
10
0
20
0
30
0
3
*Model_Space
1

0
ENDBLK
5
21
330
1F
100
AcDbEntity
8
0
100
AcDbBlockEnd
0
BLOCK
5
1C
330
1B
100
AcDbEntity
8
0
100
AcDbBlockBegin
2
*Paper_Space
70
0
10
0
20
0
30
0
3
*Paper_Space
1

0
ENDBLK
5
1D
330
1F
100
AcDbEntity
8
0
100
AcDbBlockEnd
0
BLOCK
5
4B
330
4A
100
AcDbEntity
8
0
100
AcDbBlockBegin
2
*D6
70
1
10
0
20
0
3
*D6
1

0
LINE
5
62
100
AcDbEntity
8
DIMENSION
6
CONTINUOUS
62
7
370
0
100
AcDbLine
10
16
20
25
11
64
21
25
0
SOLID
5
63
100
AcDbEntity
8
DIMENSION
6
CONTINUOUS
62
7
370
0
100
AcDbTrace
10
36
20
25
30
0
11
26
21
23.3348613689
31
0
12
26
22
26.6651386311
32
0
13
26
23
26.6651386311
33
0
0
SOLID
5
64
100
AcDbEntity
8
DIMENSION
6
CONTINUOUS
62
7
370
0
100
AcDbTrace
10
44
20
25
30
0
11
54
21
26.6651386311
31
0
12
54
22
23.3348613689
32
0
13
54
23
23.3348613689
33
0
0
MTEXT
5
65
100
AcDbEntity
8
DIMENSION
6
CONTINUOUS
62
7
370
0
100
AcDbMText
10
40
20
29.625
30
0
40
8
41
3.55555555556
71
5
72
1
1
8
7
standard
210
0
220
0
230
1
50
360
73
2
44
1
0
LINE
5
66
100
AcDbEntity
8
DIMENSION
6
CONTINUOUS
62
7
370
0
100
AcDbLine
10
36
20
20.625
11
36
21
26.25
0
LINE
5
67
100
AcDbEntity
8
DIMENSION
6
CONTINUOUS
62
7
370
0
100
AcDbLine
10
44
20
20.625
11
44
21
26.25
0
ENDBLK
5
4C
330
4A
100
AcDbEntity
8
0
100
AcDbBlockEnd
0
BLOCK
5
4E
330
4D
100
AcDbEntity
8
0
100
AcDbBlockBegin
2
*D1
70
1
10
0
20
0
3
*D1
1

0
LINE
5
68
100
AcDbEntity
8
DIMENSION
6
CONTINUOUS
62
7
370
0
100
AcDbLine
10
130
20
-15
11
172
21
-15
0
SOLID
5
69
100
AcDbEntity
8
DIMENSION
6
CONTINUOUS
62
7
370
0
100
AcDbTrace
10
150
20
-15
30
0
11
140
21
-16.6651386311
31
0
12
140
22
-13.3348613689
32
0
13
140
23
-13.3348613689
33
0
0
SOLID
5
6A
100
AcDbEntity
8
DIMENSION
6
CONTINUOUS
62
7
370
0
100
AcDbTrace
10
152
20
-15
30
0
11
162
21
-13.3348613689
31
0
12
162
22
-16.6651386311
32
0
13
162
23
-16.6651386311
33
0
0
MTEXT
5
6B
100
AcDbEntity
8
DIMENSION
6
CONTINUOUS
62
7
370
0
100
AcDbMText
10
151.306529395
20
-25.1818887451
30
0
40
8
41
3.55555555556
71
5
72
1
1
2
7
standard
210
0
220
0
230
1
50
360
73
2
44
1
0
LINE
5
6C
100
AcDbEntity
8
DIMENSION
6
CONTINUOUS
62
7
370
0
100
AcDbLine
10
150
20
-4.625
11
150
21
-16.25
0
LINE
5
6D
100
AcDbEntity
8
DIMENSION
6
CONTINUOUS
62
7
370
0
100
AcDbLine
10
152
20
-4.625
11
152
21
-16.25
0
ENDBLK
5
4F
330
4D
100
AcDbEntity
8
0
100
AcDbBlockEnd
0
BLOCK
5
51
330
50
100
AcDbEntity
8
0
100
AcDbBlockBegin
2
*D2
70
1
10
0
20
0
3
*D2
1

0
LINE
5
6E
100
AcDbEntity
8
DIMENSION
6
CONTINUOUS
62
7
370
0
100
AcDbLine
10
-30
20
0
11
-30
21
100
0
SOLID
5
6F
100
AcDbEntity
8
DIMENSION
6
CONTINUOUS
62
7
370
0
100
AcDbTrace
10
-30
20
0
30
0
11
-31.6651386311
21
10
31
0
12
-28.3348613689
22
10
32
0
13
-28.3348613689
23
10
33
0
0
SOLID
5
70
100
AcDbEntity
8
DIMENSION
6
CONTINUOUS
62
7
370
0
100
AcDbTrace
10
-30
20
100
30
0
11
-28.3348613689
21
90
31
0
12
-31.6651386311
22
90
32
0
13
-31.6651386311
23
90
33
0
0
MTEXT
5
71
100
AcDbEntity
8
DIMENSION
6
CONTINUOUS
62
7
370
0
100
AcDbMText
10
-34.625
20
50
30
0
40
8
41
14.2222222222
71
5
72
1
1
100
7
standard
210
0
220
0
230
1
50
90
73
2
44
1
0
LINE
5
72
100
AcDbEntity
8
DIMENSION
6
CONTINUOUS
62
7
370
0
100
AcDbLine
10
-20.625
20
7.65378971139e-017
11
-31.25
21
1.53075794228e-016
0
LINE
5
73
100
AcDbEntity
8
DIMENSION
6
CONTINUOUS
62
7
370
0
100
AcDbLine
10
-20.625
20
100
11
-31.25
21
100
0
ENDBLK
5
52
330
50
100
AcDbEntity
8
0
100
AcDbBlockEnd
0
BLOCK
5
54
330
53
100
AcDbEntity
8
0
100
AcDbBlockBegin
2
*D3
70
1
10
0
20
0
3
*D3
1

0
LINE
5
74
100
AcDbEntity
8
DIMENSION
6
CONTINUOUS
62
7
370
0
100
AcDbLine
10
0
20
130
11
50
21
130
0
SOLID
5
75
100
AcDbEntity
8
DIMENSION
6
CONTINUOUS
62
7
370
0
100
AcDbTrace
10
0
20
130
30
0
11
10
21
131.665138631
31
0
12
10
22
128.334861369
32
0
13
10
23
128.334861369
33
0
0
SOLID
5
76
100
AcDbEntity
8
DIMENSION
6
CONTINUOUS
62
7
370
0
100
AcDbTrace
10
50
20
130
30
0
11
40
21
128.334861369
31
0
12
40
22
131.665138631
32
0
13
40
23
131.665138631
33
0
0
MTEXT
5
77
100
AcDbEntity
8
DIMENSION
6
CONTINUOUS
62
7
370
0
100
AcDbMText
10
25
20
134.625
30
0
40
8
41
9.77777777778
71
5
72
1
1
50
7
standard
210
0
220
0
230
1
50
0
73
2
44
1
0
LINE
5
78
100
AcDbEntity
8
DIMENSION
6
CONTINUOUS
62
7
370
0
100
AcDbLine
10
3.82689485569e-017
20
120.625
11
7.65378971139e-017
21
131.25
0
LINE
5
79
100
AcDbEntity
8
DIMENSION
6
CONTINUOUS
62
7
370
0
100
AcDbLine
10
50
20
120.625
11
50
21
131.25
0
ENDBLK
5
55
330
53
100
AcDbEntity
8
0
100
AcDbBlockEnd
0
BLOCK
5
57
330
56
100
AcDbEntity
8
0
100
AcDbBlockBegin
2
*D4
70
1
10
0
20
0
3
*D4
1

0
LINE
5
7A
100
AcDbEntity
8
DIMENSION
6
CONTINUOUS
62
7
370
0
100
AcDbLine
10
10
20
70
11
40
21
70
0
SOLID
5
7B
100
AcDbEntity
8
DIMENSION
6
CONTINUOUS
62
7
370
0
100
AcDbTrace
10
10
20
70
30
0
11
20
21
71.6651386311
31
0
12
20
22
68.3348613689
32
0
13
20
23
68.3348613689
33
0
0
SOLID
5
7C
100
AcDbEntity
8
DIMENSION
6
CONTINUOUS
62
7
370
0
100
AcDbTrace
10
40
20
70
30
0
11
30
21
68.3348613689
31
0
12
30
22
71.6651386311
32
0
13
30
23
71.6651386311
33
0
0
MTEXT
5
7D
100
AcDbEntity
8
DIMENSION
6
CONTINUOUS
62
7
370
0
100
AcDbMText
10
25
20
74.625
30
0
40
8
41
9.77777777778
71
5
72
1
1
30
7
standard
210
0
220
0
230
1
50
0
73
2
44
1
0
LINE
5
7E
100
AcDbEntity
8
DIMENSION
6
CONTINUOUS
62
7
370
0
100
AcDbLine
10
10
20
79.375
11
10
21
68.75
0
LINE
5
7F
100
AcDbEntity
8
DIMENSION
6
CONTINUOUS
62
7
370
0
100
AcDbLine
10
40
20
79.375
11
40
21
68.75
0
ENDBLK
5
58
330
56
100
AcDbEntity
8
0
100
AcDbBlockEnd
0
BLOCK
5
5A
330
59
100
AcDbEntity
8
0
100
AcDbBlockBegin
2
*D5
70
1
10
0
20
0
3
*D5
1

0
LINE
5
80
100
AcDbEntity
8
DIMENSION
6
CONTINUOUS
62
7
370
0
100
AcDbLine
10
70
20
120
11
70
21
70
0
SOLID
5
81
100
AcDbEntity
8
DIMENSION
6
CONTINUOUS
62
7
370
0
100
AcDbTrace
10
70
20
100
30
0
11
68.3348613689
21
110
31
0
12
71.6651386311
22
110
32
0
13
71.6651386311
23
110
33
0
0
SOLID
5
82
100
AcDbEntity
8
DIMENSION
6
CONTINUOUS
62
7
370
0
100
AcDbTrace
10
70
20
90
30
0
11
71.6651386311
21
80
31
0
12
68.3348613689
22
80
32
0
13
68.3348613689
23
80
33
0
0
MTEXT
5
83
100
AcDbEntity
8
DIMENSION
6
CONTINUOUS
62
7
370
0
100
AcDbMText
10
65.375
20
95
30
0
40
8
41
8
71
5
72
1
1
10
7
standard
210
0
220
0
230
1
50
90
73
2
44
1
0
LINE
5
84
100
AcDbEntity
8
DIMENSION
6
CONTINUOUS
62
7
370
0
100
AcDbLine
10
60.625
20
100
11
71.25
21
100
0
LINE
5
85
100
AcDbEntity
8
DIMENSION
6
CONTINUOUS
62
7
370
0
100
AcDbLine
10
60.625
20
90
11
71.25
21
90
0
ENDBLK
5
5B
330
59
100
AcDbEntity
8
0
100
AcDbBlockEnd
0
BLOCK
5
5D
330
5C
100
AcDbEntity
8
0
100
AcDbBlockBegin
2
VDRAWCLIP1228156479
70
0
10
0
20
0
3
VDRAWCLIP1228156479
1

0
ENDBLK
5
5E
330
5C
100
AcDbEntity
8
0
100
AcDbBlockEnd
0
BLOCK
5
60
330
5F
100
AcDbEntity
8
0
100
AcDbBlockBegin
2
TITLE_BLOCK
70
0
10
0
20
0
3
TITLE_BLOCK
1

0
LINE
5
86
100
AcDbEntity
8
LAYOUT_BLOCK
6
ByLayer
62
256
370
-1
100
AcDbLine
10
0
20
220
11
0
21
0
0
LINE
5
87
100
AcDbEntity
8
LAYOUT_BLOCK
6
ByLayer
62
256
370
-1
100
AcDbLine
10
5
20
215
11
5
21
5
0
LINE
5
88
100
AcDbEntity
8
LAYOUT_BLOCK
6
ByLayer
62
256
370
-1
100
AcDbLine
10
302
20
5
11
302
21
215
0
LINE
5
89
100
AcDbEntity
8
LAYOUT_BLOCK
6
ByLayer
62
256
370
-1
100
AcDbLine
10
307
20
0
11
307
21
220
0
LINE
5
8A
100
AcDbEntity
8
LAYOUT_BLOCK
6
ByLayer
62
256
370
-1
100
AcDbLine
10
5
20
5
11
302
21
5
0
LINE
5
8B
100
AcDbEntity
8
LAYOUT_BLOCK
6
ByLayer
62
256
370
-1
100
AcDbLine
10
0
20
0
11
307
21
0
0
LINE
5
8C
100
AcDbEntity
8
LAYOUT_BLOCK
6
ByLayer
62
256
370
-1
100
AcDbLine
10
307
20
220
11
0
21
220
0
LINE
5
8D
100
AcDbEntity
8
LAYOUT_BLOCK
6
ByLayer
62
256
370
-1
100
AcDbLine
10
302
20
215
11
5
21
215
0
LINE
5
8E
100
AcDbEntity
8
LAYOUT_BLOCK
6
ByLayer
62
256
370
-1
100
AcDbLine
10
42.125
20
215
11
42.125
21
220
0
LINE
5
8F
100
AcDbEntity
8
LAYOUT_BLOCK
6
ByLayer
62
256
370
-1
100
AcDbLine
10
79.25
20
215
11
79.25
21
220
0
LINE
5
90
100
AcDbEntity
8
LAYOUT_BLOCK
6
ByLayer
62
256
370
-1
100
AcDbLine
10
116.375
20
215
11
116.375
21
220
0
LINE
5
91
100
AcDbEntity
8
LAYOUT_BLOCK
6
ByLayer
62
256
370
-1
100
AcDbLine
10
153.5
20
215
11
153.5
21
220
0
LINE
5
92
100
AcDbEntity
8
LAYOUT_BLOCK
6
ByLayer
62
256
370
-1
100
AcDbLine
10
190.625
20
215
11
190.625
21
220
0
LINE
5
93
100
AcDbEntity
8
LAYOUT_BLOCK
6
ByLayer
62
256
370
-1
100
AcDbLine
10
227.75
20
215
11
227.75
21
220
0
LINE
5
94
100
AcDbEntity
8
LAYOUT_BLOCK
6
ByLayer
62
256
370
-1
100
AcDbLine
10
264.875
20
215
11
264.875
21
220
0
LINE
5
95
100
AcDbEntity
8
LAYOUT_BLOCK
6
ByLayer
62
256
370
-1
100
AcDbLine
10
5
20
110
11
0
21
110
0
LINE
5
96
100
AcDbEntity
8
LAYOUT_BLOCK
6
ByLayer
62
256
370
-1
100
AcDbLine
10
5
20
136.25
11
0
21
136.25
0
LINE
5
97
100
AcDbEntity
8
LAYOUT_BLOCK
6
ByLayer
62
256
370
-1
100
AcDbLine
10
5
20
162.5
11
0
21
162.5
0
LINE
5
98
100
AcDbEntity
8
LAYOUT_BLOCK
6
ByLayer
62
256
370
-1
100
AcDbLine
10
5
20
188.75
11
0
21
188.75
0
LINE
5
99
100
AcDbEntity
8
LAYOUT_BLOCK
6
ByLayer
62
256
370
-1
100
AcDbLine
10
5
20
83.75
11
0
21
83.75
0
LINE
5
9A
100
AcDbEntity
8
LAYOUT_BLOCK
6
ByLayer
62
256
370
-1
100
AcDbLine
10
5
20
57.5
11
0
21
57.5
0
LINE
5
9B
100
AcDbEntity
8
LAYOUT_BLOCK
6
ByLayer
62
256
370
-1
100
AcDbLine
10
5
20
31.25
11
0
21
31.25
0
TEXT
5
9C
100
AcDbEntity
8
LAYOUT_BLOCK
6
ByLayer
62
256
370
-1
100
AcDbText
10
2.5
20
18.125
30
0
40
3
1
A
50
0
41
1
51
0
7
standard
71
0
72
1
11
2.5
21
18.125
31
0
210
0
220
0
230
1
100
AcDbText
73
2
0
TEXT
5
9D
100
AcDbEntity
8
LAYOUT_BLOCK
6
ByLayer
62
256
370
-1
100
AcDbText
10
2.5
20
44.375
30
0
40
3
1
B
50
0
41
1
51
0
7
standard
71
0
72
1
11
2.5
21
44.375
31
0
210
0
220
0
230
1
100
AcDbText
73
2
0
TEXT
5
9E
100
AcDbEntity
8
LAYOUT_BLOCK
6
ByLayer
62
256
370
-1
100
AcDbText
10
2.5
20
70.625
30
0
40
3
1
C
50
0
41
1
51
0
7
standard
71
0
72
1
11
2.5
21
70.625
31
0
210
0
220
0
230
1
100
AcDbText
73
2
0
TEXT
5
9F
100
AcDbEntity
8
LAYOUT_BLOCK
6
ByLayer
62
256
370
-1
100
AcDbText
10
2.5
20
96.875
30
0
40
3
1
D
50
0
41
1
51
0
7
standard
71
0
72
1
11
2.5
21
96.875
31
0
210
0
220
0
230
1
100
AcDbText
73
2
0
TEXT
5
A0
100
AcDbEntity
8
LAYOUT_BLOCK
6
ByLayer
62
256
370
-1
100
AcDbText
10
2.5
20
123.125
30
0
40
3
1
E
50
0
41
1
51
0
7
standard
71
0
72
1
11
2.5
21
123.125
31
0
210
0
220
0
230
1
100
AcDbText
73
2
0
TEXT
5
A1
100
AcDbEntity
8
LAYOUT_BLOCK
6
ByLayer
62
256
370
-1
100
AcDbText
10
2.5
20
149.375
30
0
40
3
1
F
50
0
41
1
51
0
7
standard
71
0
72
1
11
2.5
21
149.375
31
0
210
0
220
0
230
1
100
AcDbText
73
2
0
TEXT
5
A2
100
AcDbEntity
8
LAYOUT_BLOCK
6
ByLayer
62
256
370
-1
100
AcDbText
10
2.5
20
175.625
30
0
40
3
1
G
50
0
41
1
51
0
7
standard
71
0
72
1
11
2.5
21
175.625
31
0
210
0
220
0
230
1
100
AcDbText
73
2
0
TEXT
5
A3
100
AcDbEntity
8
LAYOUT_BLOCK
6
ByLayer
62
256
370
-1
100
AcDbText
10
2.5
20
201.875
30
0
40
3
1
H
50
0
41
1
51
0
7
standard
71
0
72
1
11
2.5
21
201.875
31
0
210
0
220
0
230
1
100
AcDbText
73
2
0
TEXT
5
A4
100
AcDbEntity
8
LAYOUT_BLOCK
6
ByLayer
62
256
370
-1
100
AcDbText
10
23.5625
20
217.5
30
0
40
3
1
1
50
0
41
1
51
0
7
standard
71
0
72
1
11
23.5625
21
217.5
31
0
210
0
220
0
230
1
100
AcDbText
73
2
0
TEXT
5
A5
100
AcDbEntity
8
LAYOUT_BLOCK
6
ByLayer
62
256
370
-1
100
AcDbText
10
60.6875
20
217.5
30
0
40
3
1
2
50
0
41
1
51
0
7
standard
71
0
72
1
11
60.6875
21
217.5
31
0
210
0
220
0
230
1
100
AcDbText
73
2
0
TEXT
5
A6
100
AcDbEntity
8
LAYOUT_BLOCK
6
ByLayer
62
256
370
-1
100
AcDbText
10
97.8125
20
217.5
30
0
40
3
1
3
50
0
41
1
51
0
7
standard
71
0
72
1
11
97.8125
21
217.5
31
0
210
0
220
0
230
1
100
AcDbText
73
2
0
TEXT
5
A7
100
AcDbEntity
8
LAYOUT_BLOCK
6
ByLayer
62
256
370
-1
100
AcDbText
10
134.9375
20
217.5
30
0
40
3
1
4
50
0
41
1
51
0
7
standard
71
0
72
1
11
134.9375
21
217.5
31
0
210
0
220
0
230
1
100
AcDbText
73
2
0
TEXT
5
A8
100
AcDbEntity
8
LAYOUT_BLOCK
6
ByLayer
62
256
370
-1
100
AcDbText
10
172.0625
20
217.5
30
0
40
3
1
5
50
0
41
1
51
0
7
standard
71
0
72
1
11
172.0625
21
217.5
31
0
210
0
220
0
230
1
100
AcDbText
73
2
0
TEXT
5
A9
100
AcDbEntity
8
LAYOUT_BLOCK
6
ByLayer
62
256
370
-1
100
AcDbText
10
209.1875
20
217.5
30
0
40
3
1
6
50
0
41
1
51
0
7
standard
71
0
72
1
11
209.1875
21
217.5
31
0
210
0
220
0
230
1
100
AcDbText
73
2
0
TEXT
5
AA
100
AcDbEntity
8
LAYOUT_BLOCK
6
ByLayer
62
256
370
-1
100
AcDbText
10
246.3125
20
217.5
30
0
40
3
1
7
50
0
41
1
51
0
7
standard
71
0
72
1
11
246.3125
21
217.5
31
0
210
0
220
0
230
1
100
AcDbText
73
2
0
TEXT
5
AB
100
AcDbEntity
8
LAYOUT_BLOCK
6
ByLayer
62
256
370
-1
100
AcDbText
10
283.4375
20
217.5
30
0
40
3
1
8
50
0
41
1
51
0
7
standard
71
0
72
1
11
283.4375
21
217.5
31
0
210
0
220
0
230
1
100
AcDbText
73
2
0
LINE
5
AC
100
AcDbEntity
8
LAYOUT_BLOCK
6
ByLayer
62
256
370
-1
100
AcDbLine
10
307
20
110
11
302
21
110
0
LINE
5
AD
100
AcDbEntity
8
LAYOUT_BLOCK
6
ByLayer
62
256
370
-1
100
AcDbLine
10
307
20
136.25
11
302
21
136.25
0
LINE
5
AE
100
AcDbEntity
8
LAYOUT_BLOCK
6
ByLayer
62
256
370
-1
100
AcDbLine
10
307
20
162.5
11
302
21
162.5
0
LINE
5
AF
100
AcDbEntity
8
LAYOUT_BLOCK
6
ByLayer
62
256
370
-1
100
AcDbLine
10
307
20
188.75
11
302
21
188.75
0
LINE
5
B0
100
AcDbEntity
8
LAYOUT_BLOCK
6
ByLayer
62
256
370
-1
100
AcDbLine
10
307
20
83.75
11
302
21
83.75
0
LINE
5
B1
100
AcDbEntity
8
LAYOUT_BLOCK
6
ByLayer
62
256
370
-1
100
AcDbLine
10
307
20
57.5
11
302
21
57.5
0
LINE
5
B2
100
AcDbEntity
8
LAYOUT_BLOCK
6
ByLayer
62
256
370
-1
100
AcDbLine
10
307
20
31.25
11
302
21
31.25
0
TEXT
5
B3
100
AcDbEntity
8
LAYOUT_BLOCK
6
ByLayer
62
256
370
-1
100
AcDbText
10
304.5
20
18.125
30
0
40
3
1
A
50
0
41
1
51
0
7
standard
71
0
72
1
11
304.5
21
18.125
31
0
210
0
220
0
230
1
100
AcDbText
73
2
0
TEXT
5
B4
100
AcDbEntity
8
LAYOUT_BLOCK
6
ByLayer
62
256
370
-1
100
AcDbText
10
304.5
20
44.375
30
0
40
3
1
B
50
0
41
1
51
0
7
standard
71
0
72
1
11
304.5
21
44.375
31
0
210
0
220
0
230
1
100
AcDbText
73
2
0
TEXT
5
B5
100
AcDbEntity
8
LAYOUT_BLOCK
6
ByLayer
62
256
370
-1
100
AcDbText
10
304.5
20
70.625
30
0
40
3
1
C
50
0
41
1
51
0
7
standard
71
0
72
1
11
304.5
21
70.625
31
0
210
0
220
0
230
1
100
AcDbText
73
2
0
TEXT
5
B6
100
AcDbEntity
8
LAYOUT_BLOCK
6
ByLayer
62
256
370
-1
100
AcDbText
10
304.5
20
96.875
30
0
40
3
1
D
50
0
41
1
51
0
7
standard
71
0
72
1
11
304.5
21
96.875
31
0
210
0
220
0
230
1
100
AcDbText
73
2
0
TEXT
5
B7
100
AcDbEntity
8
LAYOUT_BLOCK
6
ByLayer
62
256
370
-1
100
AcDbText
10
304.5
20
123.125
30
0
40
3
1
E
50
0
41
1
51
0
7
standard
71
0
72
1
11
304.5
21
123.125
31
0
210
0
220
0
230
1
100
AcDbText
73
2
0
TEXT
5
B8
100
AcDbEntity
8
LAYOUT_BLOCK
6
ByLayer
62
256
370
-1
100
AcDbText
10
304.5
20
149.375
30
0
40
3
1
F
50
0
41
1
51
0
7
standard
71
0
72
1
11
304.5
21
149.375
31
0
210
0
220
0
230
1
100
AcDbText
73
2
0
TEXT
5
B9
100
AcDbEntity
8
LAYOUT_BLOCK
6
ByLayer
62
256
370
-1
100
AcDbText
10
304.5
20
175.625
30
0
40
3
1
G
50
0
41
1
51
0
7
standard
71
0
72
1
11
304.5
21
175.625
31
0
210
0
220
0
230
1
100
AcDbText
73
2
0
TEXT
5
BA
100
AcDbEntity
8
LAYOUT_BLOCK
6
ByLayer
62
256
370
-1
100
AcDbText
10
304.5
20
201.875
30
0
40
3
1
H
50
0
41
1
51
0
7
standard
71
0
72
1
11
304.5
21
201.875
31
0
210
0
220
0
230
1
100
AcDbText
73
2
0
LINE
5
BB
100
AcDbEntity
8
LAYOUT_BLOCK
6
ByLayer
62
256
370
-1
100
AcDbLine
10
42.125
20
0
11
42.125
21
5
0
LINE
5
BC
100
AcDbEntity
8
LAYOUT_BLOCK
6
ByLayer
62
256
370
-1
100
AcDbLine
10
79.25
20
0
11
79.25
21
5
0
LINE
5
BD
100
AcDbEntity
8
LAYOUT_BLOCK
6
ByLayer
62
256
370
-1
100
AcDbLine
10
116.375
20
0
11
116.375
21
5
0
LINE
5
BE
100
AcDbEntity
8
LAYOUT_BLOCK
6
ByLayer
62
256
370
-1
100
AcDbLine
10
153.5
20
0
11
153.5
21
5
0
LINE
5
BF
100
AcDbEntity
8
LAYOUT_BLOCK
6
ByLayer
62
256
370
-1
100
AcDbLine
10
190.625
20
0
11
190.625
21
5
0
LINE
5
C0
100
AcDbEntity
8
LAYOUT_BLOCK
6
ByLayer
62
256
370
-1
100
AcDbLine
10
227.75
20
0
11
227.75
21
5
0
LINE
5
C1
100
AcDbEntity
8
LAYOUT_BLOCK
6
ByLayer
62
256
370
-1
100
AcDbLine
10
264.875
20
0
11
264.875
21
5
0
TEXT
5
C2
100
AcDbEntity
8
LAYOUT_BLOCK
6
ByLayer
62
256
370
-1
100
AcDbText
10
23.5625
20
2.5
30
0
40
3
1
1
50
0
41
1
51
0
7
standard
71
0
72
1
11
23.5625
21
2.5
31
0
210
0
220
0
230
1
100
AcDbText
73
2
0
TEXT
5
C3
100
AcDbEntity
8
LAYOUT_BLOCK
6
ByLayer
62
256
370
-1
100
AcDbText
10
60.6875
20
2.5
30
0
40
3
1
2
50
0
41
1
51
0
7
standard
71
0
72
1
11
60.6875
21
2.5
31
0
210
0
220
0
230
1
100
AcDbText
73
2
0
TEXT
5
C4
100
AcDbEntity
8
LAYOUT_BLOCK
6
ByLayer
62
256
370
-1
100
AcDbText
10
97.8125
20
2.5
30
0
40
3
1
3
50
0
41
1
51
0
7
standard
71
0
72
1
11
97.8125
21
2.5
31
0
210
0
220
0
230
1
100
AcDbText
73
2
0
TEXT
5
C5
100
AcDbEntity
8
LAYOUT_BLOCK
6
ByLayer
62
256
370
-1
100
AcDbText
10
134.9375
20
2.5
30
0
40
3
1
4
50
0
41
1
51
0
7
standard
71
0
72
1
11
134.9375
21
2.5
31
0
210
0
220
0
230
1
100
AcDbText
73
2
0
TEXT
5
C6
100
AcDbEntity
8
LAYOUT_BLOCK
6
ByLayer
62
256
370
-1
100
AcDbText
10
172.0625
20
2.5
30
0
40
3
1
5
50
0
41
1
51
0
7
standard
71
0
72
1
11
172.0625
21
2.5
31
0
210
0
220
0
230
1
100
AcDbText
73
2
0
TEXT
5
C7
100
AcDbEntity
8
LAYOUT_BLOCK
6
ByLayer
62
256
370
-1
100
AcDbText
10
209.1875
20
2.5
30
0
40
3
1
6
50
0
41
1
51
0
7
standard
71
0
72
1
11
209.1875
21
2.5
31
0
210
0
220
0
230
1
100
AcDbText
73
2
0
TEXT
5
C8
100
AcDbEntity
8
LAYOUT_BLOCK
6
ByLayer
62
256
370
-1
100
AcDbText
10
246.3125
20
2.5
30
0
40
3
1
7
50
0
41
1
51
0
7
standard
71
0
72
1
11
246.3125
21
2.5
31
0
210
0
220
0
230
1
100
AcDbText
73
2
0
TEXT
5
C9
100
AcDbEntity
8
LAYOUT_BLOCK
6
ByLayer
62
256
370
-1
100
AcDbText
10
283.4375
20
2.5
30
0
40
3
1
8
50
0
41
1
51
0
7
standard
71
0
72
1
11
283.4375
21
2.5
31
0
210
0
220
0
230
1
100
AcDbText
73
2
0
LINE
5
CA
100
AcDbEntity
8
LAYOUT_BLOCK
6
ByLayer
62
256
370
-1
100
AcDbLine
10
202
20
5
11
202
21
25
0
TEXT
5
CB
100
AcDbEntity
8
LAYOUT_BLOCK
6
ByLayer
62
256
370
-1
100
AcDbText
10
203
20
24
30
0
40
2
1
TITLE:
50
0
41
1
51
0
7
standard
71
0
11
203
21
24
31
0
210
0
220
0
230
1
100
AcDbText
73
3
0
TEXT
5
CC
100
AcDbEntity
8
LAYOUT_BLOCK
6
ByLayer
62
256
370
-1
100
AcDbText
10
203
20
14
30
0
40
2
1
PART:
50
0
41
1
51
0
7
standard
71
0
11
203
21
14
31
0
210
0
220
0
230
1
100
AcDbText
73
3
0
LINE
5
CD
100
AcDbEntity
8
LAYOUT_BLOCK
6
ByLayer
62
256
370
-1
100
AcDbLine
10
132
20
25
11
132
21
5
0
LINE
5
CE
100
AcDbEntity
8
LAYOUT_BLOCK
6
ByLayer
62
256
370
-1
100
AcDbLine
10
132
20
15
11
302
21
15
0
TEXT
5
CF
100
AcDbEntity
8
LAYOUT_BLOCK
6
ByLayer
62
256
370
-1
100
AcDbText
10
133
20
24
30
0
40
2
1
MATERIAL:
50
0
41
1
51
0
7
standard
71
0
11
133
21
24
31
0
210
0
220
0
230
1
100
AcDbText
73
3
0
TEXT
5
D0
100
AcDbEntity
8
LAYOUT_BLOCK
6
ByLayer
62
256
370
-1
100
AcDbText
10
133
20
14
30
0
40
2
1
FINISHING:
50
0
41
1
51
0
7
standard
71
0
11
133
21
14
31
0
210
0
220
0
230
1
100
AcDbText
73
3
0
LINE
5
D1
100
AcDbEntity
8
LAYOUT_BLOCK
6
ByLayer
62
256
370
-1
100
AcDbLine
10
5
20
25
11
301.9424
21
24.9308800001
0
LINE
5
D2
100
AcDbEntity
8
LAYOUT_BLOCK
6
ByLayer
62
256
370
-1
100
AcDbLine
10
272
20
215
11
272
21
205
0
LINE
5
D3
100
AcDbEntity
8
LAYOUT_BLOCK
6
ByLayer
62
256
370
-1
100
AcDbLine
10
272
20
205
11
302
21
205
0
TEXT
5
D4
100
AcDbEntity
8
LAYOUT_BLOCK
6
ByLayer
62
256
370
-1
100
AcDbText
10
273
20
214
30
0
40
2
1
REVISION:
50
0
41
1
51
0
7
standard
71
0
11
273
21
214
31
0
210
0
220
0
230
1
100
AcDbText
73
3
0
ENDBLK
5
61
330
5F
100
AcDbEntity
8
0
100
AcDbBlockEnd
0
ENDSEC
0
SECTION
2
ENTITIES
0
HATCH
5
D5
100
AcDbEntity
8
1
6
ByLayer
62
256
370
-1
100
AcDbHatch
10
0
20
0
30
0
210
0
220
0
230
1
2
ansi31
70
0
71
0
91
1
92
0
93
4
72
1
10
149.999988
20
14.0000154444
11
151.999988
21
14.0000154444
72
1
10
151.999988
20
14.0000154444
11
151.999988
21
6.0000154444
72
1
10
151.999988
20
6.0000154444
11
149.999988
21
6.0000154444
72
1
10
149.999988
20
6.0000154444
11
149.999988
21
14.0000154444
97
0
75
0
76
1
52
0
41
0.5
77
0
78
0
98
0
0
HATCH
5
D6
100
AcDbEntity
8
1
6
ByLayer
62
256
370
-1
100
AcDbHatch
10
0
20
0
30
0
210
0
220
0
230
1
2
ansi31
70
0
71
0
91
1
92
0
93
4
72
1
10
150
20
94.0000299328
11
152
21
94.0000299328
72
1
10
152
20
94.0000299328
11
152
21
86.0000299328
72
1
10
152
20
86.0000299328
11
150
21
86.0000299328
72
1
10
150
20
86.0000299328
11
150
21
94.0000299328
97
0
75
0
76
1
52
0
41
0.5
77
0
78
0
98
0
0
LINE
5
D7
100
AcDbEntity
8
1
6
ByLayer
62
256
370
-1
100
AcDbLine
10
150
20
-1.34707e-014
11
150
21
100
0
LINE
5
D8
100
AcDbEntity
8
1
6
ByLayer
62
256
370
-1
100
AcDbLine
10
152
20
-2.22044604925e-016
11
150
21
-1.3470669892e-014
0
LINE
5
D9
100
AcDbEntity
8
1
6
ByLayer
62
256
370
-1
100
AcDbLine
10
150
20
100
11
152
21
100
0
LINE
5
DA
100
AcDbEntity
8
1
6
ByLayer
62
256
370
-1
100
AcDbLine
10
152
20
100
11
152
21
-2.22044604925e-016
0
LINE
5
DB
100
AcDbEntity
8
1
6
ByLayer
62
256
370
-1
100
AcDbLine
10
150
20
94.0000124884
11
152
21
94
0
LINE
5
DC
100
AcDbEntity
8
1
6
ByLayer
62
256
370
-1
100
AcDbLine
10
152
20
86.0000124884
11
150
21
86.0000124884
0
LINE
5
DD
100
AcDbEntity
8
1
6
ByLayer
62
256
370
-1
100
AcDbLine
10
149.999988
20
13.999998
11
151.999988
21
13.9999855116
0
LINE
5
DE
100
AcDbEntity
8
1
6
ByLayer
62
256
370
-1
100
AcDbLine
10
151.999988
20
5.999998
11
149.999988
21
5.999998
0
TEXT
5
DF
100
AcDbEntity
8
LAYOUT_TEXT
6
ByLayer
62
256
370
-1
100
AcDbText
10
91.15
20
-81.9999999998
30
0
40
2.8
1
2mm MILD STEEL SHEET
50
0
41
1
51
0
7
standard
71
0
72
1
11
91.15
21
-81.9999999998
31
0
210
0
220
0
230
1
100
AcDbText
73
2
0
TEXT
5
E0
100
AcDbEntity
8
LAYOUT_TEXT
6
ByLayer
62
256
370
-1
100
AcDbText
10
89.4
20
-95.3
30
0
40
2.8
1
POWDER COATING
50
0
41
1
51
0
7
standard
71
0
72
1
11
89.4
21
-95.3
31
0
210
0
220
0
230
1
100
AcDbText
73
2
0
TEXT
5
E1
100
AcDbEntity
8
LAYOUT_TEXT
6
ByLayer
62
256
370
-1
100
AcDbText
10
-57.3941813334
20
-81.3511839998
30
0
40
5.6
1
FLAMECUT CNC PLASMA TABLE
50
0
41
1
51
0
7
standard
71
0
72
1
11
-57.3941813334
21
-81.3511839998
31
0
210
0
220
0
230
1
100
AcDbText
73
2
0
TEXT
5
E2
100
AcDbEntity
8
LAYOUT_TEXT
6
ByLayer
62
256
370
-1
100
AcDbText
10
-57.9500000001
20
-92.9375
30
0
40
4.2
1
http://flamecut.marcelodelnero.com.br
50
0
41
1
51
0
7
standard
71
0
72
1
11
-57.9500000001
21
-92.9375
31
0
210
0
220
0
230
1
100
AcDbText
73
2
0
TEXT
5
E3
100
AcDbEntity
8
LAYOUT_TEXT
6
ByLayer
62
256
370
-1
100
AcDbText
10
252.109568
20
182.148416
30
0
40
2.8
1
001 - 07/03/14
50
0
41
1
51
0
7
standard
71
0
72
1
11
252.109568
21
182.148416
31
0
210
0
220
0
230
1
100
AcDbText
73
2
0
INSERT
5
E4
100
AcDbEntity
8
LAYOUT_BLOCK
6
ByLayer
62
256
370
-1
100
AcDbBlockReference
2
TITLE_BLOCK
10
-150
20
-110
30
0
41
1.4
42
1.4
43
0
50
0
70
1
71
1
44
1.4
45
1.4
0
TEXT
5
E5
100
AcDbEntity
8
LAYOUT_TEXT
6
ByLayer
62
256
370
-1
100
AcDbText
10
201.955818667
20
-81.7011839998
30
0
40
5.6
1
LEG CROSS SECTION PLATE
50
0
41
1
51
0
7
standard
71
0
72
1
11
201.955818667
21
-81.7011839998
31
0
210
0
220
0
230
1
100
AcDbText
73
2
0
TEXT
5
E6
100
AcDbEntity
8
LAYOUT_TEXT
6
ByLayer
62
256
370
-1
100
AcDbText
10
202.602842488
20
-95.213311283
30
0
40
5.6
1
LEG_XSECTION_PLATE
50
0
41
1
51
0
7
standard
71
0
72
1
11
202.602842488
21
-95.213311283
31
0
210
0
220
0
230
1
100
AcDbText
73
2
0
DIMENSION
5
E7
100
AcDbEntity
8
DIMENSION
6
ByLayer
62
256
370
-1
100
AcDbDimension
2
*D1
10
152
20
-15
30
0
11
147.903751617
21
-25.1818887451
31
0
70
32
71
5
3
Standard
53
0
210
0
220
0
230
1
100
AcDbAlignedDimension
13
150
23
-4
33
0
14
152
24
-4
34
0
100
AcDbRotatedDimension
0
CIRCLE
5
E8
100
AcDbEntity
8
0
6
ByLayer
62
256
370
-1
100
AcDbCircle
10
10
20
90
40
4
0
CIRCLE
5
E9
100
AcDbEntity
8
0
6
ByLayer
62
256
370
-1
100
AcDbCircle
10
40
20
90
40
4
0
LINE
5
EA
100
AcDbEntity
8
0
6
ByLayer
62
256
370
-1
100
AcDbLine
10
0
20
100
11
50
21
100
0
CIRCLE
5
EB
100
AcDbEntity
8
0
6
ByLayer
62
256
370
-1
100
AcDbCircle
10
10
20
10
40
4
0
CIRCLE
5
EC
100
AcDbEntity
8
0
6
ByLayer
62
256
370
-1
100
AcDbCircle
10
40
20
10
40
4
0
LINE
5
ED
100
AcDbEntity
8
0
6
ByLayer
62
256
370
-1
100
AcDbLine
10
50
20
0
11
0
21
0
0
LINE
5
EE
100
AcDbEntity
8
0
6
ByLayer
62
256
370
-1
100
AcDbLine
10
0
20
0
11
0
21
100
0
LINE
5
EF
100
AcDbEntity
8
0
6
ByLayer
62
256
370
-1
100
AcDbLine
10
50
20
100
11
50
21
0
0
DIMENSION
5
F0
100
AcDbEntity
8
DIMENSION
6
ByLayer
62
256
370
-1
100
AcDbDimension
2
*D2
10
-30
20
100
30
0
11
-34.625
21
50
31
0
70
32
71
5
3
Standard
53
0
210
0
220
0
230
1
100
AcDbAlignedDimension
13
-20
23
0
33
0
14
-20
24
100
34
0
50
90
100
AcDbRotatedDimension
0
DIMENSION
5
F1
100
AcDbEntity
8
DIMENSION
6
ByLayer
62
256
370
-1
100
AcDbDimension
2
*D3
10
50
20
130
30
0
11
25
21
134.625
31
0
70
32
71
5
3
Standard
53
0
210
0
220
0
230
1
100
AcDbAlignedDimension
13
0
23
120
33
0
14
50
24
120
34
0
100
AcDbRotatedDimension
0
DIMENSION
5
F2
100
AcDbEntity
8
DIMENSION
6
ByLayer
62
256
370
-1
100
AcDbDimension
2
*D4
10
40
20
70
30
0
11
25
21
74.625
31
0
70
32
71
5
3
Standard
53
0
210
0
220
0
230
1
100
AcDbAlignedDimension
13
10
23
80
33
0
14
40
24
80
34
0
100
AcDbRotatedDimension
0
DIMENSION
5
F3
100
AcDbEntity
8
DIMENSION
6
ByLayer
62
256
370
-1
100
AcDbDimension
2
*D5
10
70
20
90
30
0
11
65.375
21
95
31
0
70
32
71
5
3
Standard
53
0
210
0
220
0
230
1
100
AcDbAlignedDimension
13
60
23
100
33
0
14
60
24
90
34
0
50
90
100
AcDbRotatedDimension
0
DIMENSION
5
F4
100
AcDbEntity
8
DIMENSION
6
ByLayer
62
256
370
-1
100
AcDbDimension
2
*D6
10
44
20
25
30
0
11
40
21
29.625
31
0
70
32
71
5
3
Standard
53
0
210
0
220
0
230
1
100
AcDbAlignedDimension
13
36
23
20
33
0
14
44
24
20
34
0
100
AcDbRotatedDimension
0
ENDSEC
0
SECTION
2
OBJECTS
0
DICTIONARY
5
C
330
0
100
AcDbDictionary
281
1
3
ACAD_GROUP
350
D
0
DICTIONARY
5
D
330
C
100
AcDbDictionary
281
1
0
ENDSEC
0
EOF
