999
dxfrw 0.5.10
0
SECTION
2
HEADER
9
$ACADVER
1
AC1021
9
$HANDSEED
5
20000
9
$DWGCODEPAGE
3
ANSI_1252
9
$INSBASE
10
0
20
0
30
0
9
$EXTMIN
10
-394.209754198
20
-488.727882397
30
0
9
$EXTMAX
10
1636.3414269
20
966.390227838
30
0
9
$LIMMIN
10
-30
20
-20
9
$LIMMAX
10
30
20
20
9
$ORTHOMODE
70
0
9
$LTSCALE
40
1
9
$TEXTSTYLE
7
STANDARD
9
$CLAYER
8
DIMENSION
9
$DIMASZ
40
16
9
$DIMLFAC
40
1
9
$DIMSCALE
40
1
9
$DIMEXO
40
0.05
9
$DIMEXE
40
0.2
9
$DIMTXT
40
16
9
$DIMTSZ
40
0
9
$DIMAUNIT
70
0
9
$DIMADEC
70
0
9
$DIMLUNIT
70
2
9
$DIMSTYLE
2
STANDARD
9
$DIMGAP
40
0.09
9
$DIMTIH
70
0
9
$LUNITS
70
2
9
$LUPREC
70
4
9
$AUNITS
70
0
9
$AUPREC
70
0
9
$SPLINESEGS
70
8
9
$GRIDMODE
70
1
9
$SNAPSTYLE
70
0
9
$GRIDUNIT
10
0
20
0
9
$PINSBASE
10
69.5392758384
20
74.635614702
30
0
9
$PLIMMIN
10
0
20
0
9
$PLIMMAX
10
297
20
210
9
$INSUNITS
70
4
9
$PSVPSCALE
40
0.127137445888
0
ENDSEC
0
SECTION
2
CLASSES
0
ENDSEC
0
SECTION
2
TABLES
0
TABLE
2
VPORT
5
8
330
0
100
AcDbSymbolTable
70
1
0
VPORT
5
31
330
2
100
AcDbSymbolTableRecord
100
AcDbViewportTableRecord
2
*ACTIVE
70
0
10
0
20
0
11
1
21
1
12
614.14615371
22
181.297757553
13
0
23
0
14
10
24
10
15
10
25
10
16
0
26
0
36
1
17
0
27
0
37
0
40
611.124524417
41
2.01236093943
42
50
43
0
44
0
50
0
51
0
71
0
72
100
73
1
74
3
75
0
76
1
77
0
78
0
281
0
65
1
110
0
120
0
130
0
111
1
121
0
131
0
112
0
122
1
132
0
79
0
146
0
348
10020
60
7
61
5
292
1
282
1
141
0
142
0
63
250
421
3358443
0
ENDTAB
0
TABLE
2
LTYPE
5
5
330
0
100
AcDbSymbolTable
70
4
0
LTYPE
5
14
330
5
100
AcDbSymbolTableRecord
100
AcDbLinetypeTableRecord
2
ByBlock
70
0
3

72
65
73
0
40
0
0
LTYPE
5
15
330
5
100
AcDbSymbolTableRecord
100
AcDbLinetypeTableRecord
2
ByLayer
70
0
3

72
65
73
0
40
0
0
LTYPE
5
16
330
5
100
AcDbSymbolTableRecord
100
AcDbLinetypeTableRecord
2
Continuous
70
0
3
Solid line
72
65
73
0
40
0
0
LTYPE
5
32
330
5
100
AcDbSymbolTableRecord
100
AcDbLinetypeTableRecord
2
DOT
70
0
3
Dot . . . . . . . . . . . . . . . . . . . . . .
72
65
73
2
40
6.35
49
0
74
0
49
-6.35
74
0
0
LTYPE
5
33
330
5
100
AcDbSymbolTableRecord
100
AcDbLinetypeTableRecord
2
DOT2
70
0
3
Dot (.5x) .....................................
72
65
73
2
40
3.175
49
0
74
0
49
-3.175
74
0
0
LTYPE
5
34
330
5
100
AcDbSymbolTableRecord
100
AcDbLinetypeTableRecord
2
DOTX2
70
0
3
Dot (2x) .  .  .  .  .  .  .  .  .  .  .  .  .
72
65
73
2
40
12.7
49
0
74
0
49
-12.7
74
0
0
LTYPE
5
35
330
5
100
AcDbSymbolTableRecord
100
AcDbLinetypeTableRecord
2
DASHED
70
0
3
Dot . . . . . . . . . . . . . . . . . . . . . .
72
65
73
2
40
19.05
49
12.7
74
0
49
-6.35
74
0
0
LTYPE
5
36
330
5
100
AcDbSymbolTableRecord
100
AcDbLinetypeTableRecord
2
DASHED2
70
0
3
Dashed (.5x) _ _ _ _ _ _ _ _ _ _ _ _ _ _ _ _ _
72
65
73
2
40
9.525
49
6.35
74
0
49
-3.175
74
0
0
LTYPE
5
37
330
5
100
AcDbSymbolTableRecord
100
AcDbLinetypeTableRecord
2
DASHEDX2
70
0
3
Dashed (2x) ____  ____  ____  ____  ____  ___
72
65
73
2
40
38.1
49
25.4
74
0
49
-12.7
74
0
0
LTYPE
5
38
330
5
100
AcDbSymbolTableRecord
100
AcDbLinetypeTableRecord
2
DASHDOT
70
0
3
Dash dot __ . __ . __ . __ . __ . __ . __ . __
72
65
73
4
40
25.4
49
12.7
74
0
49
-6.35
74
0
49
0
74
0
49
-6.35
74
0
0
LTYPE
5
39
330
5
100
AcDbSymbolTableRecord
100
AcDbLinetypeTableRecord
2
DASHDOT2
70
0
3
Dash dot (.5x) _._._._._._._._._._._._._._._.
72
65
73
4
40
12.7
49
6.35
74
0
49
-3.175
74
0
49
0
74
0
49
-3.175
74
0
0
LTYPE
5
3A
330
5
100
AcDbSymbolTableRecord
100
AcDbLinetypeTableRecord
2
DASHDOTX2
70
0
3
Dash dot (2x) ____  .  ____  .  ____  .  ___
72
65
73
4
40
50.8
49
25.4
74
0
49
-12.7
74
0
49
0
74
0
49
-12.7
74
0
0
LTYPE
5
3B
330
5
100
AcDbSymbolTableRecord
100
AcDbLinetypeTableRecord
2
DIVIDE
70
0
3
Divide ____ . . ____ . . ____ . . ____ . . ____
72
65
73
6
40
31.75
49
12.7
74
0
49
-6.35
74
0
49
0
74
0
49
-6.35
74
0
49
0
74
0
49
-6.35
74
0
0
LTYPE
5
3C
330
5
100
AcDbSymbolTableRecord
100
AcDbLinetypeTableRecord
2
DIVIDE2
70
0
3
Divide (.5x) __..__..__..__..__..__..__..__.._
72
65
73
6
40
15.875
49
6.35
74
0
49
-3.175
74
0
49
0
74
0
49
-3.175
74
0
49
0
74
0
49
-3.175
74
0
0
LTYPE
5
3D
330
5
100
AcDbSymbolTableRecord
100
AcDbLinetypeTableRecord
2
DIVIDEX2
70
0
3
Divide (2x) ________  .  .  ________  .  .  _
72
65
73
6
40
63.5
49
25.4
74
0
49
-12.7
74
0
49
0
74
0
49
-12.7
74
0
49
0
74
0
49
-12.7
74
0
0
LTYPE
5
3E
330
5
100
AcDbSymbolTableRecord
100
AcDbLinetypeTableRecord
2
BORDER
70
0
3
Border __ __ . __ __ . __ __ . __ __ . __ __ .
72
65
73
6
40
44.45
49
12.7
74
0
49
-6.35
74
0
49
12.7
74
0
49
-6.35
74
0
49
0
74
0
49
-6.35
74
0
0
LTYPE
5
3F
330
5
100
AcDbSymbolTableRecord
100
AcDbLinetypeTableRecord
2
BORDER2
70
0
3
Border (.5x) __.__.__.__.__.__.__.__.__.__.__.
72
65
73
6
40
22.225
49
6.35
74
0
49
-3.175
74
0
49
6.35
74
0
49
-3.175
74
0
49
0
74
0
49
-3.175
74
0
0
LTYPE
5
40
330
5
100
AcDbSymbolTableRecord
100
AcDbLinetypeTableRecord
2
BORDERX2
70
0
3
Border (2x) ____  ____  .  ____  ____  .  ___
72
65
73
6
40
88.9
49
25.4
74
0
49
-12.7
74
0
49
25.4
74
0
49
-12.7
74
0
49
0
74
0
49
-12.7
74
0
0
LTYPE
5
41
330
5
100
AcDbSymbolTableRecord
100
AcDbLinetypeTableRecord
2
CENTER
70
0
3
Center ____ _ ____ _ ____ _ ____ _ ____ _ ____
72
65
73
4
40
50.8
49
31.75
74
0
49
-6.35
74
0
49
6.35
74
0
49
-6.35
74
0
0
LTYPE
5
42
330
5
100
AcDbSymbolTableRecord
100
AcDbLinetypeTableRecord
2
CENTER2
70
0
3
Center (.5x) ___ _ ___ _ ___ _ ___ _ ___ _ ___
72
65
73
4
40
28.575
49
19.05
74
0
49
-3.175
74
0
49
3.175
74
0
49
-3.175
74
0
0
LTYPE
5
43
330
5
100
AcDbSymbolTableRecord
100
AcDbLinetypeTableRecord
2
CENTERX2
70
0
3
Center (2x) ________  __  ________  __  _____
72
65
73
4
40
101.6
49
63.5
74
0
49
-12.7
74
0
49
12.7
74
0
49
-12.7
74
0
0
ENDTAB
0
TABLE
2
LAYER
5
2
330
0
100
AcDbSymbolTable
70
1
0
LAYER
5
10
330
2
100
AcDbSymbolTableRecord
100
AcDbLayerTableRecord
2
0
70
0
62
7
6
CONTINUOUS
370
30
390
F
0
LAYER
5
44
330
2
100
AcDbSymbolTableRecord
100
AcDbLayerTableRecord
2
LAYOUT_TEXT
70
0
62
7
6
CONTINUOUS
370
30
390
F
0
LAYER
5
45
330
2
100
AcDbSymbolTableRecord
100
AcDbLayerTableRecord
2
LAYOUT_BLOCK
70
0
62
7
6
CONTINUOUS
370
30
390
F
0
LAYER
5
46
330
2
100
AcDbSymbolTableRecord
100
AcDbLayerTableRecord
2
DIMENSION
70
0
62
5
6
CONTINUOUS
370
0
390
F
0
LAYER
5
47
330
2
100
AcDbSymbolTableRecord
100
AcDbLayerTableRecord
2
HELPER
70
0
62
1
6
DASHED2
370
0
390
F
0
ENDTAB
0
TABLE
2
STYLE
5
3
330
0
100
AcDbSymbolTable
70
3
0
STYLE
5
48
330
2
100
AcDbSymbolTableRecord
100
AcDbTextStyleTableRecord
2
standard
70
0
40
0
41
1
50
0
71
0
42
1
3
standard
4

0
ENDTAB
0
TABLE
2
VIEW
5
6
330
0
100
AcDbSymbolTable
70
0
0
ENDTAB
0
TABLE
2
UCS
5
7
330
0
100
AcDbSymbolTable
70
0
0
ENDTAB
0
TABLE
2
APPID
5
9
330
0
100
AcDbSymbolTable
70
1
0
APPID
5
12
330
9
100
AcDbSymbolTableRecord
100
AcDbRegAppTableRecord
2
ACAD
70
0
0
ENDTAB
0
TABLE
2
DIMSTYLE
5
A
330
0
100
AcDbSymbolTable
70
1
100
AcDbDimStyleTable
71
1
0
DIMSTYLE
105
49
330
A
100
AcDbSymbolTableRecord
100
AcDbDimStyleTableRecord
2
Standard
70
0
40
1
41
16
42
0.05
43
0.38
44
0.2
45
0
46
0
47
0
48
0
140
16
141
0.09
142
0
143
25.4
144
1
145
0
146
1
147
0.09
148
0
71
0
72
0
73
0
74
1
75
0
76
0
77
0
78
0
79
0
170
0
171
2
172
0
173
0
174
0
175
0
176
0
177
0
178
0
179
0
271
4
272
4
273
2
274
2
275
0
276
0
277
2
278
46
279
0
280
0
281
0
282
0
283
1
284
0
285
0
286
0
288
0
289
3
340
Standard
341

371
-2
372
-2
0
ENDTAB
0
TABLE
2
BLOCK_RECORD
5
1
330
0
100
AcDbSymbolTable
70
2
0
BLOCK_RECORD
5
1F
330
1
100
AcDbSymbolTableRecord
100
AcDbBlockTableRecord
2
*Model_Space
70
0
280
1
281
0
0
BLOCK_RECORD
5
1E
330
1
100
AcDbSymbolTableRecord
100
AcDbBlockTableRecord
2
*Paper_Space
70
0
280
1
281
0
0
BLOCK_RECORD
5
4A
330
1
100
AcDbSymbolTableRecord
100
AcDbBlockTableRecord
2
*D4
70
0
280
1
281
0
0
BLOCK_RECORD
5
4D
330
1
100
AcDbSymbolTableRecord
100
AcDbBlockTableRecord
2
*D3
70
0
280
1
281
0
0
BLOCK_RECORD
5
50
330
1
100
AcDbSymbolTableRecord
100
AcDbBlockTableRecord
2
*D2
70
0
280
1
281
0
0
BLOCK_RECORD
5
53
330
1
100
AcDbSymbolTableRecord
100
AcDbBlockTableRecord
2
*D7
70
0
280
1
281
0
0
BLOCK_RECORD
5
56
330
1
100
AcDbSymbolTableRecord
100
AcDbBlockTableRecord
2
*D1
70
0
280
1
281
0
0
BLOCK_RECORD
5
59
330
1
100
AcDbSymbolTableRecord
100
AcDbBlockTableRecord
2
*D6
70
0
280
1
281
0
0
BLOCK_RECORD
5
5C
330
1
100
AcDbSymbolTableRecord
100
AcDbBlockTableRecord
2
*D5
70
0
280
1
281
0
0
BLOCK_RECORD
5
5F
330
1
100
AcDbSymbolTableRecord
100
AcDbBlockTableRecord
2
SUPPORT_A
70
0
280
1
281
0
0
BLOCK_RECORD
5
62
330
1
100
AcDbSymbolTableRecord
100
AcDbBlockTableRecord
2
SUPPORT_B
70
0
280
1
281
0
0
BLOCK_RECORD
5
65
330
1
100
AcDbSymbolTableRecord
100
AcDbBlockTableRecord
2
TITLE_BLOCK
70
0
280
1
281
0
0
BLOCK_RECORD
5
68
330
1
100
AcDbSymbolTableRecord
100
AcDbBlockTableRecord
2
JUNCTION_DRILLING
70
0
280
1
281
0
0
BLOCK_RECORD
5
6B
330
1
100
AcDbSymbolTableRecord
100
AcDbBlockTableRecord
2
LEGS_DRILLING
70
0
280
1
281
0
0
ENDTAB
0
ENDSEC
0
SECTION
2
BLOCKS
0
BLOCK
5
20
330
1F
100
AcDbEntity
8
0
100
AcDbBlockBegin
2
*Model_Space
70
0
10
0
20
0
30
0
3
*Model_Space
1

0
ENDBLK
5
21
330
1F
100
AcDbEntity
8
0
100
AcDbBlockEnd
0
BLOCK
5
1C
330
1B
100
AcDbEntity
8
0
100
AcDbBlockBegin
2
*Paper_Space
70
0
10
0
20
0
30
0
3
*Paper_Space
1

0
ENDBLK
5
1D
330
1F
100
AcDbEntity
8
0
100
AcDbBlockEnd
0
BLOCK
5
4B
330
4A
100
AcDbEntity
8
0
100
AcDbBlockBegin
2
*D4
70
1
10
0
20
0
3
*D4
1

0
LINE
5
6E
100
AcDbEntity
8
DIMENSION
6
CONTINUOUS
62
7
370
0
100
AcDbLine
10
1300.30267406
20
575
11
1300.30267406
21
525
0
SOLID
5
6F
100
AcDbEntity
8
DIMENSION
6
CONTINUOUS
62
7
370
0
100
AcDbTrace
10
1300.30267406
20
575
30
0
11
1302.96689587
21
559
31
0
12
1297.63845225
22
559
32
0
13
1297.63845225
23
559
33
0
0
SOLID
5
70
100
AcDbEntity
8
DIMENSION
6
CONTINUOUS
62
7
370
0
100
AcDbTrace
10
1300.30267406
20
525
30
0
11
1297.63845225
21
541
31
0
12
1302.96689587
22
541
32
0
13
1302.96689587
23
541
33
0
0
MTEXT
5
71
100
AcDbEntity
8
DIMENSION
6
CONTINUOUS
62
7
370
0
100
AcDbMText
10
1321.08290281
20
550
30
0
40
16
41
19.5555555556
71
5
72
1
1
50
7
standard
210
0
220
0
230
1
50
90
73
2
44
1
0
LINE
5
72
100
AcDbEntity
8
DIMENSION
6
CONTINUOUS
62
7
370
0
100
AcDbLine
10
1271.13290281
20
575
11
1300.50267406
21
575
0
LINE
5
73
100
AcDbEntity
8
DIMENSION
6
CONTINUOUS
62
7
370
0
100
AcDbLine
10
1271.13290281
20
525
11
1300.50267406
21
525
0
ENDBLK
5
4C
330
4A
100
AcDbEntity
8
0
100
AcDbBlockEnd
0
BLOCK
5
4E
330
4D
100
AcDbEntity
8
0
100
AcDbBlockBegin
2
*D3
70
1
10
0
20
0
3
*D3
1

0
LINE
5
74
100
AcDbEntity
8
DIMENSION
6
CONTINUOUS
62
7
370
0
100
AcDbLine
10
1300.34645107
20
632
11
1300.34645107
21
543
0
SOLID
5
75
100
AcDbEntity
8
DIMENSION
6
CONTINUOUS
62
7
370
0
100
AcDbTrace
10
1300.34645107
20
600
30
0
11
1297.68222926
21
616
31
0
12
1303.01067288
22
616
32
0
13
1303.01067288
23
616
33
0
0
SOLID
5
76
100
AcDbEntity
8
DIMENSION
6
CONTINUOUS
62
7
370
0
100
AcDbTrace
10
1300.34645107
20
575
30
0
11
1303.01067288
21
559
31
0
12
1297.68222926
22
559
32
0
13
1297.68222926
23
559
33
0
0
MTEXT
5
77
100
AcDbEntity
8
DIMENSION
6
CONTINUOUS
62
7
370
0
100
AcDbMText
10
1321.08290281
20
587.5
30
0
40
16
41
19.5555555556
71
5
72
1
1
25
7
standard
210
0
220
0
230
1
50
90
73
2
44
1
0
LINE
5
78
100
AcDbEntity
8
DIMENSION
6
CONTINUOUS
62
7
370
0
100
AcDbLine
10
1271.06894182
20
600
11
1300.54645107
21
600
0
LINE
5
79
100
AcDbEntity
8
DIMENSION
6
CONTINUOUS
62
7
370
0
100
AcDbLine
10
1271.13290281
20
575
11
1300.54645107
21
575
0
ENDBLK
5
4F
330
4D
100
AcDbEntity
8
0
100
AcDbBlockEnd
0
BLOCK
5
51
330
50
100
AcDbEntity
8
0
100
AcDbBlockBegin
2
*D2
70
1
10
0
20
0
3
*D2
1

0
LINE
5
7A
100
AcDbEntity
8
DIMENSION
6
CONTINUOUS
62
7
370
0
100
AcDbLine
10
-32
20
709.952309053
11
57
21
709.952309053
0
SOLID
5
7B
100
AcDbEntity
8
DIMENSION
6
CONTINUOUS
62
7
370
0
100
AcDbTrace
10
0
20
709.952309053
30
0
11
-16
21
707.288087243
31
0
12
-16
22
712.616530863
32
0
13
-16
23
712.616530863
33
0
0
SOLID
5
7C
100
AcDbEntity
8
DIMENSION
6
CONTINUOUS
62
7
370
0
100
AcDbTrace
10
25
20
709.952309053
30
0
11
41
21
712.616530863
31
0
12
41
22
707.288087243
32
0
13
41
23
707.288087243
33
0
0
MTEXT
5
7D
100
AcDbEntity
8
DIMENSION
6
CONTINUOUS
62
7
370
0
100
AcDbMText
10
12.5
20
729.952309053
30
0
40
16
41
19.5555555556
71
5
72
1
1
25
7
standard
210
0
220
0
230
1
50
0
73
2
44
1
0
LINE
5
7E
100
AcDbEntity
8
DIMENSION
6
CONTINUOUS
62
7
370
0
100
AcDbLine
10
3.06151588456e-018
20
679.586013443
11
1.22460635382e-017
21
710.152309053
0
LINE
5
7F
100
AcDbEntity
8
DIMENSION
6
CONTINUOUS
62
7
370
0
100
AcDbLine
10
25
20
680.002309053
11
25
21
710.152309053
0
ENDBLK
5
52
330
50
100
AcDbEntity
8
0
100
AcDbBlockEnd
0
BLOCK
5
54
330
53
100
AcDbEntity
8
0
100
AcDbBlockBegin
2
*D7
70
1
10
0
20
0
3
*D7
1

0
LINE
5
80
100
AcDbEntity
8
DIMENSION
6
CONTINUOUS
62
7
370
0
100
AcDbLine
10
0
20
-43.0375617495
11
1252
21
-43.0375617495
0
SOLID
5
81
100
AcDbEntity
8
DIMENSION
6
CONTINUOUS
62
7
370
0
100
AcDbTrace
10
0
20
-43.0375617495
30
0
11
16
21
-40.3733399398
31
0
12
16
22
-45.7017835592
32
0
13
16
23
-45.7017835592
33
0
0
SOLID
5
82
100
AcDbEntity
8
DIMENSION
6
CONTINUOUS
62
7
370
0
100
AcDbTrace
10
1252
20
-43.0375617495
30
0
11
1236
21
-45.7017835592
31
0
12
1236
22
-40.3733399398
32
0
13
1236
23
-40.3733399398
33
0
0
MTEXT
5
83
100
AcDbEntity
8
DIMENSION
6
CONTINUOUS
62
7
370
0
100
AcDbMText
10
626
20
-60
30
0
40
16
41
40.8888888889
71
5
72
1
1
1252
7
standard
210
0
220
0
230
1
50
0
73
2
44
1
0
LINE
5
84
100
AcDbEntity
8
DIMENSION
6
CONTINUOUS
62
7
370
0
100
AcDbLine
10
-9.18454765367e-018
20
-10.05
11
-3.67381906147e-017
21
-43.2375617495
0
LINE
5
85
100
AcDbEntity
8
DIMENSION
6
CONTINUOUS
62
7
370
0
100
AcDbLine
10
1252
20
-10.05
11
1252
21
-43.2375617495
0
ENDBLK
5
55
330
53
100
AcDbEntity
8
0
100
AcDbBlockEnd
0
BLOCK
5
57
330
56
100
AcDbEntity
8
0
100
AcDbBlockBegin
2
*D1
70
1
10
0
20
0
3
*D1
1

0
LINE
5
86
100
AcDbEntity
8
DIMENSION
6
CONTINUOUS
62
7
370
0
100
AcDbLine
10
25
20
709.952309053
11
75
21
709.952309053
0
SOLID
5
87
100
AcDbEntity
8
DIMENSION
6
CONTINUOUS
62
7
370
0
100
AcDbTrace
10
25
20
709.952309053
30
0
11
41
21
712.616530863
31
0
12
41
22
707.288087243
32
0
13
41
23
707.288087243
33
0
0
SOLID
5
88
100
AcDbEntity
8
DIMENSION
6
CONTINUOUS
62
7
370
0
100
AcDbTrace
10
75
20
709.952309053
30
0
11
59
21
707.288087243
31
0
12
59
22
712.616530863
32
0
13
59
23
712.616530863
33
0
0
MTEXT
5
89
100
AcDbEntity
8
DIMENSION
6
CONTINUOUS
62
7
370
0
100
AcDbMText
10
50
20
729.952309053
30
0
40
16
41
19.5555555556
71
5
72
1
1
50
7
standard
210
0
220
0
230
1
50
0
73
2
44
1
0
LINE
5
8A
100
AcDbEntity
8
DIMENSION
6
CONTINUOUS
62
7
370
0
100
AcDbLine
10
25
20
680.002309053
11
25
21
710.152309053
0
LINE
5
8B
100
AcDbEntity
8
DIMENSION
6
CONTINUOUS
62
7
370
0
100
AcDbLine
10
75
20
680.002309053
11
75
21
710.152309053
0
ENDBLK
5
58
330
56
100
AcDbEntity
8
0
100
AcDbBlockEnd
0
BLOCK
5
5A
330
59
100
AcDbEntity
8
0
100
AcDbBlockBegin
2
*D6
70
1
10
0
20
0
3
*D6
1

0
LINE
5
8C
100
AcDbEntity
8
DIMENSION
6
CONTINUOUS
62
7
370
0
100
AcDbLine
10
1300
20
349.999999997
11
1300
21
249.999999997
0
SOLID
5
8D
100
AcDbEntity
8
DIMENSION
6
CONTINUOUS
62
7
370
0
100
AcDbTrace
10
1300
20
349.999999997
30
0
11
1302.66422181
21
333.999999997
31
0
12
1297.33577819
22
333.999999997
32
0
13
1297.33577819
23
333.999999997
33
0
0
SOLID
5
8E
100
AcDbEntity
8
DIMENSION
6
CONTINUOUS
62
7
370
0
100
AcDbTrace
10
1300
20
249.999999997
30
0
11
1297.33577819
21
265.999999997
31
0
12
1302.66422181
22
265.999999997
32
0
13
1302.66422181
23
265.999999997
33
0
0
MTEXT
5
8F
100
AcDbEntity
8
DIMENSION
6
CONTINUOUS
62
7
370
0
100
AcDbMText
10
1320
20
299.999999997
30
0
40
16
41
28.4444444444
71
5
72
1
1
100
7
standard
210
0
220
0
230
1
50
90
73
2
44
1
0
LINE
5
90
100
AcDbEntity
8
DIMENSION
6
CONTINUOUS
62
7
370
0
100
AcDbLine
10
1270.05
20
349.999999997
11
1300.2
21
349.999999997
0
LINE
5
91
100
AcDbEntity
8
DIMENSION
6
CONTINUOUS
62
7
370
0
100
AcDbLine
10
1270.05
20
249.999999997
11
1300.2
21
249.999999997
0
ENDBLK
5
5B
330
59
100
AcDbEntity
8
0
100
AcDbBlockEnd
0
BLOCK
5
5D
330
5C
100
AcDbEntity
8
0
100
AcDbBlockBegin
2
*D5
70
1
10
0
20
0
3
*D5
1

0
LINE
5
92
100
AcDbEntity
8
DIMENSION
6
CONTINUOUS
62
7
370
0
100
AcDbLine
10
1300.53285462
20
557
11
1300.53285462
21
468
0
SOLID
5
93
100
AcDbEntity
8
DIMENSION
6
CONTINUOUS
62
7
370
0
100
AcDbTrace
10
1300.53285462
20
525
30
0
11
1297.86863281
21
541
31
0
12
1303.19707643
22
541
32
0
13
1303.19707643
23
541
33
0
0
SOLID
5
94
100
AcDbEntity
8
DIMENSION
6
CONTINUOUS
62
7
370
0
100
AcDbTrace
10
1300.53285462
20
500
30
0
11
1303.19707643
21
484
31
0
12
1297.86863281
22
484
32
0
13
1297.86863281
23
484
33
0
0
MTEXT
5
95
100
AcDbEntity
8
DIMENSION
6
CONTINUOUS
62
7
370
0
100
AcDbMText
10
1321.08290281
20
512.5
30
0
40
16
41
19.5555555556
71
5
72
1
1
25
7
standard
210
0
220
0
230
1
50
90
73
2
44
1
0
LINE
5
96
100
AcDbEntity
8
DIMENSION
6
CONTINUOUS
62
7
370
0
100
AcDbLine
10
1271.13290281
20
525
11
1300.73285462
21
525
0
LINE
5
97
100
AcDbEntity
8
DIMENSION
6
CONTINUOUS
62
7
370
0
100
AcDbLine
10
1271.06894182
20
500
11
1300.73285462
21
500
0
ENDBLK
5
5E
330
5C
100
AcDbEntity
8
0
100
AcDbBlockEnd
0
BLOCK
5
60
330
5F
100
AcDbEntity
8
0
100
AcDbBlockBegin
2
SUPPORT_A
70
0
10
0
20
0
3
SUPPORT_A
1

0
ENDBLK
5
61
330
5F
100
AcDbEntity
8
0
100
AcDbBlockEnd
0
BLOCK
5
63
330
62
100
AcDbEntity
8
0
100
AcDbBlockBegin
2
SUPPORT_B
70
0
10
0
20
0
3
SUPPORT_B
1

0
HATCH
5
98
100
AcDbEntity
8
0
6
ByLayer
62
256
370
-1
100
AcDbHatch
10
0
20
0
30
0
210
0
220
0
230
1
2
ansi31
70
0
71
0
91
1
92
0
93
4
72
1
10
-4
20
-10.5
11
4
21
-10.5
72
1
10
4
20
-10.5
11
4
21
-12.5
72
1
10
4
20
-12.5
11
-4
21
-12.5
72
1
10
-4
20
-12.5
11
-4
21
-10.5
97
0
75
0
76
1
52
0
41
0.8
77
0
78
0
98
0
0
LINE
5
99
100
AcDbEntity
8
0
6
ByLayer
62
256
370
-1
100
AcDbLine
10
-4
20
-10.5
11
4
21
-10.5
0
LINE
5
9A
100
AcDbEntity
8
0
6
ByLayer
62
256
370
-1
100
AcDbLine
10
4
20
-10.5
11
4
21
-12.5
0
LINE
5
9B
100
AcDbEntity
8
0
6
ByLayer
62
256
370
-1
100
AcDbLine
10
4
20
-12.5
11
-4
21
-12.5
0
ENDBLK
5
64
330
62
100
AcDbEntity
8
0
100
AcDbBlockEnd
0
BLOCK
5
66
330
65
100
AcDbEntity
8
0
100
AcDbBlockBegin
2
TITLE_BLOCK
70
0
10
0
20
0
3
TITLE_BLOCK
1

0
LINE
5
9C
100
AcDbEntity
8
LAYOUT_BLOCK
6
ByLayer
62
256
370
-1
100
AcDbLine
10
0
20
8.66141732283
11
0
21
0
0
LINE
5
9D
100
AcDbEntity
8
LAYOUT_BLOCK
6
ByLayer
62
256
370
-1
100
AcDbLine
10
0.196850393701
20
8.46456692913
11
0.196850393701
21
0.196850393701
0
LINE
5
9E
100
AcDbEntity
8
LAYOUT_BLOCK
6
ByLayer
62
256
370
-1
100
AcDbLine
10
11.8897637795
20
0.196850393701
11
11.8897637795
21
8.46456692913
0
LINE
5
9F
100
AcDbEntity
8
LAYOUT_BLOCK
6
ByLayer
62
256
370
-1
100
AcDbLine
10
12.0866141732
20
0
11
12.0866141732
21
8.66141732283
0
LINE
5
A0
100
AcDbEntity
8
LAYOUT_BLOCK
6
ByLayer
62
256
370
-1
100
AcDbLine
10
0.196850393701
20
0.196850393701
11
11.8897637795
21
0.196850393701
0
LINE
5
A1
100
AcDbEntity
8
LAYOUT_BLOCK
6
ByLayer
62
256
370
-1
100
AcDbLine
10
0
20
0
11
12.0866141732
21
0
0
LINE
5
A2
100
AcDbEntity
8
LAYOUT_BLOCK
6
ByLayer
62
256
370
-1
100
AcDbLine
10
12.0866141732
20
8.66141732283
11
0
21
8.66141732283
0
LINE
5
A3
100
AcDbEntity
8
LAYOUT_BLOCK
6
ByLayer
62
256
370
-1
100
AcDbLine
10
11.8897637795
20
8.46456692913
11
0.196850393701
21
8.46456692913
0
LINE
5
A4
100
AcDbEntity
8
LAYOUT_BLOCK
6
ByLayer
62
256
370
-1
100
AcDbLine
10
1.65846456693
20
8.46456692913
11
1.65846456693
21
8.66141732283
0
LINE
5
A5
100
AcDbEntity
8
LAYOUT_BLOCK
6
ByLayer
62
256
370
-1
100
AcDbLine
10
3.12007874016
20
8.46456692913
11
3.12007874016
21
8.66141732283
0
LINE
5
A6
100
AcDbEntity
8
LAYOUT_BLOCK
6
ByLayer
62
256
370
-1
100
AcDbLine
10
4.58169291339
20
8.46456692913
11
4.58169291339
21
8.66141732283
0
LINE
5
A7
100
AcDbEntity
8
LAYOUT_BLOCK
6
ByLayer
62
256
370
-1
100
AcDbLine
10
6.04330708661
20
8.46456692913
11
6.04330708661
21
8.66141732283
0
LINE
5
A8
100
AcDbEntity
8
LAYOUT_BLOCK
6
ByLayer
62
256
370
-1
100
AcDbLine
10
7.50492125984
20
8.46456692913
11
7.50492125984
21
8.66141732283
0
LINE
5
A9
100
AcDbEntity
8
LAYOUT_BLOCK
6
ByLayer
62
256
370
-1
100
AcDbLine
10
8.96653543307
20
8.46456692913
11
8.96653543307
21
8.66141732283
0
LINE
5
AA
100
AcDbEntity
8
LAYOUT_BLOCK
6
ByLayer
62
256
370
-1
100
AcDbLine
10
10.4281496063
20
8.46456692913
11
10.4281496063
21
8.66141732283
0
LINE
5
AB
100
AcDbEntity
8
LAYOUT_BLOCK
6
ByLayer
62
256
370
-1
100
AcDbLine
10
0.196850393701
20
4.33070866142
11
0
21
4.33070866142
0
LINE
5
AC
100
AcDbEntity
8
LAYOUT_BLOCK
6
ByLayer
62
256
370
-1
100
AcDbLine
10
0.196850393701
20
5.36417322835
11
0
21
5.36417322835
0
LINE
5
AD
100
AcDbEntity
8
LAYOUT_BLOCK
6
ByLayer
62
256
370
-1
100
AcDbLine
10
0.196850393701
20
6.39763779528
11
0
21
6.39763779528
0
LINE
5
AE
100
AcDbEntity
8
LAYOUT_BLOCK
6
ByLayer
62
256
370
-1
100
AcDbLine
10
0.196850393701
20
7.4311023622
11
0
21
7.4311023622
0
LINE
5
AF
100
AcDbEntity
8
LAYOUT_BLOCK
6
ByLayer
62
256
370
-1
100
AcDbLine
10
0.196850393701
20
3.29724409449
11
0
21
3.29724409449
0
LINE
5
B0
100
AcDbEntity
8
LAYOUT_BLOCK
6
ByLayer
62
256
370
-1
100
AcDbLine
10
0.196850393701
20
2.26377952756
11
0
21
2.26377952756
0
LINE
5
B1
100
AcDbEntity
8
LAYOUT_BLOCK
6
ByLayer
62
256
370
-1
100
AcDbLine
10
0.196850393701
20
1.23031496063
11
0
21
1.23031496063
0
TEXT
5
B2
100
AcDbEntity
8
LAYOUT_BLOCK
6
ByLayer
62
256
370
-1
100
AcDbText
10
0.0984251968504
20
0.713582677165
30
0
40
0.11811023622
1
A
50
0
41
1
51
0
7
standard
71
0
72
1
11
0.0984251968504
21
0.713582677165
31
0
210
0
220
0
230
1
100
AcDbText
73
2
0
TEXT
5
B3
100
AcDbEntity
8
LAYOUT_BLOCK
6
ByLayer
62
256
370
-1
100
AcDbText
10
0.0984251968504
20
1.74704724409
30
0
40
0.11811023622
1
B
50
0
41
1
51
0
7
standard
71
0
72
1
11
0.0984251968504
21
1.74704724409
31
0
210
0
220
0
230
1
100
AcDbText
73
2
0
TEXT
5
B4
100
AcDbEntity
8
LAYOUT_BLOCK
6
ByLayer
62
256
370
-1
100
AcDbText
10
0.0984251968504
20
2.78051181102
30
0
40
0.11811023622
1
C
50
0
41
1
51
0
7
standard
71
0
72
1
11
0.0984251968504
21
2.78051181102
31
0
210
0
220
0
230
1
100
AcDbText
73
2
0
TEXT
5
B5
100
AcDbEntity
8
LAYOUT_BLOCK
6
ByLayer
62
256
370
-1
100
AcDbText
10
0.0984251968504
20
3.81397637795
30
0
40
0.11811023622
1
D
50
0
41
1
51
0
7
standard
71
0
72
1
11
0.0984251968504
21
3.81397637795
31
0
210
0
220
0
230
1
100
AcDbText
73
2
0
TEXT
5
B6
100
AcDbEntity
8
LAYOUT_BLOCK
6
ByLayer
62
256
370
-1
100
AcDbText
10
0.0984251968504
20
4.84744094488
30
0
40
0.11811023622
1
E
50
0
41
1
51
0
7
standard
71
0
72
1
11
0.0984251968504
21
4.84744094488
31
0
210
0
220
0
230
1
100
AcDbText
73
2
0
TEXT
5
B7
100
AcDbEntity
8
LAYOUT_BLOCK
6
ByLayer
62
256
370
-1
100
AcDbText
10
0.0984251968504
20
5.88090551181
30
0
40
0.11811023622
1
F
50
0
41
1
51
0
7
standard
71
0
72
1
11
0.0984251968504
21
5.88090551181
31
0
210
0
220
0
230
1
100
AcDbText
73
2
0
TEXT
5
B8
100
AcDbEntity
8
LAYOUT_BLOCK
6
ByLayer
62
256
370
-1
100
AcDbText
10
0.0984251968504
20
6.91437007874
30
0
40
0.11811023622
1
G
50
0
41
1
51
0
7
standard
71
0
72
1
11
0.0984251968504
21
6.91437007874
31
0
210
0
220
0
230
1
100
AcDbText
73
2
0
TEXT
5
B9
100
AcDbEntity
8
LAYOUT_BLOCK
6
ByLayer
62
256
370
-1
100
AcDbText
10
0.0984251968504
20
7.94783464567
30
0
40
0.11811023622
1
H
50
0
41
1
51
0
7
standard
71
0
72
1
11
0.0984251968504
21
7.94783464567
31
0
210
0
220
0
230
1
100
AcDbText
73
2
0
TEXT
5
BA
100
AcDbEntity
8
LAYOUT_BLOCK
6
ByLayer
62
256
370
-1
100
AcDbText
10
0.927657480315
20
8.56299212598
30
0
40
0.11811023622
1
1
50
0
41
1
51
0
7
standard
71
0
72
1
11
0.927657480315
21
8.56299212598
31
0
210
0
220
0
230
1
100
AcDbText
73
2
0
TEXT
5
BB
100
AcDbEntity
8
LAYOUT_BLOCK
6
ByLayer
62
256
370
-1
100
AcDbText
10
2.38927165354
20
8.56299212598
30
0
40
0.11811023622
1
2
50
0
41
1
51
0
7
standard
71
0
72
1
11
2.38927165354
21
8.56299212598
31
0
210
0
220
0
230
1
100
AcDbText
73
2
0
TEXT
5
BC
100
AcDbEntity
8
LAYOUT_BLOCK
6
ByLayer
62
256
370
-1
100
AcDbText
10
3.85088582677
20
8.56299212598
30
0
40
0.11811023622
1
3
50
0
41
1
51
0
7
standard
71
0
72
1
11
3.85088582677
21
8.56299212598
31
0
210
0
220
0
230
1
100
AcDbText
73
2
0
TEXT
5
BD
100
AcDbEntity
8
LAYOUT_BLOCK
6
ByLayer
62
256
370
-1
100
AcDbText
10
5.3125
20
8.56299212598
30
0
40
0.11811023622
1
4
50
0
41
1
51
0
7
standard
71
0
72
1
11
5.3125
21
8.56299212598
31
0
210
0
220
0
230
1
100
AcDbText
73
2
0
TEXT
5
BE
100
AcDbEntity
8
LAYOUT_BLOCK
6
ByLayer
62
256
370
-1
100
AcDbText
10
6.77411417323
20
8.56299212598
30
0
40
0.11811023622
1
5
50
0
41
1
51
0
7
standard
71
0
72
1
11
6.77411417323
21
8.56299212598
31
0
210
0
220
0
230
1
100
AcDbText
73
2
0
TEXT
5
BF
100
AcDbEntity
8
LAYOUT_BLOCK
6
ByLayer
62
256
370
-1
100
AcDbText
10
8.23572834646
20
8.56299212598
30
0
40
0.11811023622
1
6
50
0
41
1
51
0
7
standard
71
0
72
1
11
8.23572834646
21
8.56299212598
31
0
210
0
220
0
230
1
100
AcDbText
73
2
0
TEXT
5
C0
100
AcDbEntity
8
LAYOUT_BLOCK
6
ByLayer
62
256
370
-1
100
AcDbText
10
9.69734251969
20
8.56299212598
30
0
40
0.11811023622
1
7
50
0
41
1
51
0
7
standard
71
0
72
1
11
9.69734251969
21
8.56299212598
31
0
210
0
220
0
230
1
100
AcDbText
73
2
0
TEXT
5
C1
100
AcDbEntity
8
LAYOUT_BLOCK
6
ByLayer
62
256
370
-1
100
AcDbText
10
11.1589566929
20
8.56299212598
30
0
40
0.11811023622
1
8
50
0
41
1
51
0
7
standard
71
0
72
1
11
11.1589566929
21
8.56299212598
31
0
210
0
220
0
230
1
100
AcDbText
73
2
0
LINE
5
C2
100
AcDbEntity
8
LAYOUT_BLOCK
6
ByLayer
62
256
370
-1
100
AcDbLine
10
12.0866141732
20
4.33070866142
11
11.8897637795
21
4.33070866142
0
LINE
5
C3
100
AcDbEntity
8
LAYOUT_BLOCK
6
ByLayer
62
256
370
-1
100
AcDbLine
10
12.0866141732
20
5.36417322835
11
11.8897637795
21
5.36417322835
0
LINE
5
C4
100
AcDbEntity
8
LAYOUT_BLOCK
6
ByLayer
62
256
370
-1
100
AcDbLine
10
12.0866141732
20
6.39763779528
11
11.8897637795
21
6.39763779528
0
LINE
5
C5
100
AcDbEntity
8
LAYOUT_BLOCK
6
ByLayer
62
256
370
-1
100
AcDbLine
10
12.0866141732
20
7.4311023622
11
11.8897637795
21
7.4311023622
0
LINE
5
C6
100
AcDbEntity
8
LAYOUT_BLOCK
6
ByLayer
62
256
370
-1
100
AcDbLine
10
12.0866141732
20
3.29724409449
11
11.8897637795
21
3.29724409449
0
LINE
5
C7
100
AcDbEntity
8
LAYOUT_BLOCK
6
ByLayer
62
256
370
-1
100
AcDbLine
10
12.0866141732
20
2.26377952756
11
11.8897637795
21
2.26377952756
0
LINE
5
C8
100
AcDbEntity
8
LAYOUT_BLOCK
6
ByLayer
62
256
370
-1
100
AcDbLine
10
12.0866141732
20
1.23031496063
11
11.8897637795
21
1.23031496063
0
TEXT
5
C9
100
AcDbEntity
8
LAYOUT_BLOCK
6
ByLayer
62
256
370
-1
100
AcDbText
10
11.9881889764
20
0.713582677165
30
0
40
0.11811023622
1
A
50
0
41
1
51
0
7
standard
71
0
72
1
11
11.9881889764
21
0.713582677165
31
0
210
0
220
0
230
1
100
AcDbText
73
2
0
TEXT
5
CA
100
AcDbEntity
8
LAYOUT_BLOCK
6
ByLayer
62
256
370
-1
100
AcDbText
10
11.9881889764
20
1.74704724409
30
0
40
0.11811023622
1
B
50
0
41
1
51
0
7
standard
71
0
72
1
11
11.9881889764
21
1.74704724409
31
0
210
0
220
0
230
1
100
AcDbText
73
2
0
TEXT
5
CB
100
AcDbEntity
8
LAYOUT_BLOCK
6
ByLayer
62
256
370
-1
100
AcDbText
10
11.9881889764
20
2.78051181102
30
0
40
0.11811023622
1
C
50
0
41
1
51
0
7
standard
71
0
72
1
11
11.9881889764
21
2.78051181102
31
0
210
0
220
0
230
1
100
AcDbText
73
2
0
TEXT
5
CC
100
AcDbEntity
8
LAYOUT_BLOCK
6
ByLayer
62
256
370
-1
100
AcDbText
10
11.9881889764
20
3.81397637795
30
0
40
0.11811023622
1
D
50
0
41
1
51
0
7
standard
71
0
72
1
11
11.9881889764
21
3.81397637795
31
0
210
0
220
0
230
1
100
AcDbText
73
2
0
TEXT
5
CD
100
AcDbEntity
8
LAYOUT_BLOCK
6
ByLayer
62
256
370
-1
100
AcDbText
10
11.9881889764
20
4.84744094488
30
0
40
0.11811023622
1
E
50
0
41
1
51
0
7
standard
71
0
72
1
11
11.9881889764
21
4.84744094488
31
0
210
0
220
0
230
1
100
AcDbText
73
2
0
TEXT
5
CE
100
AcDbEntity
8
LAYOUT_BLOCK
6
ByLayer
62
256
370
-1
100
AcDbText
10
11.9881889764
20
5.88090551181
30
0
40
0.11811023622
1
F
50
0
41
1
51
0
7
standard
71
0
72
1
11
11.9881889764
21
5.88090551181
31
0
210
0
220
0
230
1
100
AcDbText
73
2
0
TEXT
5
CF
100
AcDbEntity
8
LAYOUT_BLOCK
6
ByLayer
62
256
370
-1
100
AcDbText
10
11.9881889764
20
6.91437007874
30
0
40
0.11811023622
1
G
50
0
41
1
51
0
7
standard
71
0
72
1
11
11.9881889764
21
6.91437007874
31
0
210
0
220
0
230
1
100
AcDbText
73
2
0
TEXT
5
D0
100
AcDbEntity
8
LAYOUT_BLOCK
6
ByLayer
62
256
370
-1
100
AcDbText
10
11.9881889764
20
7.94783464567
30
0
40
0.11811023622
1
H
50
0
41
1
51
0
7
standard
71
0
72
1
11
11.9881889764
21
7.94783464567
31
0
210
0
220
0
230
1
100
AcDbText
73
2
0
LINE
5
D1
100
AcDbEntity
8
LAYOUT_BLOCK
6
ByLayer
62
256
370
-1
100
AcDbLine
10
1.65846456693
20
0
11
1.65846456693
21
0.196850393701
0
LINE
5
D2
100
AcDbEntity
8
LAYOUT_BLOCK
6
ByLayer
62
256
370
-1
100
AcDbLine
10
3.12007874016
20
0
11
3.12007874016
21
0.196850393701
0
LINE
5
D3
100
AcDbEntity
8
LAYOUT_BLOCK
6
ByLayer
62
256
370
-1
100
AcDbLine
10
4.58169291339
20
0
11
4.58169291339
21
0.196850393701
0
LINE
5
D4
100
AcDbEntity
8
LAYOUT_BLOCK
6
ByLayer
62
256
370
-1
100
AcDbLine
10
6.04330708661
20
0
11
6.04330708661
21
0.196850393701
0
LINE
5
D5
100
AcDbEntity
8
LAYOUT_BLOCK
6
ByLayer
62
256
370
-1
100
AcDbLine
10
7.50492125984
20
0
11
7.50492125984
21
0.196850393701
0
LINE
5
D6
100
AcDbEntity
8
LAYOUT_BLOCK
6
ByLayer
62
256
370
-1
100
AcDbLine
10
8.96653543307
20
0
11
8.96653543307
21
0.196850393701
0
LINE
5
D7
100
AcDbEntity
8
LAYOUT_BLOCK
6
ByLayer
62
256
370
-1
100
AcDbLine
10
10.4281496063
20
0
11
10.4281496063
21
0.196850393701
0
TEXT
5
D8
100
AcDbEntity
8
LAYOUT_BLOCK
6
ByLayer
62
256
370
-1
100
AcDbText
10
0.927657480315
20
0.0984251968504
30
0
40
0.11811023622
1
1
50
0
41
1
51
0
7
standard
71
0
72
1
11
0.927657480315
21
0.0984251968504
31
0
210
0
220
0
230
1
100
AcDbText
73
2
0
TEXT
5
D9
100
AcDbEntity
8
LAYOUT_BLOCK
6
ByLayer
62
256
370
-1
100
AcDbText
10
2.38927165354
20
0.0984251968504
30
0
40
0.11811023622
1
2
50
0
41
1
51
0
7
standard
71
0
72
1
11
2.38927165354
21
0.0984251968504
31
0
210
0
220
0
230
1
100
AcDbText
73
2
0
TEXT
5
DA
100
AcDbEntity
8
LAYOUT_BLOCK
6
ByLayer
62
256
370
-1
100
AcDbText
10
3.85088582677
20
0.0984251968504
30
0
40
0.11811023622
1
3
50
0
41
1
51
0
7
standard
71
0
72
1
11
3.85088582677
21
0.0984251968504
31
0
210
0
220
0
230
1
100
AcDbText
73
2
0
TEXT
5
DB
100
AcDbEntity
8
LAYOUT_BLOCK
6
ByLayer
62
256
370
-1
100
AcDbText
10
5.3125
20
0.0984251968504
30
0
40
0.11811023622
1
4
50
0
41
1
51
0
7
standard
71
0
72
1
11
5.3125
21
0.0984251968504
31
0
210
0
220
0
230
1
100
AcDbText
73
2
0
TEXT
5
DC
100
AcDbEntity
8
LAYOUT_BLOCK
6
ByLayer
62
256
370
-1
100
AcDbText
10
6.77411417323
20
0.0984251968504
30
0
40
0.11811023622
1
5
50
0
41
1
51
0
7
standard
71
0
72
1
11
6.77411417323
21
0.0984251968504
31
0
210
0
220
0
230
1
100
AcDbText
73
2
0
TEXT
5
DD
100
AcDbEntity
8
LAYOUT_BLOCK
6
ByLayer
62
256
370
-1
100
AcDbText
10
8.23572834646
20
0.0984251968504
30
0
40
0.11811023622
1
6
50
0
41
1
51
0
7
standard
71
0
72
1
11
8.23572834646
21
0.0984251968504
31
0
210
0
220
0
230
1
100
AcDbText
73
2
0
TEXT
5
DE
100
AcDbEntity
8
LAYOUT_BLOCK
6
ByLayer
62
256
370
-1
100
AcDbText
10
9.69734251969
20
0.0984251968504
30
0
40
0.11811023622
1
7
50
0
41
1
51
0
7
standard
71
0
72
1
11
9.69734251969
21
0.0984251968504
31
0
210
0
220
0
230
1
100
AcDbText
73
2
0
TEXT
5
DF
100
AcDbEntity
8
LAYOUT_BLOCK
6
ByLayer
62
256
370
-1
100
AcDbText
10
11.1589566929
20
0.0984251968504
30
0
40
0.11811023622
1
8
50
0
41
1
51
0
7
standard
71
0
72
1
11
11.1589566929
21
0.0984251968504
31
0
210
0
220
0
230
1
100
AcDbText
73
2
0
LINE
5
E0
100
AcDbEntity
8
LAYOUT_BLOCK
6
ByLayer
62
256
370
-1
100
AcDbLine
10
7.95275590551
20
0.196850393701
11
7.95275590551
21
0.984251968504
0
TEXT
5
E1
100
AcDbEntity
8
LAYOUT_BLOCK
6
ByLayer
62
256
370
-1
100
AcDbText
10
7.99212598425
20
0.944881889764
30
0
40
0.0787401574803
1
TITLE:
50
0
41
1
51
0
7
standard
71
0
11
7.99212598425
21
0.944881889764
31
0
210
0
220
0
230
1
100
AcDbText
73
3
0
TEXT
5
E2
100
AcDbEntity
8
LAYOUT_BLOCK
6
ByLayer
62
256
370
-1
100
AcDbText
10
7.99212598425
20
0.551181102362
30
0
40
0.0787401574803
1
PART:
50
0
41
1
51
0
7
standard
71
0
11
7.99212598425
21
0.551181102362
31
0
210
0
220
0
230
1
100
AcDbText
73
3
0
LINE
5
E3
100
AcDbEntity
8
LAYOUT_BLOCK
6
ByLayer
62
256
370
-1
100
AcDbLine
10
5.1968503937
20
0.984251968504
11
5.1968503937
21
0.196850393701
0
LINE
5
E4
100
AcDbEntity
8
LAYOUT_BLOCK
6
ByLayer
62
256
370
-1
100
AcDbLine
10
5.1968503937
20
0.590551181102
11
11.8897637795
21
0.590551181102
0
TEXT
5
E5
100
AcDbEntity
8
LAYOUT_BLOCK
6
ByLayer
62
256
370
-1
100
AcDbText
10
5.23622047244
20
0.944881889764
30
0
40
0.0787401574803
1
MATERIAL:
50
0
41
1
51
0
7
standard
71
0
11
5.23622047244
21
0.944881889764
31
0
210
0
220
0
230
1
100
AcDbText
73
3
0
TEXT
5
E6
100
AcDbEntity
8
LAYOUT_BLOCK
6
ByLayer
62
256
370
-1
100
AcDbText
10
5.23622047244
20
0.551181102362
30
0
40
0.0787401574803
1
FINISHING:
50
0
41
1
51
0
7
standard
71
0
11
5.23622047244
21
0.551181102362
31
0
210
0
220
0
230
1
100
AcDbText
73
3
0
LINE
5
E7
100
AcDbEntity
8
LAYOUT_BLOCK
6
ByLayer
62
256
370
-1
100
AcDbLine
10
0.196850393701
20
0.984251968504
11
11.887496063
21
0.981530708665
0
LINE
5
E8
100
AcDbEntity
8
LAYOUT_BLOCK
6
ByLayer
62
256
370
-1
100
AcDbLine
10
10.7086614173
20
8.46456692913
11
10.7086614173
21
8.07086614173
0
LINE
5
E9
100
AcDbEntity
8
LAYOUT_BLOCK
6
ByLayer
62
256
370
-1
100
AcDbLine
10
10.7086614173
20
8.07086614173
11
11.8897637795
21
8.07086614173
0
TEXT
5
EA
100
AcDbEntity
8
LAYOUT_BLOCK
6
ByLayer
62
256
370
-1
100
AcDbText
10
10.7480314961
20
8.42519685039
30
0
40
0.0787401574803
1
REVISION:
50
0
41
1
51
0
7
standard
71
0
11
10.7480314961
21
8.42519685039
31
0
210
0
220
0
230
1
100
AcDbText
73
3
0
ENDBLK
5
67
330
65
100
AcDbEntity
8
0
100
AcDbBlockEnd
0
BLOCK
5
69
330
68
100
AcDbEntity
8
0
100
AcDbBlockBegin
2
JUNCTION_DRILLING
70
0
10
0
20
0
3
JUNCTION_DRILLING
1

0
CIRCLE
5
EB
100
AcDbEntity
8
0
6
ByLayer
62
256
370
-1
100
AcDbCircle
10
25
20
-25
40
4
0
CIRCLE
5
EC
100
AcDbEntity
8
0
6
ByLayer
62
256
370
-1
100
AcDbCircle
10
75
20
-25
40
4
0
CIRCLE
5
ED
100
AcDbEntity
8
0
6
ByLayer
62
256
370
-1
100
AcDbCircle
10
25
20
-75
40
4
0
CIRCLE
5
EE
100
AcDbEntity
8
0
6
ByLayer
62
256
370
-1
100
AcDbCircle
10
75
20
-75
40
4
0
ENDBLK
5
6A
330
68
100
AcDbEntity
8
0
100
AcDbBlockEnd
0
BLOCK
5
6C
330
6B
100
AcDbEntity
8
0
100
AcDbBlockBegin
2
LEGS_DRILLING
70
0
10
0
20
0
3
LEGS_DRILLING
1

0
CIRCLE
5
EF
100
AcDbEntity
8
0
6
ByLayer
62
256
370
-1
100
AcDbCircle
10
115
20
-25
40
4
0
CIRCLE
5
F0
100
AcDbEntity
8
0
6
ByLayer
62
256
370
-1
100
AcDbCircle
10
115
20
-75
40
4
0
CIRCLE
5
F1
100
AcDbEntity
8
0
6
ByLayer
62
256
370
-1
100
AcDbCircle
10
245
20
-25
40
4
0
CIRCLE
5
F2
100
AcDbEntity
8
0
6
ByLayer
62
256
370
-1
100
AcDbCircle
10
245
20
-75
40
4
0
ENDBLK
5
6D
330
6B
100
AcDbEntity
8
0
100
AcDbBlockEnd
0
ENDSEC
0
SECTION
2
ENTITIES
0
TEXT
5
F3
100
AcDbEntity
8
LAYOUT_TEXT
6
ByLayer
62
256
370
-1
100
AcDbText
10
43.2980505261
20
-353.379145388
30
0
40
26.4566929134
1
FLAMECUT CNC PLASMA TABLE
50
0
41
1
51
0
7
standard
71
0
72
1
11
43.2980505261
21
-353.379145388
31
0
210
0
220
0
230
1
100
AcDbText
73
2
0
TEXT
5
F4
100
AcDbEntity
8
LAYOUT_TEXT
6
ByLayer
62
256
370
-1
100
AcDbText
10
40.6721355651
20
-408.117646177
30
0
40
19.842519685
1
http://flamecut.marcelodelnero.com.br
50
0
41
1
51
0
7
standard
71
0
72
1
11
40.6721355651
21
-408.117646177
31
0
210
0
220
0
230
1
100
AcDbText
73
2
0
INSERT
5
F5
100
AcDbEntity
8
LAYOUT_BLOCK
6
ByLayer
62
256
370
-1
100
AcDbBlockReference
2
TITLE_BLOCK
10
-394.209754198
20
-488.727882397
30
0
41
168
42
168
43
0
50
0
70
1
71
1
44
168
45
168
0
TEXT
5
F6
100
AcDbEntity
8
LAYOUT_TEXT
6
ByLayer
62
256
370
-1
100
AcDbText
10
1505.52048832
20
891.500854613
30
0
40
13.2283
1
001 - 10/03/14
50
0
41
1
51
0
7
standard
71
0
72
1
11
1505.52048832
21
891.500854613
31
0
210
0
220
0
230
1
100
AcDbText
73
2
0
TEXT
5
F7
100
AcDbEntity
8
LAYOUT_TEXT
6
ByLayer
62
256
370
-1
100
AcDbText
10
717.347899182
20
-361.724834033
30
0
40
13.2283
1
100x100x2mm MILD STEEL SQUARE TUBE
50
0
41
1
51
0
7
standard
71
0
72
1
11
717.347899182
21
-361.724834033
31
0
210
0
220
0
230
1
100
AcDbText
73
2
0
TEXT
5
F8
100
AcDbEntity
8
LAYOUT_TEXT
6
ByLayer
62
256
370
-1
100
AcDbText
10
736.813867852
20
-419.2790635
30
0
40
13.2283
1
POWDER COATING
50
0
41
1
51
0
7
standard
71
0
72
1
11
736.813867852
21
-419.2790635
31
0
210
0
220
0
230
1
100
AcDbText
73
2
0
TEXT
5
F9
100
AcDbEntity
8
LAYOUT_TEXT
6
ByLayer
62
256
370
-1
100
AcDbText
10
1268.57364108
20
-355.032688695
30
0
40
26.4567
1
FRAME FRONT & REAR
50
0
41
1
51
0
7
standard
71
0
72
1
11
1268.57364108
21
-355.032688695
31
0
210
0
220
0
230
1
100
AcDbText
73
2
0
TEXT
5
FA
100
AcDbEntity
8
LAYOUT_TEXT
6
ByLayer
62
256
370
-1
100
AcDbText
10
1271.63044653
20
-418.869510506
30
0
40
26.4567
1
FRAME_FRONT_REAR
50
0
41
1
51
0
7
standard
71
0
72
1
11
1271.63044653
21
-418.869510506
31
0
210
0
220
0
230
1
100
AcDbText
73
2
0
LINE
5
FB
100
AcDbEntity
8
0
6
ByLayer
62
256
370
-1
100
AcDbLine
10
0
20
0
11
0
21
100
0
LINE
5
FC
100
AcDbEntity
8
0
6
ByLayer
62
256
370
-1
100
AcDbLine
10
0
20
250
11
0
21
350
0
LINE
5
FD
100
AcDbEntity
8
0
6
ByLayer
62
256
370
-1
100
AcDbLine
10
0
20
500.000000003
11
0
21
600.000000003
0
INSERT
5
FE
100
AcDbEntity
8
0
6
ByLayer
62
256
370
-1
100
AcDbBlockReference
2
JUNCTION_DRILLING
10
0
20
600.000000003
30
0
41
1
42
1
43
0
50
0
70
1
71
1
44
1
45
1
0
INSERT
5
FF
100
AcDbEntity
8
0
6
ByLayer
62
256
370
-1
100
AcDbBlockReference
2
JUNCTION_DRILLING
10
0
20
350
30
0
41
1
42
1
43
0
50
0
70
1
71
1
44
1
45
1
0
TEXT
5
100
100
AcDbEntity
8
0
6
ByLayer
62
256
370
-1
100
AcDbText
10
-129.796720313
20
499.670327853
30
0
40
20
1
BOTTOM
50
0
41
1
51
0
7
standard
71
0
210
0
220
0
230
1
100
AcDbText
0
TEXT
5
101
100
AcDbEntity
8
0
6
ByLayer
62
256
370
-1
100
AcDbText
10
-129.796720313
20
248.854680159
30
0
40
20
1
TOP
50
0
41
1
51
0
7
standard
71
0
210
0
220
0
230
1
100
AcDbText
0
TEXT
5
102
100
AcDbEntity
8
0
6
ByLayer
62
256
370
-1
100
AcDbText
10
-130.332651184
20
-5.645492275
30
0
40
20
1
RIGTH
50
0
41
1
51
0
7
standard
71
0
210
0
220
0
230
1
100
AcDbText
0
LINE
5
103
100
AcDbEntity
8
HELPER
6
ByLayer
62
256
370
-1
100
AcDbLine
10
25
20
659.952309053
11
25
21
275
0
LINE
5
104
100
AcDbEntity
8
HELPER
6
ByLayer
62
256
370
-1
100
AcDbLine
10
75
20
659.952309053
11
75
21
275
0
DIMENSION
5
105
100
AcDbEntity
8
DIMENSION
6
ByLayer
62
256
370
-1
100
AcDbDimension
2
*D1
10
75
20
709.952309053
30
0
11
50
21
729.952309053
31
0
70
32
71
5
72
0
3
Standard
53
0
210
0
220
0
230
1
100
AcDbAlignedDimension
13
25
23
679.952309053
33
0
14
75
24
679.952309053
34
0
100
AcDbRotatedDimension
0
DIMENSION
5
106
100
AcDbEntity
8
DIMENSION
6
ByLayer
62
256
370
-1
100
AcDbDimension
2
*D2
10
25
20
709.952309053
30
0
11
12.5
21
729.952309053
31
0
70
32
71
5
72
0
3
Standard
53
0
210
0
220
0
230
1
100
AcDbAlignedDimension
13
0
23
679.536013443
33
0
14
25
24
679.952309053
34
0
100
AcDbRotatedDimension
0
LINE
5
107
100
AcDbEntity
8
0
6
ByLayer
62
256
370
-1
100
AcDbLine
10
0
20
0
11
1252
21
0
0
LINE
5
108
100
AcDbEntity
8
0
6
ByLayer
62
256
370
-1
100
AcDbLine
10
0
20
100
11
1252
21
100
0
LINE
5
109
100
AcDbEntity
8
0
6
ByLayer
62
256
370
-1
100
AcDbLine
10
0
20
250
11
1252
21
250
0
LINE
5
10A
100
AcDbEntity
8
0
6
ByLayer
62
256
370
-1
100
AcDbLine
10
0
20
350
11
1252
21
350
0
LINE
5
10B
100
AcDbEntity
8
0
6
ByLayer
62
256
370
-1
100
AcDbLine
10
0
20
500
11
1252
21
500
0
LINE
5
10C
100
AcDbEntity
8
0
6
ByLayer
62
256
370
-1
100
AcDbLine
10
0
20
600
11
1252
21
600
0
LINE
5
10D
100
AcDbEntity
8
0
6
ByLayer
62
256
370
-1
100
AcDbLine
10
1252
20
99.999999997
11
1252
21
-2.9999682738e-009
0
LINE
5
10E
100
AcDbEntity
8
0
6
ByLayer
62
256
370
-1
100
AcDbLine
10
1252
20
349.999999997
11
1252
21
249.999999997
0
LINE
5
10F
100
AcDbEntity
8
0
6
ByLayer
62
256
370
-1
100
AcDbLine
10
1252
20
600
11
1252
21
500
0
INSERT
5
110
100
AcDbEntity
8
0
6
ByLayer
62
256
370
-1
100
AcDbBlockReference
2
JUNCTION_DRILLING
10
1252
20
249.999999997
30
0
41
1
42
1
43
0
50
180
70
1
71
1
44
1
45
1
0
INSERT
5
111
100
AcDbEntity
8
0
6
ByLayer
62
256
370
-1
100
AcDbBlockReference
2
JUNCTION_DRILLING
10
1252
20
500
30
0
41
1
42
1
43
0
50
180
70
1
71
1
44
1
45
1
0
LINE
5
112
100
AcDbEntity
8
HELPER
6
ByLayer
62
256
370
-1
100
AcDbLine
10
1007
20
575
11
1271.08290281
21
575
0
LINE
5
113
100
AcDbEntity
8
HELPER
6
ByLayer
62
256
370
-1
100
AcDbLine
10
1007
20
525
11
1271.08290281
21
525
0
DIMENSION
5
114
100
AcDbEntity
8
DIMENSION
6
ByLayer
62
256
370
-1
100
AcDbDimension
2
*D3
10
1300.34645107
20
575
30
0
11
1321.08290281
21
587.5
31
0
70
32
71
5
72
0
3
Standard
53
0
210
0
220
0
230
1
100
AcDbAlignedDimension
13
1271.01894182
23
600
33
0
14
1271.08290281
24
575
34
0
50
90
100
AcDbRotatedDimension
0
DIMENSION
5
115
100
AcDbEntity
8
DIMENSION
6
ByLayer
62
256
370
-1
100
AcDbDimension
2
*D4
10
1300.30267406
20
525
30
0
11
1321.08290281
21
550
31
0
70
32
71
5
72
0
3
Standard
53
0
210
0
220
0
230
1
100
AcDbAlignedDimension
13
1271.08290281
23
575
33
0
14
1271.08290281
24
525
34
0
50
90
100
AcDbRotatedDimension
0
DIMENSION
5
116
100
AcDbEntity
8
DIMENSION
6
ByLayer
62
256
370
-1
100
AcDbDimension
2
*D5
10
1300.53285462
20
500
30
0
11
1321.08290281
21
512.5
31
0
70
32
71
5
72
0
3
Standard
53
0
210
0
220
0
230
1
100
AcDbAlignedDimension
13
1271.08290281
23
525
33
0
14
1271.01894182
24
500
34
0
50
90
100
AcDbRotatedDimension
0
DIMENSION
5
117
100
AcDbEntity
8
DIMENSION
6
ByLayer
62
256
370
-1
100
AcDbDimension
2
*D6
10
1300
20
249.999999997
30
0
11
1320
21
299.999999997
31
0
70
32
71
5
72
0
3
Standard
53
0
210
0
220
0
230
1
100
AcDbAlignedDimension
13
1270
23
349.999999997
33
0
14
1270
24
249.999999997
34
0
50
90
100
AcDbRotatedDimension
0
DIMENSION
5
118
100
AcDbEntity
8
DIMENSION
6
ByLayer
62
256
370
-1
100
AcDbDimension
2
*D7
10
1252
20
-43.0375617495
30
0
11
626
21
-60
31
0
70
32
71
5
72
0
3
Standard
53
0
210
0
220
0
230
1
100
AcDbAlignedDimension
13
0
23
-10
33
0
14
1252
24
-10
34
0
100
AcDbRotatedDimension
0
ENDSEC
0
SECTION
2
OBJECTS
0
DICTIONARY
5
C
330
0
100
AcDbDictionary
281
1
3
ACAD_GROUP
350
D
0
DICTIONARY
5
D
330
C
100
AcDbDictionary
281
1
0
ENDSEC
0
EOF
