999
dxfrw 0.5.10
0
SECTION
2
HEADER
9
$ACADVER
1
AC1021
9
$HANDSEED
5
20000
9
$DWGCODEPAGE
3
ANSI_1252
9
$INSBASE
10
0
20
0
30
0
9
$EXTMIN
10
10000000000
20
10000000000
30
0
9
$EXTMAX
10
-10000000000
20
-10000000000
30
0
9
$LIMMIN
10
-30
20
-20
9
$LIMMAX
10
30
20
20
9
$ORTHOMODE
70
0
9
$LTSCALE
40
1
9
$TEXTSTYLE
7
STANDARD
9
$CLAYER
8
LAYOUT_TEXT
9
$DIMASZ
40
16
9
$DIMLFAC
40
1
9
$DIMSCALE
40
1
9
$DIMEXO
40
0.05
9
$DIMEXE
40
0.2
9
$DIMTXT
40
16
9
$DIMTSZ
40
0
9
$DIMAUNIT
70
0
9
$DIMADEC
70
0
9
$DIMLUNIT
70
2
9
$DIMSTYLE
2
STANDARD
9
$DIMGAP
40
0.09
9
$DIMTIH
70
0
9
$LUNITS
70
2
9
$LUPREC
70
4
9
$AUNITS
70
0
9
$AUPREC
70
0
9
$SPLINESEGS
70
8
9
$GRIDMODE
70
1
9
$SNAPSTYLE
70
0
9
$GRIDUNIT
10
0
20
0
9
$PINSBASE
10
0.764584824622
20
0.492125984252
30
0
9
$PLIMMIN
10
0
20
0
9
$PLIMMAX
10
297
20
210
9
$INSUNITS
70
4
9
$PSVPSCALE
40
0.00500540583831
0
ENDSEC
0
SECTION
2
CLASSES
0
ENDSEC
0
SECTION
2
TABLES
0
TABLE
2
VPORT
5
8
330
0
100
AcDbSymbolTable
70
1
0
VPORT
5
31
330
2
100
AcDbSymbolTableRecord
100
AcDbViewportTableRecord
2
*ACTIVE
70
0
10
0
20
0
11
1
21
1
12
1644.84596269
22
766.518966496
13
0
23
0
14
10
24
10
15
10
25
10
16
0
26
0
36
1
17
0
27
0
37
0
40
1865.00404179
41
2.01236093943
42
50
43
0
44
0
50
0
51
0
71
0
72
100
73
1
74
3
75
0
76
1
77
0
78
0
281
0
65
1
110
0
120
0
130
0
111
1
121
0
131
0
112
0
122
1
132
0
79
0
146
0
348
10020
60
7
61
5
292
1
282
1
141
0
142
0
63
250
421
3358443
0
ENDTAB
0
TABLE
2
LTYPE
5
5
330
0
100
AcDbSymbolTable
70
4
0
LTYPE
5
14
330
5
100
AcDbSymbolTableRecord
100
AcDbLinetypeTableRecord
2
ByBlock
70
0
3

72
65
73
0
40
0
0
LTYPE
5
15
330
5
100
AcDbSymbolTableRecord
100
AcDbLinetypeTableRecord
2
ByLayer
70
0
3

72
65
73
0
40
0
0
LTYPE
5
16
330
5
100
AcDbSymbolTableRecord
100
AcDbLinetypeTableRecord
2
Continuous
70
0
3
Solid line
72
65
73
0
40
0
0
LTYPE
5
32
330
5
100
AcDbSymbolTableRecord
100
AcDbLinetypeTableRecord
2
DOT
70
0
3
Dot . . . . . . . . . . . . . . . . . . . . . .
72
65
73
2
40
6.35
49
0
74
0
49
-6.35
74
0
0
LTYPE
5
33
330
5
100
AcDbSymbolTableRecord
100
AcDbLinetypeTableRecord
2
DOT2
70
0
3
Dot (.5x) .....................................
72
65
73
2
40
3.175
49
0
74
0
49
-3.175
74
0
0
LTYPE
5
34
330
5
100
AcDbSymbolTableRecord
100
AcDbLinetypeTableRecord
2
DOTX2
70
0
3
Dot (2x) .  .  .  .  .  .  .  .  .  .  .  .  .
72
65
73
2
40
12.7
49
0
74
0
49
-12.7
74
0
0
LTYPE
5
35
330
5
100
AcDbSymbolTableRecord
100
AcDbLinetypeTableRecord
2
DASHED
70
0
3
Dot . . . . . . . . . . . . . . . . . . . . . .
72
65
73
2
40
19.05
49
12.7
74
0
49
-6.35
74
0
0
LTYPE
5
36
330
5
100
AcDbSymbolTableRecord
100
AcDbLinetypeTableRecord
2
DASHED2
70
0
3
Dashed (.5x) _ _ _ _ _ _ _ _ _ _ _ _ _ _ _ _ _
72
65
73
2
40
9.525
49
6.35
74
0
49
-3.175
74
0
0
LTYPE
5
37
330
5
100
AcDbSymbolTableRecord
100
AcDbLinetypeTableRecord
2
DASHEDX2
70
0
3
Dashed (2x) ____  ____  ____  ____  ____  ___
72
65
73
2
40
38.1
49
25.4
74
0
49
-12.7
74
0
0
LTYPE
5
38
330
5
100
AcDbSymbolTableRecord
100
AcDbLinetypeTableRecord
2
DASHDOT
70
0
3
Dash dot __ . __ . __ . __ . __ . __ . __ . __
72
65
73
4
40
25.4
49
12.7
74
0
49
-6.35
74
0
49
0
74
0
49
-6.35
74
0
0
LTYPE
5
39
330
5
100
AcDbSymbolTableRecord
100
AcDbLinetypeTableRecord
2
DASHDOT2
70
0
3
Dash dot (.5x) _._._._._._._._._._._._._._._.
72
65
73
4
40
12.7
49
6.35
74
0
49
-3.175
74
0
49
0
74
0
49
-3.175
74
0
0
LTYPE
5
3A
330
5
100
AcDbSymbolTableRecord
100
AcDbLinetypeTableRecord
2
DASHDOTX2
70
0
3
Dash dot (2x) ____  .  ____  .  ____  .  ___
72
65
73
4
40
50.8
49
25.4
74
0
49
-12.7
74
0
49
0
74
0
49
-12.7
74
0
0
LTYPE
5
3B
330
5
100
AcDbSymbolTableRecord
100
AcDbLinetypeTableRecord
2
DIVIDE
70
0
3
Divide ____ . . ____ . . ____ . . ____ . . ____
72
65
73
6
40
31.75
49
12.7
74
0
49
-6.35
74
0
49
0
74
0
49
-6.35
74
0
49
0
74
0
49
-6.35
74
0
0
LTYPE
5
3C
330
5
100
AcDbSymbolTableRecord
100
AcDbLinetypeTableRecord
2
DIVIDE2
70
0
3
Divide (.5x) __..__..__..__..__..__..__..__.._
72
65
73
6
40
15.875
49
6.35
74
0
49
-3.175
74
0
49
0
74
0
49
-3.175
74
0
49
0
74
0
49
-3.175
74
0
0
LTYPE
5
3D
330
5
100
AcDbSymbolTableRecord
100
AcDbLinetypeTableRecord
2
DIVIDEX2
70
0
3
Divide (2x) ________  .  .  ________  .  .  _
72
65
73
6
40
63.5
49
25.4
74
0
49
-12.7
74
0
49
0
74
0
49
-12.7
74
0
49
0
74
0
49
-12.7
74
0
0
LTYPE
5
3E
330
5
100
AcDbSymbolTableRecord
100
AcDbLinetypeTableRecord
2
BORDER
70
0
3
Border __ __ . __ __ . __ __ . __ __ . __ __ .
72
65
73
6
40
44.45
49
12.7
74
0
49
-6.35
74
0
49
12.7
74
0
49
-6.35
74
0
49
0
74
0
49
-6.35
74
0
0
LTYPE
5
3F
330
5
100
AcDbSymbolTableRecord
100
AcDbLinetypeTableRecord
2
BORDER2
70
0
3
Border (.5x) __.__.__.__.__.__.__.__.__.__.__.
72
65
73
6
40
22.225
49
6.35
74
0
49
-3.175
74
0
49
6.35
74
0
49
-3.175
74
0
49
0
74
0
49
-3.175
74
0
0
LTYPE
5
40
330
5
100
AcDbSymbolTableRecord
100
AcDbLinetypeTableRecord
2
BORDERX2
70
0
3
Border (2x) ____  ____  .  ____  ____  .  ___
72
65
73
6
40
88.9
49
25.4
74
0
49
-12.7
74
0
49
25.4
74
0
49
-12.7
74
0
49
0
74
0
49
-12.7
74
0
0
LTYPE
5
41
330
5
100
AcDbSymbolTableRecord
100
AcDbLinetypeTableRecord
2
CENTER
70
0
3
Center ____ _ ____ _ ____ _ ____ _ ____ _ ____
72
65
73
4
40
50.8
49
31.75
74
0
49
-6.35
74
0
49
6.35
74
0
49
-6.35
74
0
0
LTYPE
5
42
330
5
100
AcDbSymbolTableRecord
100
AcDbLinetypeTableRecord
2
CENTER2
70
0
3
Center (.5x) ___ _ ___ _ ___ _ ___ _ ___ _ ___
72
65
73
4
40
28.575
49
19.05
74
0
49
-3.175
74
0
49
3.175
74
0
49
-3.175
74
0
0
LTYPE
5
43
330
5
100
AcDbSymbolTableRecord
100
AcDbLinetypeTableRecord
2
CENTERX2
70
0
3
Center (2x) ________  __  ________  __  _____
72
65
73
4
40
101.6
49
63.5
74
0
49
-12.7
74
0
49
12.7
74
0
49
-12.7
74
0
0
ENDTAB
0
TABLE
2
LAYER
5
2
330
0
100
AcDbSymbolTable
70
1
0
LAYER
5
10
330
2
100
AcDbSymbolTableRecord
100
AcDbLayerTableRecord
2
0
70
0
62
7
6
CONTINUOUS
370
30
390
F
0
LAYER
5
44
330
2
100
AcDbSymbolTableRecord
100
AcDbLayerTableRecord
2
SUPPORT
70
0
62
7
6
CONTINUOUS
370
30
390
F
0
LAYER
5
45
330
2
100
AcDbSymbolTableRecord
100
AcDbLayerTableRecord
2
LAYOUT_TEXT
70
0
62
7
6
CONTINUOUS
370
30
390
F
0
LAYER
5
46
330
2
100
AcDbSymbolTableRecord
100
AcDbLayerTableRecord
2
LAYOUT_BLOCK
70
0
62
7
6
CONTINUOUS
370
30
390
F
0
LAYER
5
47
330
2
100
AcDbSymbolTableRecord
100
AcDbLayerTableRecord
2
DIMENSION
70
0
62
5
6
CONTINUOUS
370
0
390
F
0
LAYER
5
48
330
2
100
AcDbSymbolTableRecord
100
AcDbLayerTableRecord
2
HELPER
70
0
62
1
6
DASHED2
370
0
390
F
0
ENDTAB
0
TABLE
2
STYLE
5
3
330
0
100
AcDbSymbolTable
70
3
0
STYLE
5
49
330
2
100
AcDbSymbolTableRecord
100
AcDbTextStyleTableRecord
2
standard
70
0
40
0
41
1
50
0
71
0
42
1
3
standard
4

0
ENDTAB
0
TABLE
2
VIEW
5
6
330
0
100
AcDbSymbolTable
70
0
0
ENDTAB
0
TABLE
2
UCS
5
7
330
0
100
AcDbSymbolTable
70
0
0
ENDTAB
0
TABLE
2
APPID
5
9
330
0
100
AcDbSymbolTable
70
1
0
APPID
5
12
330
9
100
AcDbSymbolTableRecord
100
AcDbRegAppTableRecord
2
ACAD
70
0
0
ENDTAB
0
TABLE
2
DIMSTYLE
5
A
330
0
100
AcDbSymbolTable
70
1
100
AcDbDimStyleTable
71
1
0
DIMSTYLE
105
4A
330
A
100
AcDbSymbolTableRecord
100
AcDbDimStyleTableRecord
2
Standard
70
0
40
1
41
16
42
0.05
43
0.38
44
0.2
45
0
46
0
47
0
48
0
140
16
141
0.09
142
0
143
25.4
144
1
145
0
146
1
147
0.09
148
0
71
0
72
0
73
0
74
1
75
0
76
0
77
0
78
0
79
0
170
0
171
2
172
0
173
0
174
0
175
0
176
0
177
0
178
0
179
0
271
4
272
4
273
2
274
2
275
0
276
0
277
2
278
46
279
0
280
0
281
0
282
0
283
1
284
0
285
0
286
0
288
0
289
3
340
Standard
341

371
-2
372
-2
0
ENDTAB
0
TABLE
2
BLOCK_RECORD
5
1
330
0
100
AcDbSymbolTable
70
2
0
BLOCK_RECORD
5
1F
330
1
100
AcDbSymbolTableRecord
100
AcDbBlockTableRecord
2
*Model_Space
70
0
280
1
281
0
0
BLOCK_RECORD
5
1E
330
1
100
AcDbSymbolTableRecord
100
AcDbBlockTableRecord
2
*Paper_Space
70
0
280
1
281
0
0
BLOCK_RECORD
5
4B
330
1
100
AcDbSymbolTableRecord
100
AcDbBlockTableRecord
2
*D4
70
0
280
1
281
0
0
BLOCK_RECORD
5
4E
330
1
100
AcDbSymbolTableRecord
100
AcDbBlockTableRecord
2
*D17
70
0
280
1
281
0
0
BLOCK_RECORD
5
51
330
1
100
AcDbSymbolTableRecord
100
AcDbBlockTableRecord
2
*D20
70
0
280
1
281
0
0
BLOCK_RECORD
5
54
330
1
100
AcDbSymbolTableRecord
100
AcDbBlockTableRecord
2
*D6
70
0
280
1
281
0
0
BLOCK_RECORD
5
57
330
1
100
AcDbSymbolTableRecord
100
AcDbBlockTableRecord
2
*D11
70
0
280
1
281
0
0
BLOCK_RECORD
5
5A
330
1
100
AcDbSymbolTableRecord
100
AcDbBlockTableRecord
2
*D22
70
0
280
1
281
0
0
BLOCK_RECORD
5
5D
330
1
100
AcDbSymbolTableRecord
100
AcDbBlockTableRecord
2
*D7
70
0
280
1
281
0
0
BLOCK_RECORD
5
60
330
1
100
AcDbSymbolTableRecord
100
AcDbBlockTableRecord
2
*D23
70
0
280
1
281
0
0
BLOCK_RECORD
5
63
330
1
100
AcDbSymbolTableRecord
100
AcDbBlockTableRecord
2
*D18
70
0
280
1
281
0
0
BLOCK_RECORD
5
66
330
1
100
AcDbSymbolTableRecord
100
AcDbBlockTableRecord
2
*D19
70
0
280
1
281
0
0
BLOCK_RECORD
5
69
330
1
100
AcDbSymbolTableRecord
100
AcDbBlockTableRecord
2
*D16
70
0
280
1
281
0
0
BLOCK_RECORD
5
6C
330
1
100
AcDbSymbolTableRecord
100
AcDbBlockTableRecord
2
*D21
70
0
280
1
281
0
0
BLOCK_RECORD
5
6F
330
1
100
AcDbSymbolTableRecord
100
AcDbBlockTableRecord
2
*D28
70
0
280
1
281
0
0
BLOCK_RECORD
5
72
330
1
100
AcDbSymbolTableRecord
100
AcDbBlockTableRecord
2
*D12
70
0
280
1
281
0
0
BLOCK_RECORD
5
75
330
1
100
AcDbSymbolTableRecord
100
AcDbBlockTableRecord
2
*D15
70
0
280
1
281
0
0
BLOCK_RECORD
5
78
330
1
100
AcDbSymbolTableRecord
100
AcDbBlockTableRecord
2
*D13
70
0
280
1
281
0
0
BLOCK_RECORD
5
7B
330
1
100
AcDbSymbolTableRecord
100
AcDbBlockTableRecord
2
*D14
70
0
280
1
281
0
0
BLOCK_RECORD
5
7E
330
1
100
AcDbSymbolTableRecord
100
AcDbBlockTableRecord
2
*D29
70
0
280
1
281
0
0
BLOCK_RECORD
5
81
330
1
100
AcDbSymbolTableRecord
100
AcDbBlockTableRecord
2
*D8
70
0
280
1
281
0
0
BLOCK_RECORD
5
84
330
1
100
AcDbSymbolTableRecord
100
AcDbBlockTableRecord
2
*D25
70
0
280
1
281
0
0
BLOCK_RECORD
5
87
330
1
100
AcDbSymbolTableRecord
100
AcDbBlockTableRecord
2
*D27
70
0
280
1
281
0
0
BLOCK_RECORD
5
8A
330
1
100
AcDbSymbolTableRecord
100
AcDbBlockTableRecord
2
*D3
70
0
280
1
281
0
0
BLOCK_RECORD
5
8D
330
1
100
AcDbSymbolTableRecord
100
AcDbBlockTableRecord
2
*D9
70
0
280
1
281
0
0
BLOCK_RECORD
5
90
330
1
100
AcDbSymbolTableRecord
100
AcDbBlockTableRecord
2
*D10
70
0
280
1
281
0
0
BLOCK_RECORD
5
93
330
1
100
AcDbSymbolTableRecord
100
AcDbBlockTableRecord
2
*D5
70
0
280
1
281
0
0
BLOCK_RECORD
5
96
330
1
100
AcDbSymbolTableRecord
100
AcDbBlockTableRecord
2
*D24
70
0
280
1
281
0
0
BLOCK_RECORD
5
99
330
1
100
AcDbSymbolTableRecord
100
AcDbBlockTableRecord
2
*D1
70
0
280
1
281
0
0
BLOCK_RECORD
5
9C
330
1
100
AcDbSymbolTableRecord
100
AcDbBlockTableRecord
2
*D2
70
0
280
1
281
0
0
BLOCK_RECORD
5
9F
330
1
100
AcDbSymbolTableRecord
100
AcDbBlockTableRecord
2
*D26
70
0
280
1
281
0
0
BLOCK_RECORD
5
A2
330
1
100
AcDbSymbolTableRecord
100
AcDbBlockTableRecord
2
SUPPORT_A
70
0
280
1
281
0
0
BLOCK_RECORD
5
A5
330
1
100
AcDbSymbolTableRecord
100
AcDbBlockTableRecord
2
SUPPORT_B
70
0
280
1
281
0
0
BLOCK_RECORD
5
A8
330
1
100
AcDbSymbolTableRecord
100
AcDbBlockTableRecord
2
TITLE_BLOCK
70
0
280
1
281
0
0
BLOCK_RECORD
5
AB
330
1
100
AcDbSymbolTableRecord
100
AcDbBlockTableRecord
2
JUNCTION_DRILLING
70
0
280
1
281
0
0
BLOCK_RECORD
5
AE
330
1
100
AcDbSymbolTableRecord
100
AcDbBlockTableRecord
2
LEGS_DRILLING
70
0
280
1
281
0
0
ENDTAB
0
ENDSEC
0
SECTION
2
BLOCKS
0
BLOCK
5
20
330
1F
100
AcDbEntity
8
0
100
AcDbBlockBegin
2
*Model_Space
70
0
10
0
20
0
30
0
3
*Model_Space
1

0
ENDBLK
5
21
330
1F
100
AcDbEntity
8
0
100
AcDbBlockEnd
0
BLOCK
5
1C
330
1B
100
AcDbEntity
8
0
100
AcDbBlockBegin
2
*Paper_Space
70
0
10
0
20
0
30
0
3
*Paper_Space
1

0
ENDBLK
5
1D
330
1F
100
AcDbEntity
8
0
100
AcDbBlockEnd
0
BLOCK
5
4C
330
4B
100
AcDbEntity
8
0
100
AcDbBlockBegin
2
*D4
70
1
10
0
20
0
3
*D4
1

0
LINE
5
B1
100
AcDbEntity
8
DIMENSION
6
CONTINUOUS
62
7
370
0
100
AcDbLine
10
275.917097191
20
1280
11
325.917097191
21
1280
0
SOLID
5
B2
100
AcDbEntity
8
DIMENSION
6
CONTINUOUS
62
7
370
0
100
AcDbTrace
10
275.917097191
20
1280
30
0
11
291.917097191
21
1282.66422181
31
0
12
291.917097191
22
1277.33577819
32
0
13
291.917097191
23
1277.33577819
33
0
0
SOLID
5
B3
100
AcDbEntity
8
DIMENSION
6
CONTINUOUS
62
7
370
0
100
AcDbTrace
10
325.917097191
20
1280
30
0
11
309.917097191
21
1277.33577819
31
0
12
309.917097191
22
1282.66422181
32
0
13
309.917097191
23
1282.66422181
33
0
0
MTEXT
5
B4
100
AcDbEntity
8
DIMENSION
6
CONTINUOUS
62
7
370
0
100
AcDbMText
10
300.917097191
20
1300
30
0
40
16
41
19.5555555556
71
5
72
1
1
50
7
standard
210
0
220
0
230
1
50
0
73
2
44
1
0
LINE
5
B5
100
AcDbEntity
8
DIMENSION
6
CONTINUOUS
62
7
370
0
100
AcDbLine
10
275.917097191
20
1250.05
11
275.917097191
21
1280.2
0
LINE
5
B6
100
AcDbEntity
8
DIMENSION
6
CONTINUOUS
62
7
370
0
100
AcDbLine
10
325.917097191
20
1250.05
11
325.917097191
21
1280.2
0
ENDBLK
5
4D
330
4B
100
AcDbEntity
8
0
100
AcDbBlockEnd
0
BLOCK
5
4F
330
4E
100
AcDbEntity
8
0
100
AcDbBlockBegin
2
*D17
70
1
10
0
20
0
3
*D17
1

0
LINE
5
B7
100
AcDbEntity
8
DIMENSION
6
CONTINUOUS
62
7
370
0
100
AcDbLine
10
1630.91709719
20
470
11
1690.91709719
21
470
0
SOLID
5
B8
100
AcDbEntity
8
DIMENSION
6
CONTINUOUS
62
7
370
0
100
AcDbTrace
10
1630.91709719
20
470
30
0
11
1646.91709719
21
472.66422181
31
0
12
1646.91709719
22
467.33577819
32
0
13
1646.91709719
23
467.33577819
33
0
0
SOLID
5
B9
100
AcDbEntity
8
DIMENSION
6
CONTINUOUS
62
7
370
0
100
AcDbTrace
10
1690.91709719
20
470
30
0
11
1674.91709719
21
467.33577819
31
0
12
1674.91709719
22
472.66422181
32
0
13
1674.91709719
23
472.66422181
33
0
0
MTEXT
5
BA
100
AcDbEntity
8
DIMENSION
6
CONTINUOUS
62
7
370
0
100
AcDbMText
10
1660.91709719
20
490
30
0
40
16
41
19.5555555556
71
5
72
1
1
60
7
standard
210
0
220
0
230
1
50
0
73
2
44
1
0
LINE
5
BB
100
AcDbEntity
8
DIMENSION
6
CONTINUOUS
62
7
370
0
100
AcDbLine
10
1630.91709719
20
450.05
11
1630.91709719
21
470.2
0
LINE
5
BC
100
AcDbEntity
8
DIMENSION
6
CONTINUOUS
62
7
370
0
100
AcDbLine
10
1690.91709719
20
450.05
11
1690.91709719
21
470.2
0
ENDBLK
5
50
330
4E
100
AcDbEntity
8
0
100
AcDbBlockEnd
0
BLOCK
5
52
330
51
100
AcDbEntity
8
0
100
AcDbBlockBegin
2
*D20
70
1
10
0
20
0
3
*D20
1

0
LINE
5
BD
100
AcDbEntity
8
DIMENSION
6
CONTINUOUS
62
7
370
0
100
AcDbLine
10
1899.21977125
20
1145.04769095
11
1899.21977125
21
1095.04769095
0
SOLID
5
BE
100
AcDbEntity
8
DIMENSION
6
CONTINUOUS
62
7
370
0
100
AcDbTrace
10
1899.21977125
20
1145.04769095
30
0
11
1901.88399306
21
1129.04769095
31
0
12
1896.55554944
22
1129.04769095
32
0
13
1896.55554944
23
1129.04769095
33
0
0
SOLID
5
BF
100
AcDbEntity
8
DIMENSION
6
CONTINUOUS
62
7
370
0
100
AcDbTrace
10
1899.21977125
20
1095.04769095
30
0
11
1896.55554944
21
1111.04769095
31
0
12
1901.88399306
22
1111.04769095
32
0
13
1901.88399306
23
1111.04769095
33
0
0
MTEXT
5
C0
100
AcDbEntity
8
DIMENSION
6
CONTINUOUS
62
7
370
0
100
AcDbMText
10
1920
20
1120.04769095
30
0
40
16
41
19.5555555556
71
5
72
1
1
50
7
standard
210
0
220
0
230
1
50
90
73
2
44
1
0
LINE
5
C1
100
AcDbEntity
8
DIMENSION
6
CONTINUOUS
62
7
370
0
100
AcDbLine
10
1870.05
20
1145.04769095
11
1899.41977125
21
1145.04769095
0
LINE
5
C2
100
AcDbEntity
8
DIMENSION
6
CONTINUOUS
62
7
370
0
100
AcDbLine
10
1870.05
20
1095.04769095
11
1899.41977125
21
1095.04769095
0
ENDBLK
5
53
330
51
100
AcDbEntity
8
0
100
AcDbBlockEnd
0
BLOCK
5
55
330
54
100
AcDbEntity
8
0
100
AcDbBlockBegin
2
*D6
70
1
10
0
20
0
3
*D6
1

0
LINE
5
C3
100
AcDbEntity
8
DIMENSION
6
CONTINUOUS
62
7
370
0
100
AcDbLine
10
325.917097191
20
1280
11
365.917097191
21
1280
0
SOLID
5
C4
100
AcDbEntity
8
DIMENSION
6
CONTINUOUS
62
7
370
0
100
AcDbTrace
10
325.917097191
20
1280
30
0
11
341.917097191
21
1282.66422181
31
0
12
341.917097191
22
1277.33577819
32
0
13
341.917097191
23
1277.33577819
33
0
0
SOLID
5
C5
100
AcDbEntity
8
DIMENSION
6
CONTINUOUS
62
7
370
0
100
AcDbTrace
10
365.917097191
20
1280
30
0
11
349.917097191
21
1277.33577819
31
0
12
349.917097191
22
1282.66422181
32
0
13
349.917097191
23
1282.66422181
33
0
0
MTEXT
5
C6
100
AcDbEntity
8
DIMENSION
6
CONTINUOUS
62
7
370
0
100
AcDbMText
10
345.917097191
20
1300
30
0
40
16
41
21.3333333333
71
5
72
1
1
40
7
standard
210
0
220
0
230
1
50
0
73
2
44
1
0
LINE
5
C7
100
AcDbEntity
8
DIMENSION
6
CONTINUOUS
62
7
370
0
100
AcDbLine
10
325.917097191
20
1250.05
11
325.917097191
21
1280.2
0
LINE
5
C8
100
AcDbEntity
8
DIMENSION
6
CONTINUOUS
62
7
370
0
100
AcDbLine
10
365.917097191
20
1250.05
11
365.917097191
21
1280.2
0
ENDBLK
5
56
330
54
100
AcDbEntity
8
0
100
AcDbBlockEnd
0
BLOCK
5
58
330
57
100
AcDbEntity
8
0
100
AcDbBlockBegin
2
*D11
70
1
10
0
20
0
3
*D11
1

0
LINE
5
C9
100
AcDbEntity
8
DIMENSION
6
CONTINUOUS
62
7
370
0
100
AcDbLine
10
910.917097191
20
470
11
1030.91709719
21
470
0
SOLID
5
CA
100
AcDbEntity
8
DIMENSION
6
CONTINUOUS
62
7
370
0
100
AcDbTrace
10
910.917097191
20
470
30
0
11
926.917097191
21
472.66422181
31
0
12
926.917097191
22
467.33577819
32
0
13
926.917097191
23
467.33577819
33
0
0
SOLID
5
CB
100
AcDbEntity
8
DIMENSION
6
CONTINUOUS
62
7
370
0
100
AcDbTrace
10
1030.91709719
20
470
30
0
11
1014.91709719
21
467.33577819
31
0
12
1014.91709719
22
472.66422181
32
0
13
1014.91709719
23
472.66422181
33
0
0
MTEXT
5
CC
100
AcDbEntity
8
DIMENSION
6
CONTINUOUS
62
7
370
0
100
AcDbMText
10
970.917097191
20
490
30
0
40
16
41
28.4444444444
71
5
72
1
1
120
7
standard
210
0
220
0
230
1
50
0
73
2
44
1
0
LINE
5
CD
100
AcDbEntity
8
DIMENSION
6
CONTINUOUS
62
7
370
0
100
AcDbLine
10
910.917097191
20
450.05
11
910.917097191
21
470.2
0
LINE
5
CE
100
AcDbEntity
8
DIMENSION
6
CONTINUOUS
62
7
370
0
100
AcDbLine
10
1030.91709719
20
450.05
11
1030.91709719
21
470.2
0
ENDBLK
5
59
330
57
100
AcDbEntity
8
0
100
AcDbBlockEnd
0
BLOCK
5
5B
330
5A
100
AcDbEntity
8
0
100
AcDbBlockBegin
2
*D22
70
1
10
0
20
0
3
*D22
1

0
LINE
5
CF
100
AcDbEntity
8
DIMENSION
6
CONTINUOUS
62
7
370
0
100
AcDbLine
10
1910
20
920
11
1910
21
820
0
SOLID
5
D0
100
AcDbEntity
8
DIMENSION
6
CONTINUOUS
62
7
370
0
100
AcDbTrace
10
1910
20
920
30
0
11
1912.66422181
21
904
31
0
12
1907.33577819
22
904
32
0
13
1907.33577819
23
904
33
0
0
SOLID
5
D1
100
AcDbEntity
8
DIMENSION
6
CONTINUOUS
62
7
370
0
100
AcDbTrace
10
1910
20
820
30
0
11
1907.33577819
21
836
31
0
12
1912.66422181
22
836
32
0
13
1912.66422181
23
836
33
0
0
MTEXT
5
D2
100
AcDbEntity
8
DIMENSION
6
CONTINUOUS
62
7
370
0
100
AcDbMText
10
1930
20
870
30
0
40
16
41
28.4444444444
71
5
72
1
1
100
7
standard
210
0
220
0
230
1
50
90
73
2
44
1
0
LINE
5
D3
100
AcDbEntity
8
DIMENSION
6
CONTINUOUS
62
7
370
0
100
AcDbLine
10
1880.05
20
920
11
1910.2
21
920
0
LINE
5
D4
100
AcDbEntity
8
DIMENSION
6
CONTINUOUS
62
7
370
0
100
AcDbLine
10
1880.05
20
820
11
1910.2
21
820
0
ENDBLK
5
5C
330
5A
100
AcDbEntity
8
0
100
AcDbBlockEnd
0
BLOCK
5
5E
330
5D
100
AcDbEntity
8
0
100
AcDbBlockBegin
2
*D7
70
1
10
0
20
0
3
*D7
1

0
LINE
5
D5
100
AcDbEntity
8
DIMENSION
6
CONTINUOUS
62
7
370
0
100
AcDbLine
10
365.917097191
20
1280
11
495.917097191
21
1280
0
SOLID
5
D6
100
AcDbEntity
8
DIMENSION
6
CONTINUOUS
62
7
370
0
100
AcDbTrace
10
365.917097191
20
1280
30
0
11
381.917097191
21
1282.66422181
31
0
12
381.917097191
22
1277.33577819
32
0
13
381.917097191
23
1277.33577819
33
0
0
SOLID
5
D7
100
AcDbEntity
8
DIMENSION
6
CONTINUOUS
62
7
370
0
100
AcDbTrace
10
495.917097191
20
1280
30
0
11
479.917097191
21
1277.33577819
31
0
12
479.917097191
22
1282.66422181
32
0
13
479.917097191
23
1282.66422181
33
0
0
MTEXT
5
D8
100
AcDbEntity
8
DIMENSION
6
CONTINUOUS
62
7
370
0
100
AcDbMText
10
430.917097191
20
1300
30
0
40
16
41
28.4444444444
71
5
72
1
1
130
7
standard
210
0
220
0
230
1
50
0
73
2
44
1
0
LINE
5
D9
100
AcDbEntity
8
DIMENSION
6
CONTINUOUS
62
7
370
0
100
AcDbLine
10
365.917097191
20
1250.05
11
365.917097191
21
1280.2
0
LINE
5
DA
100
AcDbEntity
8
DIMENSION
6
CONTINUOUS
62
7
370
0
100
AcDbLine
10
495.917097191
20
1250.05
11
495.917097191
21
1280.2
0
ENDBLK
5
5F
330
5D
100
AcDbEntity
8
0
100
AcDbBlockEnd
0
BLOCK
5
61
330
60
100
AcDbEntity
8
0
100
AcDbBlockBegin
2
*D23
70
1
10
0
20
0
3
*D23
1

0
LINE
5
DB
100
AcDbEntity
8
DIMENSION
6
CONTINUOUS
62
7
370
0
100
AcDbLine
10
250.917097191
20
280
11
450.917097191
21
280
0
SOLID
5
DC
100
AcDbEntity
8
DIMENSION
6
CONTINUOUS
62
7
370
0
100
AcDbTrace
10
250.917097191
20
280
30
0
11
266.917097191
21
282.66422181
31
0
12
266.917097191
22
277.33577819
32
0
13
266.917097191
23
277.33577819
33
0
0
SOLID
5
DD
100
AcDbEntity
8
DIMENSION
6
CONTINUOUS
62
7
370
0
100
AcDbTrace
10
450.917097191
20
280
30
0
11
434.917097191
21
277.33577819
31
0
12
434.917097191
22
282.66422181
32
0
13
434.917097191
23
282.66422181
33
0
0
MTEXT
5
DE
100
AcDbEntity
8
DIMENSION
6
CONTINUOUS
62
7
370
0
100
AcDbMText
10
350.917097191
20
260
30
0
40
16
41
32
71
5
72
1
1
200
7
standard
210
0
220
0
230
1
50
0
73
2
44
1
0
LINE
5
DF
100
AcDbEntity
8
DIMENSION
6
CONTINUOUS
62
7
370
0
100
AcDbLine
10
250.917097191
20
299.95
11
250.917097191
21
279.8
0
LINE
5
E0
100
AcDbEntity
8
DIMENSION
6
CONTINUOUS
62
7
370
0
100
AcDbLine
10
450.917097191
20
299.95
11
450.917097191
21
279.8
0
ENDBLK
5
62
330
60
100
AcDbEntity
8
0
100
AcDbBlockEnd
0
BLOCK
5
64
330
63
100
AcDbEntity
8
0
100
AcDbBlockBegin
2
*D18
70
1
10
0
20
0
3
*D18
1

0
LINE
5
E1
100
AcDbEntity
8
DIMENSION
6
CONTINUOUS
62
7
370
0
100
AcDbLine
10
1690.91709719
20
470
11
1850.91709719
21
470
0
SOLID
5
E2
100
AcDbEntity
8
DIMENSION
6
CONTINUOUS
62
7
370
0
100
AcDbTrace
10
1690.91709719
20
470
30
0
11
1706.91709719
21
472.66422181
31
0
12
1706.91709719
22
467.33577819
32
0
13
1706.91709719
23
467.33577819
33
0
0
SOLID
5
E3
100
AcDbEntity
8
DIMENSION
6
CONTINUOUS
62
7
370
0
100
AcDbTrace
10
1850.91709719
20
470
30
0
11
1834.91709719
21
467.33577819
31
0
12
1834.91709719
22
472.66422181
32
0
13
1834.91709719
23
472.66422181
33
0
0
MTEXT
5
E4
100
AcDbEntity
8
DIMENSION
6
CONTINUOUS
62
7
370
0
100
AcDbMText
10
1770.91709719
20
490
30
0
40
16
41
28.4444444444
71
5
72
1
1
160
7
standard
210
0
220
0
230
1
50
0
73
2
44
1
0
LINE
5
E5
100
AcDbEntity
8
DIMENSION
6
CONTINUOUS
62
7
370
0
100
AcDbLine
10
1690.91709719
20
450.05
11
1690.91709719
21
470.2
0
LINE
5
E6
100
AcDbEntity
8
DIMENSION
6
CONTINUOUS
62
7
370
0
100
AcDbLine
10
1850.91709719
20
450.05
11
1850.91709719
21
470.2
0
ENDBLK
5
65
330
63
100
AcDbEntity
8
0
100
AcDbBlockEnd
0
BLOCK
5
67
330
66
100
AcDbEntity
8
0
100
AcDbBlockBegin
2
*D19
70
1
10
0
20
0
3
*D19
1

0
LINE
5
E7
100
AcDbEntity
8
DIMENSION
6
CONTINUOUS
62
7
370
0
100
AcDbLine
10
1899.26354826
20
1202.04769095
11
1899.26354826
21
1113.04769095
0
SOLID
5
E8
100
AcDbEntity
8
DIMENSION
6
CONTINUOUS
62
7
370
0
100
AcDbTrace
10
1899.26354826
20
1170.04769095
30
0
11
1896.59932645
21
1186.04769095
31
0
12
1901.92777007
22
1186.04769095
32
0
13
1901.92777007
23
1186.04769095
33
0
0
SOLID
5
E9
100
AcDbEntity
8
DIMENSION
6
CONTINUOUS
62
7
370
0
100
AcDbTrace
10
1899.26354826
20
1145.04769095
30
0
11
1901.92777007
21
1129.04769095
31
0
12
1896.59932645
22
1129.04769095
32
0
13
1896.59932645
23
1129.04769095
33
0
0
MTEXT
5
EA
100
AcDbEntity
8
DIMENSION
6
CONTINUOUS
62
7
370
0
100
AcDbMText
10
1920
20
1157.54769095
30
0
40
16
41
19.5555555556
71
5
72
1
1
25
7
standard
210
0
220
0
230
1
50
90
73
2
44
1
0
LINE
5
EB
100
AcDbEntity
8
DIMENSION
6
CONTINUOUS
62
7
370
0
100
AcDbLine
10
1869.98603901
20
1170.04769095
11
1899.46354826
21
1170.04769095
0
LINE
5
EC
100
AcDbEntity
8
DIMENSION
6
CONTINUOUS
62
7
370
0
100
AcDbLine
10
1870.05
20
1145.04769095
11
1899.46354826
21
1145.04769095
0
ENDBLK
5
68
330
66
100
AcDbEntity
8
0
100
AcDbBlockEnd
0
BLOCK
5
6A
330
69
100
AcDbEntity
8
0
100
AcDbBlockBegin
2
*D16
70
1
10
0
20
0
3
*D16
1

0
LINE
5
ED
100
AcDbEntity
8
DIMENSION
6
CONTINUOUS
62
7
370
0
100
AcDbLine
10
1510.91709719
20
470
11
1630.91709719
21
470
0
SOLID
5
EE
100
AcDbEntity
8
DIMENSION
6
CONTINUOUS
62
7
370
0
100
AcDbTrace
10
1510.91709719
20
470
30
0
11
1526.91709719
21
472.66422181
31
0
12
1526.91709719
22
467.33577819
32
0
13
1526.91709719
23
467.33577819
33
0
0
SOLID
5
EF
100
AcDbEntity
8
DIMENSION
6
CONTINUOUS
62
7
370
0
100
AcDbTrace
10
1630.91709719
20
470
30
0
11
1614.91709719
21
467.33577819
31
0
12
1614.91709719
22
472.66422181
32
0
13
1614.91709719
23
472.66422181
33
0
0
MTEXT
5
F0
100
AcDbEntity
8
DIMENSION
6
CONTINUOUS
62
7
370
0
100
AcDbMText
10
1570.91709719
20
490
30
0
40
16
41
28.4444444444
71
5
72
1
1
120
7
standard
210
0
220
0
230
1
50
0
73
2
44
1
0
LINE
5
F1
100
AcDbEntity
8
DIMENSION
6
CONTINUOUS
62
7
370
0
100
AcDbLine
10
1510.91709719
20
450.05
11
1510.91709719
21
470.2
0
LINE
5
F2
100
AcDbEntity
8
DIMENSION
6
CONTINUOUS
62
7
370
0
100
AcDbLine
10
1630.91709719
20
450.05
11
1630.91709719
21
470.2
0
ENDBLK
5
6B
330
69
100
AcDbEntity
8
0
100
AcDbBlockEnd
0
BLOCK
5
6D
330
6C
100
AcDbEntity
8
0
100
AcDbBlockBegin
2
*D21
70
1
10
0
20
0
3
*D21
1

0
LINE
5
F3
100
AcDbEntity
8
DIMENSION
6
CONTINUOUS
62
7
370
0
100
AcDbLine
10
1899.44995181
20
1127.04769095
11
1899.44995181
21
1038.04769095
0
SOLID
5
F4
100
AcDbEntity
8
DIMENSION
6
CONTINUOUS
62
7
370
0
100
AcDbTrace
10
1899.44995181
20
1095.04769095
30
0
11
1896.78573
21
1111.04769095
31
0
12
1902.11417362
22
1111.04769095
32
0
13
1902.11417362
23
1111.04769095
33
0
0
SOLID
5
F5
100
AcDbEntity
8
DIMENSION
6
CONTINUOUS
62
7
370
0
100
AcDbTrace
10
1899.44995181
20
1070.04769095
30
0
11
1902.11417362
21
1054.04769095
31
0
12
1896.78573
22
1054.04769095
32
0
13
1896.78573
23
1054.04769095
33
0
0
MTEXT
5
F6
100
AcDbEntity
8
DIMENSION
6
CONTINUOUS
62
7
370
0
100
AcDbMText
10
1920
20
1082.54769095
30
0
40
16
41
19.5555555556
71
5
72
1
1
25
7
standard
210
0
220
0
230
1
50
90
73
2
44
1
0
LINE
5
F7
100
AcDbEntity
8
DIMENSION
6
CONTINUOUS
62
7
370
0
100
AcDbLine
10
1870.05
20
1095.04769095
11
1899.64995181
21
1095.04769095
0
LINE
5
F8
100
AcDbEntity
8
DIMENSION
6
CONTINUOUS
62
7
370
0
100
AcDbLine
10
1869.98603901
20
1070.04769095
11
1899.64995181
21
1070.04769095
0
ENDBLK
5
6E
330
6C
100
AcDbEntity
8
0
100
AcDbBlockEnd
0
BLOCK
5
70
330
6F
100
AcDbEntity
8
0
100
AcDbBlockBegin
2
*D28
70
1
10
0
20
0
3
*D28
1

0
LINE
5
F9
100
AcDbEntity
8
DIMENSION
6
CONTINUOUS
62
7
370
0
100
AcDbLine
10
1650.91709719
20
280
11
1850.91709719
21
280
0
SOLID
5
FA
100
AcDbEntity
8
DIMENSION
6
CONTINUOUS
62
7
370
0
100
AcDbTrace
10
1650.91709719
20
280
30
0
11
1666.91709719
21
282.66422181
31
0
12
1666.91709719
22
277.33577819
32
0
13
1666.91709719
23
277.33577819
33
0
0
SOLID
5
FB
100
AcDbEntity
8
DIMENSION
6
CONTINUOUS
62
7
370
0
100
AcDbTrace
10
1850.91709719
20
280
30
0
11
1834.91709719
21
277.33577819
31
0
12
1834.91709719
22
282.66422181
32
0
13
1834.91709719
23
282.66422181
33
0
0
MTEXT
5
FC
100
AcDbEntity
8
DIMENSION
6
CONTINUOUS
62
7
370
0
100
AcDbMText
10
1750.91709719
20
260
30
0
40
16
41
32
71
5
72
1
1
200
7
standard
210
0
220
0
230
1
50
0
73
2
44
1
0
LINE
5
FD
100
AcDbEntity
8
DIMENSION
6
CONTINUOUS
62
7
370
0
100
AcDbLine
10
1650.91709719
20
299.95
11
1650.91709719
21
279.8
0
LINE
5
FE
100
AcDbEntity
8
DIMENSION
6
CONTINUOUS
62
7
370
0
100
AcDbLine
10
1850.91709719
20
299.95
11
1850.91709719
21
279.8
0
ENDBLK
5
71
330
6F
100
AcDbEntity
8
0
100
AcDbBlockEnd
0
BLOCK
5
73
330
72
100
AcDbEntity
8
0
100
AcDbBlockBegin
2
*D12
70
1
10
0
20
0
3
*D12
1

0
LINE
5
FF
100
AcDbEntity
8
DIMENSION
6
CONTINUOUS
62
7
370
0
100
AcDbLine
10
1030.91709719
20
470
11
1150.91709719
21
470
0
SOLID
5
100
100
AcDbEntity
8
DIMENSION
6
CONTINUOUS
62
7
370
0
100
AcDbTrace
10
1030.91709719
20
470
30
0
11
1046.91709719
21
472.66422181
31
0
12
1046.91709719
22
467.33577819
32
0
13
1046.91709719
23
467.33577819
33
0
0
SOLID
5
101
100
AcDbEntity
8
DIMENSION
6
CONTINUOUS
62
7
370
0
100
AcDbTrace
10
1150.91709719
20
470
30
0
11
1134.91709719
21
467.33577819
31
0
12
1134.91709719
22
472.66422181
32
0
13
1134.91709719
23
472.66422181
33
0
0
MTEXT
5
102
100
AcDbEntity
8
DIMENSION
6
CONTINUOUS
62
7
370
0
100
AcDbMText
10
1090.91709719
20
490
30
0
40
16
41
28.4444444444
71
5
72
1
1
120
7
standard
210
0
220
0
230
1
50
0
73
2
44
1
0
LINE
5
103
100
AcDbEntity
8
DIMENSION
6
CONTINUOUS
62
7
370
0
100
AcDbLine
10
1030.91709719
20
450.05
11
1030.91709719
21
470.2
0
LINE
5
104
100
AcDbEntity
8
DIMENSION
6
CONTINUOUS
62
7
370
0
100
AcDbLine
10
1150.91709719
20
450.05
11
1150.91709719
21
470.2
0
ENDBLK
5
74
330
72
100
AcDbEntity
8
0
100
AcDbBlockEnd
0
BLOCK
5
76
330
75
100
AcDbEntity
8
0
100
AcDbBlockBegin
2
*D15
70
1
10
0
20
0
3
*D15
1

0
LINE
5
105
100
AcDbEntity
8
DIMENSION
6
CONTINUOUS
62
7
370
0
100
AcDbLine
10
1510.91709719
20
470
11
1390.91709719
21
470
0
SOLID
5
106
100
AcDbEntity
8
DIMENSION
6
CONTINUOUS
62
7
370
0
100
AcDbTrace
10
1510.91709719
20
470
30
0
11
1494.91709719
21
467.33577819
31
0
12
1494.91709719
22
472.66422181
32
0
13
1494.91709719
23
472.66422181
33
0
0
SOLID
5
107
100
AcDbEntity
8
DIMENSION
6
CONTINUOUS
62
7
370
0
100
AcDbTrace
10
1390.91709719
20
470
30
0
11
1406.91709719
21
472.66422181
31
0
12
1406.91709719
22
467.33577819
32
0
13
1406.91709719
23
467.33577819
33
0
0
MTEXT
5
108
100
AcDbEntity
8
DIMENSION
6
CONTINUOUS
62
7
370
0
100
AcDbMText
10
1450.91709719
20
490
30
0
40
16
41
28.4444444444
71
5
72
1
1
120
7
standard
210
0
220
0
230
1
50
360
73
2
44
1
0
LINE
5
109
100
AcDbEntity
8
DIMENSION
6
CONTINUOUS
62
7
370
0
100
AcDbLine
10
1510.91709719
20
450.05
11
1510.91709719
21
470.2
0
LINE
5
10A
100
AcDbEntity
8
DIMENSION
6
CONTINUOUS
62
7
370
0
100
AcDbLine
10
1390.91709719
20
450.05
11
1390.91709719
21
470.2
0
ENDBLK
5
77
330
75
100
AcDbEntity
8
0
100
AcDbBlockEnd
0
BLOCK
5
79
330
78
100
AcDbEntity
8
0
100
AcDbBlockBegin
2
*D13
70
1
10
0
20
0
3
*D13
1

0
LINE
5
10B
100
AcDbEntity
8
DIMENSION
6
CONTINUOUS
62
7
370
0
100
AcDbLine
10
1150.91709719
20
470
11
1270.91709719
21
470
0
SOLID
5
10C
100
AcDbEntity
8
DIMENSION
6
CONTINUOUS
62
7
370
0
100
AcDbTrace
10
1150.91709719
20
470
30
0
11
1166.91709719
21
472.66422181
31
0
12
1166.91709719
22
467.33577819
32
0
13
1166.91709719
23
467.33577819
33
0
0
SOLID
5
10D
100
AcDbEntity
8
DIMENSION
6
CONTINUOUS
62
7
370
0
100
AcDbTrace
10
1270.91709719
20
470
30
0
11
1254.91709719
21
467.33577819
31
0
12
1254.91709719
22
472.66422181
32
0
13
1254.91709719
23
472.66422181
33
0
0
MTEXT
5
10E
100
AcDbEntity
8
DIMENSION
6
CONTINUOUS
62
7
370
0
100
AcDbMText
10
1210.91709719
20
490
30
0
40
16
41
28.4444444444
71
5
72
1
1
120
7
standard
210
0
220
0
230
1
50
0
73
2
44
1
0
LINE
5
10F
100
AcDbEntity
8
DIMENSION
6
CONTINUOUS
62
7
370
0
100
AcDbLine
10
1150.91709719
20
450.05
11
1150.91709719
21
470.2
0
LINE
5
110
100
AcDbEntity
8
DIMENSION
6
CONTINUOUS
62
7
370
0
100
AcDbLine
10
1270.91709719
20
450.05
11
1270.91709719
21
470.2
0
ENDBLK
5
7A
330
78
100
AcDbEntity
8
0
100
AcDbBlockEnd
0
BLOCK
5
7C
330
7B
100
AcDbEntity
8
0
100
AcDbBlockBegin
2
*D14
70
1
10
0
20
0
3
*D14
1

0
LINE
5
111
100
AcDbEntity
8
DIMENSION
6
CONTINUOUS
62
7
370
0
100
AcDbLine
10
1270.91709719
20
470
11
1390.91709719
21
470
0
SOLID
5
112
100
AcDbEntity
8
DIMENSION
6
CONTINUOUS
62
7
370
0
100
AcDbTrace
10
1270.91709719
20
470
30
0
11
1286.91709719
21
472.66422181
31
0
12
1286.91709719
22
467.33577819
32
0
13
1286.91709719
23
467.33577819
33
0
0
SOLID
5
113
100
AcDbEntity
8
DIMENSION
6
CONTINUOUS
62
7
370
0
100
AcDbTrace
10
1390.91709719
20
470
30
0
11
1374.91709719
21
467.33577819
31
0
12
1374.91709719
22
472.66422181
32
0
13
1374.91709719
23
472.66422181
33
0
0
MTEXT
5
114
100
AcDbEntity
8
DIMENSION
6
CONTINUOUS
62
7
370
0
100
AcDbMText
10
1330.91709719
20
490
30
0
40
16
41
28.4444444444
71
5
72
1
1
120
7
standard
210
0
220
0
230
1
50
0
73
2
44
1
0
LINE
5
115
100
AcDbEntity
8
DIMENSION
6
CONTINUOUS
62
7
370
0
100
AcDbLine
10
1270.91709719
20
450.05
11
1270.91709719
21
470.2
0
LINE
5
116
100
AcDbEntity
8
DIMENSION
6
CONTINUOUS
62
7
370
0
100
AcDbLine
10
1390.91709719
20
450.05
11
1390.91709719
21
470.2
0
ENDBLK
5
7D
330
7B
100
AcDbEntity
8
0
100
AcDbBlockEnd
0
BLOCK
5
7F
330
7E
100
AcDbEntity
8
0
100
AcDbBlockBegin
2
*D29
70
1
10
0
20
0
3
*D29
1

0
LINE
5
117
100
AcDbEntity
8
DIMENSION
6
CONTINUOUS
62
7
370
0
100
AcDbLine
10
250.917097191
20
768.524869219
11
1850.91709719
21
768.524869219
0
SOLID
5
118
100
AcDbEntity
8
DIMENSION
6
CONTINUOUS
62
7
370
0
100
AcDbTrace
10
250.917097191
20
768.524869219
30
0
11
266.917097191
21
771.189091029
31
0
12
266.917097191
22
765.860647409
32
0
13
266.917097191
23
765.860647409
33
0
0
SOLID
5
119
100
AcDbEntity
8
DIMENSION
6
CONTINUOUS
62
7
370
0
100
AcDbTrace
10
1850.91709719
20
768.524869219
30
0
11
1834.91709719
21
765.860647409
31
0
12
1834.91709719
22
771.189091029
32
0
13
1834.91709719
23
771.189091029
33
0
0
MTEXT
5
11A
100
AcDbEntity
8
DIMENSION
6
CONTINUOUS
62
7
370
0
100
AcDbMText
10
1050.91709719
20
750
30
0
40
16
41
40.8888888889
71
5
72
1
1
1600
7
standard
210
0
220
0
230
1
50
0
73
2
44
1
0
LINE
5
11B
100
AcDbEntity
8
DIMENSION
6
CONTINUOUS
62
7
370
0
100
AcDbLine
10
250.917097191
20
800.502098078
11
250.917097191
21
768.324869219
0
LINE
5
11C
100
AcDbEntity
8
DIMENSION
6
CONTINUOUS
62
7
370
0
100
AcDbLine
10
1850.91709719
20
799.431951315
11
1850.91709719
21
768.324869219
0
ENDBLK
5
80
330
7E
100
AcDbEntity
8
0
100
AcDbBlockEnd
0
BLOCK
5
82
330
81
100
AcDbEntity
8
0
100
AcDbBlockBegin
2
*D8
70
1
10
0
20
0
3
*D8
1

0
LINE
5
11D
100
AcDbEntity
8
DIMENSION
6
CONTINUOUS
62
7
370
0
100
AcDbLine
10
670.917097191
20
470
11
790.917097191
21
470
0
SOLID
5
11E
100
AcDbEntity
8
DIMENSION
6
CONTINUOUS
62
7
370
0
100
AcDbTrace
10
670.917097191
20
470
30
0
11
686.917097191
21
472.66422181
31
0
12
686.917097191
22
467.33577819
32
0
13
686.917097191
23
467.33577819
33
0
0
SOLID
5
11F
100
AcDbEntity
8
DIMENSION
6
CONTINUOUS
62
7
370
0
100
AcDbTrace
10
790.917097191
20
470
30
0
11
774.917097191
21
467.33577819
31
0
12
774.917097191
22
472.66422181
32
0
13
774.917097191
23
472.66422181
33
0
0
MTEXT
5
120
100
AcDbEntity
8
DIMENSION
6
CONTINUOUS
62
7
370
0
100
AcDbMText
10
730.917097191
20
490
30
0
40
16
41
28.4444444444
71
5
72
1
1
120
7
standard
210
0
220
0
230
1
50
0
73
2
44
1
0
LINE
5
121
100
AcDbEntity
8
DIMENSION
6
CONTINUOUS
62
7
370
0
100
AcDbLine
10
670.917097191
20
450.05
11
670.917097191
21
470.2
0
LINE
5
122
100
AcDbEntity
8
DIMENSION
6
CONTINUOUS
62
7
370
0
100
AcDbLine
10
790.917097191
20
450.05
11
790.917097191
21
470.2
0
ENDBLK
5
83
330
81
100
AcDbEntity
8
0
100
AcDbBlockEnd
0
BLOCK
5
85
330
84
100
AcDbEntity
8
0
100
AcDbBlockBegin
2
*D25
70
1
10
0
20
0
3
*D25
1

0
LINE
5
123
100
AcDbEntity
8
DIMENSION
6
CONTINUOUS
62
7
370
0
100
AcDbLine
10
750.917097191
20
280
11
1050.91709719
21
280
0
SOLID
5
124
100
AcDbEntity
8
DIMENSION
6
CONTINUOUS
62
7
370
0
100
AcDbTrace
10
750.917097191
20
280
30
0
11
766.917097191
21
282.66422181
31
0
12
766.917097191
22
277.33577819
32
0
13
766.917097191
23
277.33577819
33
0
0
SOLID
5
125
100
AcDbEntity
8
DIMENSION
6
CONTINUOUS
62
7
370
0
100
AcDbTrace
10
1050.91709719
20
280
30
0
11
1034.91709719
21
277.33577819
31
0
12
1034.91709719
22
282.66422181
32
0
13
1034.91709719
23
282.66422181
33
0
0
MTEXT
5
126
100
AcDbEntity
8
DIMENSION
6
CONTINUOUS
62
7
370
0
100
AcDbMText
10
900.917097191
20
260
30
0
40
16
41
32
71
5
72
1
1
300
7
standard
210
0
220
0
230
1
50
0
73
2
44
1
0
LINE
5
127
100
AcDbEntity
8
DIMENSION
6
CONTINUOUS
62
7
370
0
100
AcDbLine
10
750.917097191
20
299.95
11
750.917097191
21
279.8
0
LINE
5
128
100
AcDbEntity
8
DIMENSION
6
CONTINUOUS
62
7
370
0
100
AcDbLine
10
1050.91709719
20
299.95
11
1050.91709719
21
279.8
0
ENDBLK
5
86
330
84
100
AcDbEntity
8
0
100
AcDbBlockEnd
0
BLOCK
5
88
330
87
100
AcDbEntity
8
0
100
AcDbBlockBegin
2
*D27
70
1
10
0
20
0
3
*D27
1

0
LINE
5
129
100
AcDbEntity
8
DIMENSION
6
CONTINUOUS
62
7
370
0
100
AcDbLine
10
1350.91709719
20
280
11
1650.91709719
21
280
0
SOLID
5
12A
100
AcDbEntity
8
DIMENSION
6
CONTINUOUS
62
7
370
0
100
AcDbTrace
10
1350.91709719
20
280
30
0
11
1366.91709719
21
282.66422181
31
0
12
1366.91709719
22
277.33577819
32
0
13
1366.91709719
23
277.33577819
33
0
0
SOLID
5
12B
100
AcDbEntity
8
DIMENSION
6
CONTINUOUS
62
7
370
0
100
AcDbTrace
10
1650.91709719
20
280
30
0
11
1634.91709719
21
277.33577819
31
0
12
1634.91709719
22
282.66422181
32
0
13
1634.91709719
23
282.66422181
33
0
0
MTEXT
5
12C
100
AcDbEntity
8
DIMENSION
6
CONTINUOUS
62
7
370
0
100
AcDbMText
10
1500.91709719
20
260
30
0
40
16
41
32
71
5
72
1
1
300
7
standard
210
0
220
0
230
1
50
0
73
2
44
1
0
LINE
5
12D
100
AcDbEntity
8
DIMENSION
6
CONTINUOUS
62
7
370
0
100
AcDbLine
10
1350.91709719
20
299.95
11
1350.91709719
21
279.8
0
LINE
5
12E
100
AcDbEntity
8
DIMENSION
6
CONTINUOUS
62
7
370
0
100
AcDbLine
10
1650.91709719
20
299.95
11
1650.91709719
21
279.8
0
ENDBLK
5
89
330
87
100
AcDbEntity
8
0
100
AcDbBlockEnd
0
BLOCK
5
8B
330
8A
100
AcDbEntity
8
0
100
AcDbBlockBegin
2
*D3
70
1
10
0
20
0
3
*D3
1

0
LINE
5
12F
100
AcDbEntity
8
DIMENSION
6
CONTINUOUS
62
7
370
0
100
AcDbLine
10
430.917097191
20
470
11
550.917097191
21
470
0
SOLID
5
130
100
AcDbEntity
8
DIMENSION
6
CONTINUOUS
62
7
370
0
100
AcDbTrace
10
430.917097191
20
470
30
0
11
446.917097191
21
472.66422181
31
0
12
446.917097191
22
467.33577819
32
0
13
446.917097191
23
467.33577819
33
0
0
SOLID
5
131
100
AcDbEntity
8
DIMENSION
6
CONTINUOUS
62
7
370
0
100
AcDbTrace
10
550.917097191
20
470
30
0
11
534.917097191
21
467.33577819
31
0
12
534.917097191
22
472.66422181
32
0
13
534.917097191
23
472.66422181
33
0
0
MTEXT
5
132
100
AcDbEntity
8
DIMENSION
6
CONTINUOUS
62
7
370
0
100
AcDbMText
10
490.917097191
20
490
30
0
40
16
41
28.4444444444
71
5
72
1
1
120
7
standard
210
0
220
0
230
1
50
0
73
2
44
1
0
LINE
5
133
100
AcDbEntity
8
DIMENSION
6
CONTINUOUS
62
7
370
0
100
AcDbLine
10
430.917097191
20
450.05
11
430.917097191
21
470.2
0
LINE
5
134
100
AcDbEntity
8
DIMENSION
6
CONTINUOUS
62
7
370
0
100
AcDbLine
10
550.917097191
20
450.05
11
550.917097191
21
470.2
0
ENDBLK
5
8C
330
8A
100
AcDbEntity
8
0
100
AcDbBlockEnd
0
BLOCK
5
8E
330
8D
100
AcDbEntity
8
0
100
AcDbBlockBegin
2
*D9
70
1
10
0
20
0
3
*D9
1

0
LINE
5
135
100
AcDbEntity
8
DIMENSION
6
CONTINUOUS
62
7
370
0
100
AcDbLine
10
550.917097191
20
470
11
670.917097191
21
470
0
SOLID
5
136
100
AcDbEntity
8
DIMENSION
6
CONTINUOUS
62
7
370
0
100
AcDbTrace
10
550.917097191
20
470
30
0
11
566.917097191
21
472.66422181
31
0
12
566.917097191
22
467.33577819
32
0
13
566.917097191
23
467.33577819
33
0
0
SOLID
5
137
100
AcDbEntity
8
DIMENSION
6
CONTINUOUS
62
7
370
0
100
AcDbTrace
10
670.917097191
20
470
30
0
11
654.917097191
21
467.33577819
31
0
12
654.917097191
22
472.66422181
32
0
13
654.917097191
23
472.66422181
33
0
0
MTEXT
5
138
100
AcDbEntity
8
DIMENSION
6
CONTINUOUS
62
7
370
0
100
AcDbMText
10
610.917097191
20
490
30
0
40
16
41
28.4444444444
71
5
72
1
1
120
7
standard
210
0
220
0
230
1
50
0
73
2
44
1
0
LINE
5
139
100
AcDbEntity
8
DIMENSION
6
CONTINUOUS
62
7
370
0
100
AcDbLine
10
550.917097191
20
450.05
11
550.917097191
21
470.2
0
LINE
5
13A
100
AcDbEntity
8
DIMENSION
6
CONTINUOUS
62
7
370
0
100
AcDbLine
10
670.917097191
20
450.05
11
670.917097191
21
470.2
0
ENDBLK
5
8F
330
8D
100
AcDbEntity
8
0
100
AcDbBlockEnd
0
BLOCK
5
91
330
90
100
AcDbEntity
8
0
100
AcDbBlockBegin
2
*D10
70
1
10
0
20
0
3
*D10
1

0
LINE
5
13B
100
AcDbEntity
8
DIMENSION
6
CONTINUOUS
62
7
370
0
100
AcDbLine
10
790.917097191
20
470
11
910.917097191
21
470
0
SOLID
5
13C
100
AcDbEntity
8
DIMENSION
6
CONTINUOUS
62
7
370
0
100
AcDbTrace
10
790.917097191
20
470
30
0
11
806.917097191
21
472.66422181
31
0
12
806.917097191
22
467.33577819
32
0
13
806.917097191
23
467.33577819
33
0
0
SOLID
5
13D
100
AcDbEntity
8
DIMENSION
6
CONTINUOUS
62
7
370
0
100
AcDbTrace
10
910.917097191
20
470
30
0
11
894.917097191
21
467.33577819
31
0
12
894.917097191
22
472.66422181
32
0
13
894.917097191
23
472.66422181
33
0
0
MTEXT
5
13E
100
AcDbEntity
8
DIMENSION
6
CONTINUOUS
62
7
370
0
100
AcDbMText
10
850.917097191
20
490
30
0
40
16
41
28.4444444444
71
5
72
1
1
120
7
standard
210
0
220
0
230
1
50
0
73
2
44
1
0
LINE
5
13F
100
AcDbEntity
8
DIMENSION
6
CONTINUOUS
62
7
370
0
100
AcDbLine
10
790.917097191
20
450.05
11
790.917097191
21
470.2
0
LINE
5
140
100
AcDbEntity
8
DIMENSION
6
CONTINUOUS
62
7
370
0
100
AcDbLine
10
910.917097191
20
450.05
11
910.917097191
21
470.2
0
ENDBLK
5
92
330
90
100
AcDbEntity
8
0
100
AcDbBlockEnd
0
BLOCK
5
94
330
93
100
AcDbEntity
8
0
100
AcDbBlockBegin
2
*D5
70
1
10
0
20
0
3
*D5
1

0
LINE
5
141
100
AcDbEntity
8
DIMENSION
6
CONTINUOUS
62
7
370
0
100
AcDbLine
10
218.917097191
20
1280
11
307.917097191
21
1280
0
SOLID
5
142
100
AcDbEntity
8
DIMENSION
6
CONTINUOUS
62
7
370
0
100
AcDbTrace
10
250.917097191
20
1280
30
0
11
234.917097191
21
1277.33577819
31
0
12
234.917097191
22
1282.66422181
32
0
13
234.917097191
23
1282.66422181
33
0
0
SOLID
5
143
100
AcDbEntity
8
DIMENSION
6
CONTINUOUS
62
7
370
0
100
AcDbTrace
10
275.917097191
20
1280
30
0
11
291.917097191
21
1282.66422181
31
0
12
291.917097191
22
1277.33577819
32
0
13
291.917097191
23
1277.33577819
33
0
0
MTEXT
5
144
100
AcDbEntity
8
DIMENSION
6
CONTINUOUS
62
7
370
0
100
AcDbMText
10
263.417097191
20
1300
30
0
40
16
41
19.5555555556
71
5
72
1
1
25
7
standard
210
0
220
0
230
1
50
0
73
2
44
1
0
LINE
5
145
100
AcDbEntity
8
DIMENSION
6
CONTINUOUS
62
7
370
0
100
AcDbLine
10
250.917097191
20
1249.63370439
11
250.917097191
21
1280.2
0
LINE
5
146
100
AcDbEntity
8
DIMENSION
6
CONTINUOUS
62
7
370
0
100
AcDbLine
10
275.917097191
20
1250.05
11
275.917097191
21
1280.2
0
ENDBLK
5
95
330
93
100
AcDbEntity
8
0
100
AcDbBlockEnd
0
BLOCK
5
97
330
96
100
AcDbEntity
8
0
100
AcDbBlockBegin
2
*D24
70
1
10
0
20
0
3
*D24
1

0
LINE
5
147
100
AcDbEntity
8
DIMENSION
6
CONTINUOUS
62
7
370
0
100
AcDbLine
10
450.917097191
20
280
11
750.917097191
21
280
0
SOLID
5
148
100
AcDbEntity
8
DIMENSION
6
CONTINUOUS
62
7
370
0
100
AcDbTrace
10
450.917097191
20
280
30
0
11
466.917097191
21
282.66422181
31
0
12
466.917097191
22
277.33577819
32
0
13
466.917097191
23
277.33577819
33
0
0
SOLID
5
149
100
AcDbEntity
8
DIMENSION
6
CONTINUOUS
62
7
370
0
100
AcDbTrace
10
750.917097191
20
280
30
0
11
734.917097191
21
277.33577819
31
0
12
734.917097191
22
282.66422181
32
0
13
734.917097191
23
282.66422181
33
0
0
MTEXT
5
14A
100
AcDbEntity
8
DIMENSION
6
CONTINUOUS
62
7
370
0
100
AcDbMText
10
600.917097191
20
260
30
0
40
16
41
32
71
5
72
1
1
300
7
standard
210
0
220
0
230
1
50
0
73
2
44
1
0
LINE
5
14B
100
AcDbEntity
8
DIMENSION
6
CONTINUOUS
62
7
370
0
100
AcDbLine
10
450.917097191
20
299.95
11
450.917097191
21
279.8
0
LINE
5
14C
100
AcDbEntity
8
DIMENSION
6
CONTINUOUS
62
7
370
0
100
AcDbLine
10
750.917097191
20
299.95
11
750.917097191
21
279.8
0
ENDBLK
5
98
330
96
100
AcDbEntity
8
0
100
AcDbBlockEnd
0
BLOCK
5
9A
330
99
100
AcDbEntity
8
0
100
AcDbBlockBegin
2
*D1
70
1
10
0
20
0
3
*D1
1

0
LINE
5
14D
100
AcDbEntity
8
DIMENSION
6
CONTINUOUS
62
7
370
0
100
AcDbLine
10
250.917097191
20
470
11
310.917097191
21
470
0
SOLID
5
14E
100
AcDbEntity
8
DIMENSION
6
CONTINUOUS
62
7
370
0
100
AcDbTrace
10
250.917097191
20
470
30
0
11
266.917097191
21
472.66422181
31
0
12
266.917097191
22
467.33577819
32
0
13
266.917097191
23
467.33577819
33
0
0
SOLID
5
14F
100
AcDbEntity
8
DIMENSION
6
CONTINUOUS
62
7
370
0
100
AcDbTrace
10
310.917097191
20
470
30
0
11
294.917097191
21
467.33577819
31
0
12
294.917097191
22
472.66422181
32
0
13
294.917097191
23
472.66422181
33
0
0
MTEXT
5
150
100
AcDbEntity
8
DIMENSION
6
CONTINUOUS
62
7
370
0
100
AcDbMText
10
280.917097191
20
490
30
0
40
16
41
19.5555555556
71
5
72
1
1
60
7
standard
210
0
220
0
230
1
50
0
73
2
44
1
0
LINE
5
151
100
AcDbEntity
8
DIMENSION
6
CONTINUOUS
62
7
370
0
100
AcDbLine
10
250.917097191
20
450.05
11
250.917097191
21
470.2
0
LINE
5
152
100
AcDbEntity
8
DIMENSION
6
CONTINUOUS
62
7
370
0
100
AcDbLine
10
310.917097191
20
450.05
11
310.917097191
21
470.2
0
ENDBLK
5
9B
330
99
100
AcDbEntity
8
0
100
AcDbBlockEnd
0
BLOCK
5
9D
330
9C
100
AcDbEntity
8
0
100
AcDbBlockBegin
2
*D2
70
1
10
0
20
0
3
*D2
1

0
LINE
5
153
100
AcDbEntity
8
DIMENSION
6
CONTINUOUS
62
7
370
0
100
AcDbLine
10
310.917097191
20
470
11
430.917097191
21
470
0
SOLID
5
154
100
AcDbEntity
8
DIMENSION
6
CONTINUOUS
62
7
370
0
100
AcDbTrace
10
310.917097191
20
470
30
0
11
326.917097191
21
472.66422181
31
0
12
326.917097191
22
467.33577819
32
0
13
326.917097191
23
467.33577819
33
0
0
SOLID
5
155
100
AcDbEntity
8
DIMENSION
6
CONTINUOUS
62
7
370
0
100
AcDbTrace
10
430.917097191
20
470
30
0
11
414.917097191
21
467.33577819
31
0
12
414.917097191
22
472.66422181
32
0
13
414.917097191
23
472.66422181
33
0
0
MTEXT
5
156
100
AcDbEntity
8
DIMENSION
6
CONTINUOUS
62
7
370
0
100
AcDbMText
10
370.917097191
20
490
30
0
40
16
41
28.4444444444
71
5
72
1
1
120
7
standard
210
0
220
0
230
1
50
0
73
2
44
1
0
LINE
5
157
100
AcDbEntity
8
DIMENSION
6
CONTINUOUS
62
7
370
0
100
AcDbLine
10
310.917097191
20
450.05
11
310.917097191
21
470.2
0
LINE
5
158
100
AcDbEntity
8
DIMENSION
6
CONTINUOUS
62
7
370
0
100
AcDbLine
10
430.917097191
20
450.05
11
430.917097191
21
470.2
0
ENDBLK
5
9E
330
9C
100
AcDbEntity
8
0
100
AcDbBlockEnd
0
BLOCK
5
A0
330
9F
100
AcDbEntity
8
0
100
AcDbBlockBegin
2
*D26
70
1
10
0
20
0
3
*D26
1

0
LINE
5
159
100
AcDbEntity
8
DIMENSION
6
CONTINUOUS
62
7
370
0
100
AcDbLine
10
1050.91709719
20
280
11
1350.91709719
21
280
0
SOLID
5
15A
100
AcDbEntity
8
DIMENSION
6
CONTINUOUS
62
7
370
0
100
AcDbTrace
10
1050.91709719
20
280
30
0
11
1066.91709719
21
282.66422181
31
0
12
1066.91709719
22
277.33577819
32
0
13
1066.91709719
23
277.33577819
33
0
0
SOLID
5
15B
100
AcDbEntity
8
DIMENSION
6
CONTINUOUS
62
7
370
0
100
AcDbTrace
10
1350.91709719
20
280
30
0
11
1334.91709719
21
277.33577819
31
0
12
1334.91709719
22
282.66422181
32
0
13
1334.91709719
23
282.66422181
33
0
0
MTEXT
5
15C
100
AcDbEntity
8
DIMENSION
6
CONTINUOUS
62
7
370
0
100
AcDbMText
10
1200.91709719
20
260
30
0
40
16
41
32
71
5
72
1
1
300
7
standard
210
0
220
0
230
1
50
0
73
2
44
1
0
LINE
5
15D
100
AcDbEntity
8
DIMENSION
6
CONTINUOUS
62
7
370
0
100
AcDbLine
10
1050.91709719
20
299.95
11
1050.91709719
21
279.8
0
LINE
5
15E
100
AcDbEntity
8
DIMENSION
6
CONTINUOUS
62
7
370
0
100
AcDbLine
10
1350.91709719
20
299.95
11
1350.91709719
21
279.8
0
ENDBLK
5
A1
330
9F
100
AcDbEntity
8
0
100
AcDbBlockEnd
0
BLOCK
5
A3
330
A2
100
AcDbEntity
8
0
100
AcDbBlockBegin
2
SUPPORT_A
70
0
10
0
20
0
3
SUPPORT_A
1

0
LINE
5
15F
100
AcDbEntity
8
SUPPORT
6
ByLayer
62
256
370
-1
100
AcDbLine
10
12.5
20
-25
11
12.5
21
25
0
LINE
5
160
100
AcDbEntity
8
SUPPORT
6
ByLayer
62
256
370
-1
100
AcDbLine
10
-12.5
20
25
11
-12.5
21
-25
0
LINE
5
161
100
AcDbEntity
8
SUPPORT
6
ByLayer
62
256
370
-1
100
AcDbLine
10
-12.5
20
23
11
12.5
21
23
0
LINE
5
162
100
AcDbEntity
8
SUPPORT
6
ByLayer
62
256
370
-1
100
AcDbLine
10
-12.5
20
-23
11
12.5
21
-23
0
CIRCLE
5
163
100
AcDbEntity
8
SUPPORT
6
ByLayer
62
256
370
-1
100
AcDbCircle
10
0
20
0
40
4
0
LINE
5
164
100
AcDbEntity
8
SUPPORT
6
ByLayer
62
256
370
-1
100
AcDbLine
10
12.5
20
25
11
-12.5
21
25
0
LINE
5
165
100
AcDbEntity
8
SUPPORT
6
ByLayer
62
256
370
-1
100
AcDbLine
10
-12.5
20
-25
11
12.5
21
-25
0
ENDBLK
5
A4
330
A2
100
AcDbEntity
8
0
100
AcDbBlockEnd
0
BLOCK
5
A6
330
A5
100
AcDbEntity
8
0
100
AcDbBlockBegin
2
SUPPORT_B
70
0
10
0
20
0
3
SUPPORT_B
1

0
HATCH
5
166
100
AcDbEntity
8
0
6
ByLayer
62
256
370
-1
100
AcDbHatch
10
0
20
0
30
0
210
0
220
0
230
1
2
ansi31
70
0
71
0
91
1
92
0
93
4
72
1
10
-4
20
-10.5
11
4
21
-10.5
72
1
10
4
20
-10.5
11
4
21
-12.5
72
1
10
4
20
-12.5
11
-4
21
-12.5
72
1
10
-4
20
-12.5
11
-4
21
-10.5
97
0
75
0
76
1
52
0
41
0.8
77
0
78
0
98
0
0
LINE
5
167
100
AcDbEntity
8
0
6
ByLayer
62
256
370
-1
100
AcDbLine
10
-4
20
-10.5
11
4
21
-10.5
0
LINE
5
168
100
AcDbEntity
8
0
6
ByLayer
62
256
370
-1
100
AcDbLine
10
4
20
-10.5
11
4
21
-12.5
0
LINE
5
169
100
AcDbEntity
8
0
6
ByLayer
62
256
370
-1
100
AcDbLine
10
4
20
-12.5
11
-4
21
-12.5
0
LINE
5
16A
100
AcDbEntity
8
SUPPORT
6
ByLayer
62
256
370
-1
100
AcDbLine
10
-12.5
20
12.5
11
-12.5
21
-12.5
0
LINE
5
16B
100
AcDbEntity
8
SUPPORT
6
ByLayer
62
256
370
-1
100
AcDbLine
10
12.5
20
-12.5
11
12.5
21
12.5
0
LINE
5
16C
100
AcDbEntity
8
SUPPORT
6
ByLayer
62
256
370
-1
100
AcDbLine
10
-12.5
20
-10.5
11
12.5
21
-10.5
0
LINE
5
16D
100
AcDbEntity
8
SUPPORT
6
ByLayer
62
256
370
-1
100
AcDbLine
10
-12.5
20
-12.5
11
12.5
21
-12.5
0
LINE
5
16E
100
AcDbEntity
8
SUPPORT
6
ByLayer
62
256
370
-1
100
AcDbLine
10
-4
20
-12.5
11
-4
21
-10.5
0
ENDBLK
5
A7
330
A5
100
AcDbEntity
8
0
100
AcDbBlockEnd
0
BLOCK
5
A9
330
A8
100
AcDbEntity
8
0
100
AcDbBlockBegin
2
TITLE_BLOCK
70
0
10
0
20
0
3
TITLE_BLOCK
1

0
LINE
5
16F
100
AcDbEntity
8
LAYOUT_BLOCK
6
ByLayer
62
256
370
-1
100
AcDbLine
10
0
20
8.66141732283
11
0
21
0
0
LINE
5
170
100
AcDbEntity
8
LAYOUT_BLOCK
6
ByLayer
62
256
370
-1
100
AcDbLine
10
0.196850393701
20
8.46456692913
11
0.196850393701
21
0.196850393701
0
LINE
5
171
100
AcDbEntity
8
LAYOUT_BLOCK
6
ByLayer
62
256
370
-1
100
AcDbLine
10
11.8897637795
20
0.196850393701
11
11.8897637795
21
8.46456692913
0
LINE
5
172
100
AcDbEntity
8
LAYOUT_BLOCK
6
ByLayer
62
256
370
-1
100
AcDbLine
10
12.0866141732
20
0
11
12.0866141732
21
8.66141732283
0
LINE
5
173
100
AcDbEntity
8
LAYOUT_BLOCK
6
ByLayer
62
256
370
-1
100
AcDbLine
10
0.196850393701
20
0.196850393701
11
11.8897637795
21
0.196850393701
0
LINE
5
174
100
AcDbEntity
8
LAYOUT_BLOCK
6
ByLayer
62
256
370
-1
100
AcDbLine
10
0
20
0
11
12.0866141732
21
0
0
LINE
5
175
100
AcDbEntity
8
LAYOUT_BLOCK
6
ByLayer
62
256
370
-1
100
AcDbLine
10
12.0866141732
20
8.66141732283
11
0
21
8.66141732283
0
LINE
5
176
100
AcDbEntity
8
LAYOUT_BLOCK
6
ByLayer
62
256
370
-1
100
AcDbLine
10
11.8897637795
20
8.46456692913
11
0.196850393701
21
8.46456692913
0
LINE
5
177
100
AcDbEntity
8
LAYOUT_BLOCK
6
ByLayer
62
256
370
-1
100
AcDbLine
10
1.65846456693
20
8.46456692913
11
1.65846456693
21
8.66141732283
0
LINE
5
178
100
AcDbEntity
8
LAYOUT_BLOCK
6
ByLayer
62
256
370
-1
100
AcDbLine
10
3.12007874016
20
8.46456692913
11
3.12007874016
21
8.66141732283
0
LINE
5
179
100
AcDbEntity
8
LAYOUT_BLOCK
6
ByLayer
62
256
370
-1
100
AcDbLine
10
4.58169291339
20
8.46456692913
11
4.58169291339
21
8.66141732283
0
LINE
5
17A
100
AcDbEntity
8
LAYOUT_BLOCK
6
ByLayer
62
256
370
-1
100
AcDbLine
10
6.04330708661
20
8.46456692913
11
6.04330708661
21
8.66141732283
0
LINE
5
17B
100
AcDbEntity
8
LAYOUT_BLOCK
6
ByLayer
62
256
370
-1
100
AcDbLine
10
7.50492125984
20
8.46456692913
11
7.50492125984
21
8.66141732283
0
LINE
5
17C
100
AcDbEntity
8
LAYOUT_BLOCK
6
ByLayer
62
256
370
-1
100
AcDbLine
10
8.96653543307
20
8.46456692913
11
8.96653543307
21
8.66141732283
0
LINE
5
17D
100
AcDbEntity
8
LAYOUT_BLOCK
6
ByLayer
62
256
370
-1
100
AcDbLine
10
10.4281496063
20
8.46456692913
11
10.4281496063
21
8.66141732283
0
LINE
5
17E
100
AcDbEntity
8
LAYOUT_BLOCK
6
ByLayer
62
256
370
-1
100
AcDbLine
10
0.196850393701
20
4.33070866142
11
0
21
4.33070866142
0
LINE
5
17F
100
AcDbEntity
8
LAYOUT_BLOCK
6
ByLayer
62
256
370
-1
100
AcDbLine
10
0.196850393701
20
5.36417322835
11
0
21
5.36417322835
0
LINE
5
180
100
AcDbEntity
8
LAYOUT_BLOCK
6
ByLayer
62
256
370
-1
100
AcDbLine
10
0.196850393701
20
6.39763779528
11
0
21
6.39763779528
0
LINE
5
181
100
AcDbEntity
8
LAYOUT_BLOCK
6
ByLayer
62
256
370
-1
100
AcDbLine
10
0.196850393701
20
7.4311023622
11
0
21
7.4311023622
0
LINE
5
182
100
AcDbEntity
8
LAYOUT_BLOCK
6
ByLayer
62
256
370
-1
100
AcDbLine
10
0.196850393701
20
3.29724409449
11
0
21
3.29724409449
0
LINE
5
183
100
AcDbEntity
8
LAYOUT_BLOCK
6
ByLayer
62
256
370
-1
100
AcDbLine
10
0.196850393701
20
2.26377952756
11
0
21
2.26377952756
0
LINE
5
184
100
AcDbEntity
8
LAYOUT_BLOCK
6
ByLayer
62
256
370
-1
100
AcDbLine
10
0.196850393701
20
1.23031496063
11
0
21
1.23031496063
0
TEXT
5
185
100
AcDbEntity
8
LAYOUT_BLOCK
6
ByLayer
62
256
370
-1
100
AcDbText
10
0.0984251968504
20
0.713582677165
30
0
40
0.11811023622
1
A
50
0
41
1
51
0
7
standard
71
0
72
1
11
0.0984251968504
21
0.713582677165
31
0
210
0
220
0
230
1
100
AcDbText
73
2
0
TEXT
5
186
100
AcDbEntity
8
LAYOUT_BLOCK
6
ByLayer
62
256
370
-1
100
AcDbText
10
0.0984251968504
20
1.74704724409
30
0
40
0.11811023622
1
B
50
0
41
1
51
0
7
standard
71
0
72
1
11
0.0984251968504
21
1.74704724409
31
0
210
0
220
0
230
1
100
AcDbText
73
2
0
TEXT
5
187
100
AcDbEntity
8
LAYOUT_BLOCK
6
ByLayer
62
256
370
-1
100
AcDbText
10
0.0984251968504
20
2.78051181102
30
0
40
0.11811023622
1
C
50
0
41
1
51
0
7
standard
71
0
72
1
11
0.0984251968504
21
2.78051181102
31
0
210
0
220
0
230
1
100
AcDbText
73
2
0
TEXT
5
188
100
AcDbEntity
8
LAYOUT_BLOCK
6
ByLayer
62
256
370
-1
100
AcDbText
10
0.0984251968504
20
3.81397637795
30
0
40
0.11811023622
1
D
50
0
41
1
51
0
7
standard
71
0
72
1
11
0.0984251968504
21
3.81397637795
31
0
210
0
220
0
230
1
100
AcDbText
73
2
0
TEXT
5
189
100
AcDbEntity
8
LAYOUT_BLOCK
6
ByLayer
62
256
370
-1
100
AcDbText
10
0.0984251968504
20
4.84744094488
30
0
40
0.11811023622
1
E
50
0
41
1
51
0
7
standard
71
0
72
1
11
0.0984251968504
21
4.84744094488
31
0
210
0
220
0
230
1
100
AcDbText
73
2
0
TEXT
5
18A
100
AcDbEntity
8
LAYOUT_BLOCK
6
ByLayer
62
256
370
-1
100
AcDbText
10
0.0984251968504
20
5.88090551181
30
0
40
0.11811023622
1
F
50
0
41
1
51
0
7
standard
71
0
72
1
11
0.0984251968504
21
5.88090551181
31
0
210
0
220
0
230
1
100
AcDbText
73
2
0
TEXT
5
18B
100
AcDbEntity
8
LAYOUT_BLOCK
6
ByLayer
62
256
370
-1
100
AcDbText
10
0.0984251968504
20
6.91437007874
30
0
40
0.11811023622
1
G
50
0
41
1
51
0
7
standard
71
0
72
1
11
0.0984251968504
21
6.91437007874
31
0
210
0
220
0
230
1
100
AcDbText
73
2
0
TEXT
5
18C
100
AcDbEntity
8
LAYOUT_BLOCK
6
ByLayer
62
256
370
-1
100
AcDbText
10
0.0984251968504
20
7.94783464567
30
0
40
0.11811023622
1
H
50
0
41
1
51
0
7
standard
71
0
72
1
11
0.0984251968504
21
7.94783464567
31
0
210
0
220
0
230
1
100
AcDbText
73
2
0
TEXT
5
18D
100
AcDbEntity
8
LAYOUT_BLOCK
6
ByLayer
62
256
370
-1
100
AcDbText
10
0.927657480315
20
8.56299212598
30
0
40
0.11811023622
1
1
50
0
41
1
51
0
7
standard
71
0
72
1
11
0.927657480315
21
8.56299212598
31
0
210
0
220
0
230
1
100
AcDbText
73
2
0
TEXT
5
18E
100
AcDbEntity
8
LAYOUT_BLOCK
6
ByLayer
62
256
370
-1
100
AcDbText
10
2.38927165354
20
8.56299212598
30
0
40
0.11811023622
1
2
50
0
41
1
51
0
7
standard
71
0
72
1
11
2.38927165354
21
8.56299212598
31
0
210
0
220
0
230
1
100
AcDbText
73
2
0
TEXT
5
18F
100
AcDbEntity
8
LAYOUT_BLOCK
6
ByLayer
62
256
370
-1
100
AcDbText
10
3.85088582677
20
8.56299212598
30
0
40
0.11811023622
1
3
50
0
41
1
51
0
7
standard
71
0
72
1
11
3.85088582677
21
8.56299212598
31
0
210
0
220
0
230
1
100
AcDbText
73
2
0
TEXT
5
190
100
AcDbEntity
8
LAYOUT_BLOCK
6
ByLayer
62
256
370
-1
100
AcDbText
10
5.3125
20
8.56299212598
30
0
40
0.11811023622
1
4
50
0
41
1
51
0
7
standard
71
0
72
1
11
5.3125
21
8.56299212598
31
0
210
0
220
0
230
1
100
AcDbText
73
2
0
TEXT
5
191
100
AcDbEntity
8
LAYOUT_BLOCK
6
ByLayer
62
256
370
-1
100
AcDbText
10
6.77411417323
20
8.56299212598
30
0
40
0.11811023622
1
5
50
0
41
1
51
0
7
standard
71
0
72
1
11
6.77411417323
21
8.56299212598
31
0
210
0
220
0
230
1
100
AcDbText
73
2
0
TEXT
5
192
100
AcDbEntity
8
LAYOUT_BLOCK
6
ByLayer
62
256
370
-1
100
AcDbText
10
8.23572834646
20
8.56299212598
30
0
40
0.11811023622
1
6
50
0
41
1
51
0
7
standard
71
0
72
1
11
8.23572834646
21
8.56299212598
31
0
210
0
220
0
230
1
100
AcDbText
73
2
0
TEXT
5
193
100
AcDbEntity
8
LAYOUT_BLOCK
6
ByLayer
62
256
370
-1
100
AcDbText
10
9.69734251969
20
8.56299212598
30
0
40
0.11811023622
1
7
50
0
41
1
51
0
7
standard
71
0
72
1
11
9.69734251969
21
8.56299212598
31
0
210
0
220
0
230
1
100
AcDbText
73
2
0
TEXT
5
194
100
AcDbEntity
8
LAYOUT_BLOCK
6
ByLayer
62
256
370
-1
100
AcDbText
10
11.1589566929
20
8.56299212598
30
0
40
0.11811023622
1
8
50
0
41
1
51
0
7
standard
71
0
72
1
11
11.1589566929
21
8.56299212598
31
0
210
0
220
0
230
1
100
AcDbText
73
2
0
LINE
5
195
100
AcDbEntity
8
LAYOUT_BLOCK
6
ByLayer
62
256
370
-1
100
AcDbLine
10
12.0866141732
20
4.33070866142
11
11.8897637795
21
4.33070866142
0
LINE
5
196
100
AcDbEntity
8
LAYOUT_BLOCK
6
ByLayer
62
256
370
-1
100
AcDbLine
10
12.0866141732
20
5.36417322835
11
11.8897637795
21
5.36417322835
0
LINE
5
197
100
AcDbEntity
8
LAYOUT_BLOCK
6
ByLayer
62
256
370
-1
100
AcDbLine
10
12.0866141732
20
6.39763779528
11
11.8897637795
21
6.39763779528
0
LINE
5
198
100
AcDbEntity
8
LAYOUT_BLOCK
6
ByLayer
62
256
370
-1
100
AcDbLine
10
12.0866141732
20
7.4311023622
11
11.8897637795
21
7.4311023622
0
LINE
5
199
100
AcDbEntity
8
LAYOUT_BLOCK
6
ByLayer
62
256
370
-1
100
AcDbLine
10
12.0866141732
20
3.29724409449
11
11.8897637795
21
3.29724409449
0
LINE
5
19A
100
AcDbEntity
8
LAYOUT_BLOCK
6
ByLayer
62
256
370
-1
100
AcDbLine
10
12.0866141732
20
2.26377952756
11
11.8897637795
21
2.26377952756
0
LINE
5
19B
100
AcDbEntity
8
LAYOUT_BLOCK
6
ByLayer
62
256
370
-1
100
AcDbLine
10
12.0866141732
20
1.23031496063
11
11.8897637795
21
1.23031496063
0
TEXT
5
19C
100
AcDbEntity
8
LAYOUT_BLOCK
6
ByLayer
62
256
370
-1
100
AcDbText
10
11.9881889764
20
0.713582677165
30
0
40
0.11811023622
1
A
50
0
41
1
51
0
7
standard
71
0
72
1
11
11.9881889764
21
0.713582677165
31
0
210
0
220
0
230
1
100
AcDbText
73
2
0
TEXT
5
19D
100
AcDbEntity
8
LAYOUT_BLOCK
6
ByLayer
62
256
370
-1
100
AcDbText
10
11.9881889764
20
1.74704724409
30
0
40
0.11811023622
1
B
50
0
41
1
51
0
7
standard
71
0
72
1
11
11.9881889764
21
1.74704724409
31
0
210
0
220
0
230
1
100
AcDbText
73
2
0
TEXT
5
19E
100
AcDbEntity
8
LAYOUT_BLOCK
6
ByLayer
62
256
370
-1
100
AcDbText
10
11.9881889764
20
2.78051181102
30
0
40
0.11811023622
1
C
50
0
41
1
51
0
7
standard
71
0
72
1
11
11.9881889764
21
2.78051181102
31
0
210
0
220
0
230
1
100
AcDbText
73
2
0
TEXT
5
19F
100
AcDbEntity
8
LAYOUT_BLOCK
6
ByLayer
62
256
370
-1
100
AcDbText
10
11.9881889764
20
3.81397637795
30
0
40
0.11811023622
1
D
50
0
41
1
51
0
7
standard
71
0
72
1
11
11.9881889764
21
3.81397637795
31
0
210
0
220
0
230
1
100
AcDbText
73
2
0
TEXT
5
1A0
100
AcDbEntity
8
LAYOUT_BLOCK
6
ByLayer
62
256
370
-1
100
AcDbText
10
11.9881889764
20
4.84744094488
30
0
40
0.11811023622
1
E
50
0
41
1
51
0
7
standard
71
0
72
1
11
11.9881889764
21
4.84744094488
31
0
210
0
220
0
230
1
100
AcDbText
73
2
0
TEXT
5
1A1
100
AcDbEntity
8
LAYOUT_BLOCK
6
ByLayer
62
256
370
-1
100
AcDbText
10
11.9881889764
20
5.88090551181
30
0
40
0.11811023622
1
F
50
0
41
1
51
0
7
standard
71
0
72
1
11
11.9881889764
21
5.88090551181
31
0
210
0
220
0
230
1
100
AcDbText
73
2
0
TEXT
5
1A2
100
AcDbEntity
8
LAYOUT_BLOCK
6
ByLayer
62
256
370
-1
100
AcDbText
10
11.9881889764
20
6.91437007874
30
0
40
0.11811023622
1
G
50
0
41
1
51
0
7
standard
71
0
72
1
11
11.9881889764
21
6.91437007874
31
0
210
0
220
0
230
1
100
AcDbText
73
2
0
TEXT
5
1A3
100
AcDbEntity
8
LAYOUT_BLOCK
6
ByLayer
62
256
370
-1
100
AcDbText
10
11.9881889764
20
7.94783464567
30
0
40
0.11811023622
1
H
50
0
41
1
51
0
7
standard
71
0
72
1
11
11.9881889764
21
7.94783464567
31
0
210
0
220
0
230
1
100
AcDbText
73
2
0
LINE
5
1A4
100
AcDbEntity
8
LAYOUT_BLOCK
6
ByLayer
62
256
370
-1
100
AcDbLine
10
1.65846456693
20
0
11
1.65846456693
21
0.196850393701
0
LINE
5
1A5
100
AcDbEntity
8
LAYOUT_BLOCK
6
ByLayer
62
256
370
-1
100
AcDbLine
10
3.12007874016
20
0
11
3.12007874016
21
0.196850393701
0
LINE
5
1A6
100
AcDbEntity
8
LAYOUT_BLOCK
6
ByLayer
62
256
370
-1
100
AcDbLine
10
4.58169291339
20
0
11
4.58169291339
21
0.196850393701
0
LINE
5
1A7
100
AcDbEntity
8
LAYOUT_BLOCK
6
ByLayer
62
256
370
-1
100
AcDbLine
10
6.04330708661
20
0
11
6.04330708661
21
0.196850393701
0
LINE
5
1A8
100
AcDbEntity
8
LAYOUT_BLOCK
6
ByLayer
62
256
370
-1
100
AcDbLine
10
7.50492125984
20
0
11
7.50492125984
21
0.196850393701
0
LINE
5
1A9
100
AcDbEntity
8
LAYOUT_BLOCK
6
ByLayer
62
256
370
-1
100
AcDbLine
10
8.96653543307
20
0
11
8.96653543307
21
0.196850393701
0
LINE
5
1AA
100
AcDbEntity
8
LAYOUT_BLOCK
6
ByLayer
62
256
370
-1
100
AcDbLine
10
10.4281496063
20
0
11
10.4281496063
21
0.196850393701
0
TEXT
5
1AB
100
AcDbEntity
8
LAYOUT_BLOCK
6
ByLayer
62
256
370
-1
100
AcDbText
10
0.927657480315
20
0.0984251968504
30
0
40
0.11811023622
1
1
50
0
41
1
51
0
7
standard
71
0
72
1
11
0.927657480315
21
0.0984251968504
31
0
210
0
220
0
230
1
100
AcDbText
73
2
0
TEXT
5
1AC
100
AcDbEntity
8
LAYOUT_BLOCK
6
ByLayer
62
256
370
-1
100
AcDbText
10
2.38927165354
20
0.0984251968504
30
0
40
0.11811023622
1
2
50
0
41
1
51
0
7
standard
71
0
72
1
11
2.38927165354
21
0.0984251968504
31
0
210
0
220
0
230
1
100
AcDbText
73
2
0
TEXT
5
1AD
100
AcDbEntity
8
LAYOUT_BLOCK
6
ByLayer
62
256
370
-1
100
AcDbText
10
3.85088582677
20
0.0984251968504
30
0
40
0.11811023622
1
3
50
0
41
1
51
0
7
standard
71
0
72
1
11
3.85088582677
21
0.0984251968504
31
0
210
0
220
0
230
1
100
AcDbText
73
2
0
TEXT
5
1AE
100
AcDbEntity
8
LAYOUT_BLOCK
6
ByLayer
62
256
370
-1
100
AcDbText
10
5.3125
20
0.0984251968504
30
0
40
0.11811023622
1
4
50
0
41
1
51
0
7
standard
71
0
72
1
11
5.3125
21
0.0984251968504
31
0
210
0
220
0
230
1
100
AcDbText
73
2
0
TEXT
5
1AF
100
AcDbEntity
8
LAYOUT_BLOCK
6
ByLayer
62
256
370
-1
100
AcDbText
10
6.77411417323
20
0.0984251968504
30
0
40
0.11811023622
1
5
50
0
41
1
51
0
7
standard
71
0
72
1
11
6.77411417323
21
0.0984251968504
31
0
210
0
220
0
230
1
100
AcDbText
73
2
0
TEXT
5
1B0
100
AcDbEntity
8
LAYOUT_BLOCK
6
ByLayer
62
256
370
-1
100
AcDbText
10
8.23572834646
20
0.0984251968504
30
0
40
0.11811023622
1
6
50
0
41
1
51
0
7
standard
71
0
72
1
11
8.23572834646
21
0.0984251968504
31
0
210
0
220
0
230
1
100
AcDbText
73
2
0
TEXT
5
1B1
100
AcDbEntity
8
LAYOUT_BLOCK
6
ByLayer
62
256
370
-1
100
AcDbText
10
9.69734251969
20
0.0984251968504
30
0
40
0.11811023622
1
7
50
0
41
1
51
0
7
standard
71
0
72
1
11
9.69734251969
21
0.0984251968504
31
0
210
0
220
0
230
1
100
AcDbText
73
2
0
TEXT
5
1B2
100
AcDbEntity
8
LAYOUT_BLOCK
6
ByLayer
62
256
370
-1
100
AcDbText
10
11.1589566929
20
0.0984251968504
30
0
40
0.11811023622
1
8
50
0
41
1
51
0
7
standard
71
0
72
1
11
11.1589566929
21
0.0984251968504
31
0
210
0
220
0
230
1
100
AcDbText
73
2
0
LINE
5
1B3
100
AcDbEntity
8
LAYOUT_BLOCK
6
ByLayer
62
256
370
-1
100
AcDbLine
10
7.95275590551
20
0.196850393701
11
7.95275590551
21
0.984251968504
0
TEXT
5
1B4
100
AcDbEntity
8
LAYOUT_BLOCK
6
ByLayer
62
256
370
-1
100
AcDbText
10
7.99212598425
20
0.944881889764
30
0
40
0.0787401574803
1
TITLE:
50
0
41
1
51
0
7
standard
71
0
11
7.99212598425
21
0.944881889764
31
0
210
0
220
0
230
1
100
AcDbText
73
3
0
TEXT
5
1B5
100
AcDbEntity
8
LAYOUT_BLOCK
6
ByLayer
62
256
370
-1
100
AcDbText
10
7.99212598425
20
0.551181102362
30
0
40
0.0787401574803
1
PART:
50
0
41
1
51
0
7
standard
71
0
11
7.99212598425
21
0.551181102362
31
0
210
0
220
0
230
1
100
AcDbText
73
3
0
LINE
5
1B6
100
AcDbEntity
8
LAYOUT_BLOCK
6
ByLayer
62
256
370
-1
100
AcDbLine
10
5.1968503937
20
0.984251968504
11
5.1968503937
21
0.196850393701
0
LINE
5
1B7
100
AcDbEntity
8
LAYOUT_BLOCK
6
ByLayer
62
256
370
-1
100
AcDbLine
10
5.1968503937
20
0.590551181102
11
11.8897637795
21
0.590551181102
0
TEXT
5
1B8
100
AcDbEntity
8
LAYOUT_BLOCK
6
ByLayer
62
256
370
-1
100
AcDbText
10
5.23622047244
20
0.944881889764
30
0
40
0.0787401574803
1
MATERIAL:
50
0
41
1
51
0
7
standard
71
0
11
5.23622047244
21
0.944881889764
31
0
210
0
220
0
230
1
100
AcDbText
73
3
0
TEXT
5
1B9
100
AcDbEntity
8
LAYOUT_BLOCK
6
ByLayer
62
256
370
-1
100
AcDbText
10
5.23622047244
20
0.551181102362
30
0
40
0.0787401574803
1
FINISHING:
50
0
41
1
51
0
7
standard
71
0
11
5.23622047244
21
0.551181102362
31
0
210
0
220
0
230
1
100
AcDbText
73
3
0
LINE
5
1BA
100
AcDbEntity
8
LAYOUT_BLOCK
6
ByLayer
62
256
370
-1
100
AcDbLine
10
0.196850393701
20
0.984251968504
11
11.887496063
21
0.981530708665
0
LINE
5
1BB
100
AcDbEntity
8
LAYOUT_BLOCK
6
ByLayer
62
256
370
-1
100
AcDbLine
10
10.7086614173
20
8.46456692913
11
10.7086614173
21
8.07086614173
0
LINE
5
1BC
100
AcDbEntity
8
LAYOUT_BLOCK
6
ByLayer
62
256
370
-1
100
AcDbLine
10
10.7086614173
20
8.07086614173
11
11.8897637795
21
8.07086614173
0
TEXT
5
1BD
100
AcDbEntity
8
LAYOUT_BLOCK
6
ByLayer
62
256
370
-1
100
AcDbText
10
10.7480314961
20
8.42519685039
30
0
40
0.0787401574803
1
REVISION:
50
0
41
1
51
0
7
standard
71
0
11
10.7480314961
21
8.42519685039
31
0
210
0
220
0
230
1
100
AcDbText
73
3
0
ENDBLK
5
AA
330
A8
100
AcDbEntity
8
0
100
AcDbBlockEnd
0
BLOCK
5
AC
330
AB
100
AcDbEntity
8
0
100
AcDbBlockBegin
2
JUNCTION_DRILLING
70
0
10
0
20
0
3
JUNCTION_DRILLING
1

0
CIRCLE
5
1BE
100
AcDbEntity
8
0
6
ByLayer
62
256
370
-1
100
AcDbCircle
10
25
20
-25
40
4
0
CIRCLE
5
1BF
100
AcDbEntity
8
0
6
ByLayer
62
256
370
-1
100
AcDbCircle
10
75
20
-25
40
4
0
CIRCLE
5
1C0
100
AcDbEntity
8
0
6
ByLayer
62
256
370
-1
100
AcDbCircle
10
25
20
-75
40
4
0
CIRCLE
5
1C1
100
AcDbEntity
8
0
6
ByLayer
62
256
370
-1
100
AcDbCircle
10
75
20
-75
40
4
0
ENDBLK
5
AD
330
AB
100
AcDbEntity
8
0
100
AcDbBlockEnd
0
BLOCK
5
AF
330
AE
100
AcDbEntity
8
0
100
AcDbBlockBegin
2
LEGS_DRILLING
70
0
10
0
20
0
3
LEGS_DRILLING
1

0
CIRCLE
5
1C2
100
AcDbEntity
8
0
6
ByLayer
62
256
370
-1
100
AcDbCircle
10
115
20
-25
40
4
0
CIRCLE
5
1C3
100
AcDbEntity
8
0
6
ByLayer
62
256
370
-1
100
AcDbCircle
10
115
20
-75
40
4
0
CIRCLE
5
1C4
100
AcDbEntity
8
0
6
ByLayer
62
256
370
-1
100
AcDbCircle
10
245
20
-25
40
4
0
CIRCLE
5
1C5
100
AcDbEntity
8
0
6
ByLayer
62
256
370
-1
100
AcDbCircle
10
245
20
-75
40
4
0
ENDBLK
5
B0
330
AE
100
AcDbEntity
8
0
100
AcDbBlockEnd
0
ENDSEC
0
SECTION
2
ENTITIES
0
CIRCLE
5
1C6
100
AcDbEntity
8
0
6
ByLayer
62
256
370
-1
100
AcDbCircle
10
310.917097191
20
390.047690947
40
2
0
CIRCLE
5
1C7
100
AcDbEntity
8
0
6
ByLayer
62
256
370
-1
100
AcDbCircle
10
430.917097191
20
390.047690947
40
2
0
CIRCLE
5
1C8
100
AcDbEntity
8
0
6
ByLayer
62
256
370
-1
100
AcDbCircle
10
450.917097191
20
347.212690947
40
3
0
CIRCLE
5
1C9
100
AcDbEntity
8
0
6
ByLayer
62
256
370
-1
100
AcDbCircle
10
550.917097191
20
390.047690947
40
2
0
CIRCLE
5
1CA
100
AcDbEntity
8
0
6
ByLayer
62
256
370
-1
100
AcDbCircle
10
670.917097191
20
390.047690947
40
2
0
CIRCLE
5
1CB
100
AcDbEntity
8
0
6
ByLayer
62
256
370
-1
100
AcDbCircle
10
790.917097191
20
390.047690947
40
2
0
CIRCLE
5
1CC
100
AcDbEntity
8
0
6
ByLayer
62
256
370
-1
100
AcDbCircle
10
750.917097191
20
347.212690947
40
3
0
CIRCLE
5
1CD
100
AcDbEntity
8
0
6
ByLayer
62
256
370
-1
100
AcDbCircle
10
910.917097191
20
390.047690947
40
2
0
CIRCLE
5
1CE
100
AcDbEntity
8
0
6
ByLayer
62
256
370
-1
100
AcDbCircle
10
1030.91709719
20
390.047690947
40
2
0
CIRCLE
5
1CF
100
AcDbEntity
8
0
6
ByLayer
62
256
370
-1
100
AcDbCircle
10
1050.91709719
20
347.212690947
40
3
0
CIRCLE
5
1D0
100
AcDbEntity
8
0
6
ByLayer
62
256
370
-1
100
AcDbCircle
10
1150.91709719
20
390.047690947
40
2
0
CIRCLE
5
1D1
100
AcDbEntity
8
0
6
ByLayer
62
256
370
-1
100
AcDbCircle
10
1270.91709719
20
390.047690947
40
2
0
CIRCLE
5
1D2
100
AcDbEntity
8
0
6
ByLayer
62
256
370
-1
100
AcDbCircle
10
1350.91709719
20
347.212690947
40
3
0
CIRCLE
5
1D3
100
AcDbEntity
8
0
6
ByLayer
62
256
370
-1
100
AcDbCircle
10
1390.91709719
20
390.047690947
40
2
0
CIRCLE
5
1D4
100
AcDbEntity
8
0
6
ByLayer
62
256
370
-1
100
AcDbCircle
10
1510.91709719
20
390.047690947
40
2
0
CIRCLE
5
1D5
100
AcDbEntity
8
0
6
ByLayer
62
256
370
-1
100
AcDbCircle
10
1630.91709719
20
390.047690947
40
2
0
CIRCLE
5
1D6
100
AcDbEntity
8
0
6
ByLayer
62
256
370
-1
100
AcDbCircle
10
1650.91709719
20
347.212690947
40
3
0
CIRCLE
5
1D7
100
AcDbEntity
8
0
6
ByLayer
62
256
370
-1
100
AcDbCircle
10
1690.91709719
20
390.047690947
40
2
0
LINE
5
1D8
100
AcDbEntity
8
0
6
ByLayer
62
256
370
-1
100
AcDbLine
10
250.917097191
20
420.047690947
11
1850.91709719
21
420.047690947
0
LINE
5
1D9
100
AcDbEntity
8
0
6
ByLayer
62
256
370
-1
100
AcDbLine
10
1850.91709719
20
420.047690947
11
1850.91709719
21
320.047690947
0
LINE
5
1DA
100
AcDbEntity
8
0
6
ByLayer
62
256
370
-1
100
AcDbLine
10
1850.91709719
20
320.047690947
11
250.917097191
21
320.047690947
0
LINE
5
1DB
100
AcDbEntity
8
0
6
ByLayer
62
256
370
-1
100
AcDbLine
10
250.917097191
20
320.047690947
11
250.917097191
21
420.047690947
0
LINE
5
1DC
100
AcDbEntity
8
0
6
ByLayer
62
256
370
-1
100
AcDbLine
10
250.917097191
20
670.047690947
11
1850.91709719
21
670.047690947
0
LINE
5
1DD
100
AcDbEntity
8
0
6
ByLayer
62
256
370
-1
100
AcDbLine
10
1850.91709719
20
670.047690947
11
1850.91709719
21
570.047690947
0
LINE
5
1DE
100
AcDbEntity
8
0
6
ByLayer
62
256
370
-1
100
AcDbLine
10
1850.91709719
20
570.047690947
11
250.917097191
21
570.047690947
0
LINE
5
1DF
100
AcDbEntity
8
0
6
ByLayer
62
256
370
-1
100
AcDbLine
10
250.917097191
20
570.047690947
11
250.917097191
21
670.047690947
0
LINE
5
1E0
100
AcDbEntity
8
0
6
ByLayer
62
256
370
-1
100
AcDbLine
10
250.917097191
20
920.047690947
11
1850.91709719
21
920.047690947
0
LINE
5
1E1
100
AcDbEntity
8
0
6
ByLayer
62
256
370
-1
100
AcDbLine
10
1850.91709719
20
920.047690947
11
1850.91709719
21
820.047690947
0
LINE
5
1E2
100
AcDbEntity
8
0
6
ByLayer
62
256
370
-1
100
AcDbLine
10
1850.91709719
20
820.047690947
11
250.917097191
21
820.047690947
0
LINE
5
1E3
100
AcDbEntity
8
0
6
ByLayer
62
256
370
-1
100
AcDbLine
10
250.917097191
20
820.047690947
11
250.917097191
21
920.047690947
0
LINE
5
1E4
100
AcDbEntity
8
0
6
ByLayer
62
256
370
-1
100
AcDbLine
10
250.917097191
20
1170.04769095
11
1850.91709719
21
1170.04769095
0
LINE
5
1E5
100
AcDbEntity
8
0
6
ByLayer
62
256
370
-1
100
AcDbLine
10
1850.91709719
20
1170.04769095
11
1850.91709719
21
1070.04769095
0
LINE
5
1E6
100
AcDbEntity
8
0
6
ByLayer
62
256
370
-1
100
AcDbLine
10
1850.91709719
20
1070.04769095
11
250.917097191
21
1070.04769095
0
LINE
5
1E7
100
AcDbEntity
8
0
6
ByLayer
62
256
370
-1
100
AcDbLine
10
250.917097191
20
1070.04769095
11
250.917097191
21
1170.04769095
0
INSERT
5
1E8
100
AcDbEntity
8
SUPPORT
6
ByLayer
62
256
370
-1
100
AcDbBlockReference
2
SUPPORT_A
10
525.917097191
20
620.047690947
30
0
41
1
42
1
43
0
50
0
70
1
71
1
44
1
45
1
0
INSERT
5
1E9
100
AcDbEntity
8
SUPPORT
6
ByLayer
62
256
370
-1
100
AcDbBlockReference
2
SUPPORT_A
10
875.917097191
20
620.147690947
30
0
41
1
42
1
43
0
50
0
70
1
71
1
44
1
45
1
0
INSERT
5
1EA
100
AcDbEntity
8
SUPPORT
6
ByLayer
62
256
370
-1
100
AcDbBlockReference
2
SUPPORT_A
10
1225.91709719
20
620.047690947
30
0
41
1
42
1
43
0
50
0
70
1
71
1
44
1
45
1
0
INSERT
5
1EB
100
AcDbEntity
8
SUPPORT
6
ByLayer
62
256
370
-1
100
AcDbBlockReference
2
SUPPORT_A
10
1575.91709719
20
620.047690947
30
0
41
1
42
1
43
0
50
0
70
1
71
1
44
1
45
1
0
INSERT
5
1EC
100
AcDbEntity
8
SUPPORT
6
ByLayer
62
256
370
-1
100
AcDbBlockReference
2
SUPPORT_B
10
525.917097191
20
807.547690947
30
0
41
1
42
1
43
0
50
0
70
1
71
1
44
1
45
1
0
INSERT
5
1ED
100
AcDbEntity
8
SUPPORT
6
ByLayer
62
256
370
-1
100
AcDbBlockReference
2
SUPPORT_B
10
875.917097191
20
807.647690947
30
0
41
1
42
1
43
0
50
0
70
1
71
1
44
1
45
1
0
INSERT
5
1EE
100
AcDbEntity
8
SUPPORT
6
ByLayer
62
256
370
-1
100
AcDbBlockReference
2
SUPPORT_B
10
1225.91709719
20
807.547690947
30
0
41
1
42
1
43
0
50
0
70
1
71
1
44
1
45
1
0
INSERT
5
1EF
100
AcDbEntity
8
SUPPORT
6
ByLayer
62
256
370
-1
100
AcDbBlockReference
2
SUPPORT_B
10
1575.91709719
20
807.547690947
30
0
41
1
42
1
43
0
50
0
70
1
71
1
44
1
45
1
0
INSERT
5
1F0
100
AcDbEntity
8
SUPPORT
6
ByLayer
62
256
370
-1
100
AcDbBlockReference
2
SUPPORT_B
10
525.917097191
20
1182.54769095
30
0
41
1
42
1
43
0
50
180
70
1
71
1
44
1
45
1
0
INSERT
5
1F1
100
AcDbEntity
8
SUPPORT
6
ByLayer
62
256
370
-1
100
AcDbBlockReference
2
SUPPORT_B
10
875.917097191
20
1182.54769095
30
0
41
1
42
1
43
0
50
180
70
1
71
1
44
1
45
1
0
INSERT
5
1F2
100
AcDbEntity
8
SUPPORT
6
ByLayer
62
256
370
-1
100
AcDbBlockReference
2
SUPPORT_B
10
1225.91709719
20
1182.44769095
30
0
41
1
42
1
43
0
50
180
70
1
71
1
44
1
45
1
0
INSERT
5
1F3
100
AcDbEntity
8
SUPPORT
6
ByLayer
62
256
370
-1
100
AcDbBlockReference
2
SUPPORT_B
10
1575.91709719
20
1182.54769095
30
0
41
1
42
1
43
0
50
180
70
1
71
1
44
1
45
1
0
TEXT
5
1F4
100
AcDbEntity
8
LAYOUT_TEXT
6
ByLayer
62
256
370
-1
100
AcDbText
10
437.507804724
20
135.348737009
30
0
40
26.4566929134
1
FLAMECUT CNC PLASMA TABLE
50
0
41
1
51
0
7
standard
71
0
72
1
11
437.507804724
21
135.348737009
31
0
210
0
220
0
230
1
100
AcDbText
73
2
0
TEXT
5
1F5
100
AcDbEntity
8
LAYOUT_TEXT
6
ByLayer
62
256
370
-1
100
AcDbText
10
434.881889763
20
80.6102362205
30
0
40
19.842519685
1
http://flamecut.marcelodelnero.com.br
50
0
41
1
51
0
7
standard
71
0
72
1
11
434.881889763
21
80.6102362205
31
0
210
0
220
0
230
1
100
AcDbText
73
2
0
INSERT
5
1F6
100
AcDbEntity
8
LAYOUT_BLOCK
6
ByLayer
62
256
370
-1
100
AcDbBlockReference
2
TITLE_BLOCK
10
0
20
0
30
0
41
168
42
168
43
0
50
0
70
1
71
1
44
168
45
168
0
TEXT
5
1F7
100
AcDbEntity
8
LAYOUT_TEXT
6
ByLayer
62
256
370
-1
100
AcDbText
10
1665.84020073
20
69.8583718913
30
0
40
26.4567
1
FRAME_SIDE_A
50
0
41
1
51
0
7
standard
71
0
72
1
11
1665.84020073
21
69.8583718913
31
0
210
0
220
0
230
1
100
AcDbText
73
2
0
TEXT
5
1F8
100
AcDbEntity
8
LAYOUT_TEXT
6
ByLayer
62
256
370
-1
100
AcDbText
10
1899.73024252
20
1380.22873701
30
0
40
13.2283
1
001 - 10/03/14
50
0
41
1
51
0
7
standard
71
0
72
1
11
1899.73024252
21
1380.22873701
31
0
210
0
220
0
230
1
100
AcDbText
73
2
0
TEXT
5
1F9
100
AcDbEntity
8
LAYOUT_TEXT
6
ByLayer
62
256
370
-1
100
AcDbText
10
1111.55765338
20
127.003048364
30
0
40
13.2283
1
100x100x2mm MILD STEEL SQUARE TUBE
50
0
41
1
51
0
7
standard
71
0
72
1
11
1111.55765338
21
127.003048364
31
0
210
0
220
0
230
1
100
AcDbText
73
2
0
TEXT
5
1FA
100
AcDbEntity
8
LAYOUT_TEXT
6
ByLayer
62
256
370
-1
100
AcDbText
10
1131.02362205
20
69.4488188976
30
0
40
13.2283
1
POWDER COATING
50
0
41
1
51
0
7
standard
71
0
72
1
11
1131.02362205
21
69.4488188976
31
0
210
0
220
0
230
1
100
AcDbText
73
2
0
INSERT
5
1FB
100
AcDbEntity
8
0
6
ByLayer
62
256
370
-1
100
AcDbBlockReference
2
JUNCTION_DRILLING
10
250.917097191
20
1170.04769095
30
0
41
1
42
1
43
0
50
0
70
1
71
1
44
1
45
1
0
INSERT
5
1FC
100
AcDbEntity
8
0
6
ByLayer
62
256
370
-1
100
AcDbBlockReference
2
JUNCTION_DRILLING
10
250.917097191
20
920.047690947
30
0
41
1
42
1
43
0
50
0
70
1
71
1
44
1
45
1
0
INSERT
5
1FD
100
AcDbEntity
8
0
6
ByLayer
62
256
370
-1
100
AcDbBlockReference
2
JUNCTION_DRILLING
10
1850.91709719
20
1070.04769095
30
0
41
1
42
1
43
0
50
180
70
1
71
1
44
1
45
1
0
INSERT
5
1FE
100
AcDbEntity
8
0
6
ByLayer
62
256
370
-1
100
AcDbBlockReference
2
JUNCTION_DRILLING
10
1850.91709719
20
820.047690947
30
0
41
1
42
1
43
0
50
180
70
1
71
1
44
1
45
1
0
INSERT
5
1FF
100
AcDbEntity
8
0
6
ByLayer
62
256
370
-1
100
AcDbBlockReference
2
LEGS_DRILLING
10
250.917097191
20
1170.04769095
30
0
41
1
42
1
43
0
50
0
70
1
71
1
44
1
45
1
0
INSERT
5
200
100
AcDbEntity
8
0
6
ByLayer
62
256
370
-1
100
AcDbBlockReference
2
LEGS_DRILLING
10
1850.91709719
20
1070.04769095
30
0
41
1
42
1
43
0
50
180
70
1
71
1
44
1
45
1
0
TEXT
5
201
100
AcDbEntity
8
0
6
ByLayer
62
256
370
-1
100
AcDbText
10
121.120376878
20
1069.7180188
30
0
40
20
1
BOTTOM
50
0
41
1
51
0
7
standard
71
0
210
0
220
0
230
1
100
AcDbText
0
TEXT
5
202
100
AcDbEntity
8
0
6
ByLayer
62
256
370
-1
100
AcDbText
10
121.120376878
20
818.902371106
30
0
40
20
1
TOP
50
0
41
1
51
0
7
standard
71
0
210
0
220
0
230
1
100
AcDbText
0
TEXT
5
203
100
AcDbEntity
8
0
6
ByLayer
62
256
370
-1
100
AcDbText
10
120.584446007
20
564.402198672
30
0
40
20
1
RIGTH
50
0
41
1
51
0
7
standard
71
0
210
0
220
0
230
1
100
AcDbText
0
TEXT
5
204
100
AcDbEntity
8
0
6
ByLayer
62
256
370
-1
100
AcDbText
10
120.584446007
20
316.534170769
30
0
40
20
1
LEFT
50
0
41
1
51
0
7
standard
71
0
210
0
220
0
230
1
100
AcDbText
0
LINE
5
205
100
AcDbEntity
8
HELPER
6
ByLayer
62
256
370
-1
100
AcDbLine
10
275.917097191
20
1230
11
275.917097191
21
845.047690947
0
LINE
5
206
100
AcDbEntity
8
HELPER
6
ByLayer
62
256
370
-1
100
AcDbLine
10
325.917097191
20
1230
11
325.917097191
21
845.047690947
0
LINE
5
207
100
AcDbEntity
8
HELPER
6
ByLayer
62
256
370
-1
100
AcDbLine
10
365.917097191
20
1230
11
365.917097191
21
1000
0
LINE
5
208
100
AcDbEntity
8
HELPER
6
ByLayer
62
256
370
-1
100
AcDbLine
10
495.917097191
20
1230
11
495.917097191
21
1000
0
LINE
5
209
100
AcDbEntity
8
HELPER
6
ByLayer
62
256
370
-1
100
AcDbLine
10
1605.91709719
20
1145.04769095
11
1870
21
1145.04769095
0
LINE
5
20A
100
AcDbEntity
8
HELPER
6
ByLayer
62
256
370
-1
100
AcDbLine
10
1605.91709719
20
1095.04769095
11
1870
21
1095.04769095
0
DIMENSION
5
20B
100
AcDbEntity
8
DIMENSION
6
ByLayer
62
256
370
-1
100
AcDbDimension
2
*D1
10
310.917097191
20
470
30
0
11
280.917097191
21
490
31
0
70
32
71
5
72
0
3
Standard
53
0
210
0
220
0
230
1
100
AcDbAlignedDimension
13
250.917097191
23
450
33
0
14
310.917097191
24
450
34
0
100
AcDbRotatedDimension
0
DIMENSION
5
20C
100
AcDbEntity
8
DIMENSION
6
ByLayer
62
256
370
-1
100
AcDbDimension
2
*D2
10
430.917097191
20
470
30
0
11
370.917097191
21
490
31
0
70
32
71
5
72
0
3
Standard
53
0
210
0
220
0
230
1
100
AcDbAlignedDimension
13
310.917097191
23
450
33
0
14
430.917097191
24
450
34
0
100
AcDbRotatedDimension
0
DIMENSION
5
20D
100
AcDbEntity
8
DIMENSION
6
ByLayer
62
256
370
-1
100
AcDbDimension
2
*D3
10
550.917097191
20
470
30
0
11
490.917097191
21
490
31
0
70
32
71
5
72
0
3
Standard
53
0
210
0
220
0
230
1
100
AcDbAlignedDimension
13
430.917097191
23
450
33
0
14
550.917097191
24
450
34
0
100
AcDbRotatedDimension
0
DIMENSION
5
20E
100
AcDbEntity
8
DIMENSION
6
ByLayer
62
256
370
-1
100
AcDbDimension
2
*D4
10
325.917097191
20
1280
30
0
11
300.917097191
21
1300
31
0
70
32
71
5
72
0
3
Standard
53
0
210
0
220
0
230
1
100
AcDbAlignedDimension
13
275.917097191
23
1250
33
0
14
325.917097191
24
1250
34
0
100
AcDbRotatedDimension
0
DIMENSION
5
20F
100
AcDbEntity
8
DIMENSION
6
ByLayer
62
256
370
-1
100
AcDbDimension
2
*D5
10
275.917097191
20
1280
30
0
11
263.417097191
21
1300
31
0
70
32
71
5
72
0
3
Standard
53
0
210
0
220
0
230
1
100
AcDbAlignedDimension
13
250.917097191
23
1249.58370439
33
0
14
275.917097191
24
1250
34
0
100
AcDbRotatedDimension
0
DIMENSION
5
210
100
AcDbEntity
8
DIMENSION
6
ByLayer
62
256
370
-1
100
AcDbDimension
2
*D6
10
365.917097191
20
1280
30
0
11
345.917097191
21
1300
31
0
70
32
71
5
72
0
3
Standard
53
0
210
0
220
0
230
1
100
AcDbAlignedDimension
13
325.917097191
23
1250
33
0
14
365.917097191
24
1250
34
0
100
AcDbRotatedDimension
0
DIMENSION
5
211
100
AcDbEntity
8
DIMENSION
6
ByLayer
62
256
370
-1
100
AcDbDimension
2
*D7
10
495.917097191
20
1280
30
0
11
430.917097191
21
1300
31
0
70
32
71
5
72
0
3
Standard
53
0
210
0
220
0
230
1
100
AcDbAlignedDimension
13
365.917097191
23
1250
33
0
14
495.917097191
24
1250
34
0
100
AcDbRotatedDimension
0
DIMENSION
5
212
100
AcDbEntity
8
DIMENSION
6
ByLayer
62
256
370
-1
100
AcDbDimension
2
*D8
10
790.917097191
20
470
30
0
11
730.917097191
21
490
31
0
70
32
71
5
72
0
3
Standard
53
0
210
0
220
0
230
1
100
AcDbAlignedDimension
13
670.917097191
23
450
33
0
14
790.917097191
24
450
34
0
100
AcDbRotatedDimension
0
DIMENSION
5
213
100
AcDbEntity
8
DIMENSION
6
ByLayer
62
256
370
-1
100
AcDbDimension
2
*D9
10
670.917097191
20
470
30
0
11
610.917097191
21
490
31
0
70
32
71
5
72
0
3
Standard
53
0
210
0
220
0
230
1
100
AcDbAlignedDimension
13
550.917097191
23
450
33
0
14
670.917097191
24
450
34
0
100
AcDbRotatedDimension
0
DIMENSION
5
214
100
AcDbEntity
8
DIMENSION
6
ByLayer
62
256
370
-1
100
AcDbDimension
2
*D10
10
910.917097191
20
470
30
0
11
850.917097191
21
490
31
0
70
32
71
5
72
0
3
Standard
53
0
210
0
220
0
230
1
100
AcDbAlignedDimension
13
790.917097191
23
450
33
0
14
910.917097191
24
450
34
0
100
AcDbRotatedDimension
0
DIMENSION
5
215
100
AcDbEntity
8
DIMENSION
6
ByLayer
62
256
370
-1
100
AcDbDimension
2
*D11
10
1030.91709719
20
470
30
0
11
970.917097191
21
490
31
0
70
32
71
5
72
0
3
Standard
53
0
210
0
220
0
230
1
100
AcDbAlignedDimension
13
910.917097191
23
450
33
0
14
1030.91709719
24
450
34
0
100
AcDbRotatedDimension
0
DIMENSION
5
216
100
AcDbEntity
8
DIMENSION
6
ByLayer
62
256
370
-1
100
AcDbDimension
2
*D12
10
1150.91709719
20
470
30
0
11
1090.91709719
21
490
31
0
70
32
71
5
72
0
3
Standard
53
0
210
0
220
0
230
1
100
AcDbAlignedDimension
13
1030.91709719
23
450
33
0
14
1150.91709719
24
450
34
0
100
AcDbRotatedDimension
0
DIMENSION
5
217
100
AcDbEntity
8
DIMENSION
6
ByLayer
62
256
370
-1
100
AcDbDimension
2
*D13
10
1270.91709719
20
470
30
0
11
1210.91709719
21
490
31
0
70
32
71
5
72
0
3
Standard
53
0
210
0
220
0
230
1
100
AcDbAlignedDimension
13
1150.91709719
23
450
33
0
14
1270.91709719
24
450
34
0
100
AcDbRotatedDimension
0
DIMENSION
5
218
100
AcDbEntity
8
DIMENSION
6
ByLayer
62
256
370
-1
100
AcDbDimension
2
*D14
10
1390.91709719
20
470
30
0
11
1330.91709719
21
490
31
0
70
32
71
5
72
0
3
Standard
53
0
210
0
220
0
230
1
100
AcDbAlignedDimension
13
1270.91709719
23
450
33
0
14
1390.91709719
24
450
34
0
100
AcDbRotatedDimension
0
DIMENSION
5
219
100
AcDbEntity
8
DIMENSION
6
ByLayer
62
256
370
-1
100
AcDbDimension
2
*D15
10
1390.91709719
20
470
30
0
11
1450.91709719
21
490
31
0
70
32
71
5
72
0
3
Standard
53
0
210
0
220
0
230
1
100
AcDbAlignedDimension
13
1510.91709719
23
450
33
0
14
1390.91709719
24
450
34
0
100
AcDbRotatedDimension
0
DIMENSION
5
21A
100
AcDbEntity
8
DIMENSION
6
ByLayer
62
256
370
-1
100
AcDbDimension
2
*D16
10
1630.91709719
20
470
30
0
11
1570.91709719
21
490
31
0
70
32
71
5
72
0
3
Standard
53
0
210
0
220
0
230
1
100
AcDbAlignedDimension
13
1510.91709719
23
450
33
0
14
1630.91709719
24
450
34
0
100
AcDbRotatedDimension
0
DIMENSION
5
21B
100
AcDbEntity
8
DIMENSION
6
ByLayer
62
256
370
-1
100
AcDbDimension
2
*D17
10
1690.91709719
20
470
30
0
11
1660.91709719
21
490
31
0
70
32
71
5
72
0
3
Standard
53
0
210
0
220
0
230
1
100
AcDbAlignedDimension
13
1630.91709719
23
450
33
0
14
1690.91709719
24
450
34
0
100
AcDbRotatedDimension
0
DIMENSION
5
21C
100
AcDbEntity
8
DIMENSION
6
ByLayer
62
256
370
-1
100
AcDbDimension
2
*D18
10
1850.91709719
20
470
30
0
11
1770.91709719
21
490
31
0
70
32
71
5
72
0
3
Standard
53
0
210
0
220
0
230
1
100
AcDbAlignedDimension
13
1690.91709719
23
450
33
0
14
1850.91709719
24
450
34
0
100
AcDbRotatedDimension
0
DIMENSION
5
21D
100
AcDbEntity
8
DIMENSION
6
ByLayer
62
256
370
-1
100
AcDbDimension
2
*D19
10
1899.26354826
20
1145.04769095
30
0
11
1920
21
1157.54769095
31
0
70
32
71
5
72
0
3
Standard
53
0
210
0
220
0
230
1
100
AcDbAlignedDimension
13
1869.93603901
23
1170.04769095
33
0
14
1870
24
1145.04769095
34
0
50
90
100
AcDbRotatedDimension
0
DIMENSION
5
21E
100
AcDbEntity
8
DIMENSION
6
ByLayer
62
256
370
-1
100
AcDbDimension
2
*D20
10
1899.21977125
20
1095.04769095
30
0
11
1920
21
1120.04769095
31
0
70
32
71
5
72
0
3
Standard
53
0
210
0
220
0
230
1
100
AcDbAlignedDimension
13
1870
23
1145.04769095
33
0
14
1870
24
1095.04769095
34
0
50
90
100
AcDbRotatedDimension
0
DIMENSION
5
21F
100
AcDbEntity
8
DIMENSION
6
ByLayer
62
256
370
-1
100
AcDbDimension
2
*D21
10
1899.44995181
20
1070.04769095
30
0
11
1920
21
1082.54769095
31
0
70
32
71
5
72
0
3
Standard
53
0
210
0
220
0
230
1
100
AcDbAlignedDimension
13
1870
23
1095.04769095
33
0
14
1869.93603901
24
1070.04769095
34
0
50
90
100
AcDbRotatedDimension
0
DIMENSION
5
220
100
AcDbEntity
8
DIMENSION
6
ByLayer
62
256
370
-1
100
AcDbDimension
2
*D22
10
1910
20
820
30
0
11
1930
21
870
31
0
70
32
71
5
72
0
3
Standard
53
0
210
0
220
0
230
1
100
AcDbAlignedDimension
13
1880
23
920
33
0
14
1880
24
820
34
0
50
90
100
AcDbRotatedDimension
0
DIMENSION
5
221
100
AcDbEntity
8
DIMENSION
6
ByLayer
62
256
370
-1
100
AcDbDimension
2
*D23
10
450.917097191
20
280
30
0
11
350.917097191
21
260
31
0
70
32
71
5
72
0
3
Standard
53
0
210
0
220
0
230
1
100
AcDbAlignedDimension
13
250.917097191
23
300
33
0
14
450.917097191
24
300
34
0
100
AcDbRotatedDimension
0
DIMENSION
5
222
100
AcDbEntity
8
DIMENSION
6
ByLayer
62
256
370
-1
100
AcDbDimension
2
*D24
10
750.917097191
20
280
30
0
11
600.917097191
21
260
31
0
70
32
71
5
72
0
3
Standard
53
0
210
0
220
0
230
1
100
AcDbAlignedDimension
13
450.917097191
23
300
33
0
14
750.917097191
24
300
34
0
100
AcDbRotatedDimension
0
DIMENSION
5
223
100
AcDbEntity
8
DIMENSION
6
ByLayer
62
256
370
-1
100
AcDbDimension
2
*D25
10
1050.91709719
20
280
30
0
11
900.917097191
21
260
31
0
70
32
71
5
72
0
3
Standard
53
0
210
0
220
0
230
1
100
AcDbAlignedDimension
13
750.917097191
23
300
33
0
14
1050.91709719
24
300
34
0
100
AcDbRotatedDimension
0
DIMENSION
5
224
100
AcDbEntity
8
DIMENSION
6
ByLayer
62
256
370
-1
100
AcDbDimension
2
*D26
10
1350.91709719
20
280
30
0
11
1200.91709719
21
260
31
0
70
32
71
5
72
0
3
Standard
53
0
210
0
220
0
230
1
100
AcDbAlignedDimension
13
1050.91709719
23
300
33
0
14
1350.91709719
24
300
34
0
100
AcDbRotatedDimension
0
DIMENSION
5
225
100
AcDbEntity
8
DIMENSION
6
ByLayer
62
256
370
-1
100
AcDbDimension
2
*D27
10
1650.91709719
20
280
30
0
11
1500.91709719
21
260
31
0
70
32
71
5
72
0
3
Standard
53
0
210
0
220
0
230
1
100
AcDbAlignedDimension
13
1350.91709719
23
300
33
0
14
1650.91709719
24
300
34
0
100
AcDbRotatedDimension
0
DIMENSION
5
226
100
AcDbEntity
8
DIMENSION
6
ByLayer
62
256
370
-1
100
AcDbDimension
2
*D28
10
1850.91709719
20
280
30
0
11
1750.91709719
21
260
31
0
70
32
71
5
72
0
3
Standard
53
0
210
0
220
0
230
1
100
AcDbAlignedDimension
13
1650.91709719
23
300
33
0
14
1850.91709719
24
300
34
0
100
AcDbRotatedDimension
0
DIMENSION
5
227
100
AcDbEntity
8
DIMENSION
6
ByLayer
62
256
370
-1
100
AcDbDimension
2
*D29
10
1850.91709719
20
768.524869219
30
0
11
1050.91709719
21
750
31
0
70
32
71
5
72
0
3
Standard
53
0
210
0
220
0
230
1
100
AcDbAlignedDimension
13
250.917097191
23
800.552098078
33
0
14
1850.91709719
24
799.481951315
34
0
100
AcDbRotatedDimension
0
TEXT
5
228
100
AcDbEntity
8
LAYOUT_TEXT
6
ByLayer
62
256
370
-1
100
AcDbText
10
1662.78339528
20
133.695193702
30
0
40
26.4567
1
FRAME SIDE - A
50
0
41
1
51
0
7
standard
71
0
72
1
11
1662.78339528
21
133.695193702
31
0
210
0
220
0
230
1
100
AcDbText
73
2
0
ENDSEC
0
SECTION
2
OBJECTS
0
DICTIONARY
5
C
330
0
100
AcDbDictionary
281
1
3
ACAD_GROUP
350
D
0
DICTIONARY
5
D
330
C
100
AcDbDictionary
281
1
0
ENDSEC
0
EOF
