solid OpenSCAD_Model
  facet normal -0.464885 0.885371 0
    outer loop
      vertex 25.957 11.116 2
      vertex 27.652 12.006 2
      vertex 25.957 11.116 0
    endloop
  endfacet
  facet normal -0.464885 0.885371 0
    outer loop
      vertex 25.957 11.116 0
      vertex 27.652 12.006 2
      vertex 27.652 12.006 0
    endloop
  endfacet
  facet normal 2.22045e-016 1 0
    outer loop
      vertex 24.043 11.116 0
      vertex 24.043 11.116 2
      vertex 25.957 11.116 0
    endloop
  endfacet
  facet normal 2.22045e-016 1 0
    outer loop
      vertex 25.957 11.116 0
      vertex 24.043 11.116 2
      vertex 25.957 11.116 2
    endloop
  endfacet
  facet normal 0 0 -1
    outer loop
      vertex 78.292 17.272 0
      vertex 3.55271e-014 160 0
      vertex 100 -2.22045e-014 0
    endloop
  endfacet
  facet normal 0 0 -1
    outer loop
      vertex 75 149 0
      vertex 3.55271e-014 160 0
      vertex 100 160 0
    endloop
  endfacet
  facet normal 0 0 -1
    outer loop
      vertex 26.859 18.542 0
      vertex 3.55271e-014 160 0
      vertex 28.292 17.272 0
    endloop
  endfacet
  facet normal 0 0 -1
    outer loop
      vertex 0 0 0
      vertex 75.957 11.116 0
      vertex 100 -2.22045e-014 0
    endloop
  endfacet
  facet normal 0 0 -1
    outer loop
      vertex 71.708 17.272 0
      vertex 3.55271e-014 160 0
      vertex 73.141 18.542 0
    endloop
  endfacet
  facet normal 0 0 -1
    outer loop
      vertex 75.957 11.116 0
      vertex 77.652 12.006 0
      vertex 100 -2.22045e-014 0
    endloop
  endfacet
  facet normal 0 0 -1
    outer loop
      vertex 73.141 18.542 0
      vertex 3.55271e-014 160 0
      vertex 75 19 0
    endloop
  endfacet
  facet normal 0 0 -1
    outer loop
      vertex 77.652 12.006 0
      vertex 78.74 13.582 0
      vertex 100 -2.22045e-014 0
    endloop
  endfacet
  facet normal 0 0 -1
    outer loop
      vertex 75 19 0
      vertex 3.55271e-014 160 0
      vertex 76.859 18.542 0
    endloop
  endfacet
  facet normal 0 0 -1
    outer loop
      vertex 78.74 13.582 0
      vertex 78.971 15.482 0
      vertex 100 -2.22045e-014 0
    endloop
  endfacet
  facet normal 0 0 -1
    outer loop
      vertex 78.971 15.482 0
      vertex 78.292 17.272 0
      vertex 100 -2.22045e-014 0
    endloop
  endfacet
  facet normal 0 0 -1
    outer loop
      vertex 28.971 15.482 0
      vertex 3.55271e-014 160 0
      vertex 71.708 17.272 0
    endloop
  endfacet
  facet normal 0 0 -1
    outer loop
      vertex 0 0 0
      vertex 71.708 17.272 0
      vertex 71.029 15.482 0
    endloop
  endfacet
  facet normal 0 0 -1
    outer loop
      vertex 0 0 0
      vertex 71.029 15.482 0
      vertex 71.26 13.582 0
    endloop
  endfacet
  facet normal 0 0 -1
    outer loop
      vertex 0 0 0
      vertex 71.26 13.582 0
      vertex 72.348 12.006 0
    endloop
  endfacet
  facet normal 0 0 -1
    outer loop
      vertex 0 0 0
      vertex 72.348 12.006 0
      vertex 74.043 11.116 0
    endloop
  endfacet
  facet normal 0 0 -1
    outer loop
      vertex 0 0 0
      vertex 74.043 11.116 0
      vertex 75.957 11.116 0
    endloop
  endfacet
  facet normal 0 0 -1
    outer loop
      vertex 78.74 143.582 0
      vertex 100 160 0
      vertex 77.652 142.006 0
    endloop
  endfacet
  facet normal 0 0 -1
    outer loop
      vertex 0 0 0
      vertex 25.957 11.116 0
      vertex 71.708 17.272 0
    endloop
  endfacet
  facet normal 0 0 -1
    outer loop
      vertex 23.141 18.542 0
      vertex 3.55271e-014 160 0
      vertex 25 19 0
    endloop
  endfacet
  facet normal 0 0 -1
    outer loop
      vertex 25.957 11.116 0
      vertex 27.652 12.006 0
      vertex 71.708 17.272 0
    endloop
  endfacet
  facet normal 0 0 -1
    outer loop
      vertex 25 19 0
      vertex 3.55271e-014 160 0
      vertex 26.859 18.542 0
    endloop
  endfacet
  facet normal 0 0 -1
    outer loop
      vertex 27.652 12.006 0
      vertex 28.74 13.582 0
      vertex 71.708 17.272 0
    endloop
  endfacet
  facet normal 0 0 -1
    outer loop
      vertex 28.292 17.272 0
      vertex 3.55271e-014 160 0
      vertex 28.971 15.482 0
    endloop
  endfacet
  facet normal 0 0 -1
    outer loop
      vertex 28.74 13.582 0
      vertex 28.971 15.482 0
      vertex 71.708 17.272 0
    endloop
  endfacet
  facet normal 0 0 -1
    outer loop
      vertex 0 0 0
      vertex 3.55271e-014 160 0
      vertex 23.141 18.542 0
    endloop
  endfacet
  facet normal 0 0 -1
    outer loop
      vertex 0 0 0
      vertex 23.141 18.542 0
      vertex 21.708 17.272 0
    endloop
  endfacet
  facet normal 0 0 -1
    outer loop
      vertex 0 0 0
      vertex 21.708 17.272 0
      vertex 21.029 15.482 0
    endloop
  endfacet
  facet normal 0 0 -1
    outer loop
      vertex 0 0 0
      vertex 21.029 15.482 0
      vertex 21.26 13.582 0
    endloop
  endfacet
  facet normal 0 0 -1
    outer loop
      vertex 0 0 0
      vertex 21.26 13.582 0
      vertex 22.348 12.006 0
    endloop
  endfacet
  facet normal 0 0 -1
    outer loop
      vertex 0 0 0
      vertex 22.348 12.006 0
      vertex 24.043 11.116 0
    endloop
  endfacet
  facet normal 0 0 -1
    outer loop
      vertex 0 0 0
      vertex 24.043 11.116 0
      vertex 25.957 11.116 0
    endloop
  endfacet
  facet normal 0 0 -1
    outer loop
      vertex 23.141 148.542 0
      vertex 3.55271e-014 160 0
      vertex 25 149 0
    endloop
  endfacet
  facet normal 0 0 -1
    outer loop
      vertex 100 -2.22045e-014 0
      vertex 75.957 141.116 0
      vertex 77.652 142.006 0
    endloop
  endfacet
  facet normal 0 0 -1
    outer loop
      vertex 100 -2.22045e-014 0
      vertex 77.652 142.006 0
      vertex 100 160 0
    endloop
  endfacet
  facet normal 0 0 -1
    outer loop
      vertex 72.348 142.006 0
      vertex 3.55271e-014 160 0
      vertex 71.26 143.582 0
    endloop
  endfacet
  facet normal 0 0 -1
    outer loop
      vertex 73.141 148.542 0
      vertex 3.55271e-014 160 0
      vertex 75 149 0
    endloop
  endfacet
  facet normal 0 0 -1
    outer loop
      vertex 71.26 143.582 0
      vertex 3.55271e-014 160 0
      vertex 71.029 145.482 0
    endloop
  endfacet
  facet normal 0 0 -1
    outer loop
      vertex 78.74 143.582 0
      vertex 78.971 145.482 0
      vertex 100 160 0
    endloop
  endfacet
  facet normal 0 0 -1
    outer loop
      vertex 71.029 145.482 0
      vertex 3.55271e-014 160 0
      vertex 71.708 147.272 0
    endloop
  endfacet
  facet normal 0 0 -1
    outer loop
      vertex 78.971 145.482 0
      vertex 78.292 147.272 0
      vertex 100 160 0
    endloop
  endfacet
  facet normal 0 0 -1
    outer loop
      vertex 71.708 147.272 0
      vertex 3.55271e-014 160 0
      vertex 73.141 148.542 0
    endloop
  endfacet
  facet normal 0 0 -1
    outer loop
      vertex 78.292 147.272 0
      vertex 76.859 148.542 0
      vertex 100 160 0
    endloop
  endfacet
  facet normal 0 0 -1
    outer loop
      vertex 76.859 148.542 0
      vertex 75 149 0
      vertex 100 160 0
    endloop
  endfacet
  facet normal 0 0 -1
    outer loop
      vertex 26.859 148.542 0
      vertex 3.55271e-014 160 0
      vertex 72.348 142.006 0
    endloop
  endfacet
  facet normal 0 0 -1
    outer loop
      vertex 100 -2.22045e-014 0
      vertex 72.348 142.006 0
      vertex 74.043 141.116 0
    endloop
  endfacet
  facet normal 0 0 -1
    outer loop
      vertex 100 -2.22045e-014 0
      vertex 74.043 141.116 0
      vertex 75.957 141.116 0
    endloop
  endfacet
  facet normal 0 0 -1
    outer loop
      vertex 100 -2.22045e-014 0
      vertex 25.957 141.116 0
      vertex 72.348 142.006 0
    endloop
  endfacet
  facet normal 0 0 -1
    outer loop
      vertex 21.26 143.582 0
      vertex 3.55271e-014 160 0
      vertex 21.029 145.482 0
    endloop
  endfacet
  facet normal 0 0 -1
    outer loop
      vertex 25.957 141.116 0
      vertex 27.652 142.006 0
      vertex 72.348 142.006 0
    endloop
  endfacet
  facet normal 0 0 -1
    outer loop
      vertex 21.029 145.482 0
      vertex 3.55271e-014 160 0
      vertex 21.708 147.272 0
    endloop
  endfacet
  facet normal 0 0 -1
    outer loop
      vertex 27.652 142.006 0
      vertex 28.74 143.582 0
      vertex 72.348 142.006 0
    endloop
  endfacet
  facet normal 0 0 -1
    outer loop
      vertex 28.74 143.582 0
      vertex 28.971 145.482 0
      vertex 72.348 142.006 0
    endloop
  endfacet
  facet normal 0 0 -1
    outer loop
      vertex 21.708 147.272 0
      vertex 3.55271e-014 160 0
      vertex 23.141 148.542 0
    endloop
  endfacet
  facet normal 0 0 -1
    outer loop
      vertex 28.971 145.482 0
      vertex 28.292 147.272 0
      vertex 72.348 142.006 0
    endloop
  endfacet
  facet normal 0 0 -1
    outer loop
      vertex 25 149 0
      vertex 3.55271e-014 160 0
      vertex 26.859 148.542 0
    endloop
  endfacet
  facet normal 0 0 -1
    outer loop
      vertex 28.292 147.272 0
      vertex 26.859 148.542 0
      vertex 72.348 142.006 0
    endloop
  endfacet
  facet normal 0 0 -1
    outer loop
      vertex 100 -2.22045e-014 0
      vertex 3.55271e-014 160 0
      vertex 21.26 143.582 0
    endloop
  endfacet
  facet normal 0 0 -1
    outer loop
      vertex 100 -2.22045e-014 0
      vertex 21.26 143.582 0
      vertex 22.348 142.006 0
    endloop
  endfacet
  facet normal 0 0 -1
    outer loop
      vertex 100 -2.22045e-014 0
      vertex 22.348 142.006 0
      vertex 24.043 141.116 0
    endloop
  endfacet
  facet normal 0 0 -1
    outer loop
      vertex 100 -2.22045e-014 0
      vertex 24.043 141.116 0
      vertex 25.957 141.116 0
    endloop
  endfacet
  facet normal 0 0 -1
    outer loop
      vertex 76.859 18.542 0
      vertex 3.55271e-014 160 0
      vertex 78.292 17.272 0
    endloop
  endfacet
  facet normal -0.822943 0.568123 0
    outer loop
      vertex 27.652 12.006 2
      vertex 28.74 13.582 2
      vertex 27.652 12.006 0
    endloop
  endfacet
  facet normal -0.822943 0.568123 0
    outer loop
      vertex 27.652 12.006 0
      vertex 28.74 13.582 2
      vertex 28.74 13.582 0
    endloop
  endfacet
  facet normal 0 0 1
    outer loop
      vertex 73.141 148.542 2
      vertex 100 160 2
      vertex 3.55271e-014 160 2
    endloop
  endfacet
  facet normal 0 0 1
    outer loop
      vertex 76.859 18.542 2
      vertex 100 -2.22045e-014 2
      vertex 3.55271e-014 160 2
    endloop
  endfacet
  facet normal 0 0 1
    outer loop
      vertex 78.292 17.272 2
      vertex 78.971 15.482 2
      vertex 100 -2.22045e-014 2
    endloop
  endfacet
  facet normal 0 0 1
    outer loop
      vertex 0 0 2
      vertex 100 -2.22045e-014 2
      vertex 75.957 11.116 2
    endloop
  endfacet
  facet normal 0 0 1
    outer loop
      vertex 71.708 17.272 2
      vertex 73.141 18.542 2
      vertex 3.55271e-014 160 2
    endloop
  endfacet
  facet normal 0 0 1
    outer loop
      vertex 0 0 2
      vertex 75.957 11.116 2
      vertex 74.043 11.116 2
    endloop
  endfacet
  facet normal 0 0 1
    outer loop
      vertex 71.029 15.482 2
      vertex 71.708 17.272 2
      vertex 3.55271e-014 160 2
    endloop
  endfacet
  facet normal 0 0 1
    outer loop
      vertex 0 0 2
      vertex 74.043 11.116 2
      vertex 72.348 12.006 2
    endloop
  endfacet
  facet normal 0 0 1
    outer loop
      vertex 25 19 2
      vertex 71.26 13.582 2
      vertex 3.55271e-014 160 2
    endloop
  endfacet
  facet normal 0 0 1
    outer loop
      vertex 0 0 2
      vertex 72.348 12.006 2
      vertex 71.26 13.582 2
    endloop
  endfacet
  facet normal 0 0 1
    outer loop
      vertex 73.141 18.542 2
      vertex 75 19 2
      vertex 3.55271e-014 160 2
    endloop
  endfacet
  facet normal 0 0 1
    outer loop
      vertex 75 19 2
      vertex 76.859 18.542 2
      vertex 3.55271e-014 160 2
    endloop
  endfacet
  facet normal 0 0 1
    outer loop
      vertex 78.292 17.272 2
      vertex 100 -2.22045e-014 2
      vertex 76.859 18.542 2
    endloop
  endfacet
  facet normal 0 0 1
    outer loop
      vertex 78.971 15.482 2
      vertex 78.74 13.582 2
      vertex 100 -2.22045e-014 2
    endloop
  endfacet
  facet normal 0 0 1
    outer loop
      vertex 21.029 15.482 2
      vertex 21.708 17.272 2
      vertex 3.55271e-014 160 2
    endloop
  endfacet
  facet normal 0 0 1
    outer loop
      vertex 77.652 12.006 2
      vertex 100 -2.22045e-014 2
      vertex 78.74 13.582 2
    endloop
  endfacet
  facet normal 0 0 1
    outer loop
      vertex 75.957 11.116 2
      vertex 100 -2.22045e-014 2
      vertex 77.652 12.006 2
    endloop
  endfacet
  facet normal 0 0 1
    outer loop
      vertex 72.348 142.006 2
      vertex 71.26 143.582 2
      vertex 3.55271e-014 160 2
    endloop
  endfacet
  facet normal 0 0 1
    outer loop
      vertex 0 0 2
      vertex 71.26 13.582 2
      vertex 25.957 11.116 2
    endloop
  endfacet
  facet normal 0 0 1
    outer loop
      vertex 23.141 18.542 2
      vertex 25 19 2
      vertex 3.55271e-014 160 2
    endloop
  endfacet
  facet normal 0 0 1
    outer loop
      vertex 0 0 2
      vertex 25.957 11.116 2
      vertex 24.043 11.116 2
    endloop
  endfacet
  facet normal 0 0 1
    outer loop
      vertex 21.708 17.272 2
      vertex 23.141 18.542 2
      vertex 3.55271e-014 160 2
    endloop
  endfacet
  facet normal 0 0 1
    outer loop
      vertex 0 0 2
      vertex 24.043 11.116 2
      vertex 22.348 12.006 2
    endloop
  endfacet
  facet normal 0 0 1
    outer loop
      vertex 0 0 2
      vertex 21.26 13.582 2
      vertex 3.55271e-014 160 2
    endloop
  endfacet
  facet normal 0 0 1
    outer loop
      vertex 0 0 2
      vertex 22.348 12.006 2
      vertex 21.26 13.582 2
    endloop
  endfacet
  facet normal 0 0 1
    outer loop
      vertex 21.26 13.582 2
      vertex 21.029 15.482 2
      vertex 3.55271e-014 160 2
    endloop
  endfacet
  facet normal 0 0 1
    outer loop
      vertex 26.859 18.542 2
      vertex 71.26 13.582 2
      vertex 25 19 2
    endloop
  endfacet
  facet normal 0 0 1
    outer loop
      vertex 28.292 17.272 2
      vertex 71.26 13.582 2
      vertex 26.859 18.542 2
    endloop
  endfacet
  facet normal 0 0 1
    outer loop
      vertex 28.971 15.482 2
      vertex 71.26 13.582 2
      vertex 28.292 17.272 2
    endloop
  endfacet
  facet normal 0 0 1
    outer loop
      vertex 28.74 13.582 2
      vertex 71.26 13.582 2
      vertex 28.971 15.482 2
    endloop
  endfacet
  facet normal 0 0 1
    outer loop
      vertex 27.652 12.006 2
      vertex 71.26 13.582 2
      vertex 28.74 13.582 2
    endloop
  endfacet
  facet normal 0 0 1
    outer loop
      vertex 25.957 11.116 2
      vertex 71.26 13.582 2
      vertex 27.652 12.006 2
    endloop
  endfacet
  facet normal 0 0 1
    outer loop
      vertex 75 149 2
      vertex 76.859 148.542 2
      vertex 100 160 2
    endloop
  endfacet
  facet normal 0 0 1
    outer loop
      vertex 25 149 2
      vertex 74.043 141.116 2
      vertex 3.55271e-014 160 2
    endloop
  endfacet
  facet normal 0 0 1
    outer loop
      vertex 100 -2.22045e-014 2
      vertex 75.957 141.116 2
      vertex 74.043 141.116 2
    endloop
  endfacet
  facet normal 0 0 1
    outer loop
      vertex 74.043 141.116 2
      vertex 72.348 142.006 2
      vertex 3.55271e-014 160 2
    endloop
  endfacet
  facet normal 0 0 1
    outer loop
      vertex 71.26 143.582 2
      vertex 71.029 145.482 2
      vertex 3.55271e-014 160 2
    endloop
  endfacet
  facet normal 0 0 1
    outer loop
      vertex 78.74 143.582 2
      vertex 77.652 142.006 2
      vertex 100 160 2
    endloop
  endfacet
  facet normal 0 0 1
    outer loop
      vertex 71.029 145.482 2
      vertex 71.708 147.272 2
      vertex 3.55271e-014 160 2
    endloop
  endfacet
  facet normal 0 0 1
    outer loop
      vertex 71.708 147.272 2
      vertex 73.141 148.542 2
      vertex 3.55271e-014 160 2
    endloop
  endfacet
  facet normal 0 0 1
    outer loop
      vertex 75 149 2
      vertex 100 160 2
      vertex 73.141 148.542 2
    endloop
  endfacet
  facet normal 0 0 1
    outer loop
      vertex 78.971 145.482 2
      vertex 100 160 2
      vertex 78.292 147.272 2
    endloop
  endfacet
  facet normal 0 0 1
    outer loop
      vertex 78.74 143.582 2
      vertex 100 160 2
      vertex 78.971 145.482 2
    endloop
  endfacet
  facet normal 0 0 1
    outer loop
      vertex 22.348 142.006 2
      vertex 21.26 143.582 2
      vertex 3.55271e-014 160 2
    endloop
  endfacet
  facet normal 0 0 1
    outer loop
      vertex 100 -2.22045e-014 2
      vertex 77.652 142.006 2
      vertex 75.957 141.116 2
    endloop
  endfacet
  facet normal 0 0 1
    outer loop
      vertex 100 -2.22045e-014 2
      vertex 100 160 2
      vertex 77.652 142.006 2
    endloop
  endfacet
  facet normal 0 0 1
    outer loop
      vertex 26.859 148.542 2
      vertex 28.292 147.272 2
      vertex 74.043 141.116 2
    endloop
  endfacet
  facet normal 0 0 1
    outer loop
      vertex 100 -2.22045e-014 2
      vertex 74.043 141.116 2
      vertex 25.957 141.116 2
    endloop
  endfacet
  facet normal 0 0 1
    outer loop
      vertex 21.26 143.582 2
      vertex 21.029 145.482 2
      vertex 3.55271e-014 160 2
    endloop
  endfacet
  facet normal 0 0 1
    outer loop
      vertex 100 -2.22045e-014 2
      vertex 25.957 141.116 2
      vertex 24.043 141.116 2
    endloop
  endfacet
  facet normal 0 0 1
    outer loop
      vertex 100 -2.22045e-014 2
      vertex 22.348 142.006 2
      vertex 3.55271e-014 160 2
    endloop
  endfacet
  facet normal 0 0 1
    outer loop
      vertex 100 -2.22045e-014 2
      vertex 24.043 141.116 2
      vertex 22.348 142.006 2
    endloop
  endfacet
  facet normal 0 0 1
    outer loop
      vertex 21.029 145.482 2
      vertex 21.708 147.272 2
      vertex 3.55271e-014 160 2
    endloop
  endfacet
  facet normal 0 0 1
    outer loop
      vertex 21.708 147.272 2
      vertex 23.141 148.542 2
      vertex 3.55271e-014 160 2
    endloop
  endfacet
  facet normal 0 0 1
    outer loop
      vertex 23.141 148.542 2
      vertex 25 149 2
      vertex 3.55271e-014 160 2
    endloop
  endfacet
  facet normal 0 0 1
    outer loop
      vertex 26.859 148.542 2
      vertex 74.043 141.116 2
      vertex 25 149 2
    endloop
  endfacet
  facet normal 0 0 1
    outer loop
      vertex 28.292 147.272 2
      vertex 28.971 145.482 2
      vertex 74.043 141.116 2
    endloop
  endfacet
  facet normal 0 0 1
    outer loop
      vertex 28.971 145.482 2
      vertex 28.74 143.582 2
      vertex 74.043 141.116 2
    endloop
  endfacet
  facet normal 0 0 1
    outer loop
      vertex 27.652 142.006 2
      vertex 74.043 141.116 2
      vertex 28.74 143.582 2
    endloop
  endfacet
  facet normal 0 0 1
    outer loop
      vertex 25.957 141.116 2
      vertex 74.043 141.116 2
      vertex 27.652 142.006 2
    endloop
  endfacet
  facet normal 0 0 1
    outer loop
      vertex 71.26 13.582 2
      vertex 71.029 15.482 2
      vertex 3.55271e-014 160 2
    endloop
  endfacet
  facet normal 0 0 1
    outer loop
      vertex 76.859 148.542 2
      vertex 78.292 147.272 2
      vertex 100 160 2
    endloop
  endfacet
  facet normal 0.464885 0.885371 0
    outer loop
      vertex 22.348 12.006 0
      vertex 22.348 12.006 2
      vertex 24.043 11.116 0
    endloop
  endfacet
  facet normal 0.464885 0.885371 0
    outer loop
      vertex 24.043 11.116 0
      vertex 22.348 12.006 2
      vertex 24.043 11.116 2
    endloop
  endfacet
  facet normal 1 -2.22045e-016 0
    outer loop
      vertex 100 -2.22045e-014 0
      vertex 100 160 0
      vertex 100 160 2
    endloop
  endfacet
  facet normal 1 -2.22045e-016 0
    outer loop
      vertex 100 -2.22045e-014 2
      vertex 100 -2.22045e-014 0
      vertex 100 160 2
    endloop
  endfacet
  facet normal -2.22045e-016 -1 0
    outer loop
      vertex 100 -2.22045e-014 0
      vertex 100 -2.22045e-014 2
      vertex 0 0 2
    endloop
  endfacet
  facet normal -2.22045e-016 -1 0
    outer loop
      vertex 0 0 0
      vertex 100 -2.22045e-014 0
      vertex 0 0 2
    endloop
  endfacet
  facet normal 2.22045e-016 1 0
    outer loop
      vertex 3.55271e-014 160 0
      vertex 3.55271e-014 160 2
      vertex 100 160 0
    endloop
  endfacet
  facet normal 2.22045e-016 1 0
    outer loop
      vertex 100 160 0
      vertex 3.55271e-014 160 2
      vertex 100 160 2
    endloop
  endfacet
  facet normal -1 2.22045e-016 0
    outer loop
      vertex 0 0 2
      vertex 3.55271e-014 160 2
      vertex 0 0 0
    endloop
  endfacet
  facet normal -1 2.22045e-016 0
    outer loop
      vertex 0 0 0
      vertex 3.55271e-014 160 2
      vertex 3.55271e-014 160 0
    endloop
  endfacet
  facet normal -0.464885 0.885371 0
    outer loop
      vertex 75.957 11.116 2
      vertex 77.652 12.006 2
      vertex 75.957 11.116 0
    endloop
  endfacet
  facet normal -0.464885 0.885371 0
    outer loop
      vertex 75.957 11.116 0
      vertex 77.652 12.006 2
      vertex 77.652 12.006 0
    endloop
  endfacet
  facet normal 2.22045e-016 1 0
    outer loop
      vertex 74.043 11.116 0
      vertex 74.043 11.116 2
      vertex 75.957 11.116 0
    endloop
  endfacet
  facet normal 2.22045e-016 1 0
    outer loop
      vertex 75.957 11.116 0
      vertex 74.043 11.116 2
      vertex 75.957 11.116 2
    endloop
  endfacet
  facet normal 0.464885 0.885371 0
    outer loop
      vertex 72.348 12.006 0
      vertex 72.348 12.006 2
      vertex 74.043 11.116 0
    endloop
  endfacet
  facet normal 0.464885 0.885371 0
    outer loop
      vertex 74.043 11.116 0
      vertex 72.348 12.006 2
      vertex 74.043 11.116 2
    endloop
  endfacet
  facet normal 0.822943 0.568123 0
    outer loop
      vertex 72.348 12.006 0
      vertex 71.26 13.582 0
      vertex 71.26 13.582 2
    endloop
  endfacet
  facet normal 0.822943 0.568123 0
    outer loop
      vertex 72.348 12.006 2
      vertex 72.348 12.006 0
      vertex 71.26 13.582 2
    endloop
  endfacet
  facet normal 0.99269 0.12069 0
    outer loop
      vertex 71.26 13.582 0
      vertex 71.029 15.482 0
      vertex 71.029 15.482 2
    endloop
  endfacet
  facet normal 0.99269 0.12069 0
    outer loop
      vertex 71.26 13.582 2
      vertex 71.26 13.582 0
      vertex 71.029 15.482 2
    endloop
  endfacet
  facet normal 0.934992 -0.35467 0
    outer loop
      vertex 71.029 15.482 0
      vertex 71.708 17.272 0
      vertex 71.708 17.272 2
    endloop
  endfacet
  facet normal 0.934992 -0.35467 0
    outer loop
      vertex 71.029 15.482 2
      vertex 71.029 15.482 0
      vertex 71.708 17.272 2
    endloop
  endfacet
  facet normal 0.663261 -0.748388 0
    outer loop
      vertex 71.708 17.272 0
      vertex 73.141 18.542 0
      vertex 73.141 18.542 2
    endloop
  endfacet
  facet normal 0.663261 -0.748388 0
    outer loop
      vertex 71.708 17.272 2
      vertex 71.708 17.272 0
      vertex 73.141 18.542 2
    endloop
  endfacet
  facet normal 0.239216 -0.970966 0
    outer loop
      vertex 73.141 18.542 0
      vertex 75 19 0
      vertex 75 19 2
    endloop
  endfacet
  facet normal 0.239216 -0.970966 0
    outer loop
      vertex 73.141 18.542 2
      vertex 73.141 18.542 0
      vertex 75 19 2
    endloop
  endfacet
  facet normal -0.239216 -0.970966 0
    outer loop
      vertex 76.859 18.542 0
      vertex 76.859 18.542 2
      vertex 75 19 2
    endloop
  endfacet
  facet normal -0.239216 -0.970966 0
    outer loop
      vertex 75 19 0
      vertex 76.859 18.542 0
      vertex 75 19 2
    endloop
  endfacet
  facet normal -0.663261 -0.748388 0
    outer loop
      vertex 78.292 17.272 0
      vertex 78.292 17.272 2
      vertex 76.859 18.542 2
    endloop
  endfacet
  facet normal -0.663261 -0.748388 0
    outer loop
      vertex 76.859 18.542 0
      vertex 78.292 17.272 0
      vertex 76.859 18.542 2
    endloop
  endfacet
  facet normal -0.934992 -0.35467 0
    outer loop
      vertex 78.971 15.482 2
      vertex 78.292 17.272 2
      vertex 78.971 15.482 0
    endloop
  endfacet
  facet normal -0.934992 -0.35467 0
    outer loop
      vertex 78.971 15.482 0
      vertex 78.292 17.272 2
      vertex 78.292 17.272 0
    endloop
  endfacet
  facet normal -0.99269 0.12069 0
    outer loop
      vertex 78.74 13.582 2
      vertex 78.971 15.482 2
      vertex 78.74 13.582 0
    endloop
  endfacet
  facet normal -0.99269 0.12069 0
    outer loop
      vertex 78.74 13.582 0
      vertex 78.971 15.482 2
      vertex 78.971 15.482 0
    endloop
  endfacet
  facet normal -0.822943 0.568123 0
    outer loop
      vertex 77.652 12.006 2
      vertex 78.74 13.582 2
      vertex 77.652 12.006 0
    endloop
  endfacet
  facet normal -0.822943 0.568123 0
    outer loop
      vertex 77.652 12.006 0
      vertex 78.74 13.582 2
      vertex 78.74 13.582 0
    endloop
  endfacet
  facet normal 0.822943 0.568123 0
    outer loop
      vertex 22.348 12.006 0
      vertex 21.26 13.582 0
      vertex 21.26 13.582 2
    endloop
  endfacet
  facet normal 0.822943 0.568123 0
    outer loop
      vertex 22.348 12.006 2
      vertex 22.348 12.006 0
      vertex 21.26 13.582 2
    endloop
  endfacet
  facet normal 0.99269 0.12069 0
    outer loop
      vertex 21.26 13.582 0
      vertex 21.029 15.482 0
      vertex 21.029 15.482 2
    endloop
  endfacet
  facet normal 0.99269 0.12069 0
    outer loop
      vertex 21.26 13.582 2
      vertex 21.26 13.582 0
      vertex 21.029 15.482 2
    endloop
  endfacet
  facet normal 0.934992 -0.35467 0
    outer loop
      vertex 21.029 15.482 0
      vertex 21.708 17.272 0
      vertex 21.708 17.272 2
    endloop
  endfacet
  facet normal 0.934992 -0.35467 0
    outer loop
      vertex 21.029 15.482 2
      vertex 21.029 15.482 0
      vertex 21.708 17.272 2
    endloop
  endfacet
  facet normal 0.663261 -0.748388 0
    outer loop
      vertex 21.708 17.272 0
      vertex 23.141 18.542 0
      vertex 23.141 18.542 2
    endloop
  endfacet
  facet normal 0.663261 -0.748388 0
    outer loop
      vertex 21.708 17.272 2
      vertex 21.708 17.272 0
      vertex 23.141 18.542 2
    endloop
  endfacet
  facet normal 0.239216 -0.970966 0
    outer loop
      vertex 23.141 18.542 0
      vertex 25 19 0
      vertex 25 19 2
    endloop
  endfacet
  facet normal 0.239216 -0.970966 0
    outer loop
      vertex 23.141 18.542 2
      vertex 23.141 18.542 0
      vertex 25 19 2
    endloop
  endfacet
  facet normal -0.239216 -0.970966 0
    outer loop
      vertex 26.859 18.542 0
      vertex 26.859 18.542 2
      vertex 25 19 2
    endloop
  endfacet
  facet normal -0.239216 -0.970966 0
    outer loop
      vertex 25 19 0
      vertex 26.859 18.542 0
      vertex 25 19 2
    endloop
  endfacet
  facet normal -0.663261 -0.748388 0
    outer loop
      vertex 28.292 17.272 0
      vertex 28.292 17.272 2
      vertex 26.859 18.542 2
    endloop
  endfacet
  facet normal -0.663261 -0.748388 0
    outer loop
      vertex 26.859 18.542 0
      vertex 28.292 17.272 0
      vertex 26.859 18.542 2
    endloop
  endfacet
  facet normal -0.934992 -0.35467 0
    outer loop
      vertex 28.971 15.482 2
      vertex 28.292 17.272 2
      vertex 28.971 15.482 0
    endloop
  endfacet
  facet normal -0.934992 -0.35467 0
    outer loop
      vertex 28.971 15.482 0
      vertex 28.292 17.272 2
      vertex 28.292 17.272 0
    endloop
  endfacet
  facet normal -0.99269 0.12069 0
    outer loop
      vertex 28.74 13.582 2
      vertex 28.971 15.482 2
      vertex 28.74 13.582 0
    endloop
  endfacet
  facet normal -0.99269 0.12069 0
    outer loop
      vertex 28.74 13.582 0
      vertex 28.971 15.482 2
      vertex 28.971 15.482 0
    endloop
  endfacet
  facet normal -0.464885 0.885371 0
    outer loop
      vertex 75.957 141.116 2
      vertex 77.652 142.006 2
      vertex 75.957 141.116 0
    endloop
  endfacet
  facet normal -0.464885 0.885371 0
    outer loop
      vertex 75.957 141.116 0
      vertex 77.652 142.006 2
      vertex 77.652 142.006 0
    endloop
  endfacet
  facet normal 2.22045e-016 1 0
    outer loop
      vertex 74.043 141.116 0
      vertex 74.043 141.116 2
      vertex 75.957 141.116 0
    endloop
  endfacet
  facet normal 2.22045e-016 1 0
    outer loop
      vertex 75.957 141.116 0
      vertex 74.043 141.116 2
      vertex 75.957 141.116 2
    endloop
  endfacet
  facet normal 0.464885 0.885371 0
    outer loop
      vertex 72.348 142.006 0
      vertex 72.348 142.006 2
      vertex 74.043 141.116 0
    endloop
  endfacet
  facet normal 0.464885 0.885371 0
    outer loop
      vertex 74.043 141.116 0
      vertex 72.348 142.006 2
      vertex 74.043 141.116 2
    endloop
  endfacet
  facet normal 0.822943 0.568123 0
    outer loop
      vertex 72.348 142.006 0
      vertex 71.26 143.582 0
      vertex 71.26 143.582 2
    endloop
  endfacet
  facet normal 0.822943 0.568123 0
    outer loop
      vertex 72.348 142.006 2
      vertex 72.348 142.006 0
      vertex 71.26 143.582 2
    endloop
  endfacet
  facet normal 0.99269 0.12069 0
    outer loop
      vertex 71.26 143.582 0
      vertex 71.029 145.482 0
      vertex 71.029 145.482 2
    endloop
  endfacet
  facet normal 0.99269 0.12069 0
    outer loop
      vertex 71.26 143.582 2
      vertex 71.26 143.582 0
      vertex 71.029 145.482 2
    endloop
  endfacet
  facet normal 0.934992 -0.35467 0
    outer loop
      vertex 71.029 145.482 0
      vertex 71.708 147.272 0
      vertex 71.708 147.272 2
    endloop
  endfacet
  facet normal 0.934992 -0.35467 0
    outer loop
      vertex 71.029 145.482 2
      vertex 71.029 145.482 0
      vertex 71.708 147.272 2
    endloop
  endfacet
  facet normal 0.663261 -0.748388 0
    outer loop
      vertex 71.708 147.272 0
      vertex 73.141 148.542 0
      vertex 73.141 148.542 2
    endloop
  endfacet
  facet normal 0.663261 -0.748388 0
    outer loop
      vertex 71.708 147.272 2
      vertex 71.708 147.272 0
      vertex 73.141 148.542 2
    endloop
  endfacet
  facet normal 0.239216 -0.970966 0
    outer loop
      vertex 73.141 148.542 0
      vertex 75 149 0
      vertex 75 149 2
    endloop
  endfacet
  facet normal 0.239216 -0.970966 0
    outer loop
      vertex 73.141 148.542 2
      vertex 73.141 148.542 0
      vertex 75 149 2
    endloop
  endfacet
  facet normal -0.239216 -0.970966 0
    outer loop
      vertex 76.859 148.542 0
      vertex 76.859 148.542 2
      vertex 75 149 2
    endloop
  endfacet
  facet normal -0.239216 -0.970966 0
    outer loop
      vertex 75 149 0
      vertex 76.859 148.542 0
      vertex 75 149 2
    endloop
  endfacet
  facet normal -0.663261 -0.748388 0
    outer loop
      vertex 78.292 147.272 0
      vertex 78.292 147.272 2
      vertex 76.859 148.542 2
    endloop
  endfacet
  facet normal -0.663261 -0.748388 0
    outer loop
      vertex 76.859 148.542 0
      vertex 78.292 147.272 0
      vertex 76.859 148.542 2
    endloop
  endfacet
  facet normal -0.934992 -0.35467 0
    outer loop
      vertex 78.971 145.482 2
      vertex 78.292 147.272 2
      vertex 78.971 145.482 0
    endloop
  endfacet
  facet normal -0.934992 -0.35467 0
    outer loop
      vertex 78.971 145.482 0
      vertex 78.292 147.272 2
      vertex 78.292 147.272 0
    endloop
  endfacet
  facet normal -0.99269 0.12069 0
    outer loop
      vertex 78.74 143.582 2
      vertex 78.971 145.482 2
      vertex 78.74 143.582 0
    endloop
  endfacet
  facet normal -0.99269 0.12069 0
    outer loop
      vertex 78.74 143.582 0
      vertex 78.971 145.482 2
      vertex 78.971 145.482 0
    endloop
  endfacet
  facet normal -0.822943 0.568123 0
    outer loop
      vertex 77.652 142.006 2
      vertex 78.74 143.582 2
      vertex 77.652 142.006 0
    endloop
  endfacet
  facet normal -0.822943 0.568123 0
    outer loop
      vertex 77.652 142.006 0
      vertex 78.74 143.582 2
      vertex 78.74 143.582 0
    endloop
  endfacet
  facet normal -0.464885 0.885371 0
    outer loop
      vertex 25.957 141.116 2
      vertex 27.652 142.006 2
      vertex 25.957 141.116 0
    endloop
  endfacet
  facet normal -0.464885 0.885371 0
    outer loop
      vertex 25.957 141.116 0
      vertex 27.652 142.006 2
      vertex 27.652 142.006 0
    endloop
  endfacet
  facet normal 2.22045e-016 1 0
    outer loop
      vertex 24.043 141.116 0
      vertex 24.043 141.116 2
      vertex 25.957 141.116 0
    endloop
  endfacet
  facet normal 2.22045e-016 1 0
    outer loop
      vertex 25.957 141.116 0
      vertex 24.043 141.116 2
      vertex 25.957 141.116 2
    endloop
  endfacet
  facet normal 0.464885 0.885371 0
    outer loop
      vertex 22.348 142.006 0
      vertex 22.348 142.006 2
      vertex 24.043 141.116 0
    endloop
  endfacet
  facet normal 0.464885 0.885371 0
    outer loop
      vertex 24.043 141.116 0
      vertex 22.348 142.006 2
      vertex 24.043 141.116 2
    endloop
  endfacet
  facet normal 0.822943 0.568123 0
    outer loop
      vertex 22.348 142.006 0
      vertex 21.26 143.582 0
      vertex 21.26 143.582 2
    endloop
  endfacet
  facet normal 0.822943 0.568123 0
    outer loop
      vertex 22.348 142.006 2
      vertex 22.348 142.006 0
      vertex 21.26 143.582 2
    endloop
  endfacet
  facet normal 0.99269 0.12069 0
    outer loop
      vertex 21.26 143.582 0
      vertex 21.029 145.482 0
      vertex 21.029 145.482 2
    endloop
  endfacet
  facet normal 0.99269 0.12069 0
    outer loop
      vertex 21.26 143.582 2
      vertex 21.26 143.582 0
      vertex 21.029 145.482 2
    endloop
  endfacet
  facet normal 0.934992 -0.35467 0
    outer loop
      vertex 21.029 145.482 0
      vertex 21.708 147.272 0
      vertex 21.708 147.272 2
    endloop
  endfacet
  facet normal 0.934992 -0.35467 0
    outer loop
      vertex 21.029 145.482 2
      vertex 21.029 145.482 0
      vertex 21.708 147.272 2
    endloop
  endfacet
  facet normal 0.663261 -0.748388 0
    outer loop
      vertex 21.708 147.272 0
      vertex 23.141 148.542 0
      vertex 23.141 148.542 2
    endloop
  endfacet
  facet normal 0.663261 -0.748388 0
    outer loop
      vertex 21.708 147.272 2
      vertex 21.708 147.272 0
      vertex 23.141 148.542 2
    endloop
  endfacet
  facet normal 0.239216 -0.970966 0
    outer loop
      vertex 23.141 148.542 0
      vertex 25 149 0
      vertex 25 149 2
    endloop
  endfacet
  facet normal 0.239216 -0.970966 0
    outer loop
      vertex 23.141 148.542 2
      vertex 23.141 148.542 0
      vertex 25 149 2
    endloop
  endfacet
  facet normal -0.239216 -0.970966 0
    outer loop
      vertex 26.859 148.542 0
      vertex 26.859 148.542 2
      vertex 25 149 2
    endloop
  endfacet
  facet normal -0.239216 -0.970966 0
    outer loop
      vertex 25 149 0
      vertex 26.859 148.542 0
      vertex 25 149 2
    endloop
  endfacet
  facet normal -0.663261 -0.748388 0
    outer loop
      vertex 28.292 147.272 0
      vertex 28.292 147.272 2
      vertex 26.859 148.542 2
    endloop
  endfacet
  facet normal -0.663261 -0.748388 0
    outer loop
      vertex 26.859 148.542 0
      vertex 28.292 147.272 0
      vertex 26.859 148.542 2
    endloop
  endfacet
  facet normal -0.934992 -0.35467 0
    outer loop
      vertex 28.971 145.482 2
      vertex 28.292 147.272 2
      vertex 28.971 145.482 0
    endloop
  endfacet
  facet normal -0.934992 -0.35467 0
    outer loop
      vertex 28.971 145.482 0
      vertex 28.292 147.272 2
      vertex 28.292 147.272 0
    endloop
  endfacet
  facet normal -0.99269 0.12069 0
    outer loop
      vertex 28.74 143.582 2
      vertex 28.971 145.482 2
      vertex 28.74 143.582 0
    endloop
  endfacet
  facet normal -0.99269 0.12069 0
    outer loop
      vertex 28.74 143.582 0
      vertex 28.971 145.482 2
      vertex 28.971 145.482 0
    endloop
  endfacet
  facet normal -0.822943 0.568123 0
    outer loop
      vertex 27.652 142.006 2
      vertex 28.74 143.582 2
      vertex 27.652 142.006 0
    endloop
  endfacet
  facet normal -0.822943 0.568123 0
    outer loop
      vertex 27.652 142.006 0
      vertex 28.74 143.582 2
      vertex 28.74 143.582 0
    endloop
  endfacet
endsolid OpenSCAD_Model
