999
dxfrw 0.5.10
0
SECTION
2
HEADER
9
$ACADVER
1
AC1021
9
$HANDSEED
5
20000
9
$DWGCODEPAGE
3
ANSI_1252
9
$INSBASE
10
0
20
0
30
0
9
$EXTMIN
10
10000000000
20
10000000000
30
0
9
$EXTMAX
10
-10000000000
20
-10000000000
30
0
9
$LIMMIN
10
-30
20
-20
9
$LIMMAX
10
30
20
20
9
$ORTHOMODE
70
0
9
$LTSCALE
40
1
9
$TEXTSTYLE
7
STANDARD
9
$CLAYER
8
DIMENSION
9
$DIMASZ
40
16
9
$DIMLFAC
40
1
9
$DIMSCALE
40
1
9
$DIMEXO
40
0.05
9
$DIMEXE
40
0.2
9
$DIMTXT
40
24
9
$DIMTSZ
40
0
9
$DIMAUNIT
70
0
9
$DIMADEC
70
0
9
$DIMLUNIT
70
2
9
$DIMSTYLE
2
STANDARD
9
$DIMGAP
40
0.09
9
$DIMTIH
70
0
9
$LUNITS
70
2
9
$LUPREC
70
4
9
$AUNITS
70
0
9
$AUPREC
70
0
9
$SPLINESEGS
70
8
9
$GRIDMODE
70
1
9
$SNAPSTYLE
70
0
9
$GRIDUNIT
10
0
20
0
9
$PINSBASE
10
76.0544077138
20
45.3896438242
30
0
9
$PLIMMIN
10
0
20
0
9
$PLIMMAX
10
297
20
210
9
$INSUNITS
70
4
9
$PSVPSCALE
40
0.115579544732
0
ENDSEC
0
SECTION
2
CLASSES
0
ENDSEC
0
SECTION
2
TABLES
0
TABLE
2
VPORT
5
8
330
0
100
AcDbSymbolTable
70
1
0
VPORT
5
31
330
2
100
AcDbSymbolTableRecord
100
AcDbViewportTableRecord
2
*ACTIVE
70
0
10
0
20
0
11
1
21
1
12
2158.42062595
22
1032.98715246
13
0
23
0
14
10
24
10
15
10
25
10
16
0
26
0
36
1
17
0
27
0
37
0
40
3251.69885735
41
2.01236093943
42
50
43
0
44
0
50
0
51
0
71
0
72
100
73
1
74
3
75
0
76
1
77
0
78
0
281
0
65
1
110
0
120
0
130
0
111
1
121
0
131
0
112
0
122
1
132
0
79
0
146
0
348
10020
60
7
61
5
292
1
282
1
141
0
142
0
63
250
421
3358443
0
ENDTAB
0
TABLE
2
LTYPE
5
5
330
0
100
AcDbSymbolTable
70
4
0
LTYPE
5
14
330
5
100
AcDbSymbolTableRecord
100
AcDbLinetypeTableRecord
2
ByBlock
70
0
3

72
65
73
0
40
0
0
LTYPE
5
15
330
5
100
AcDbSymbolTableRecord
100
AcDbLinetypeTableRecord
2
ByLayer
70
0
3

72
65
73
0
40
0
0
LTYPE
5
16
330
5
100
AcDbSymbolTableRecord
100
AcDbLinetypeTableRecord
2
Continuous
70
0
3
Solid line
72
65
73
0
40
0
0
LTYPE
5
32
330
5
100
AcDbSymbolTableRecord
100
AcDbLinetypeTableRecord
2
DOT
70
0
3
Dot . . . . . . . . . . . . . . . . . . . . . .
72
65
73
2
40
6.35
49
0
74
0
49
-6.35
74
0
0
LTYPE
5
33
330
5
100
AcDbSymbolTableRecord
100
AcDbLinetypeTableRecord
2
DOT2
70
0
3
Dot (.5x) .....................................
72
65
73
2
40
3.175
49
0
74
0
49
-3.175
74
0
0
LTYPE
5
34
330
5
100
AcDbSymbolTableRecord
100
AcDbLinetypeTableRecord
2
DOTX2
70
0
3
Dot (2x) .  .  .  .  .  .  .  .  .  .  .  .  .
72
65
73
2
40
12.7
49
0
74
0
49
-12.7
74
0
0
LTYPE
5
35
330
5
100
AcDbSymbolTableRecord
100
AcDbLinetypeTableRecord
2
DASHED
70
0
3
Dot . . . . . . . . . . . . . . . . . . . . . .
72
65
73
2
40
19.05
49
12.7
74
0
49
-6.35
74
0
0
LTYPE
5
36
330
5
100
AcDbSymbolTableRecord
100
AcDbLinetypeTableRecord
2
DASHED2
70
0
3
Dashed (.5x) _ _ _ _ _ _ _ _ _ _ _ _ _ _ _ _ _
72
65
73
2
40
9.525
49
6.35
74
0
49
-3.175
74
0
0
LTYPE
5
37
330
5
100
AcDbSymbolTableRecord
100
AcDbLinetypeTableRecord
2
DASHEDX2
70
0
3
Dashed (2x) ____  ____  ____  ____  ____  ___
72
65
73
2
40
38.1
49
25.4
74
0
49
-12.7
74
0
0
LTYPE
5
38
330
5
100
AcDbSymbolTableRecord
100
AcDbLinetypeTableRecord
2
DASHDOT
70
0
3
Dash dot __ . __ . __ . __ . __ . __ . __ . __
72
65
73
4
40
25.4
49
12.7
74
0
49
-6.35
74
0
49
0
74
0
49
-6.35
74
0
0
LTYPE
5
39
330
5
100
AcDbSymbolTableRecord
100
AcDbLinetypeTableRecord
2
DASHDOT2
70
0
3
Dash dot (.5x) _._._._._._._._._._._._._._._.
72
65
73
4
40
12.7
49
6.35
74
0
49
-3.175
74
0
49
0
74
0
49
-3.175
74
0
0
LTYPE
5
3A
330
5
100
AcDbSymbolTableRecord
100
AcDbLinetypeTableRecord
2
DASHDOTX2
70
0
3
Dash dot (2x) ____  .  ____  .  ____  .  ___
72
65
73
4
40
50.8
49
25.4
74
0
49
-12.7
74
0
49
0
74
0
49
-12.7
74
0
0
LTYPE
5
3B
330
5
100
AcDbSymbolTableRecord
100
AcDbLinetypeTableRecord
2
DIVIDE
70
0
3
Divide ____ . . ____ . . ____ . . ____ . . ____
72
65
73
6
40
31.75
49
12.7
74
0
49
-6.35
74
0
49
0
74
0
49
-6.35
74
0
49
0
74
0
49
-6.35
74
0
0
LTYPE
5
3C
330
5
100
AcDbSymbolTableRecord
100
AcDbLinetypeTableRecord
2
DIVIDE2
70
0
3
Divide (.5x) __..__..__..__..__..__..__..__.._
72
65
73
6
40
15.875
49
6.35
74
0
49
-3.175
74
0
49
0
74
0
49
-3.175
74
0
49
0
74
0
49
-3.175
74
0
0
LTYPE
5
3D
330
5
100
AcDbSymbolTableRecord
100
AcDbLinetypeTableRecord
2
DIVIDEX2
70
0
3
Divide (2x) ________  .  .  ________  .  .  _
72
65
73
6
40
63.5
49
25.4
74
0
49
-12.7
74
0
49
0
74
0
49
-12.7
74
0
49
0
74
0
49
-12.7
74
0
0
LTYPE
5
3E
330
5
100
AcDbSymbolTableRecord
100
AcDbLinetypeTableRecord
2
BORDER
70
0
3
Border __ __ . __ __ . __ __ . __ __ . __ __ .
72
65
73
6
40
44.45
49
12.7
74
0
49
-6.35
74
0
49
12.7
74
0
49
-6.35
74
0
49
0
74
0
49
-6.35
74
0
0
LTYPE
5
3F
330
5
100
AcDbSymbolTableRecord
100
AcDbLinetypeTableRecord
2
BORDER2
70
0
3
Border (.5x) __.__.__.__.__.__.__.__.__.__.__.
72
65
73
6
40
22.225
49
6.35
74
0
49
-3.175
74
0
49
6.35
74
0
49
-3.175
74
0
49
0
74
0
49
-3.175
74
0
0
LTYPE
5
40
330
5
100
AcDbSymbolTableRecord
100
AcDbLinetypeTableRecord
2
BORDERX2
70
0
3
Border (2x) ____  ____  .  ____  ____  .  ___
72
65
73
6
40
88.9
49
25.4
74
0
49
-12.7
74
0
49
25.4
74
0
49
-12.7
74
0
49
0
74
0
49
-12.7
74
0
0
LTYPE
5
41
330
5
100
AcDbSymbolTableRecord
100
AcDbLinetypeTableRecord
2
CENTER
70
0
3
Center ____ _ ____ _ ____ _ ____ _ ____ _ ____
72
65
73
4
40
50.8
49
31.75
74
0
49
-6.35
74
0
49
6.35
74
0
49
-6.35
74
0
0
LTYPE
5
42
330
5
100
AcDbSymbolTableRecord
100
AcDbLinetypeTableRecord
2
CENTER2
70
0
3
Center (.5x) ___ _ ___ _ ___ _ ___ _ ___ _ ___
72
65
73
4
40
28.575
49
19.05
74
0
49
-3.175
74
0
49
3.175
74
0
49
-3.175
74
0
0
LTYPE
5
43
330
5
100
AcDbSymbolTableRecord
100
AcDbLinetypeTableRecord
2
CENTERX2
70
0
3
Center (2x) ________  __  ________  __  _____
72
65
73
4
40
101.6
49
63.5
74
0
49
-12.7
74
0
49
12.7
74
0
49
-12.7
74
0
0
ENDTAB
0
TABLE
2
LAYER
5
2
330
0
100
AcDbSymbolTable
70
1
0
LAYER
5
10
330
2
100
AcDbSymbolTableRecord
100
AcDbLayerTableRecord
2
0
70
0
62
7
6
CONTINUOUS
370
30
390
F
0
LAYER
5
44
330
2
100
AcDbSymbolTableRecord
100
AcDbLayerTableRecord
2
LAYOUT_TEXT
70
0
62
7
6
CONTINUOUS
370
30
390
F
0
LAYER
5
45
330
2
100
AcDbSymbolTableRecord
100
AcDbLayerTableRecord
2
LAYOUT_BLOCK
70
0
62
7
6
CONTINUOUS
370
30
390
F
0
LAYER
5
46
330
2
100
AcDbSymbolTableRecord
100
AcDbLayerTableRecord
2
DIMENSION
70
4
62
5
6
CONTINUOUS
370
0
390
F
0
ENDTAB
0
TABLE
2
STYLE
5
3
330
0
100
AcDbSymbolTable
70
3
0
STYLE
5
47
330
2
100
AcDbSymbolTableRecord
100
AcDbTextStyleTableRecord
2
standard
70
0
40
0
41
1
50
0
71
0
42
1
3
standard
4

0
ENDTAB
0
TABLE
2
VIEW
5
6
330
0
100
AcDbSymbolTable
70
0
0
ENDTAB
0
TABLE
2
UCS
5
7
330
0
100
AcDbSymbolTable
70
0
0
ENDTAB
0
TABLE
2
APPID
5
9
330
0
100
AcDbSymbolTable
70
1
0
APPID
5
12
330
9
100
AcDbSymbolTableRecord
100
AcDbRegAppTableRecord
2
ACAD
70
0
0
ENDTAB
0
TABLE
2
DIMSTYLE
5
A
330
0
100
AcDbSymbolTable
70
1
100
AcDbDimStyleTable
71
1
0
DIMSTYLE
105
48
330
A
100
AcDbSymbolTableRecord
100
AcDbDimStyleTableRecord
2
Standard
70
0
40
1
41
16
42
0.05
43
0.38
44
0.2
45
0
46
0
47
0
48
0
140
24
141
0.09
142
0
143
25.4
144
1
145
0
146
1
147
0.09
148
0
71
0
72
0
73
0
74
1
75
0
76
0
77
0
78
0
79
0
170
0
171
2
172
0
173
0
174
0
175
0
176
0
177
0
178
0
179
0
271
4
272
4
273
2
274
2
275
0
276
0
277
2
278
46
279
0
280
0
281
0
282
0
283
1
284
0
285
0
286
0
288
0
289
3
340
Standard
341

371
-2
372
-2
0
ENDTAB
0
TABLE
2
BLOCK_RECORD
5
1
330
0
100
AcDbSymbolTable
70
2
0
BLOCK_RECORD
5
1F
330
1
100
AcDbSymbolTableRecord
100
AcDbBlockTableRecord
2
*Model_Space
70
0
280
1
281
0
0
BLOCK_RECORD
5
1E
330
1
100
AcDbSymbolTableRecord
100
AcDbBlockTableRecord
2
*Paper_Space
70
0
280
1
281
0
0
BLOCK_RECORD
5
49
330
1
100
AcDbSymbolTableRecord
100
AcDbBlockTableRecord
2
*D9
70
0
280
1
281
0
0
BLOCK_RECORD
5
4C
330
1
100
AcDbSymbolTableRecord
100
AcDbBlockTableRecord
2
*D3
70
0
280
1
281
0
0
BLOCK_RECORD
5
4F
330
1
100
AcDbSymbolTableRecord
100
AcDbBlockTableRecord
2
*D6
70
0
280
1
281
0
0
BLOCK_RECORD
5
52
330
1
100
AcDbSymbolTableRecord
100
AcDbBlockTableRecord
2
*D5
70
0
280
1
281
0
0
BLOCK_RECORD
5
55
330
1
100
AcDbSymbolTableRecord
100
AcDbBlockTableRecord
2
*D2
70
0
280
1
281
0
0
BLOCK_RECORD
5
58
330
1
100
AcDbSymbolTableRecord
100
AcDbBlockTableRecord
2
*D4
70
0
280
1
281
0
0
BLOCK_RECORD
5
5B
330
1
100
AcDbSymbolTableRecord
100
AcDbBlockTableRecord
2
*D8
70
0
280
1
281
0
0
BLOCK_RECORD
5
5E
330
1
100
AcDbSymbolTableRecord
100
AcDbBlockTableRecord
2
*D1
70
0
280
1
281
0
0
BLOCK_RECORD
5
61
330
1
100
AcDbSymbolTableRecord
100
AcDbBlockTableRecord
2
*D7
70
0
280
1
281
0
0
BLOCK_RECORD
5
64
330
1
100
AcDbSymbolTableRecord
100
AcDbBlockTableRecord
2
TITLE_BLOCK
70
0
280
1
281
0
0
ENDTAB
0
ENDSEC
0
SECTION
2
BLOCKS
0
BLOCK
5
20
330
1F
100
AcDbEntity
8
0
100
AcDbBlockBegin
2
*Model_Space
70
0
10
0
20
0
30
0
3
*Model_Space
1

0
ENDBLK
5
21
330
1F
100
AcDbEntity
8
0
100
AcDbBlockEnd
0
BLOCK
5
1C
330
1B
100
AcDbEntity
8
0
100
AcDbBlockBegin
2
*Paper_Space
70
0
10
0
20
0
30
0
3
*Paper_Space
1

0
ENDBLK
5
1D
330
1F
100
AcDbEntity
8
0
100
AcDbBlockEnd
0
BLOCK
5
4A
330
49
100
AcDbEntity
8
0
100
AcDbBlockBegin
2
*D9
70
1
10
0
20
0
3
*D9
1

0
LINE
5
67
100
AcDbEntity
8
DIMENSION
6
CONTINUOUS
62
7
370
0
100
AcDbLine
10
1086
20
1360
11
1200
21
1360
0
SOLID
5
68
100
AcDbEntity
8
DIMENSION
6
CONTINUOUS
62
7
370
0
100
AcDbTrace
10
1086
20
1360
30
0
11
1102
21
1362.66422181
31
0
12
1102
22
1357.33577819
32
0
13
1102
23
1357.33577819
33
0
0
SOLID
5
69
100
AcDbEntity
8
DIMENSION
6
CONTINUOUS
62
7
370
0
100
AcDbTrace
10
1200
20
1360
30
0
11
1184
21
1357.33577819
31
0
12
1184
22
1362.66422181
32
0
13
1184
23
1362.66422181
33
0
0
MTEXT
5
6A
100
AcDbEntity
8
DIMENSION
6
CONTINUOUS
62
7
370
0
100
AcDbMText
10
1140
20
1340
30
0
40
24
41
40
71
5
72
1
1
114
7
standard
210
0
220
0
230
1
50
0
73
2
44
1
0
LINE
5
6B
100
AcDbEntity
8
DIMENSION
6
CONTINUOUS
62
7
370
0
100
AcDbLine
10
1086
20
1379.95
11
1086
21
1359.8
0
LINE
5
6C
100
AcDbEntity
8
DIMENSION
6
CONTINUOUS
62
7
370
0
100
AcDbLine
10
1200
20
1379.95
11
1200
21
1359.8
0
ENDBLK
5
4B
330
49
100
AcDbEntity
8
0
100
AcDbBlockEnd
0
BLOCK
5
4D
330
4C
100
AcDbEntity
8
0
100
AcDbBlockBegin
2
*D3
70
1
10
0
20
0
3
*D3
1

0
LINE
5
6D
100
AcDbEntity
8
DIMENSION
6
CONTINUOUS
62
7
370
0
100
AcDbLine
10
0
20
1450
11
72
21
1450
0
SOLID
5
6E
100
AcDbEntity
8
DIMENSION
6
CONTINUOUS
62
7
370
0
100
AcDbTrace
10
32
20
1450
30
0
11
16
21
1447.33577819
31
0
12
16
22
1452.66422181
32
0
13
16
23
1452.66422181
33
0
0
SOLID
5
6F
100
AcDbEntity
8
DIMENSION
6
CONTINUOUS
62
7
370
0
100
AcDbTrace
10
40
20
1450
30
0
11
56
21
1452.66422181
31
0
12
56
22
1447.33577819
32
0
13
56
23
1447.33577819
33
0
0
MTEXT
5
70
100
AcDbEntity
8
DIMENSION
6
CONTINUOUS
62
7
370
0
100
AcDbMText
10
36.6025376938
20
1466.47316882
30
0
40
24
41
10.6666666667
71
5
72
1
1
8
7
standard
210
0
220
0
230
1
50
0
73
2
44
1
0
LINE
5
71
100
AcDbEntity
8
DIMENSION
6
CONTINUOUS
62
7
370
0
100
AcDbLine
10
32
20
1426.05
11
32
21
1450.2
0
LINE
5
72
100
AcDbEntity
8
DIMENSION
6
CONTINUOUS
62
7
370
0
100
AcDbLine
10
40
20
1426.05
11
40
21
1450.2
0
ENDBLK
5
4E
330
4C
100
AcDbEntity
8
0
100
AcDbBlockEnd
0
BLOCK
5
50
330
4F
100
AcDbEntity
8
0
100
AcDbBlockBegin
2
*D6
70
1
10
0
20
0
3
*D6
1

0
LINE
5
73
100
AcDbEntity
8
DIMENSION
6
CONTINUOUS
62
7
370
0
100
AcDbLine
10
36
20
1360
11
386
21
1360
0
SOLID
5
74
100
AcDbEntity
8
DIMENSION
6
CONTINUOUS
62
7
370
0
100
AcDbTrace
10
36
20
1360
30
0
11
52
21
1362.66422181
31
0
12
52
22
1357.33577819
32
0
13
52
23
1357.33577819
33
0
0
SOLID
5
75
100
AcDbEntity
8
DIMENSION
6
CONTINUOUS
62
7
370
0
100
AcDbTrace
10
386
20
1360
30
0
11
370
21
1357.33577819
31
0
12
370
22
1362.66422181
32
0
13
370
23
1362.66422181
33
0
0
MTEXT
5
76
100
AcDbEntity
8
DIMENSION
6
CONTINUOUS
62
7
370
0
100
AcDbMText
10
211
20
1340
30
0
40
24
41
48
71
5
72
1
1
350
7
standard
210
0
220
0
230
1
50
0
73
2
44
1
0
LINE
5
77
100
AcDbEntity
8
DIMENSION
6
CONTINUOUS
62
7
370
0
100
AcDbLine
10
36
20
1389.95
11
36
21
1359.8
0
LINE
5
78
100
AcDbEntity
8
DIMENSION
6
CONTINUOUS
62
7
370
0
100
AcDbLine
10
386
20
1379.95
11
386
21
1359.8
0
ENDBLK
5
51
330
4F
100
AcDbEntity
8
0
100
AcDbBlockEnd
0
BLOCK
5
53
330
52
100
AcDbEntity
8
0
100
AcDbBlockBegin
2
*D5
70
1
10
0
20
0
3
*D5
1

0
LINE
5
79
100
AcDbEntity
8
DIMENSION
6
CONTINUOUS
62
7
370
0
100
AcDbLine
10
-32
20
1360
11
68
21
1360
0
SOLID
5
7A
100
AcDbEntity
8
DIMENSION
6
CONTINUOUS
62
7
370
0
100
AcDbTrace
10
7.1054273576e-015
20
1360
30
0
11
-16
21
1357.33577819
31
0
12
-16
22
1362.66422181
32
0
13
-16
23
1362.66422181
33
0
0
SOLID
5
7B
100
AcDbEntity
8
DIMENSION
6
CONTINUOUS
62
7
370
0
100
AcDbTrace
10
36
20
1360
30
0
11
52
21
1362.66422181
31
0
12
52
22
1357.33577819
32
0
13
52
23
1357.33577819
33
0
0
MTEXT
5
7C
100
AcDbEntity
8
DIMENSION
6
CONTINUOUS
62
7
370
0
100
AcDbMText
10
18
20
1340
30
0
40
24
41
29.3333333333
71
5
72
1
1
36
7
standard
210
0
220
0
230
1
50
0
73
2
44
1
0
LINE
5
7D
100
AcDbEntity
8
DIMENSION
6
CONTINUOUS
62
7
370
0
100
AcDbLine
10
-9.18454765367e-018
20
1389.95
11
7.06868916699e-015
21
1359.8
0
LINE
5
7E
100
AcDbEntity
8
DIMENSION
6
CONTINUOUS
62
7
370
0
100
AcDbLine
10
36
20
1389.95
11
36
21
1359.8
0
ENDBLK
5
54
330
52
100
AcDbEntity
8
0
100
AcDbBlockEnd
0
BLOCK
5
56
330
55
100
AcDbEntity
8
0
100
AcDbBlockBegin
2
*D2
70
1
10
0
20
0
3
*D2
1

0
LINE
5
7F
100
AcDbEntity
8
DIMENSION
6
CONTINUOUS
62
7
370
0
100
AcDbLine
10
0
20
1490
11
1200
21
1490
0
SOLID
5
80
100
AcDbEntity
8
DIMENSION
6
CONTINUOUS
62
7
370
0
100
AcDbTrace
10
0
20
1490
30
0
11
16
21
1492.66422181
31
0
12
16
22
1487.33577819
32
0
13
16
23
1487.33577819
33
0
0
SOLID
5
81
100
AcDbEntity
8
DIMENSION
6
CONTINUOUS
62
7
370
0
100
AcDbTrace
10
1200
20
1490
30
0
11
1184
21
1487.33577819
31
0
12
1184
22
1492.66422181
32
0
13
1184
23
1492.66422181
33
0
0
MTEXT
5
82
100
AcDbEntity
8
DIMENSION
6
CONTINUOUS
62
7
370
0
100
AcDbMText
10
600
20
1502.09
30
0
40
24
41
61.3333333333
71
5
72
1
1
1200
7
standard
210
0
220
0
230
1
50
0
73
2
44
1
0
LINE
5
83
100
AcDbEntity
8
DIMENSION
6
CONTINUOUS
62
7
370
0
100
AcDbLine
10
3.06151588456e-018
20
1460.05
11
1.22460635382e-017
21
1490.2
0
LINE
5
84
100
AcDbEntity
8
DIMENSION
6
CONTINUOUS
62
7
370
0
100
AcDbLine
10
1200
20
1460.05
11
1200
21
1490.2
0
ENDBLK
5
57
330
55
100
AcDbEntity
8
0
100
AcDbBlockEnd
0
BLOCK
5
59
330
58
100
AcDbEntity
8
0
100
AcDbBlockBegin
2
*D4
70
1
10
0
20
0
3
*D4
1

0
LINE
5
85
100
AcDbEntity
8
DIMENSION
6
CONTINUOUS
62
7
370
0
100
AcDbLine
10
-50
20
1400
11
-50
21
1440
0
SOLID
5
86
100
AcDbEntity
8
DIMENSION
6
CONTINUOUS
62
7
370
0
100
AcDbTrace
10
-50
20
1400
30
0
11
-52.6642218097
21
1416
31
0
12
-47.3357781903
22
1416
32
0
13
-47.3357781903
23
1416
33
0
0
SOLID
5
87
100
AcDbEntity
8
DIMENSION
6
CONTINUOUS
62
7
370
0
100
AcDbTrace
10
-50
20
1440
30
0
11
-47.3357781903
21
1424
31
0
12
-52.6642218097
22
1424
32
0
13
-52.6642218097
23
1424
33
0
0
MTEXT
5
88
100
AcDbEntity
8
DIMENSION
6
CONTINUOUS
62
7
370
0
100
AcDbMText
10
-70
20
1420
30
0
40
24
41
32
71
5
72
1
1
40
7
standard
210
0
220
0
230
1
50
90
73
2
44
1
0
LINE
5
89
100
AcDbEntity
8
DIMENSION
6
CONTINUOUS
62
7
370
0
100
AcDbLine
10
-30.05
20
1400
11
-50.2
21
1400
0
LINE
5
8A
100
AcDbEntity
8
DIMENSION
6
CONTINUOUS
62
7
370
0
100
AcDbLine
10
-30.05
20
1440
11
-50.2
21
1440
0
ENDBLK
5
5A
330
58
100
AcDbEntity
8
0
100
AcDbBlockEnd
0
BLOCK
5
5C
330
5B
100
AcDbEntity
8
0
100
AcDbBlockBegin
2
*D8
70
1
10
0
20
0
3
*D8
1

0
LINE
5
8B
100
AcDbEntity
8
DIMENSION
6
CONTINUOUS
62
7
370
0
100
AcDbLine
10
736
20
1360
11
1086
21
1360
0
SOLID
5
8C
100
AcDbEntity
8
DIMENSION
6
CONTINUOUS
62
7
370
0
100
AcDbTrace
10
736
20
1360
30
0
11
752
21
1362.66422181
31
0
12
752
22
1357.33577819
32
0
13
752
23
1357.33577819
33
0
0
SOLID
5
8D
100
AcDbEntity
8
DIMENSION
6
CONTINUOUS
62
7
370
0
100
AcDbTrace
10
1086
20
1360
30
0
11
1070
21
1357.33577819
31
0
12
1070
22
1362.66422181
32
0
13
1070
23
1362.66422181
33
0
0
MTEXT
5
8E
100
AcDbEntity
8
DIMENSION
6
CONTINUOUS
62
7
370
0
100
AcDbMText
10
911
20
1340
30
0
40
24
41
48
71
5
72
1
1
350
7
standard
210
0
220
0
230
1
50
0
73
2
44
1
0
LINE
5
8F
100
AcDbEntity
8
DIMENSION
6
CONTINUOUS
62
7
370
0
100
AcDbLine
10
736
20
1379.95
11
736
21
1359.8
0
LINE
5
90
100
AcDbEntity
8
DIMENSION
6
CONTINUOUS
62
7
370
0
100
AcDbLine
10
1086
20
1379.95
11
1086
21
1359.8
0
ENDBLK
5
5D
330
5B
100
AcDbEntity
8
0
100
AcDbBlockEnd
0
BLOCK
5
5F
330
5E
100
AcDbEntity
8
0
100
AcDbBlockBegin
2
*D1
70
1
10
0
20
0
3
*D1
1

0
LINE
5
91
100
AcDbEntity
8
DIMENSION
6
CONTINUOUS
62
7
370
0
100
AcDbLine
10
1300
20
0
11
1300
21
1196
0
SOLID
5
92
100
AcDbEntity
8
DIMENSION
6
CONTINUOUS
62
7
370
0
100
AcDbTrace
10
1300
20
0
30
0
11
1297.33577819
21
16
31
0
12
1302.66422181
22
16
32
0
13
1302.66422181
23
16
33
0
0
SOLID
5
93
100
AcDbEntity
8
DIMENSION
6
CONTINUOUS
62
7
370
0
100
AcDbTrace
10
1300
20
1196
30
0
11
1302.66422181
21
1180
31
0
12
1297.33577819
22
1180
32
0
13
1297.33577819
23
1180
33
0
0
MTEXT
5
94
100
AcDbEntity
8
DIMENSION
6
CONTINUOUS
62
7
370
0
100
AcDbMText
10
1320
20
600
30
0
40
24
41
56
71
5
72
1
1
1196
7
standard
210
0
220
0
230
1
50
90
73
2
44
1
0
LINE
5
95
100
AcDbEntity
8
DIMENSION
6
CONTINUOUS
62
7
370
0
100
AcDbLine
10
1200.05
20
0
11
1300.2
21
0
0
LINE
5
96
100
AcDbEntity
8
DIMENSION
6
CONTINUOUS
62
7
370
0
100
AcDbLine
10
1200.05
20
1196
11
1300.2
21
1196
0
ENDBLK
5
60
330
5E
100
AcDbEntity
8
0
100
AcDbBlockEnd
0
BLOCK
5
62
330
61
100
AcDbEntity
8
0
100
AcDbBlockBegin
2
*D7
70
1
10
0
20
0
3
*D7
1

0
LINE
5
97
100
AcDbEntity
8
DIMENSION
6
CONTINUOUS
62
7
370
0
100
AcDbLine
10
386
20
1360
11
736
21
1360
0
SOLID
5
98
100
AcDbEntity
8
DIMENSION
6
CONTINUOUS
62
7
370
0
100
AcDbTrace
10
386
20
1360
30
0
11
402
21
1362.66422181
31
0
12
402
22
1357.33577819
32
0
13
402
23
1357.33577819
33
0
0
SOLID
5
99
100
AcDbEntity
8
DIMENSION
6
CONTINUOUS
62
7
370
0
100
AcDbTrace
10
736
20
1360
30
0
11
720
21
1357.33577819
31
0
12
720
22
1362.66422181
32
0
13
720
23
1362.66422181
33
0
0
MTEXT
5
9A
100
AcDbEntity
8
DIMENSION
6
CONTINUOUS
62
7
370
0
100
AcDbMText
10
561
20
1340
30
0
40
24
41
48
71
5
72
1
1
350
7
standard
210
0
220
0
230
1
50
0
73
2
44
1
0
LINE
5
9B
100
AcDbEntity
8
DIMENSION
6
CONTINUOUS
62
7
370
0
100
AcDbLine
10
386
20
1379.95
11
386
21
1359.8
0
LINE
5
9C
100
AcDbEntity
8
DIMENSION
6
CONTINUOUS
62
7
370
0
100
AcDbLine
10
736
20
1379.95
11
736
21
1359.8
0
ENDBLK
5
63
330
61
100
AcDbEntity
8
0
100
AcDbBlockEnd
0
BLOCK
5
65
330
64
100
AcDbEntity
8
0
100
AcDbBlockBegin
2
TITLE_BLOCK
70
0
10
0
20
0
3
TITLE_BLOCK
1

0
LINE
5
9D
100
AcDbEntity
8
LAYOUT_BLOCK
6
ByLayer
62
256
370
-1
100
AcDbLine
10
0
20
8.66141732283
11
0
21
0
0
LINE
5
9E
100
AcDbEntity
8
LAYOUT_BLOCK
6
ByLayer
62
256
370
-1
100
AcDbLine
10
0.196850393701
20
8.46456692913
11
0.196850393701
21
0.196850393701
0
LINE
5
9F
100
AcDbEntity
8
LAYOUT_BLOCK
6
ByLayer
62
256
370
-1
100
AcDbLine
10
11.8897637795
20
0.196850393701
11
11.8897637795
21
8.46456692913
0
LINE
5
A0
100
AcDbEntity
8
LAYOUT_BLOCK
6
ByLayer
62
256
370
-1
100
AcDbLine
10
12.0866141732
20
0
11
12.0866141732
21
8.66141732283
0
LINE
5
A1
100
AcDbEntity
8
LAYOUT_BLOCK
6
ByLayer
62
256
370
-1
100
AcDbLine
10
0.196850393701
20
0.196850393701
11
11.8897637795
21
0.196850393701
0
LINE
5
A2
100
AcDbEntity
8
LAYOUT_BLOCK
6
ByLayer
62
256
370
-1
100
AcDbLine
10
0
20
0
11
12.0866141732
21
0
0
LINE
5
A3
100
AcDbEntity
8
LAYOUT_BLOCK
6
ByLayer
62
256
370
-1
100
AcDbLine
10
12.0866141732
20
8.66141732283
11
0
21
8.66141732283
0
LINE
5
A4
100
AcDbEntity
8
LAYOUT_BLOCK
6
ByLayer
62
256
370
-1
100
AcDbLine
10
11.8897637795
20
8.46456692913
11
0.196850393701
21
8.46456692913
0
LINE
5
A5
100
AcDbEntity
8
LAYOUT_BLOCK
6
ByLayer
62
256
370
-1
100
AcDbLine
10
1.65846456693
20
8.46456692913
11
1.65846456693
21
8.66141732283
0
LINE
5
A6
100
AcDbEntity
8
LAYOUT_BLOCK
6
ByLayer
62
256
370
-1
100
AcDbLine
10
3.12007874016
20
8.46456692913
11
3.12007874016
21
8.66141732283
0
LINE
5
A7
100
AcDbEntity
8
LAYOUT_BLOCK
6
ByLayer
62
256
370
-1
100
AcDbLine
10
4.58169291339
20
8.46456692913
11
4.58169291339
21
8.66141732283
0
LINE
5
A8
100
AcDbEntity
8
LAYOUT_BLOCK
6
ByLayer
62
256
370
-1
100
AcDbLine
10
6.04330708661
20
8.46456692913
11
6.04330708661
21
8.66141732283
0
LINE
5
A9
100
AcDbEntity
8
LAYOUT_BLOCK
6
ByLayer
62
256
370
-1
100
AcDbLine
10
7.50492125984
20
8.46456692913
11
7.50492125984
21
8.66141732283
0
LINE
5
AA
100
AcDbEntity
8
LAYOUT_BLOCK
6
ByLayer
62
256
370
-1
100
AcDbLine
10
8.96653543307
20
8.46456692913
11
8.96653543307
21
8.66141732283
0
LINE
5
AB
100
AcDbEntity
8
LAYOUT_BLOCK
6
ByLayer
62
256
370
-1
100
AcDbLine
10
10.4281496063
20
8.46456692913
11
10.4281496063
21
8.66141732283
0
LINE
5
AC
100
AcDbEntity
8
LAYOUT_BLOCK
6
ByLayer
62
256
370
-1
100
AcDbLine
10
0.196850393701
20
4.33070866142
11
0
21
4.33070866142
0
LINE
5
AD
100
AcDbEntity
8
LAYOUT_BLOCK
6
ByLayer
62
256
370
-1
100
AcDbLine
10
0.196850393701
20
5.36417322835
11
0
21
5.36417322835
0
LINE
5
AE
100
AcDbEntity
8
LAYOUT_BLOCK
6
ByLayer
62
256
370
-1
100
AcDbLine
10
0.196850393701
20
6.39763779528
11
0
21
6.39763779528
0
LINE
5
AF
100
AcDbEntity
8
LAYOUT_BLOCK
6
ByLayer
62
256
370
-1
100
AcDbLine
10
0.196850393701
20
7.4311023622
11
0
21
7.4311023622
0
LINE
5
B0
100
AcDbEntity
8
LAYOUT_BLOCK
6
ByLayer
62
256
370
-1
100
AcDbLine
10
0.196850393701
20
3.29724409449
11
0
21
3.29724409449
0
LINE
5
B1
100
AcDbEntity
8
LAYOUT_BLOCK
6
ByLayer
62
256
370
-1
100
AcDbLine
10
0.196850393701
20
2.26377952756
11
0
21
2.26377952756
0
LINE
5
B2
100
AcDbEntity
8
LAYOUT_BLOCK
6
ByLayer
62
256
370
-1
100
AcDbLine
10
0.196850393701
20
1.23031496063
11
0
21
1.23031496063
0
TEXT
5
B3
100
AcDbEntity
8
LAYOUT_BLOCK
6
ByLayer
62
256
370
-1
100
AcDbText
10
0.0984251968504
20
0.713582677165
30
0
40
0.11811023622
1
A
50
0
41
1
51
0
7
standard
71
0
72
1
11
0.0984251968504
21
0.713582677165
31
0
210
0
220
0
230
1
100
AcDbText
73
2
0
TEXT
5
B4
100
AcDbEntity
8
LAYOUT_BLOCK
6
ByLayer
62
256
370
-1
100
AcDbText
10
0.0984251968504
20
1.74704724409
30
0
40
0.11811023622
1
B
50
0
41
1
51
0
7
standard
71
0
72
1
11
0.0984251968504
21
1.74704724409
31
0
210
0
220
0
230
1
100
AcDbText
73
2
0
TEXT
5
B5
100
AcDbEntity
8
LAYOUT_BLOCK
6
ByLayer
62
256
370
-1
100
AcDbText
10
0.0984251968504
20
2.78051181102
30
0
40
0.11811023622
1
C
50
0
41
1
51
0
7
standard
71
0
72
1
11
0.0984251968504
21
2.78051181102
31
0
210
0
220
0
230
1
100
AcDbText
73
2
0
TEXT
5
B6
100
AcDbEntity
8
LAYOUT_BLOCK
6
ByLayer
62
256
370
-1
100
AcDbText
10
0.0984251968504
20
3.81397637795
30
0
40
0.11811023622
1
D
50
0
41
1
51
0
7
standard
71
0
72
1
11
0.0984251968504
21
3.81397637795
31
0
210
0
220
0
230
1
100
AcDbText
73
2
0
TEXT
5
B7
100
AcDbEntity
8
LAYOUT_BLOCK
6
ByLayer
62
256
370
-1
100
AcDbText
10
0.0984251968504
20
4.84744094488
30
0
40
0.11811023622
1
E
50
0
41
1
51
0
7
standard
71
0
72
1
11
0.0984251968504
21
4.84744094488
31
0
210
0
220
0
230
1
100
AcDbText
73
2
0
TEXT
5
B8
100
AcDbEntity
8
LAYOUT_BLOCK
6
ByLayer
62
256
370
-1
100
AcDbText
10
0.0984251968504
20
5.88090551181
30
0
40
0.11811023622
1
F
50
0
41
1
51
0
7
standard
71
0
72
1
11
0.0984251968504
21
5.88090551181
31
0
210
0
220
0
230
1
100
AcDbText
73
2
0
TEXT
5
B9
100
AcDbEntity
8
LAYOUT_BLOCK
6
ByLayer
62
256
370
-1
100
AcDbText
10
0.0984251968504
20
6.91437007874
30
0
40
0.11811023622
1
G
50
0
41
1
51
0
7
standard
71
0
72
1
11
0.0984251968504
21
6.91437007874
31
0
210
0
220
0
230
1
100
AcDbText
73
2
0
TEXT
5
BA
100
AcDbEntity
8
LAYOUT_BLOCK
6
ByLayer
62
256
370
-1
100
AcDbText
10
0.0984251968504
20
7.94783464567
30
0
40
0.11811023622
1
H
50
0
41
1
51
0
7
standard
71
0
72
1
11
0.0984251968504
21
7.94783464567
31
0
210
0
220
0
230
1
100
AcDbText
73
2
0
TEXT
5
BB
100
AcDbEntity
8
LAYOUT_BLOCK
6
ByLayer
62
256
370
-1
100
AcDbText
10
0.927657480315
20
8.56299212598
30
0
40
0.11811023622
1
1
50
0
41
1
51
0
7
standard
71
0
72
1
11
0.927657480315
21
8.56299212598
31
0
210
0
220
0
230
1
100
AcDbText
73
2
0
TEXT
5
BC
100
AcDbEntity
8
LAYOUT_BLOCK
6
ByLayer
62
256
370
-1
100
AcDbText
10
2.38927165354
20
8.56299212598
30
0
40
0.11811023622
1
2
50
0
41
1
51
0
7
standard
71
0
72
1
11
2.38927165354
21
8.56299212598
31
0
210
0
220
0
230
1
100
AcDbText
73
2
0
TEXT
5
BD
100
AcDbEntity
8
LAYOUT_BLOCK
6
ByLayer
62
256
370
-1
100
AcDbText
10
3.85088582677
20
8.56299212598
30
0
40
0.11811023622
1
3
50
0
41
1
51
0
7
standard
71
0
72
1
11
3.85088582677
21
8.56299212598
31
0
210
0
220
0
230
1
100
AcDbText
73
2
0
TEXT
5
BE
100
AcDbEntity
8
LAYOUT_BLOCK
6
ByLayer
62
256
370
-1
100
AcDbText
10
5.3125
20
8.56299212598
30
0
40
0.11811023622
1
4
50
0
41
1
51
0
7
standard
71
0
72
1
11
5.3125
21
8.56299212598
31
0
210
0
220
0
230
1
100
AcDbText
73
2
0
TEXT
5
BF
100
AcDbEntity
8
LAYOUT_BLOCK
6
ByLayer
62
256
370
-1
100
AcDbText
10
6.77411417323
20
8.56299212598
30
0
40
0.11811023622
1
5
50
0
41
1
51
0
7
standard
71
0
72
1
11
6.77411417323
21
8.56299212598
31
0
210
0
220
0
230
1
100
AcDbText
73
2
0
TEXT
5
C0
100
AcDbEntity
8
LAYOUT_BLOCK
6
ByLayer
62
256
370
-1
100
AcDbText
10
8.23572834646
20
8.56299212598
30
0
40
0.11811023622
1
6
50
0
41
1
51
0
7
standard
71
0
72
1
11
8.23572834646
21
8.56299212598
31
0
210
0
220
0
230
1
100
AcDbText
73
2
0
TEXT
5
C1
100
AcDbEntity
8
LAYOUT_BLOCK
6
ByLayer
62
256
370
-1
100
AcDbText
10
9.69734251969
20
8.56299212598
30
0
40
0.11811023622
1
7
50
0
41
1
51
0
7
standard
71
0
72
1
11
9.69734251969
21
8.56299212598
31
0
210
0
220
0
230
1
100
AcDbText
73
2
0
TEXT
5
C2
100
AcDbEntity
8
LAYOUT_BLOCK
6
ByLayer
62
256
370
-1
100
AcDbText
10
11.1589566929
20
8.56299212598
30
0
40
0.11811023622
1
8
50
0
41
1
51
0
7
standard
71
0
72
1
11
11.1589566929
21
8.56299212598
31
0
210
0
220
0
230
1
100
AcDbText
73
2
0
LINE
5
C3
100
AcDbEntity
8
LAYOUT_BLOCK
6
ByLayer
62
256
370
-1
100
AcDbLine
10
12.0866141732
20
4.33070866142
11
11.8897637795
21
4.33070866142
0
LINE
5
C4
100
AcDbEntity
8
LAYOUT_BLOCK
6
ByLayer
62
256
370
-1
100
AcDbLine
10
12.0866141732
20
5.36417322835
11
11.8897637795
21
5.36417322835
0
LINE
5
C5
100
AcDbEntity
8
LAYOUT_BLOCK
6
ByLayer
62
256
370
-1
100
AcDbLine
10
12.0866141732
20
6.39763779528
11
11.8897637795
21
6.39763779528
0
LINE
5
C6
100
AcDbEntity
8
LAYOUT_BLOCK
6
ByLayer
62
256
370
-1
100
AcDbLine
10
12.0866141732
20
7.4311023622
11
11.8897637795
21
7.4311023622
0
LINE
5
C7
100
AcDbEntity
8
LAYOUT_BLOCK
6
ByLayer
62
256
370
-1
100
AcDbLine
10
12.0866141732
20
3.29724409449
11
11.8897637795
21
3.29724409449
0
LINE
5
C8
100
AcDbEntity
8
LAYOUT_BLOCK
6
ByLayer
62
256
370
-1
100
AcDbLine
10
12.0866141732
20
2.26377952756
11
11.8897637795
21
2.26377952756
0
LINE
5
C9
100
AcDbEntity
8
LAYOUT_BLOCK
6
ByLayer
62
256
370
-1
100
AcDbLine
10
12.0866141732
20
1.23031496063
11
11.8897637795
21
1.23031496063
0
TEXT
5
CA
100
AcDbEntity
8
LAYOUT_BLOCK
6
ByLayer
62
256
370
-1
100
AcDbText
10
11.9881889764
20
0.713582677165
30
0
40
0.11811023622
1
A
50
0
41
1
51
0
7
standard
71
0
72
1
11
11.9881889764
21
0.713582677165
31
0
210
0
220
0
230
1
100
AcDbText
73
2
0
TEXT
5
CB
100
AcDbEntity
8
LAYOUT_BLOCK
6
ByLayer
62
256
370
-1
100
AcDbText
10
11.9881889764
20
1.74704724409
30
0
40
0.11811023622
1
B
50
0
41
1
51
0
7
standard
71
0
72
1
11
11.9881889764
21
1.74704724409
31
0
210
0
220
0
230
1
100
AcDbText
73
2
0
TEXT
5
CC
100
AcDbEntity
8
LAYOUT_BLOCK
6
ByLayer
62
256
370
-1
100
AcDbText
10
11.9881889764
20
2.78051181102
30
0
40
0.11811023622
1
C
50
0
41
1
51
0
7
standard
71
0
72
1
11
11.9881889764
21
2.78051181102
31
0
210
0
220
0
230
1
100
AcDbText
73
2
0
TEXT
5
CD
100
AcDbEntity
8
LAYOUT_BLOCK
6
ByLayer
62
256
370
-1
100
AcDbText
10
11.9881889764
20
3.81397637795
30
0
40
0.11811023622
1
D
50
0
41
1
51
0
7
standard
71
0
72
1
11
11.9881889764
21
3.81397637795
31
0
210
0
220
0
230
1
100
AcDbText
73
2
0
TEXT
5
CE
100
AcDbEntity
8
LAYOUT_BLOCK
6
ByLayer
62
256
370
-1
100
AcDbText
10
11.9881889764
20
4.84744094488
30
0
40
0.11811023622
1
E
50
0
41
1
51
0
7
standard
71
0
72
1
11
11.9881889764
21
4.84744094488
31
0
210
0
220
0
230
1
100
AcDbText
73
2
0
TEXT
5
CF
100
AcDbEntity
8
LAYOUT_BLOCK
6
ByLayer
62
256
370
-1
100
AcDbText
10
11.9881889764
20
5.88090551181
30
0
40
0.11811023622
1
F
50
0
41
1
51
0
7
standard
71
0
72
1
11
11.9881889764
21
5.88090551181
31
0
210
0
220
0
230
1
100
AcDbText
73
2
0
TEXT
5
D0
100
AcDbEntity
8
LAYOUT_BLOCK
6
ByLayer
62
256
370
-1
100
AcDbText
10
11.9881889764
20
6.91437007874
30
0
40
0.11811023622
1
G
50
0
41
1
51
0
7
standard
71
0
72
1
11
11.9881889764
21
6.91437007874
31
0
210
0
220
0
230
1
100
AcDbText
73
2
0
TEXT
5
D1
100
AcDbEntity
8
LAYOUT_BLOCK
6
ByLayer
62
256
370
-1
100
AcDbText
10
11.9881889764
20
7.94783464567
30
0
40
0.11811023622
1
H
50
0
41
1
51
0
7
standard
71
0
72
1
11
11.9881889764
21
7.94783464567
31
0
210
0
220
0
230
1
100
AcDbText
73
2
0
LINE
5
D2
100
AcDbEntity
8
LAYOUT_BLOCK
6
ByLayer
62
256
370
-1
100
AcDbLine
10
1.65846456693
20
0
11
1.65846456693
21
0.196850393701
0
LINE
5
D3
100
AcDbEntity
8
LAYOUT_BLOCK
6
ByLayer
62
256
370
-1
100
AcDbLine
10
3.12007874016
20
0
11
3.12007874016
21
0.196850393701
0
LINE
5
D4
100
AcDbEntity
8
LAYOUT_BLOCK
6
ByLayer
62
256
370
-1
100
AcDbLine
10
4.58169291339
20
0
11
4.58169291339
21
0.196850393701
0
LINE
5
D5
100
AcDbEntity
8
LAYOUT_BLOCK
6
ByLayer
62
256
370
-1
100
AcDbLine
10
6.04330708661
20
0
11
6.04330708661
21
0.196850393701
0
LINE
5
D6
100
AcDbEntity
8
LAYOUT_BLOCK
6
ByLayer
62
256
370
-1
100
AcDbLine
10
7.50492125984
20
0
11
7.50492125984
21
0.196850393701
0
LINE
5
D7
100
AcDbEntity
8
LAYOUT_BLOCK
6
ByLayer
62
256
370
-1
100
AcDbLine
10
8.96653543307
20
0
11
8.96653543307
21
0.196850393701
0
LINE
5
D8
100
AcDbEntity
8
LAYOUT_BLOCK
6
ByLayer
62
256
370
-1
100
AcDbLine
10
10.4281496063
20
0
11
10.4281496063
21
0.196850393701
0
TEXT
5
D9
100
AcDbEntity
8
LAYOUT_BLOCK
6
ByLayer
62
256
370
-1
100
AcDbText
10
0.927657480315
20
0.0984251968504
30
0
40
0.11811023622
1
1
50
0
41
1
51
0
7
standard
71
0
72
1
11
0.927657480315
21
0.0984251968504
31
0
210
0
220
0
230
1
100
AcDbText
73
2
0
TEXT
5
DA
100
AcDbEntity
8
LAYOUT_BLOCK
6
ByLayer
62
256
370
-1
100
AcDbText
10
2.38927165354
20
0.0984251968504
30
0
40
0.11811023622
1
2
50
0
41
1
51
0
7
standard
71
0
72
1
11
2.38927165354
21
0.0984251968504
31
0
210
0
220
0
230
1
100
AcDbText
73
2
0
TEXT
5
DB
100
AcDbEntity
8
LAYOUT_BLOCK
6
ByLayer
62
256
370
-1
100
AcDbText
10
3.85088582677
20
0.0984251968504
30
0
40
0.11811023622
1
3
50
0
41
1
51
0
7
standard
71
0
72
1
11
3.85088582677
21
0.0984251968504
31
0
210
0
220
0
230
1
100
AcDbText
73
2
0
TEXT
5
DC
100
AcDbEntity
8
LAYOUT_BLOCK
6
ByLayer
62
256
370
-1
100
AcDbText
10
5.3125
20
0.0984251968504
30
0
40
0.11811023622
1
4
50
0
41
1
51
0
7
standard
71
0
72
1
11
5.3125
21
0.0984251968504
31
0
210
0
220
0
230
1
100
AcDbText
73
2
0
TEXT
5
DD
100
AcDbEntity
8
LAYOUT_BLOCK
6
ByLayer
62
256
370
-1
100
AcDbText
10
6.77411417323
20
0.0984251968504
30
0
40
0.11811023622
1
5
50
0
41
1
51
0
7
standard
71
0
72
1
11
6.77411417323
21
0.0984251968504
31
0
210
0
220
0
230
1
100
AcDbText
73
2
0
TEXT
5
DE
100
AcDbEntity
8
LAYOUT_BLOCK
6
ByLayer
62
256
370
-1
100
AcDbText
10
8.23572834646
20
0.0984251968504
30
0
40
0.11811023622
1
6
50
0
41
1
51
0
7
standard
71
0
72
1
11
8.23572834646
21
0.0984251968504
31
0
210
0
220
0
230
1
100
AcDbText
73
2
0
TEXT
5
DF
100
AcDbEntity
8
LAYOUT_BLOCK
6
ByLayer
62
256
370
-1
100
AcDbText
10
9.69734251969
20
0.0984251968504
30
0
40
0.11811023622
1
7
50
0
41
1
51
0
7
standard
71
0
72
1
11
9.69734251969
21
0.0984251968504
31
0
210
0
220
0
230
1
100
AcDbText
73
2
0
TEXT
5
E0
100
AcDbEntity
8
LAYOUT_BLOCK
6
ByLayer
62
256
370
-1
100
AcDbText
10
11.1589566929
20
0.0984251968504
30
0
40
0.11811023622
1
8
50
0
41
1
51
0
7
standard
71
0
72
1
11
11.1589566929
21
0.0984251968504
31
0
210
0
220
0
230
1
100
AcDbText
73
2
0
LINE
5
E1
100
AcDbEntity
8
LAYOUT_BLOCK
6
ByLayer
62
256
370
-1
100
AcDbLine
10
7.95275590551
20
0.196850393701
11
7.95275590551
21
0.984251968504
0
TEXT
5
E2
100
AcDbEntity
8
LAYOUT_BLOCK
6
ByLayer
62
256
370
-1
100
AcDbText
10
7.99212598425
20
0.944881889764
30
0
40
0.0787401574803
1
TITLE:
50
0
41
1
51
0
7
standard
71
0
11
7.99212598425
21
0.944881889764
31
0
210
0
220
0
230
1
100
AcDbText
73
3
0
TEXT
5
E3
100
AcDbEntity
8
LAYOUT_BLOCK
6
ByLayer
62
256
370
-1
100
AcDbText
10
7.99212598425
20
0.551181102362
30
0
40
0.0787401574803
1
PART:
50
0
41
1
51
0
7
standard
71
0
11
7.99212598425
21
0.551181102362
31
0
210
0
220
0
230
1
100
AcDbText
73
3
0
LINE
5
E4
100
AcDbEntity
8
LAYOUT_BLOCK
6
ByLayer
62
256
370
-1
100
AcDbLine
10
5.1968503937
20
0.984251968504
11
5.1968503937
21
0.196850393701
0
LINE
5
E5
100
AcDbEntity
8
LAYOUT_BLOCK
6
ByLayer
62
256
370
-1
100
AcDbLine
10
5.1968503937
20
0.590551181102
11
11.8897637795
21
0.590551181102
0
TEXT
5
E6
100
AcDbEntity
8
LAYOUT_BLOCK
6
ByLayer
62
256
370
-1
100
AcDbText
10
5.23622047244
20
0.944881889764
30
0
40
0.0787401574803
1
MATERIAL:
50
0
41
1
51
0
7
standard
71
0
11
5.23622047244
21
0.944881889764
31
0
210
0
220
0
230
1
100
AcDbText
73
3
0
TEXT
5
E7
100
AcDbEntity
8
LAYOUT_BLOCK
6
ByLayer
62
256
370
-1
100
AcDbText
10
5.23622047244
20
0.551181102362
30
0
40
0.0787401574803
1
FINISHING:
50
0
41
1
51
0
7
standard
71
0
11
5.23622047244
21
0.551181102362
31
0
210
0
220
0
230
1
100
AcDbText
73
3
0
LINE
5
E8
100
AcDbEntity
8
LAYOUT_BLOCK
6
ByLayer
62
256
370
-1
100
AcDbLine
10
0.196850393701
20
0.984251968504
11
11.887496063
21
0.981530708665
0
LINE
5
E9
100
AcDbEntity
8
LAYOUT_BLOCK
6
ByLayer
62
256
370
-1
100
AcDbLine
10
10.7086614173
20
8.46456692913
11
10.7086614173
21
8.07086614173
0
LINE
5
EA
100
AcDbEntity
8
LAYOUT_BLOCK
6
ByLayer
62
256
370
-1
100
AcDbLine
10
10.7086614173
20
8.07086614173
11
11.8897637795
21
8.07086614173
0
TEXT
5
EB
100
AcDbEntity
8
LAYOUT_BLOCK
6
ByLayer
62
256
370
-1
100
AcDbText
10
10.7480314961
20
8.42519685039
30
0
40
0.0787401574803
1
REVISION:
50
0
41
1
51
0
7
standard
71
0
11
10.7480314961
21
8.42519685039
31
0
210
0
220
0
230
1
100
AcDbText
73
3
0
ENDBLK
5
66
330
64
100
AcDbEntity
8
0
100
AcDbBlockEnd
0
ENDSEC
0
SECTION
2
ENTITIES
0
LINE
5
EC
100
AcDbEntity
8
0
6
ByLayer
62
256
370
-1
100
AcDbLine
10
-4.16378043155e-012
20
1196
11
-4.14956957684e-012
21
1193
0
LINE
5
ED
100
AcDbEntity
8
0
6
ByLayer
62
256
370
-1
100
AcDbLine
10
-4.14956957684e-012
20
1193
11
1200
21
1193
0
LINE
5
EE
100
AcDbEntity
8
0
6
ByLayer
62
256
370
-1
100
AcDbLine
10
1200
20
1193
11
1200
21
1196
0
LINE
5
EF
100
AcDbEntity
8
0
6
ByLayer
62
256
370
-1
100
AcDbLine
10
1200
20
1196
11
-4.16378043155e-012
21
1196
0
LINE
5
F0
100
AcDbEntity
8
0
6
ByLayer
62
256
370
-1
100
AcDbLine
10
-1.42108547152e-014
20
3
11
0
21
0
0
LINE
5
F1
100
AcDbEntity
8
0
6
ByLayer
62
256
370
-1
100
AcDbLine
10
0
20
0
11
1200
21
0
0
LINE
5
F2
100
AcDbEntity
8
0
6
ByLayer
62
256
370
-1
100
AcDbLine
10
1200
20
0
11
1200
21
3
0
LINE
5
F3
100
AcDbEntity
8
0
6
ByLayer
62
256
370
-1
100
AcDbLine
10
1200
20
3
11
-1.42108547152e-014
21
3
0
LINE
5
F4
100
AcDbEntity
8
0
6
ByLayer
62
256
370
-1
100
AcDbLine
10
-4.14956957684e-012
20
1193
11
-1.42108547152e-014
21
3
0
LINE
5
F5
100
AcDbEntity
8
0
6
ByLayer
62
256
370
-1
100
AcDbLine
10
-1.42108547152e-014
20
3
11
3
21
3
0
LINE
5
F6
100
AcDbEntity
8
0
6
ByLayer
62
256
370
-1
100
AcDbLine
10
3
20
3
11
3
21
1193
0
LINE
5
F7
100
AcDbEntity
8
0
6
ByLayer
62
256
370
-1
100
AcDbLine
10
74.8125
20
1193
11
74.8125
21
3
0
LINE
5
F8
100
AcDbEntity
8
0
6
ByLayer
62
256
370
-1
100
AcDbLine
10
77.8125
20
3
11
77.8125
21
1193
0
LINE
5
F9
100
AcDbEntity
8
0
6
ByLayer
62
256
370
-1
100
AcDbLine
10
149.625
20
1193
11
149.625
21
3
0
LINE
5
FA
100
AcDbEntity
8
0
6
ByLayer
62
256
370
-1
100
AcDbLine
10
152.625
20
3
11
152.625
21
1193
0
LINE
5
FB
100
AcDbEntity
8
0
6
ByLayer
62
256
370
-1
100
AcDbLine
10
224.4375
20
1193
11
224.4375
21
3
0
LINE
5
FC
100
AcDbEntity
8
0
6
ByLayer
62
256
370
-1
100
AcDbLine
10
227.4375
20
3
11
227.4375
21
1193
0
LINE
5
FD
100
AcDbEntity
8
0
6
ByLayer
62
256
370
-1
100
AcDbLine
10
299.25
20
1193
11
299.25
21
3
0
LINE
5
FE
100
AcDbEntity
8
0
6
ByLayer
62
256
370
-1
100
AcDbLine
10
302.25
20
3
11
302.25
21
1193
0
LINE
5
FF
100
AcDbEntity
8
0
6
ByLayer
62
256
370
-1
100
AcDbLine
10
374.0625
20
1193
11
374.0625
21
3
0
LINE
5
100
100
AcDbEntity
8
0
6
ByLayer
62
256
370
-1
100
AcDbLine
10
377.0625
20
3
11
377.0625
21
1193
0
LINE
5
101
100
AcDbEntity
8
0
6
ByLayer
62
256
370
-1
100
AcDbLine
10
448.875
20
1193
11
448.875
21
3
0
LINE
5
102
100
AcDbEntity
8
0
6
ByLayer
62
256
370
-1
100
AcDbLine
10
451.875
20
3
11
451.875
21
1193
0
LINE
5
103
100
AcDbEntity
8
0
6
ByLayer
62
256
370
-1
100
AcDbLine
10
523.6875
20
1193
11
523.6875
21
3
0
LINE
5
104
100
AcDbEntity
8
0
6
ByLayer
62
256
370
-1
100
AcDbLine
10
526.6875
20
3
11
526.6875
21
1193
0
LINE
5
105
100
AcDbEntity
8
0
6
ByLayer
62
256
370
-1
100
AcDbLine
10
598.5
20
1193
11
598.5
21
3
0
LINE
5
106
100
AcDbEntity
8
0
6
ByLayer
62
256
370
-1
100
AcDbLine
10
601.5
20
3
11
601.5
21
1193
0
LINE
5
107
100
AcDbEntity
8
0
6
ByLayer
62
256
370
-1
100
AcDbLine
10
673.3125
20
1193
11
673.3125
21
3
0
LINE
5
108
100
AcDbEntity
8
0
6
ByLayer
62
256
370
-1
100
AcDbLine
10
676.3125
20
3
11
676.3125
21
1193
0
LINE
5
109
100
AcDbEntity
8
0
6
ByLayer
62
256
370
-1
100
AcDbLine
10
748.125
20
1193
11
748.125
21
3
0
LINE
5
10A
100
AcDbEntity
8
0
6
ByLayer
62
256
370
-1
100
AcDbLine
10
751.125
20
3
11
751.125
21
1193
0
LINE
5
10B
100
AcDbEntity
8
0
6
ByLayer
62
256
370
-1
100
AcDbLine
10
822.9375
20
1193
11
822.9375
21
3
0
LINE
5
10C
100
AcDbEntity
8
0
6
ByLayer
62
256
370
-1
100
AcDbLine
10
825.9375
20
3
11
825.9375
21
1193
0
LINE
5
10D
100
AcDbEntity
8
0
6
ByLayer
62
256
370
-1
100
AcDbLine
10
897.75
20
1193
11
897.75
21
3
0
LINE
5
10E
100
AcDbEntity
8
0
6
ByLayer
62
256
370
-1
100
AcDbLine
10
900.75
20
3
11
900.75
21
1193
0
LINE
5
10F
100
AcDbEntity
8
0
6
ByLayer
62
256
370
-1
100
AcDbLine
10
972.5625
20
1193
11
972.5625
21
3
0
LINE
5
110
100
AcDbEntity
8
0
6
ByLayer
62
256
370
-1
100
AcDbLine
10
975.5625
20
3
11
975.5625
21
1193
0
LINE
5
111
100
AcDbEntity
8
0
6
ByLayer
62
256
370
-1
100
AcDbLine
10
1047.375
20
1193
11
1047.375
21
3
0
LINE
5
112
100
AcDbEntity
8
0
6
ByLayer
62
256
370
-1
100
AcDbLine
10
1050.375
20
3
11
1050.375
21
1193
0
LINE
5
113
100
AcDbEntity
8
0
6
ByLayer
62
256
370
-1
100
AcDbLine
10
1122.1875
20
1193
11
1122.1875
21
3
0
LINE
5
114
100
AcDbEntity
8
0
6
ByLayer
62
256
370
-1
100
AcDbLine
10
1125.1875
20
3
11
1125.1875
21
1193
0
LINE
5
115
100
AcDbEntity
8
0
6
ByLayer
62
256
370
-1
100
AcDbLine
10
1197
20
1193
11
1197
21
3
0
LINE
5
116
100
AcDbEntity
8
0
6
ByLayer
62
256
370
-1
100
AcDbLine
10
1200
20
3
11
1200
21
1193
0
DIMENSION
5
117
100
AcDbEntity
8
DIMENSION
6
ByLayer
62
256
370
-1
100
AcDbDimension
2
*D1
10
1300
20
1196
30
0
11
1320
21
600
31
0
70
32
71
5
3
Standard
53
0
210
0
220
0
230
1
100
AcDbAlignedDimension
13
1200
23
0
33
0
14
1200
24
1196
34
0
50
90
100
AcDbRotatedDimension
0
TEXT
5
118
100
AcDbEntity
8
LAYOUT_TEXT
6
ByLayer
62
256
370
-1
100
AcDbText
10
2056.68056003
20
1671.87372724
30
0
40
19.2074916
1
001 - 10/03/14
50
0
41
1
51
0
7
standard
71
0
72
1
11
2056.68056003
21
1671.87372724
31
0
210
0
220
0
230
1
100
AcDbText
73
2
0
TEXT
5
119
100
AcDbEntity
8
LAYOUT_TEXT
6
ByLayer
62
256
370
-1
100
AcDbText
10
-114.171332677
20
-135.692032754
30
0
40
38.4151181102
1
FLAMECUT CNC PLASMA TABLE
50
0
41
1
51
0
7
standard
71
0
72
1
11
-114.171332677
21
-135.692032754
31
0
210
0
220
0
230
1
100
AcDbText
73
2
0
TEXT
5
11A
100
AcDbEntity
8
LAYOUT_TEXT
6
ByLayer
62
256
370
-1
100
AcDbText
10
-117.9841612
20
-215.172335898
30
0
40
28.8113385826
1
http://flamecut.marcelodelnero.com.br
50
0
41
1
51
0
7
standard
71
0
72
1
11
-117.9841612
21
-215.172335898
31
0
210
0
220
0
230
1
100
AcDbText
73
2
0
INSERT
5
11B
100
AcDbEntity
8
LAYOUT_BLOCK
6
ByLayer
62
256
370
-1
100
AcDbBlockReference
2
TITLE_BLOCK
10
-749.432665136
20
-332.218398891
30
0
41
243.936
42
243.936
43
0
50
0
70
1
71
1
44
243.936
45
243.936
0
TEXT
5
11C
100
AcDbEntity
8
LAYOUT_TEXT
6
ByLayer
62
256
370
-1
100
AcDbText
10
1712.63373783
20
-138.092977635
30
0
40
38.415168
1
SLAT SUPPORT
50
0
41
1
51
0
7
standard
71
0
72
1
11
1712.63373783
21
-138.092977635
31
0
210
0
220
0
230
1
100
AcDbText
73
2
0
TEXT
5
11D
100
AcDbEntity
8
LAYOUT_TEXT
6
ByLayer
62
256
370
-1
100
AcDbText
10
1717.07221935
20
-230.784042904
30
0
40
38.415168
1
SLAT_SUPPORT
50
0
41
1
51
0
7
standard
71
0
72
1
11
1717.07221935
21
-230.784042904
31
0
210
0
220
0
230
1
100
AcDbText
73
2
0
TEXT
5
11E
100
AcDbEntity
8
LAYOUT_TEXT
6
ByLayer
62
256
370
-1
100
AcDbText
10
864.549047571
20
-147.809972666
30
0
40
19.207452
1
3mm MILD STEEL SHEET
50
0
41
1
51
0
7
standard
71
0
72
1
11
864.549047571
21
-147.809972666
31
0
210
0
220
0
230
1
100
AcDbText
73
2
0
TEXT
5
11F
100
AcDbEntity
8
LAYOUT_TEXT
6
ByLayer
62
256
370
-1
100
AcDbText
10
844.943266514
20
-230.778160111
30
0
40
19.2074916
1
POWDER COATING
50
0
41
1
51
0
7
standard
71
0
72
1
11
844.943266514
21
-230.778160111
31
0
210
0
220
0
230
1
100
AcDbText
73
2
0
LINE
5
120
100
AcDbEntity
8
0
6
ByLayer
62
256
370
-1
100
AcDbLine
10
1200
20
1400
11
0
21
1400
0
LINE
5
121
100
AcDbEntity
8
0
6
ByLayer
62
256
370
-1
100
AcDbLine
10
0
20
1400
11
0
21
1440
0
LINE
5
122
100
AcDbEntity
8
0
6
ByLayer
62
256
370
-1
100
AcDbLine
10
0
20
1440
11
1200
21
1440
0
LINE
5
123
100
AcDbEntity
8
0
6
ByLayer
62
256
370
-1
100
AcDbLine
10
1200
20
1440
11
1200
21
1400
0
DIMENSION
5
124
100
AcDbEntity
8
DIMENSION
6
ByLayer
62
256
370
-1
100
AcDbDimension
2
*D2
10
1200
20
1490
30
0
11
600
21
1502.09
31
0
70
32
71
5
3
Standard
53
0
210
0
220
0
230
1
100
AcDbAlignedDimension
13
0
23
1460
33
0
14
1200
24
1460
34
0
100
AcDbRotatedDimension
0
CIRCLE
5
125
100
AcDbEntity
8
0
6
ByLayer
62
256
370
-1
100
AcDbCircle
10
36
20
1420
40
4
0
CIRCLE
5
126
100
AcDbEntity
8
0
6
ByLayer
62
256
370
-1
100
AcDbCircle
10
386
20
1420
40
4
0
CIRCLE
5
127
100
AcDbEntity
8
0
6
ByLayer
62
256
370
-1
100
AcDbCircle
10
736
20
1420
40
4
0
CIRCLE
5
128
100
AcDbEntity
8
0
6
ByLayer
62
256
370
-1
100
AcDbCircle
10
1086
20
1420
40
4
0
DIMENSION
5
129
100
AcDbEntity
8
DIMENSION
6
ByLayer
62
256
370
-1
100
AcDbDimension
2
*D3
10
40
20
1450
30
0
11
27.1792043605
21
1466.47316882
31
0
70
32
71
5
3
Standard
53
0
210
0
220
0
230
1
100
AcDbAlignedDimension
13
32
23
1426
33
0
14
40
24
1426
34
0
100
AcDbRotatedDimension
0
DIMENSION
5
12A
100
AcDbEntity
8
DIMENSION
6
ByLayer
62
256
370
-1
100
AcDbDimension
2
*D4
10
-50
20
1440
30
0
11
-70
21
1420
31
0
70
32
71
5
3
Standard
53
0
210
0
220
0
230
1
100
AcDbAlignedDimension
13
-30
23
1400
33
0
14
-30
24
1440
34
0
50
90
100
AcDbRotatedDimension
0
DIMENSION
5
12B
100
AcDbEntity
8
DIMENSION
6
ByLayer
62
256
370
-1
100
AcDbDimension
2
*D5
10
36
20
1360
30
0
11
18
21
1340
31
0
70
32
71
5
3
Standard
53
0
210
0
220
0
230
1
100
AcDbAlignedDimension
13
0
23
1390
33
0
14
36
24
1390
34
0
100
AcDbRotatedDimension
0
DIMENSION
5
12C
100
AcDbEntity
8
DIMENSION
6
ByLayer
62
256
370
-1
100
AcDbDimension
2
*D6
10
386
20
1360
30
0
11
211
21
1340
31
0
70
32
71
5
3
Standard
53
0
210
0
220
0
230
1
100
AcDbAlignedDimension
13
36
23
1390
33
0
14
386
24
1380
34
0
100
AcDbRotatedDimension
0
DIMENSION
5
12D
100
AcDbEntity
8
DIMENSION
6
ByLayer
62
256
370
-1
100
AcDbDimension
2
*D7
10
736
20
1360
30
0
11
561
21
1340
31
0
70
32
71
5
3
Standard
53
0
210
0
220
0
230
1
100
AcDbAlignedDimension
13
386
23
1380
33
0
14
736
24
1380
34
0
100
AcDbRotatedDimension
0
DIMENSION
5
12E
100
AcDbEntity
8
DIMENSION
6
ByLayer
62
256
370
-1
100
AcDbDimension
2
*D8
10
1086
20
1360
30
0
11
911
21
1340
31
0
70
32
71
5
3
Standard
53
0
210
0
220
0
230
1
100
AcDbAlignedDimension
13
736
23
1380
33
0
14
1086
24
1380
34
0
100
AcDbRotatedDimension
0
DIMENSION
5
12F
100
AcDbEntity
8
DIMENSION
6
ByLayer
62
256
370
-1
100
AcDbDimension
2
*D9
10
1200
20
1360
30
0
11
1140
21
1340
31
0
70
32
71
5
3
Standard
53
0
210
0
220
0
230
1
100
AcDbAlignedDimension
13
1086
23
1380
33
0
14
1200
24
1380
34
0
100
AcDbRotatedDimension
0
ENDSEC
0
SECTION
2
OBJECTS
0
DICTIONARY
5
C
330
0
100
AcDbDictionary
281
1
3
ACAD_GROUP
350
D
0
DICTIONARY
5
D
330
C
100
AcDbDictionary
281
1
0
ENDSEC
0
EOF
